%TF.GenerationSoftware,KiCad,Pcbnew,5.1.9-73d0e3b20d~88~ubuntu18.04.1*%
%TF.CreationDate,2021-07-10T12:21:25+03:00*%
%TF.ProjectId,Rpi-breakout,5270692d-6272-4656-916b-6f75742e6b69,rev?*%
%TF.SameCoordinates,Original*%
%TF.FileFunction,Paste,Top*%
%TF.FilePolarity,Positive*%
%FSLAX46Y46*%
G04 Gerber Fmt 4.6, Leading zero omitted, Abs format (unit mm)*
G04 Created by KiCad (PCBNEW 5.1.9-73d0e3b20d~88~ubuntu18.04.1) date 2021-07-10 12:21:25*
%MOMM*%
%LPD*%
G01*
G04 APERTURE LIST*
%ADD10R,1.000000X3.000000*%
G04 APERTURE END LIST*
D10*
%TO.C,J101*%
X117630000Y-82270000D03*
X117630000Y-77230000D03*
X115090000Y-82270000D03*
X115090000Y-77230000D03*
X112550000Y-82270000D03*
X112550000Y-77230000D03*
X110010000Y-82270000D03*
X110010000Y-77230000D03*
X107470000Y-82270000D03*
X107470000Y-77230000D03*
X104930000Y-82270000D03*
X104930000Y-77230000D03*
X102390000Y-82270000D03*
X102390000Y-77230000D03*
X99850000Y-82270000D03*
X99850000Y-77230000D03*
X97310000Y-82270000D03*
X97310000Y-77230000D03*
X94770000Y-82270000D03*
X94770000Y-77230000D03*
X92230000Y-82270000D03*
X92230000Y-77230000D03*
X89690000Y-82270000D03*
X89690000Y-77230000D03*
X87150000Y-82270000D03*
X87150000Y-77230000D03*
X84610000Y-82270000D03*
X84610000Y-77230000D03*
X82070000Y-82270000D03*
X82070000Y-77230000D03*
X79530000Y-82270000D03*
X79530000Y-77230000D03*
X76990000Y-82270000D03*
X76990000Y-77230000D03*
X74450000Y-82270000D03*
X74450000Y-77230000D03*
X71910000Y-82270000D03*
X71910000Y-77230000D03*
X69370000Y-82270000D03*
X69370000Y-77230000D03*
%TD*%
M02*
