%TF.GenerationSoftware,KiCad,Pcbnew,5.1.9-73d0e3b20d~88~ubuntu18.04.1*%
%TF.CreationDate,2021-07-10T12:21:25+03:00*%
%TF.ProjectId,Rpi-breakout,5270692d-6272-4656-916b-6f75742e6b69,rev?*%
%TF.SameCoordinates,Original*%
%TF.FileFunction,Legend,Top*%
%TF.FilePolarity,Positive*%
%FSLAX46Y46*%
G04 Gerber Fmt 4.6, Leading zero omitted, Abs format (unit mm)*
G04 Created by KiCad (PCBNEW 5.1.9-73d0e3b20d~88~ubuntu18.04.1) date 2021-07-10 12:21:25*
%MOMM*%
%LPD*%
G01*
G04 APERTURE LIST*
%ADD10C,0.300000*%
%ADD11C,0.150000*%
%ADD12C,0.010000*%
%ADD13C,0.120000*%
G04 APERTURE END LIST*
D10*
X112300000Y-96178571D02*
X113228571Y-96178571D01*
X112728571Y-96750000D01*
X112942857Y-96750000D01*
X113085714Y-96821428D01*
X113157142Y-96892857D01*
X113228571Y-97035714D01*
X113228571Y-97392857D01*
X113157142Y-97535714D01*
X113085714Y-97607142D01*
X112942857Y-97678571D01*
X112514285Y-97678571D01*
X112371428Y-97607142D01*
X112300000Y-97535714D01*
X112514285Y-120378571D02*
X111657142Y-120378571D01*
X112085714Y-120378571D02*
X112085714Y-118878571D01*
X111942857Y-119092857D01*
X111800000Y-119235714D01*
X111657142Y-119307142D01*
X113085714Y-119021428D02*
X113157142Y-118950000D01*
X113300000Y-118878571D01*
X113657142Y-118878571D01*
X113800000Y-118950000D01*
X113871428Y-119021428D01*
X113942857Y-119164285D01*
X113942857Y-119307142D01*
X113871428Y-119521428D01*
X113014285Y-120378571D01*
X113942857Y-120378571D01*
X112514285Y-115278571D02*
X111657142Y-115278571D01*
X112085714Y-115278571D02*
X112085714Y-113778571D01*
X111942857Y-113992857D01*
X111800000Y-114135714D01*
X111657142Y-114207142D01*
X113442857Y-113778571D02*
X113585714Y-113778571D01*
X113728571Y-113850000D01*
X113800000Y-113921428D01*
X113871428Y-114064285D01*
X113942857Y-114350000D01*
X113942857Y-114707142D01*
X113871428Y-114992857D01*
X113800000Y-115135714D01*
X113728571Y-115207142D01*
X113585714Y-115278571D01*
X113442857Y-115278571D01*
X113300000Y-115207142D01*
X113228571Y-115135714D01*
X113157142Y-114992857D01*
X113085714Y-114707142D01*
X113085714Y-114350000D01*
X113157142Y-114064285D01*
X113228571Y-113921428D01*
X113300000Y-113850000D01*
X113442857Y-113778571D01*
X113157142Y-101278571D02*
X112442857Y-101278571D01*
X112371428Y-101992857D01*
X112442857Y-101921428D01*
X112585714Y-101850000D01*
X112942857Y-101850000D01*
X113085714Y-101921428D01*
X113157142Y-101992857D01*
X113228571Y-102135714D01*
X113228571Y-102492857D01*
X113157142Y-102635714D01*
X113085714Y-102707142D01*
X112942857Y-102778571D01*
X112585714Y-102778571D01*
X112442857Y-102707142D01*
X112371428Y-102635714D01*
X112514285Y-125578571D02*
X111657142Y-125578571D01*
X112085714Y-125578571D02*
X112085714Y-124078571D01*
X111942857Y-124292857D01*
X111800000Y-124435714D01*
X111657142Y-124507142D01*
X113800000Y-124578571D02*
X113800000Y-125578571D01*
X113442857Y-124007142D02*
X113085714Y-125078571D01*
X114014285Y-125078571D01*
X113085714Y-103878571D02*
X112800000Y-103878571D01*
X112657142Y-103950000D01*
X112585714Y-104021428D01*
X112442857Y-104235714D01*
X112371428Y-104521428D01*
X112371428Y-105092857D01*
X112442857Y-105235714D01*
X112514285Y-105307142D01*
X112657142Y-105378571D01*
X112942857Y-105378571D01*
X113085714Y-105307142D01*
X113157142Y-105235714D01*
X113228571Y-105092857D01*
X113228571Y-104735714D01*
X113157142Y-104592857D01*
X113085714Y-104521428D01*
X112942857Y-104450000D01*
X112657142Y-104450000D01*
X112514285Y-104521428D01*
X112442857Y-104592857D01*
X112371428Y-104735714D01*
X112514285Y-123178571D02*
X111657142Y-123178571D01*
X112085714Y-123178571D02*
X112085714Y-121678571D01*
X111942857Y-121892857D01*
X111800000Y-122035714D01*
X111657142Y-122107142D01*
X113014285Y-121678571D02*
X113942857Y-121678571D01*
X113442857Y-122250000D01*
X113657142Y-122250000D01*
X113800000Y-122321428D01*
X113871428Y-122392857D01*
X113942857Y-122535714D01*
X113942857Y-122892857D01*
X113871428Y-123035714D01*
X113800000Y-123107142D01*
X113657142Y-123178571D01*
X113228571Y-123178571D01*
X113085714Y-123107142D01*
X113014285Y-123035714D01*
X112514285Y-117778571D02*
X111657142Y-117778571D01*
X112085714Y-117778571D02*
X112085714Y-116278571D01*
X111942857Y-116492857D01*
X111800000Y-116635714D01*
X111657142Y-116707142D01*
X113942857Y-117778571D02*
X113085714Y-117778571D01*
X113514285Y-117778571D02*
X113514285Y-116278571D01*
X113371428Y-116492857D01*
X113228571Y-116635714D01*
X113085714Y-116707142D01*
X113085714Y-99278571D02*
X113085714Y-100278571D01*
X112728571Y-98707142D02*
X112371428Y-99778571D01*
X113300000Y-99778571D01*
X112514285Y-128178571D02*
X111657142Y-128178571D01*
X112085714Y-128178571D02*
X112085714Y-126678571D01*
X111942857Y-126892857D01*
X111800000Y-127035714D01*
X111657142Y-127107142D01*
X113871428Y-126678571D02*
X113157142Y-126678571D01*
X113085714Y-127392857D01*
X113157142Y-127321428D01*
X113300000Y-127250000D01*
X113657142Y-127250000D01*
X113800000Y-127321428D01*
X113871428Y-127392857D01*
X113942857Y-127535714D01*
X113942857Y-127892857D01*
X113871428Y-128035714D01*
X113800000Y-128107142D01*
X113657142Y-128178571D01*
X113300000Y-128178571D01*
X113157142Y-128107142D01*
X113085714Y-128035714D01*
X112414285Y-112878571D02*
X112700000Y-112878571D01*
X112842857Y-112807142D01*
X112914285Y-112735714D01*
X113057142Y-112521428D01*
X113128571Y-112235714D01*
X113128571Y-111664285D01*
X113057142Y-111521428D01*
X112985714Y-111450000D01*
X112842857Y-111378571D01*
X112557142Y-111378571D01*
X112414285Y-111450000D01*
X112342857Y-111521428D01*
X112271428Y-111664285D01*
X112271428Y-112021428D01*
X112342857Y-112164285D01*
X112414285Y-112235714D01*
X112557142Y-112307142D01*
X112842857Y-112307142D01*
X112985714Y-112235714D01*
X113057142Y-112164285D01*
X113128571Y-112021428D01*
X112371428Y-93721428D02*
X112442857Y-93650000D01*
X112585714Y-93578571D01*
X112942857Y-93578571D01*
X113085714Y-93650000D01*
X113157142Y-93721428D01*
X113228571Y-93864285D01*
X113228571Y-94007142D01*
X113157142Y-94221428D01*
X112300000Y-95078571D01*
X113228571Y-95078571D01*
X112200000Y-106278571D02*
X113200000Y-106278571D01*
X112557142Y-107778571D01*
X112557142Y-109421428D02*
X112414285Y-109350000D01*
X112342857Y-109278571D01*
X112271428Y-109135714D01*
X112271428Y-109064285D01*
X112342857Y-108921428D01*
X112414285Y-108850000D01*
X112557142Y-108778571D01*
X112842857Y-108778571D01*
X112985714Y-108850000D01*
X113057142Y-108921428D01*
X113128571Y-109064285D01*
X113128571Y-109135714D01*
X113057142Y-109278571D01*
X112985714Y-109350000D01*
X112842857Y-109421428D01*
X112557142Y-109421428D01*
X112414285Y-109492857D01*
X112342857Y-109564285D01*
X112271428Y-109707142D01*
X112271428Y-109992857D01*
X112342857Y-110135714D01*
X112414285Y-110207142D01*
X112557142Y-110278571D01*
X112842857Y-110278571D01*
X112985714Y-110207142D01*
X113057142Y-110135714D01*
X113128571Y-109992857D01*
X113128571Y-109707142D01*
X113057142Y-109564285D01*
X112985714Y-109492857D01*
X112842857Y-109421428D01*
X113228571Y-92578571D02*
X112371428Y-92578571D01*
X112800000Y-92578571D02*
X112800000Y-91078571D01*
X112657142Y-91292857D01*
X112514285Y-91435714D01*
X112371428Y-91507142D01*
X123814285Y-128178571D02*
X122957142Y-128178571D01*
X123385714Y-128178571D02*
X123385714Y-126678571D01*
X123242857Y-126892857D01*
X123100000Y-127035714D01*
X122957142Y-127107142D01*
X125171428Y-126678571D02*
X124457142Y-126678571D01*
X124385714Y-127392857D01*
X124457142Y-127321428D01*
X124600000Y-127250000D01*
X124957142Y-127250000D01*
X125100000Y-127321428D01*
X125171428Y-127392857D01*
X125242857Y-127535714D01*
X125242857Y-127892857D01*
X125171428Y-128035714D01*
X125100000Y-128107142D01*
X124957142Y-128178571D01*
X124600000Y-128178571D01*
X124457142Y-128107142D01*
X124385714Y-128035714D01*
X123814285Y-125578571D02*
X122957142Y-125578571D01*
X123385714Y-125578571D02*
X123385714Y-124078571D01*
X123242857Y-124292857D01*
X123100000Y-124435714D01*
X122957142Y-124507142D01*
X125100000Y-124578571D02*
X125100000Y-125578571D01*
X124742857Y-124007142D02*
X124385714Y-125078571D01*
X125314285Y-125078571D01*
X123814285Y-123178571D02*
X122957142Y-123178571D01*
X123385714Y-123178571D02*
X123385714Y-121678571D01*
X123242857Y-121892857D01*
X123100000Y-122035714D01*
X122957142Y-122107142D01*
X124314285Y-121678571D02*
X125242857Y-121678571D01*
X124742857Y-122250000D01*
X124957142Y-122250000D01*
X125100000Y-122321428D01*
X125171428Y-122392857D01*
X125242857Y-122535714D01*
X125242857Y-122892857D01*
X125171428Y-123035714D01*
X125100000Y-123107142D01*
X124957142Y-123178571D01*
X124528571Y-123178571D01*
X124385714Y-123107142D01*
X124314285Y-123035714D01*
X123814285Y-120378571D02*
X122957142Y-120378571D01*
X123385714Y-120378571D02*
X123385714Y-118878571D01*
X123242857Y-119092857D01*
X123100000Y-119235714D01*
X122957142Y-119307142D01*
X124385714Y-119021428D02*
X124457142Y-118950000D01*
X124600000Y-118878571D01*
X124957142Y-118878571D01*
X125100000Y-118950000D01*
X125171428Y-119021428D01*
X125242857Y-119164285D01*
X125242857Y-119307142D01*
X125171428Y-119521428D01*
X124314285Y-120378571D01*
X125242857Y-120378571D01*
X123814285Y-117778571D02*
X122957142Y-117778571D01*
X123385714Y-117778571D02*
X123385714Y-116278571D01*
X123242857Y-116492857D01*
X123100000Y-116635714D01*
X122957142Y-116707142D01*
X125242857Y-117778571D02*
X124385714Y-117778571D01*
X124814285Y-117778571D02*
X124814285Y-116278571D01*
X124671428Y-116492857D01*
X124528571Y-116635714D01*
X124385714Y-116707142D01*
X123814285Y-115278571D02*
X122957142Y-115278571D01*
X123385714Y-115278571D02*
X123385714Y-113778571D01*
X123242857Y-113992857D01*
X123100000Y-114135714D01*
X122957142Y-114207142D01*
X124742857Y-113778571D02*
X124885714Y-113778571D01*
X125028571Y-113850000D01*
X125100000Y-113921428D01*
X125171428Y-114064285D01*
X125242857Y-114350000D01*
X125242857Y-114707142D01*
X125171428Y-114992857D01*
X125100000Y-115135714D01*
X125028571Y-115207142D01*
X124885714Y-115278571D01*
X124742857Y-115278571D01*
X124600000Y-115207142D01*
X124528571Y-115135714D01*
X124457142Y-114992857D01*
X124385714Y-114707142D01*
X124385714Y-114350000D01*
X124457142Y-114064285D01*
X124528571Y-113921428D01*
X124600000Y-113850000D01*
X124742857Y-113778571D01*
X123714285Y-112878571D02*
X124000000Y-112878571D01*
X124142857Y-112807142D01*
X124214285Y-112735714D01*
X124357142Y-112521428D01*
X124428571Y-112235714D01*
X124428571Y-111664285D01*
X124357142Y-111521428D01*
X124285714Y-111450000D01*
X124142857Y-111378571D01*
X123857142Y-111378571D01*
X123714285Y-111450000D01*
X123642857Y-111521428D01*
X123571428Y-111664285D01*
X123571428Y-112021428D01*
X123642857Y-112164285D01*
X123714285Y-112235714D01*
X123857142Y-112307142D01*
X124142857Y-112307142D01*
X124285714Y-112235714D01*
X124357142Y-112164285D01*
X124428571Y-112021428D01*
X123857142Y-109421428D02*
X123714285Y-109350000D01*
X123642857Y-109278571D01*
X123571428Y-109135714D01*
X123571428Y-109064285D01*
X123642857Y-108921428D01*
X123714285Y-108850000D01*
X123857142Y-108778571D01*
X124142857Y-108778571D01*
X124285714Y-108850000D01*
X124357142Y-108921428D01*
X124428571Y-109064285D01*
X124428571Y-109135714D01*
X124357142Y-109278571D01*
X124285714Y-109350000D01*
X124142857Y-109421428D01*
X123857142Y-109421428D01*
X123714285Y-109492857D01*
X123642857Y-109564285D01*
X123571428Y-109707142D01*
X123571428Y-109992857D01*
X123642857Y-110135714D01*
X123714285Y-110207142D01*
X123857142Y-110278571D01*
X124142857Y-110278571D01*
X124285714Y-110207142D01*
X124357142Y-110135714D01*
X124428571Y-109992857D01*
X124428571Y-109707142D01*
X124357142Y-109564285D01*
X124285714Y-109492857D01*
X124142857Y-109421428D01*
X123500000Y-106278571D02*
X124500000Y-106278571D01*
X123857142Y-107778571D01*
X124385714Y-103878571D02*
X124100000Y-103878571D01*
X123957142Y-103950000D01*
X123885714Y-104021428D01*
X123742857Y-104235714D01*
X123671428Y-104521428D01*
X123671428Y-105092857D01*
X123742857Y-105235714D01*
X123814285Y-105307142D01*
X123957142Y-105378571D01*
X124242857Y-105378571D01*
X124385714Y-105307142D01*
X124457142Y-105235714D01*
X124528571Y-105092857D01*
X124528571Y-104735714D01*
X124457142Y-104592857D01*
X124385714Y-104521428D01*
X124242857Y-104450000D01*
X123957142Y-104450000D01*
X123814285Y-104521428D01*
X123742857Y-104592857D01*
X123671428Y-104735714D01*
X124457142Y-101278571D02*
X123742857Y-101278571D01*
X123671428Y-101992857D01*
X123742857Y-101921428D01*
X123885714Y-101850000D01*
X124242857Y-101850000D01*
X124385714Y-101921428D01*
X124457142Y-101992857D01*
X124528571Y-102135714D01*
X124528571Y-102492857D01*
X124457142Y-102635714D01*
X124385714Y-102707142D01*
X124242857Y-102778571D01*
X123885714Y-102778571D01*
X123742857Y-102707142D01*
X123671428Y-102635714D01*
X124385714Y-99278571D02*
X124385714Y-100278571D01*
X124028571Y-98707142D02*
X123671428Y-99778571D01*
X124600000Y-99778571D01*
X123600000Y-96178571D02*
X124528571Y-96178571D01*
X124028571Y-96750000D01*
X124242857Y-96750000D01*
X124385714Y-96821428D01*
X124457142Y-96892857D01*
X124528571Y-97035714D01*
X124528571Y-97392857D01*
X124457142Y-97535714D01*
X124385714Y-97607142D01*
X124242857Y-97678571D01*
X123814285Y-97678571D01*
X123671428Y-97607142D01*
X123600000Y-97535714D01*
X123671428Y-93721428D02*
X123742857Y-93650000D01*
X123885714Y-93578571D01*
X124242857Y-93578571D01*
X124385714Y-93650000D01*
X124457142Y-93721428D01*
X124528571Y-93864285D01*
X124528571Y-94007142D01*
X124457142Y-94221428D01*
X123600000Y-95078571D01*
X124528571Y-95078571D01*
X124528571Y-92578571D02*
X123671428Y-92578571D01*
X124100000Y-92578571D02*
X124100000Y-91078571D01*
X123957142Y-91292857D01*
X123814285Y-91435714D01*
X123671428Y-91507142D01*
D11*
X91100000Y-85400000D02*
X98200000Y-85400000D01*
D10*
X109578571Y-127328571D02*
X108864285Y-127828571D01*
X109578571Y-128185714D02*
X108078571Y-128185714D01*
X108078571Y-127614285D01*
X108150000Y-127471428D01*
X108221428Y-127400000D01*
X108364285Y-127328571D01*
X108578571Y-127328571D01*
X108721428Y-127400000D01*
X108792857Y-127471428D01*
X108864285Y-127614285D01*
X108864285Y-128185714D01*
X109578571Y-126042857D02*
X108792857Y-126042857D01*
X108650000Y-126114285D01*
X108578571Y-126257142D01*
X108578571Y-126542857D01*
X108650000Y-126685714D01*
X109507142Y-126042857D02*
X109578571Y-126185714D01*
X109578571Y-126542857D01*
X109507142Y-126685714D01*
X109364285Y-126757142D01*
X109221428Y-126757142D01*
X109078571Y-126685714D01*
X109007142Y-126542857D01*
X109007142Y-126185714D01*
X108935714Y-126042857D01*
X109507142Y-125400000D02*
X109578571Y-125257142D01*
X109578571Y-124971428D01*
X109507142Y-124828571D01*
X109364285Y-124757142D01*
X109292857Y-124757142D01*
X109150000Y-124828571D01*
X109078571Y-124971428D01*
X109078571Y-125185714D01*
X109007142Y-125328571D01*
X108864285Y-125400000D01*
X108792857Y-125400000D01*
X108650000Y-125328571D01*
X108578571Y-125185714D01*
X108578571Y-124971428D01*
X108650000Y-124828571D01*
X108578571Y-124114285D02*
X110078571Y-124114285D01*
X108650000Y-124114285D02*
X108578571Y-123971428D01*
X108578571Y-123685714D01*
X108650000Y-123542857D01*
X108721428Y-123471428D01*
X108864285Y-123400000D01*
X109292857Y-123400000D01*
X109435714Y-123471428D01*
X109507142Y-123542857D01*
X109578571Y-123685714D01*
X109578571Y-123971428D01*
X109507142Y-124114285D01*
X109578571Y-122757142D02*
X108078571Y-122757142D01*
X108650000Y-122757142D02*
X108578571Y-122614285D01*
X108578571Y-122328571D01*
X108650000Y-122185714D01*
X108721428Y-122114285D01*
X108864285Y-122042857D01*
X109292857Y-122042857D01*
X109435714Y-122114285D01*
X109507142Y-122185714D01*
X109578571Y-122328571D01*
X109578571Y-122614285D01*
X109507142Y-122757142D01*
X109507142Y-120828571D02*
X109578571Y-120971428D01*
X109578571Y-121257142D01*
X109507142Y-121400000D01*
X109364285Y-121471428D01*
X108792857Y-121471428D01*
X108650000Y-121400000D01*
X108578571Y-121257142D01*
X108578571Y-120971428D01*
X108650000Y-120828571D01*
X108792857Y-120757142D01*
X108935714Y-120757142D01*
X109078571Y-121471428D01*
X109578571Y-120114285D02*
X108578571Y-120114285D01*
X108864285Y-120114285D02*
X108721428Y-120042857D01*
X108650000Y-119971428D01*
X108578571Y-119828571D01*
X108578571Y-119685714D01*
X109578571Y-119185714D02*
X108578571Y-119185714D01*
X108864285Y-119185714D02*
X108721428Y-119114285D01*
X108650000Y-119042857D01*
X108578571Y-118900000D01*
X108578571Y-118757142D01*
X108578571Y-118400000D02*
X109578571Y-118042857D01*
X108578571Y-117685714D02*
X109578571Y-118042857D01*
X109935714Y-118185714D01*
X110007142Y-118257142D01*
X110078571Y-118400000D01*
X109578571Y-115971428D02*
X108078571Y-115971428D01*
X108078571Y-115400000D01*
X108150000Y-115257142D01*
X108221428Y-115185714D01*
X108364285Y-115114285D01*
X108578571Y-115114285D01*
X108721428Y-115185714D01*
X108792857Y-115257142D01*
X108864285Y-115400000D01*
X108864285Y-115971428D01*
X109578571Y-114471428D02*
X108578571Y-114471428D01*
X108078571Y-114471428D02*
X108150000Y-114542857D01*
X108221428Y-114471428D01*
X108150000Y-114400000D01*
X108078571Y-114471428D01*
X108221428Y-114471428D01*
X109578571Y-112614285D02*
X108078571Y-112614285D01*
X108650000Y-112614285D02*
X108578571Y-112471428D01*
X108578571Y-112185714D01*
X108650000Y-112042857D01*
X108721428Y-111971428D01*
X108864285Y-111900000D01*
X109292857Y-111900000D01*
X109435714Y-111971428D01*
X109507142Y-112042857D01*
X109578571Y-112185714D01*
X109578571Y-112471428D01*
X109507142Y-112614285D01*
X109578571Y-111257142D02*
X108578571Y-111257142D01*
X108864285Y-111257142D02*
X108721428Y-111185714D01*
X108650000Y-111114285D01*
X108578571Y-110971428D01*
X108578571Y-110828571D01*
X109507142Y-109757142D02*
X109578571Y-109900000D01*
X109578571Y-110185714D01*
X109507142Y-110328571D01*
X109364285Y-110400000D01*
X108792857Y-110400000D01*
X108650000Y-110328571D01*
X108578571Y-110185714D01*
X108578571Y-109900000D01*
X108650000Y-109757142D01*
X108792857Y-109685714D01*
X108935714Y-109685714D01*
X109078571Y-110400000D01*
X109578571Y-108400000D02*
X108792857Y-108400000D01*
X108650000Y-108471428D01*
X108578571Y-108614285D01*
X108578571Y-108900000D01*
X108650000Y-109042857D01*
X109507142Y-108400000D02*
X109578571Y-108542857D01*
X109578571Y-108900000D01*
X109507142Y-109042857D01*
X109364285Y-109114285D01*
X109221428Y-109114285D01*
X109078571Y-109042857D01*
X109007142Y-108900000D01*
X109007142Y-108542857D01*
X108935714Y-108400000D01*
X109578571Y-107685714D02*
X108078571Y-107685714D01*
X109007142Y-107542857D02*
X109578571Y-107114285D01*
X108578571Y-107114285D02*
X109150000Y-107685714D01*
X109578571Y-106257142D02*
X109507142Y-106400000D01*
X109435714Y-106471428D01*
X109292857Y-106542857D01*
X108864285Y-106542857D01*
X108721428Y-106471428D01*
X108650000Y-106400000D01*
X108578571Y-106257142D01*
X108578571Y-106042857D01*
X108650000Y-105900000D01*
X108721428Y-105828571D01*
X108864285Y-105757142D01*
X109292857Y-105757142D01*
X109435714Y-105828571D01*
X109507142Y-105900000D01*
X109578571Y-106042857D01*
X109578571Y-106257142D01*
X108578571Y-104471428D02*
X109578571Y-104471428D01*
X108578571Y-105114285D02*
X109364285Y-105114285D01*
X109507142Y-105042857D01*
X109578571Y-104900000D01*
X109578571Y-104685714D01*
X109507142Y-104542857D01*
X109435714Y-104471428D01*
X108578571Y-103971428D02*
X108578571Y-103400000D01*
X108078571Y-103757142D02*
X109364285Y-103757142D01*
X109507142Y-103685714D01*
X109578571Y-103542857D01*
X109578571Y-103400000D01*
X121657142Y-85092857D02*
X121157142Y-85092857D01*
X121157142Y-85878571D02*
X121157142Y-84378571D01*
X121871428Y-84378571D01*
X123085714Y-85878571D02*
X123085714Y-85092857D01*
X123014285Y-84950000D01*
X122871428Y-84878571D01*
X122585714Y-84878571D01*
X122442857Y-84950000D01*
X123085714Y-85807142D02*
X122942857Y-85878571D01*
X122585714Y-85878571D01*
X122442857Y-85807142D01*
X122371428Y-85664285D01*
X122371428Y-85521428D01*
X122442857Y-85378571D01*
X122585714Y-85307142D01*
X122942857Y-85307142D01*
X123085714Y-85235714D01*
X123800000Y-84878571D02*
X123800000Y-85878571D01*
X123800000Y-85021428D02*
X123871428Y-84950000D01*
X124014285Y-84878571D01*
X124228571Y-84878571D01*
X124371428Y-84950000D01*
X124442857Y-85092857D01*
X124442857Y-85878571D01*
D11*
X117300000Y-127500000D02*
X119600000Y-127500000D01*
X117300000Y-124900000D02*
X119600000Y-124900000D01*
X117300000Y-122400000D02*
X119600000Y-122400000D01*
X117300000Y-119900000D02*
X119600000Y-119900000D01*
X117300000Y-117300000D02*
X119600000Y-117300000D01*
X117300000Y-114800000D02*
X119600000Y-114800000D01*
X117300000Y-112200000D02*
X119600000Y-112200000D01*
X117300000Y-109700000D02*
X119600000Y-109700000D01*
X117300000Y-107200000D02*
X119600000Y-107200000D01*
X117300000Y-104600000D02*
X119600000Y-104600000D01*
X117300000Y-102100000D02*
X119600000Y-102100000D01*
X117300000Y-99500000D02*
X119600000Y-99500000D01*
X117300000Y-97000000D02*
X119600000Y-97000000D01*
X117300000Y-94400000D02*
X119600000Y-94400000D01*
X117300000Y-91900000D02*
X119600000Y-91900000D01*
D10*
X109978571Y-92885714D02*
X109978571Y-91957142D01*
X110550000Y-92457142D01*
X110550000Y-92242857D01*
X110621428Y-92100000D01*
X110692857Y-92028571D01*
X110835714Y-91957142D01*
X111192857Y-91957142D01*
X111335714Y-92028571D01*
X111407142Y-92100000D01*
X111478571Y-92242857D01*
X111478571Y-92671428D01*
X111407142Y-92814285D01*
X111335714Y-92885714D01*
X110478571Y-91457142D02*
X111478571Y-91100000D01*
X110478571Y-90742857D01*
X109978571Y-90314285D02*
X109978571Y-89385714D01*
X110550000Y-89885714D01*
X110550000Y-89671428D01*
X110621428Y-89528571D01*
X110692857Y-89457142D01*
X110835714Y-89385714D01*
X111192857Y-89385714D01*
X111335714Y-89457142D01*
X111407142Y-89528571D01*
X111478571Y-89671428D01*
X111478571Y-90100000D01*
X111407142Y-90242857D01*
X111335714Y-90314285D01*
X106850000Y-92364285D02*
X106778571Y-92507142D01*
X106778571Y-92721428D01*
X106850000Y-92935714D01*
X106992857Y-93078571D01*
X107135714Y-93150000D01*
X107421428Y-93221428D01*
X107635714Y-93221428D01*
X107921428Y-93150000D01*
X108064285Y-93078571D01*
X108207142Y-92935714D01*
X108278571Y-92721428D01*
X108278571Y-92578571D01*
X108207142Y-92364285D01*
X108135714Y-92292857D01*
X107635714Y-92292857D01*
X107635714Y-92578571D01*
X107278571Y-91650000D02*
X108278571Y-91650000D01*
X107421428Y-91650000D02*
X107350000Y-91578571D01*
X107278571Y-91435714D01*
X107278571Y-91221428D01*
X107350000Y-91078571D01*
X107492857Y-91007142D01*
X108278571Y-91007142D01*
X108278571Y-89650000D02*
X106778571Y-89650000D01*
X108207142Y-89650000D02*
X108278571Y-89792857D01*
X108278571Y-90078571D01*
X108207142Y-90221428D01*
X108135714Y-90292857D01*
X107992857Y-90364285D01*
X107564285Y-90364285D01*
X107421428Y-90292857D01*
X107350000Y-90221428D01*
X107278571Y-90078571D01*
X107278571Y-89792857D01*
X107350000Y-89650000D01*
X75278571Y-90885714D02*
X75278571Y-91600000D01*
X75992857Y-91671428D01*
X75921428Y-91600000D01*
X75850000Y-91457142D01*
X75850000Y-91100000D01*
X75921428Y-90957142D01*
X75992857Y-90885714D01*
X76135714Y-90814285D01*
X76492857Y-90814285D01*
X76635714Y-90885714D01*
X76707142Y-90957142D01*
X76778571Y-91100000D01*
X76778571Y-91457142D01*
X76707142Y-91600000D01*
X76635714Y-91671428D01*
X75278571Y-90385714D02*
X76778571Y-89885714D01*
X75278571Y-89385714D01*
D11*
X112428571Y-84907142D02*
X111914285Y-84907142D01*
X112171428Y-84907142D02*
X112171428Y-84007142D01*
X112085714Y-84135714D01*
X112000000Y-84221428D01*
X111914285Y-84264285D01*
X112857142Y-84907142D02*
X113028571Y-84907142D01*
X113114285Y-84864285D01*
X113157142Y-84821428D01*
X113242857Y-84692857D01*
X113285714Y-84521428D01*
X113285714Y-84178571D01*
X113242857Y-84092857D01*
X113200000Y-84050000D01*
X113114285Y-84007142D01*
X112942857Y-84007142D01*
X112857142Y-84050000D01*
X112814285Y-84092857D01*
X112771428Y-84178571D01*
X112771428Y-84392857D01*
X112814285Y-84478571D01*
X112857142Y-84521428D01*
X112942857Y-84564285D01*
X113114285Y-84564285D01*
X113200000Y-84521428D01*
X113242857Y-84478571D01*
X113285714Y-84392857D01*
X117021428Y-84050000D02*
X116935714Y-84007142D01*
X116807142Y-84007142D01*
X116678571Y-84050000D01*
X116592857Y-84135714D01*
X116550000Y-84221428D01*
X116507142Y-84392857D01*
X116507142Y-84521428D01*
X116550000Y-84692857D01*
X116592857Y-84778571D01*
X116678571Y-84864285D01*
X116807142Y-84907142D01*
X116892857Y-84907142D01*
X117021428Y-84864285D01*
X117064285Y-84821428D01*
X117064285Y-84521428D01*
X116892857Y-84521428D01*
X117450000Y-84307142D02*
X117450000Y-84907142D01*
X117450000Y-84392857D02*
X117492857Y-84350000D01*
X117578571Y-84307142D01*
X117707142Y-84307142D01*
X117792857Y-84350000D01*
X117835714Y-84435714D01*
X117835714Y-84907142D01*
X118650000Y-84907142D02*
X118650000Y-84007142D01*
X118650000Y-84864285D02*
X118564285Y-84907142D01*
X118392857Y-84907142D01*
X118307142Y-84864285D01*
X118264285Y-84821428D01*
X118221428Y-84735714D01*
X118221428Y-84478571D01*
X118264285Y-84392857D01*
X118307142Y-84350000D01*
X118392857Y-84307142D01*
X118564285Y-84307142D01*
X118650000Y-84350000D01*
X109828571Y-84907142D02*
X109314285Y-84907142D01*
X109571428Y-84907142D02*
X109571428Y-84007142D01*
X109485714Y-84135714D01*
X109400000Y-84221428D01*
X109314285Y-84264285D01*
X110128571Y-84007142D02*
X110685714Y-84007142D01*
X110385714Y-84350000D01*
X110514285Y-84350000D01*
X110600000Y-84392857D01*
X110642857Y-84435714D01*
X110685714Y-84521428D01*
X110685714Y-84735714D01*
X110642857Y-84821428D01*
X110600000Y-84864285D01*
X110514285Y-84907142D01*
X110257142Y-84907142D01*
X110171428Y-84864285D01*
X110128571Y-84821428D01*
X107671428Y-84007142D02*
X107500000Y-84007142D01*
X107414285Y-84050000D01*
X107371428Y-84092857D01*
X107285714Y-84221428D01*
X107242857Y-84392857D01*
X107242857Y-84735714D01*
X107285714Y-84821428D01*
X107328571Y-84864285D01*
X107414285Y-84907142D01*
X107585714Y-84907142D01*
X107671428Y-84864285D01*
X107714285Y-84821428D01*
X107757142Y-84735714D01*
X107757142Y-84521428D01*
X107714285Y-84435714D01*
X107671428Y-84392857D01*
X107585714Y-84350000D01*
X107414285Y-84350000D01*
X107328571Y-84392857D01*
X107285714Y-84435714D01*
X107242857Y-84521428D01*
X101835714Y-84864285D02*
X101964285Y-84907142D01*
X102178571Y-84907142D01*
X102264285Y-84864285D01*
X102307142Y-84821428D01*
X102350000Y-84735714D01*
X102350000Y-84650000D01*
X102307142Y-84564285D01*
X102264285Y-84521428D01*
X102178571Y-84478571D01*
X102007142Y-84435714D01*
X101921428Y-84392857D01*
X101878571Y-84350000D01*
X101835714Y-84264285D01*
X101835714Y-84178571D01*
X101878571Y-84092857D01*
X101921428Y-84050000D01*
X102007142Y-84007142D01*
X102221428Y-84007142D01*
X102350000Y-84050000D01*
X103121428Y-84907142D02*
X103121428Y-84007142D01*
X103121428Y-84864285D02*
X103035714Y-84907142D01*
X102864285Y-84907142D01*
X102778571Y-84864285D01*
X102735714Y-84821428D01*
X102692857Y-84735714D01*
X102692857Y-84478571D01*
X102735714Y-84392857D01*
X102778571Y-84350000D01*
X102864285Y-84307142D01*
X103035714Y-84307142D01*
X103121428Y-84350000D01*
X99321428Y-84050000D02*
X99235714Y-84007142D01*
X99107142Y-84007142D01*
X98978571Y-84050000D01*
X98892857Y-84135714D01*
X98850000Y-84221428D01*
X98807142Y-84392857D01*
X98807142Y-84521428D01*
X98850000Y-84692857D01*
X98892857Y-84778571D01*
X98978571Y-84864285D01*
X99107142Y-84907142D01*
X99192857Y-84907142D01*
X99321428Y-84864285D01*
X99364285Y-84821428D01*
X99364285Y-84521428D01*
X99192857Y-84521428D01*
X99750000Y-84307142D02*
X99750000Y-84907142D01*
X99750000Y-84392857D02*
X99792857Y-84350000D01*
X99878571Y-84307142D01*
X100007142Y-84307142D01*
X100092857Y-84350000D01*
X100135714Y-84435714D01*
X100135714Y-84907142D01*
X100950000Y-84907142D02*
X100950000Y-84007142D01*
X100950000Y-84864285D02*
X100864285Y-84907142D01*
X100692857Y-84907142D01*
X100607142Y-84864285D01*
X100564285Y-84821428D01*
X100521428Y-84735714D01*
X100521428Y-84478571D01*
X100564285Y-84392857D01*
X100607142Y-84350000D01*
X100692857Y-84307142D01*
X100864285Y-84307142D01*
X100950000Y-84350000D01*
X114414285Y-84092857D02*
X114457142Y-84050000D01*
X114542857Y-84007142D01*
X114757142Y-84007142D01*
X114842857Y-84050000D01*
X114885714Y-84092857D01*
X114928571Y-84178571D01*
X114928571Y-84264285D01*
X114885714Y-84392857D01*
X114371428Y-84907142D01*
X114928571Y-84907142D01*
X115700000Y-84007142D02*
X115528571Y-84007142D01*
X115442857Y-84050000D01*
X115400000Y-84092857D01*
X115314285Y-84221428D01*
X115271428Y-84392857D01*
X115271428Y-84735714D01*
X115314285Y-84821428D01*
X115357142Y-84864285D01*
X115442857Y-84907142D01*
X115614285Y-84907142D01*
X115700000Y-84864285D01*
X115742857Y-84821428D01*
X115785714Y-84735714D01*
X115785714Y-84521428D01*
X115742857Y-84435714D01*
X115700000Y-84392857D01*
X115614285Y-84350000D01*
X115442857Y-84350000D01*
X115357142Y-84392857D01*
X115314285Y-84435714D01*
X115271428Y-84521428D01*
X105214285Y-84007142D02*
X104785714Y-84007142D01*
X104742857Y-84435714D01*
X104785714Y-84392857D01*
X104871428Y-84350000D01*
X105085714Y-84350000D01*
X105171428Y-84392857D01*
X105214285Y-84435714D01*
X105257142Y-84521428D01*
X105257142Y-84735714D01*
X105214285Y-84821428D01*
X105171428Y-84864285D01*
X105085714Y-84907142D01*
X104871428Y-84907142D01*
X104785714Y-84864285D01*
X104742857Y-84821428D01*
X101757142Y-75464285D02*
X101885714Y-75507142D01*
X102100000Y-75507142D01*
X102185714Y-75464285D01*
X102228571Y-75421428D01*
X102271428Y-75335714D01*
X102271428Y-75250000D01*
X102228571Y-75164285D01*
X102185714Y-75121428D01*
X102100000Y-75078571D01*
X101928571Y-75035714D01*
X101842857Y-74992857D01*
X101800000Y-74950000D01*
X101757142Y-74864285D01*
X101757142Y-74778571D01*
X101800000Y-74692857D01*
X101842857Y-74650000D01*
X101928571Y-74607142D01*
X102142857Y-74607142D01*
X102271428Y-74650000D01*
X103042857Y-75464285D02*
X102957142Y-75507142D01*
X102785714Y-75507142D01*
X102700000Y-75464285D01*
X102657142Y-75421428D01*
X102614285Y-75335714D01*
X102614285Y-75078571D01*
X102657142Y-74992857D01*
X102700000Y-74950000D01*
X102785714Y-74907142D01*
X102957142Y-74907142D01*
X103042857Y-74950000D01*
X99600000Y-74607142D02*
X100200000Y-74607142D01*
X99814285Y-75507142D01*
X107328571Y-75507142D02*
X106814285Y-75507142D01*
X107071428Y-75507142D02*
X107071428Y-74607142D01*
X106985714Y-74735714D01*
X106900000Y-74821428D01*
X106814285Y-74864285D01*
X107671428Y-74692857D02*
X107714285Y-74650000D01*
X107800000Y-74607142D01*
X108014285Y-74607142D01*
X108100000Y-74650000D01*
X108142857Y-74692857D01*
X108185714Y-74778571D01*
X108185714Y-74864285D01*
X108142857Y-74992857D01*
X107628571Y-75507142D01*
X108185714Y-75507142D01*
X112428571Y-75507142D02*
X111914285Y-75507142D01*
X112171428Y-75507142D02*
X112171428Y-74607142D01*
X112085714Y-74735714D01*
X112000000Y-74821428D01*
X111914285Y-74864285D01*
X113200000Y-74607142D02*
X113028571Y-74607142D01*
X112942857Y-74650000D01*
X112900000Y-74692857D01*
X112814285Y-74821428D01*
X112771428Y-74992857D01*
X112771428Y-75335714D01*
X112814285Y-75421428D01*
X112857142Y-75464285D01*
X112942857Y-75507142D01*
X113114285Y-75507142D01*
X113200000Y-75464285D01*
X113242857Y-75421428D01*
X113285714Y-75335714D01*
X113285714Y-75121428D01*
X113242857Y-75035714D01*
X113200000Y-74992857D01*
X113114285Y-74950000D01*
X112942857Y-74950000D01*
X112857142Y-74992857D01*
X112814285Y-75035714D01*
X112771428Y-75121428D01*
X117014285Y-74692857D02*
X117057142Y-74650000D01*
X117142857Y-74607142D01*
X117357142Y-74607142D01*
X117442857Y-74650000D01*
X117485714Y-74692857D01*
X117528571Y-74778571D01*
X117528571Y-74864285D01*
X117485714Y-74992857D01*
X116971428Y-75507142D01*
X117528571Y-75507142D01*
X118385714Y-75507142D02*
X117871428Y-75507142D01*
X118128571Y-75507142D02*
X118128571Y-74607142D01*
X118042857Y-74735714D01*
X117957142Y-74821428D01*
X117871428Y-74864285D01*
X109421428Y-74650000D02*
X109335714Y-74607142D01*
X109207142Y-74607142D01*
X109078571Y-74650000D01*
X108992857Y-74735714D01*
X108950000Y-74821428D01*
X108907142Y-74992857D01*
X108907142Y-75121428D01*
X108950000Y-75292857D01*
X108992857Y-75378571D01*
X109078571Y-75464285D01*
X109207142Y-75507142D01*
X109292857Y-75507142D01*
X109421428Y-75464285D01*
X109464285Y-75421428D01*
X109464285Y-75121428D01*
X109292857Y-75121428D01*
X109850000Y-74907142D02*
X109850000Y-75507142D01*
X109850000Y-74992857D02*
X109892857Y-74950000D01*
X109978571Y-74907142D01*
X110107142Y-74907142D01*
X110192857Y-74950000D01*
X110235714Y-75035714D01*
X110235714Y-75507142D01*
X111050000Y-75507142D02*
X111050000Y-74607142D01*
X111050000Y-75464285D02*
X110964285Y-75507142D01*
X110792857Y-75507142D01*
X110707142Y-75464285D01*
X110664285Y-75421428D01*
X110621428Y-75335714D01*
X110621428Y-75078571D01*
X110664285Y-74992857D01*
X110707142Y-74950000D01*
X110792857Y-74907142D01*
X110964285Y-74907142D01*
X111050000Y-74950000D01*
X114364285Y-74692857D02*
X114407142Y-74650000D01*
X114492857Y-74607142D01*
X114707142Y-74607142D01*
X114792857Y-74650000D01*
X114835714Y-74692857D01*
X114878571Y-74778571D01*
X114878571Y-74864285D01*
X114835714Y-74992857D01*
X114321428Y-75507142D01*
X114878571Y-75507142D01*
X115435714Y-74607142D02*
X115521428Y-74607142D01*
X115607142Y-74650000D01*
X115650000Y-74692857D01*
X115692857Y-74778571D01*
X115735714Y-74950000D01*
X115735714Y-75164285D01*
X115692857Y-75335714D01*
X115650000Y-75421428D01*
X115607142Y-75464285D01*
X115521428Y-75507142D01*
X115435714Y-75507142D01*
X115350000Y-75464285D01*
X115307142Y-75421428D01*
X115264285Y-75335714D01*
X115221428Y-75164285D01*
X115221428Y-74950000D01*
X115264285Y-74778571D01*
X115307142Y-74692857D01*
X115350000Y-74650000D01*
X115435714Y-74607142D01*
X104321428Y-74650000D02*
X104235714Y-74607142D01*
X104107142Y-74607142D01*
X103978571Y-74650000D01*
X103892857Y-74735714D01*
X103850000Y-74821428D01*
X103807142Y-74992857D01*
X103807142Y-75121428D01*
X103850000Y-75292857D01*
X103892857Y-75378571D01*
X103978571Y-75464285D01*
X104107142Y-75507142D01*
X104192857Y-75507142D01*
X104321428Y-75464285D01*
X104364285Y-75421428D01*
X104364285Y-75121428D01*
X104192857Y-75121428D01*
X104750000Y-74907142D02*
X104750000Y-75507142D01*
X104750000Y-74992857D02*
X104792857Y-74950000D01*
X104878571Y-74907142D01*
X105007142Y-74907142D01*
X105092857Y-74950000D01*
X105135714Y-75035714D01*
X105135714Y-75507142D01*
X105950000Y-75507142D02*
X105950000Y-74607142D01*
X105950000Y-75464285D02*
X105864285Y-75507142D01*
X105692857Y-75507142D01*
X105607142Y-75464285D01*
X105564285Y-75421428D01*
X105521428Y-75335714D01*
X105521428Y-75078571D01*
X105564285Y-74992857D01*
X105607142Y-74950000D01*
X105692857Y-74907142D01*
X105864285Y-74907142D01*
X105950000Y-74950000D01*
X70828571Y-84864285D02*
X70957142Y-84907142D01*
X71171428Y-84907142D01*
X71257142Y-84864285D01*
X71300000Y-84821428D01*
X71342857Y-84735714D01*
X71342857Y-84650000D01*
X71300000Y-84564285D01*
X71257142Y-84521428D01*
X71171428Y-84478571D01*
X71000000Y-84435714D01*
X70914285Y-84392857D01*
X70871428Y-84350000D01*
X70828571Y-84264285D01*
X70828571Y-84178571D01*
X70871428Y-84092857D01*
X70914285Y-84050000D01*
X71000000Y-84007142D01*
X71214285Y-84007142D01*
X71342857Y-84050000D01*
X72114285Y-84907142D02*
X72114285Y-84007142D01*
X72114285Y-84864285D02*
X72028571Y-84907142D01*
X71857142Y-84907142D01*
X71771428Y-84864285D01*
X71728571Y-84821428D01*
X71685714Y-84735714D01*
X71685714Y-84478571D01*
X71728571Y-84392857D01*
X71771428Y-84350000D01*
X71857142Y-84307142D01*
X72028571Y-84307142D01*
X72114285Y-84350000D01*
X72928571Y-84907142D02*
X72928571Y-84435714D01*
X72885714Y-84350000D01*
X72800000Y-84307142D01*
X72628571Y-84307142D01*
X72542857Y-84350000D01*
X72928571Y-84864285D02*
X72842857Y-84907142D01*
X72628571Y-84907142D01*
X72542857Y-84864285D01*
X72500000Y-84778571D01*
X72500000Y-84692857D01*
X72542857Y-84607142D01*
X72628571Y-84564285D01*
X72842857Y-84564285D01*
X72928571Y-84521428D01*
X68278571Y-84007142D02*
X68835714Y-84007142D01*
X68535714Y-84350000D01*
X68664285Y-84350000D01*
X68750000Y-84392857D01*
X68792857Y-84435714D01*
X68835714Y-84521428D01*
X68835714Y-84735714D01*
X68792857Y-84821428D01*
X68750000Y-84864285D01*
X68664285Y-84907142D01*
X68407142Y-84907142D01*
X68321428Y-84864285D01*
X68278571Y-84821428D01*
X69135714Y-84307142D02*
X69350000Y-84907142D01*
X69564285Y-84307142D01*
X69821428Y-84007142D02*
X70378571Y-84007142D01*
X70078571Y-84350000D01*
X70207142Y-84350000D01*
X70292857Y-84392857D01*
X70335714Y-84435714D01*
X70378571Y-84521428D01*
X70378571Y-84735714D01*
X70335714Y-84821428D01*
X70292857Y-84864285D01*
X70207142Y-84907142D01*
X69950000Y-84907142D01*
X69864285Y-84864285D01*
X69821428Y-84821428D01*
X88678571Y-84007142D02*
X89235714Y-84007142D01*
X88935714Y-84350000D01*
X89064285Y-84350000D01*
X89150000Y-84392857D01*
X89192857Y-84435714D01*
X89235714Y-84521428D01*
X89235714Y-84735714D01*
X89192857Y-84821428D01*
X89150000Y-84864285D01*
X89064285Y-84907142D01*
X88807142Y-84907142D01*
X88721428Y-84864285D01*
X88678571Y-84821428D01*
X89535714Y-84307142D02*
X89750000Y-84907142D01*
X89964285Y-84307142D01*
X90221428Y-84007142D02*
X90778571Y-84007142D01*
X90478571Y-84350000D01*
X90607142Y-84350000D01*
X90692857Y-84392857D01*
X90735714Y-84435714D01*
X90778571Y-84521428D01*
X90778571Y-84735714D01*
X90735714Y-84821428D01*
X90692857Y-84864285D01*
X90607142Y-84907142D01*
X90350000Y-84907142D01*
X90264285Y-84864285D01*
X90221428Y-84821428D01*
X77121428Y-84407142D02*
X77121428Y-85007142D01*
X76907142Y-84064285D02*
X76692857Y-84707142D01*
X77250000Y-84707142D01*
X81928571Y-84907142D02*
X81414285Y-84907142D01*
X81671428Y-84907142D02*
X81671428Y-84007142D01*
X81585714Y-84135714D01*
X81500000Y-84221428D01*
X81414285Y-84264285D01*
X82228571Y-84007142D02*
X82828571Y-84007142D01*
X82442857Y-84907142D01*
X86464285Y-84092857D02*
X86507142Y-84050000D01*
X86592857Y-84007142D01*
X86807142Y-84007142D01*
X86892857Y-84050000D01*
X86935714Y-84092857D01*
X86978571Y-84178571D01*
X86978571Y-84264285D01*
X86935714Y-84392857D01*
X86421428Y-84907142D01*
X86978571Y-84907142D01*
X87321428Y-84092857D02*
X87364285Y-84050000D01*
X87450000Y-84007142D01*
X87664285Y-84007142D01*
X87750000Y-84050000D01*
X87792857Y-84092857D01*
X87835714Y-84178571D01*
X87835714Y-84264285D01*
X87792857Y-84392857D01*
X87278571Y-84907142D01*
X87835714Y-84907142D01*
X78971428Y-84050000D02*
X78885714Y-84007142D01*
X78757142Y-84007142D01*
X78628571Y-84050000D01*
X78542857Y-84135714D01*
X78500000Y-84221428D01*
X78457142Y-84392857D01*
X78457142Y-84521428D01*
X78500000Y-84692857D01*
X78542857Y-84778571D01*
X78628571Y-84864285D01*
X78757142Y-84907142D01*
X78842857Y-84907142D01*
X78971428Y-84864285D01*
X79014285Y-84821428D01*
X79014285Y-84521428D01*
X78842857Y-84521428D01*
X79400000Y-84307142D02*
X79400000Y-84907142D01*
X79400000Y-84392857D02*
X79442857Y-84350000D01*
X79528571Y-84307142D01*
X79657142Y-84307142D01*
X79742857Y-84350000D01*
X79785714Y-84435714D01*
X79785714Y-84907142D01*
X80600000Y-84907142D02*
X80600000Y-84007142D01*
X80600000Y-84864285D02*
X80514285Y-84907142D01*
X80342857Y-84907142D01*
X80257142Y-84864285D01*
X80214285Y-84821428D01*
X80171428Y-84735714D01*
X80171428Y-84478571D01*
X80214285Y-84392857D01*
X80257142Y-84350000D01*
X80342857Y-84307142D01*
X80514285Y-84307142D01*
X80600000Y-84350000D01*
X93971428Y-84907142D02*
X93971428Y-84007142D01*
X94271428Y-84650000D01*
X94571428Y-84007142D01*
X94571428Y-84907142D01*
X95000000Y-84907142D02*
X95000000Y-84307142D01*
X95000000Y-84007142D02*
X94957142Y-84050000D01*
X95000000Y-84092857D01*
X95042857Y-84050000D01*
X95000000Y-84007142D01*
X95000000Y-84092857D01*
X95385714Y-84864285D02*
X95471428Y-84907142D01*
X95642857Y-84907142D01*
X95728571Y-84864285D01*
X95771428Y-84778571D01*
X95771428Y-84735714D01*
X95728571Y-84650000D01*
X95642857Y-84607142D01*
X95514285Y-84607142D01*
X95428571Y-84564285D01*
X95385714Y-84478571D01*
X95385714Y-84435714D01*
X95428571Y-84350000D01*
X95514285Y-84307142D01*
X95642857Y-84307142D01*
X95728571Y-84350000D01*
X83964285Y-84092857D02*
X84007142Y-84050000D01*
X84092857Y-84007142D01*
X84307142Y-84007142D01*
X84392857Y-84050000D01*
X84435714Y-84092857D01*
X84478571Y-84178571D01*
X84478571Y-84264285D01*
X84435714Y-84392857D01*
X83921428Y-84907142D01*
X84478571Y-84907142D01*
X84778571Y-84007142D02*
X85378571Y-84007142D01*
X84992857Y-84907142D01*
X73571428Y-84864285D02*
X73700000Y-84907142D01*
X73914285Y-84907142D01*
X74000000Y-84864285D01*
X74042857Y-84821428D01*
X74085714Y-84735714D01*
X74085714Y-84650000D01*
X74042857Y-84564285D01*
X74000000Y-84521428D01*
X73914285Y-84478571D01*
X73742857Y-84435714D01*
X73657142Y-84392857D01*
X73614285Y-84350000D01*
X73571428Y-84264285D01*
X73571428Y-84178571D01*
X73614285Y-84092857D01*
X73657142Y-84050000D01*
X73742857Y-84007142D01*
X73957142Y-84007142D01*
X74085714Y-84050000D01*
X74857142Y-84864285D02*
X74771428Y-84907142D01*
X74600000Y-84907142D01*
X74514285Y-84864285D01*
X74471428Y-84821428D01*
X74428571Y-84735714D01*
X74428571Y-84478571D01*
X74471428Y-84392857D01*
X74514285Y-84350000D01*
X74600000Y-84307142D01*
X74771428Y-84307142D01*
X74857142Y-84350000D01*
X75371428Y-84907142D02*
X75285714Y-84864285D01*
X75242857Y-84778571D01*
X75242857Y-84007142D01*
X97028571Y-84821428D02*
X96985714Y-84864285D01*
X96857142Y-84907142D01*
X96771428Y-84907142D01*
X96642857Y-84864285D01*
X96557142Y-84778571D01*
X96514285Y-84692857D01*
X96471428Y-84521428D01*
X96471428Y-84392857D01*
X96514285Y-84221428D01*
X96557142Y-84135714D01*
X96642857Y-84050000D01*
X96771428Y-84007142D01*
X96857142Y-84007142D01*
X96985714Y-84050000D01*
X97028571Y-84092857D01*
X97542857Y-84907142D02*
X97457142Y-84864285D01*
X97414285Y-84778571D01*
X97414285Y-84007142D01*
X97885714Y-84907142D02*
X97885714Y-84007142D01*
X97971428Y-84564285D02*
X98228571Y-84907142D01*
X98228571Y-84307142D02*
X97885714Y-84650000D01*
X91228571Y-84907142D02*
X91228571Y-84007142D01*
X91528571Y-84650000D01*
X91828571Y-84007142D01*
X91828571Y-84907142D01*
X92385714Y-84907142D02*
X92300000Y-84864285D01*
X92257142Y-84821428D01*
X92214285Y-84735714D01*
X92214285Y-84478571D01*
X92257142Y-84392857D01*
X92300000Y-84350000D01*
X92385714Y-84307142D01*
X92514285Y-84307142D01*
X92600000Y-84350000D01*
X92642857Y-84392857D01*
X92685714Y-84478571D01*
X92685714Y-84735714D01*
X92642857Y-84821428D01*
X92600000Y-84864285D01*
X92514285Y-84907142D01*
X92385714Y-84907142D01*
X93028571Y-84864285D02*
X93114285Y-84907142D01*
X93285714Y-84907142D01*
X93371428Y-84864285D01*
X93414285Y-84778571D01*
X93414285Y-84735714D01*
X93371428Y-84650000D01*
X93285714Y-84607142D01*
X93157142Y-84607142D01*
X93071428Y-84564285D01*
X93028571Y-84478571D01*
X93028571Y-84435714D01*
X93071428Y-84350000D01*
X93157142Y-84307142D01*
X93285714Y-84307142D01*
X93371428Y-84350000D01*
X91721428Y-74650000D02*
X91635714Y-74607142D01*
X91507142Y-74607142D01*
X91378571Y-74650000D01*
X91292857Y-74735714D01*
X91250000Y-74821428D01*
X91207142Y-74992857D01*
X91207142Y-75121428D01*
X91250000Y-75292857D01*
X91292857Y-75378571D01*
X91378571Y-75464285D01*
X91507142Y-75507142D01*
X91592857Y-75507142D01*
X91721428Y-75464285D01*
X91764285Y-75421428D01*
X91764285Y-75121428D01*
X91592857Y-75121428D01*
X92150000Y-74907142D02*
X92150000Y-75507142D01*
X92150000Y-74992857D02*
X92192857Y-74950000D01*
X92278571Y-74907142D01*
X92407142Y-74907142D01*
X92492857Y-74950000D01*
X92535714Y-75035714D01*
X92535714Y-75507142D01*
X93350000Y-75507142D02*
X93350000Y-74607142D01*
X93350000Y-75464285D02*
X93264285Y-75507142D01*
X93092857Y-75507142D01*
X93007142Y-75464285D01*
X92964285Y-75421428D01*
X92921428Y-75335714D01*
X92921428Y-75078571D01*
X92964285Y-74992857D01*
X93007142Y-74950000D01*
X93092857Y-74907142D01*
X93264285Y-74907142D01*
X93350000Y-74950000D01*
X89064285Y-74692857D02*
X89107142Y-74650000D01*
X89192857Y-74607142D01*
X89407142Y-74607142D01*
X89492857Y-74650000D01*
X89535714Y-74692857D01*
X89578571Y-74778571D01*
X89578571Y-74864285D01*
X89535714Y-74992857D01*
X89021428Y-75507142D01*
X89578571Y-75507142D01*
X90350000Y-74907142D02*
X90350000Y-75507142D01*
X90135714Y-74564285D02*
X89921428Y-75207142D01*
X90478571Y-75207142D01*
X97264285Y-74992857D02*
X97178571Y-74950000D01*
X97135714Y-74907142D01*
X97092857Y-74821428D01*
X97092857Y-74778571D01*
X97135714Y-74692857D01*
X97178571Y-74650000D01*
X97264285Y-74607142D01*
X97435714Y-74607142D01*
X97521428Y-74650000D01*
X97564285Y-74692857D01*
X97607142Y-74778571D01*
X97607142Y-74821428D01*
X97564285Y-74907142D01*
X97521428Y-74950000D01*
X97435714Y-74992857D01*
X97264285Y-74992857D01*
X97178571Y-75035714D01*
X97135714Y-75078571D01*
X97092857Y-75164285D01*
X97092857Y-75335714D01*
X97135714Y-75421428D01*
X97178571Y-75464285D01*
X97264285Y-75507142D01*
X97435714Y-75507142D01*
X97521428Y-75464285D01*
X97564285Y-75421428D01*
X97607142Y-75335714D01*
X97607142Y-75164285D01*
X97564285Y-75078571D01*
X97521428Y-75035714D01*
X97435714Y-74992857D01*
X94164285Y-74692857D02*
X94207142Y-74650000D01*
X94292857Y-74607142D01*
X94507142Y-74607142D01*
X94592857Y-74650000D01*
X94635714Y-74692857D01*
X94678571Y-74778571D01*
X94678571Y-74864285D01*
X94635714Y-74992857D01*
X94121428Y-75507142D01*
X94678571Y-75507142D01*
X95492857Y-74607142D02*
X95064285Y-74607142D01*
X95021428Y-75035714D01*
X95064285Y-74992857D01*
X95150000Y-74950000D01*
X95364285Y-74950000D01*
X95450000Y-74992857D01*
X95492857Y-75035714D01*
X95535714Y-75121428D01*
X95535714Y-75335714D01*
X95492857Y-75421428D01*
X95450000Y-75464285D01*
X95364285Y-75507142D01*
X95150000Y-75507142D01*
X95064285Y-75464285D01*
X95021428Y-75421428D01*
X81928571Y-75507142D02*
X81414285Y-75507142D01*
X81671428Y-75507142D02*
X81671428Y-74607142D01*
X81585714Y-74735714D01*
X81500000Y-74821428D01*
X81414285Y-74864285D01*
X82442857Y-74992857D02*
X82357142Y-74950000D01*
X82314285Y-74907142D01*
X82271428Y-74821428D01*
X82271428Y-74778571D01*
X82314285Y-74692857D01*
X82357142Y-74650000D01*
X82442857Y-74607142D01*
X82614285Y-74607142D01*
X82700000Y-74650000D01*
X82742857Y-74692857D01*
X82785714Y-74778571D01*
X82785714Y-74821428D01*
X82742857Y-74907142D01*
X82700000Y-74950000D01*
X82614285Y-74992857D01*
X82442857Y-74992857D01*
X82357142Y-75035714D01*
X82314285Y-75078571D01*
X82271428Y-75164285D01*
X82271428Y-75335714D01*
X82314285Y-75421428D01*
X82357142Y-75464285D01*
X82442857Y-75507142D01*
X82614285Y-75507142D01*
X82700000Y-75464285D01*
X82742857Y-75421428D01*
X82785714Y-75335714D01*
X82785714Y-75164285D01*
X82742857Y-75078571D01*
X82700000Y-75035714D01*
X82614285Y-74992857D01*
X79464285Y-75507142D02*
X79164285Y-75078571D01*
X78950000Y-75507142D02*
X78950000Y-74607142D01*
X79292857Y-74607142D01*
X79378571Y-74650000D01*
X79421428Y-74692857D01*
X79464285Y-74778571D01*
X79464285Y-74907142D01*
X79421428Y-74992857D01*
X79378571Y-75035714D01*
X79292857Y-75078571D01*
X78950000Y-75078571D01*
X79764285Y-75507142D02*
X80235714Y-74907142D01*
X79764285Y-74907142D02*
X80235714Y-75507142D01*
X86464285Y-74692857D02*
X86507142Y-74650000D01*
X86592857Y-74607142D01*
X86807142Y-74607142D01*
X86892857Y-74650000D01*
X86935714Y-74692857D01*
X86978571Y-74778571D01*
X86978571Y-74864285D01*
X86935714Y-74992857D01*
X86421428Y-75507142D01*
X86978571Y-75507142D01*
X87278571Y-74607142D02*
X87835714Y-74607142D01*
X87535714Y-74950000D01*
X87664285Y-74950000D01*
X87750000Y-74992857D01*
X87792857Y-75035714D01*
X87835714Y-75121428D01*
X87835714Y-75335714D01*
X87792857Y-75421428D01*
X87750000Y-75464285D01*
X87664285Y-75507142D01*
X87407142Y-75507142D01*
X87321428Y-75464285D01*
X87278571Y-75421428D01*
X84071428Y-74650000D02*
X83985714Y-74607142D01*
X83857142Y-74607142D01*
X83728571Y-74650000D01*
X83642857Y-74735714D01*
X83600000Y-74821428D01*
X83557142Y-74992857D01*
X83557142Y-75121428D01*
X83600000Y-75292857D01*
X83642857Y-75378571D01*
X83728571Y-75464285D01*
X83857142Y-75507142D01*
X83942857Y-75507142D01*
X84071428Y-75464285D01*
X84114285Y-75421428D01*
X84114285Y-75121428D01*
X83942857Y-75121428D01*
X84500000Y-74907142D02*
X84500000Y-75507142D01*
X84500000Y-74992857D02*
X84542857Y-74950000D01*
X84628571Y-74907142D01*
X84757142Y-74907142D01*
X84842857Y-74950000D01*
X84885714Y-75035714D01*
X84885714Y-75507142D01*
X85700000Y-75507142D02*
X85700000Y-74607142D01*
X85700000Y-75464285D02*
X85614285Y-75507142D01*
X85442857Y-75507142D01*
X85357142Y-75464285D01*
X85314285Y-75421428D01*
X85271428Y-75335714D01*
X85271428Y-75078571D01*
X85314285Y-74992857D01*
X85357142Y-74950000D01*
X85442857Y-74907142D01*
X85614285Y-74907142D01*
X85700000Y-74950000D01*
X76328571Y-74607142D02*
X76842857Y-74607142D01*
X76585714Y-75507142D02*
X76585714Y-74607142D01*
X77057142Y-75507142D02*
X77528571Y-74907142D01*
X77057142Y-74907142D02*
X77528571Y-75507142D01*
X73871428Y-74650000D02*
X73785714Y-74607142D01*
X73657142Y-74607142D01*
X73528571Y-74650000D01*
X73442857Y-74735714D01*
X73400000Y-74821428D01*
X73357142Y-74992857D01*
X73357142Y-75121428D01*
X73400000Y-75292857D01*
X73442857Y-75378571D01*
X73528571Y-75464285D01*
X73657142Y-75507142D01*
X73742857Y-75507142D01*
X73871428Y-75464285D01*
X73914285Y-75421428D01*
X73914285Y-75121428D01*
X73742857Y-75121428D01*
X74300000Y-74907142D02*
X74300000Y-75507142D01*
X74300000Y-74992857D02*
X74342857Y-74950000D01*
X74428571Y-74907142D01*
X74557142Y-74907142D01*
X74642857Y-74950000D01*
X74685714Y-75035714D01*
X74685714Y-75507142D01*
X75500000Y-75507142D02*
X75500000Y-74607142D01*
X75500000Y-75464285D02*
X75414285Y-75507142D01*
X75242857Y-75507142D01*
X75157142Y-75464285D01*
X75114285Y-75421428D01*
X75071428Y-75335714D01*
X75071428Y-75078571D01*
X75114285Y-74992857D01*
X75157142Y-74950000D01*
X75242857Y-74907142D01*
X75414285Y-74907142D01*
X75500000Y-74950000D01*
X71728571Y-74607142D02*
X71300000Y-74607142D01*
X71257142Y-75035714D01*
X71300000Y-74992857D01*
X71385714Y-74950000D01*
X71600000Y-74950000D01*
X71685714Y-74992857D01*
X71728571Y-75035714D01*
X71771428Y-75121428D01*
X71771428Y-75335714D01*
X71728571Y-75421428D01*
X71685714Y-75464285D01*
X71600000Y-75507142D01*
X71385714Y-75507142D01*
X71300000Y-75464285D01*
X71257142Y-75421428D01*
X72028571Y-74607142D02*
X72328571Y-75507142D01*
X72628571Y-74607142D01*
X69178571Y-74607142D02*
X68750000Y-74607142D01*
X68707142Y-75035714D01*
X68750000Y-74992857D01*
X68835714Y-74950000D01*
X69050000Y-74950000D01*
X69135714Y-74992857D01*
X69178571Y-75035714D01*
X69221428Y-75121428D01*
X69221428Y-75335714D01*
X69178571Y-75421428D01*
X69135714Y-75464285D01*
X69050000Y-75507142D01*
X68835714Y-75507142D01*
X68750000Y-75464285D01*
X68707142Y-75421428D01*
X69478571Y-74607142D02*
X69778571Y-75507142D01*
X70078571Y-74607142D01*
D12*
%TO.C,REF\u002A\u002A*%
G36*
X67803910Y-115642348D02*
G01*
X67882454Y-115642778D01*
X67939298Y-115643942D01*
X67978105Y-115646207D01*
X68002538Y-115649940D01*
X68016262Y-115655506D01*
X68022940Y-115663273D01*
X68026236Y-115673605D01*
X68026556Y-115674943D01*
X68031562Y-115699079D01*
X68040829Y-115746701D01*
X68053392Y-115812741D01*
X68068287Y-115892128D01*
X68084551Y-115979796D01*
X68085119Y-115982875D01*
X68101410Y-116068789D01*
X68116652Y-116144696D01*
X68129861Y-116206045D01*
X68140054Y-116248282D01*
X68146248Y-116266855D01*
X68146543Y-116267184D01*
X68164788Y-116276253D01*
X68202405Y-116291367D01*
X68251271Y-116309262D01*
X68251543Y-116309358D01*
X68313093Y-116332493D01*
X68385657Y-116361965D01*
X68454057Y-116391597D01*
X68457294Y-116393062D01*
X68568702Y-116443626D01*
X68815399Y-116275160D01*
X68891077Y-116223803D01*
X68959631Y-116177889D01*
X69017088Y-116140030D01*
X69059476Y-116112837D01*
X69082825Y-116098921D01*
X69085042Y-116097889D01*
X69102010Y-116102484D01*
X69133701Y-116124655D01*
X69181352Y-116165447D01*
X69246198Y-116225905D01*
X69312397Y-116290227D01*
X69376214Y-116353612D01*
X69433329Y-116411451D01*
X69480305Y-116460175D01*
X69513703Y-116496210D01*
X69530085Y-116515984D01*
X69530694Y-116517002D01*
X69532505Y-116530572D01*
X69525683Y-116552733D01*
X69508540Y-116586478D01*
X69479393Y-116634800D01*
X69436555Y-116700692D01*
X69379448Y-116785517D01*
X69328766Y-116860177D01*
X69283461Y-116927140D01*
X69246150Y-116982516D01*
X69219452Y-117022420D01*
X69205985Y-117042962D01*
X69205137Y-117044356D01*
X69206781Y-117064038D01*
X69219245Y-117102293D01*
X69240048Y-117151889D01*
X69247462Y-117167728D01*
X69279814Y-117238290D01*
X69314328Y-117318353D01*
X69342365Y-117387629D01*
X69362568Y-117439045D01*
X69378615Y-117478119D01*
X69387888Y-117498541D01*
X69389041Y-117500114D01*
X69406096Y-117502721D01*
X69446298Y-117509863D01*
X69504302Y-117520523D01*
X69574763Y-117533685D01*
X69652335Y-117548333D01*
X69731672Y-117563449D01*
X69807431Y-117578018D01*
X69874264Y-117591022D01*
X69926828Y-117601445D01*
X69959776Y-117608270D01*
X69967857Y-117610199D01*
X69976205Y-117614962D01*
X69982506Y-117625718D01*
X69987045Y-117646098D01*
X69990104Y-117679734D01*
X69991967Y-117730255D01*
X69992918Y-117801292D01*
X69993240Y-117896476D01*
X69993257Y-117935492D01*
X69993257Y-118252799D01*
X69917057Y-118267839D01*
X69874663Y-118275995D01*
X69811400Y-118287899D01*
X69734962Y-118302116D01*
X69653043Y-118317210D01*
X69630400Y-118321355D01*
X69554806Y-118336053D01*
X69488953Y-118350505D01*
X69438366Y-118363375D01*
X69408574Y-118373322D01*
X69403612Y-118376287D01*
X69391426Y-118397283D01*
X69373953Y-118437967D01*
X69354577Y-118490322D01*
X69350734Y-118501600D01*
X69325339Y-118571523D01*
X69293817Y-118650418D01*
X69262969Y-118721266D01*
X69262817Y-118721595D01*
X69211447Y-118832733D01*
X69380399Y-119081253D01*
X69549352Y-119329772D01*
X69332429Y-119547058D01*
X69266819Y-119611726D01*
X69206979Y-119668733D01*
X69156267Y-119715033D01*
X69118046Y-119747584D01*
X69095675Y-119763343D01*
X69092466Y-119764343D01*
X69073626Y-119756469D01*
X69035180Y-119734578D01*
X68981330Y-119701267D01*
X68916276Y-119659131D01*
X68845940Y-119611943D01*
X68774555Y-119563810D01*
X68710908Y-119521928D01*
X68659041Y-119488871D01*
X68622995Y-119467218D01*
X68606867Y-119459543D01*
X68587189Y-119466037D01*
X68549875Y-119483150D01*
X68502621Y-119507326D01*
X68497612Y-119510013D01*
X68433977Y-119541927D01*
X68390341Y-119557579D01*
X68363202Y-119557745D01*
X68349057Y-119543204D01*
X68348975Y-119543000D01*
X68341905Y-119525779D01*
X68325042Y-119484899D01*
X68299695Y-119423525D01*
X68267171Y-119344819D01*
X68228778Y-119251947D01*
X68185822Y-119148072D01*
X68144222Y-119047502D01*
X68098504Y-118936516D01*
X68056526Y-118833703D01*
X68019548Y-118742215D01*
X67988827Y-118665201D01*
X67965622Y-118605815D01*
X67951190Y-118567209D01*
X67946743Y-118552800D01*
X67957896Y-118536272D01*
X67987069Y-118509930D01*
X68025971Y-118480887D01*
X68136757Y-118389039D01*
X68223351Y-118283759D01*
X68284716Y-118167266D01*
X68319815Y-118041776D01*
X68327608Y-117909507D01*
X68321943Y-117848457D01*
X68291078Y-117721795D01*
X68237920Y-117609941D01*
X68165767Y-117514001D01*
X68077917Y-117435076D01*
X67977665Y-117374270D01*
X67868310Y-117332687D01*
X67753147Y-117311428D01*
X67635475Y-117311599D01*
X67518590Y-117334301D01*
X67405789Y-117380638D01*
X67300369Y-117451713D01*
X67256368Y-117491911D01*
X67171979Y-117595129D01*
X67113222Y-117707925D01*
X67079704Y-117827010D01*
X67071035Y-117949095D01*
X67086823Y-118070893D01*
X67126678Y-118189116D01*
X67190207Y-118300475D01*
X67277021Y-118401684D01*
X67374029Y-118480887D01*
X67414437Y-118511162D01*
X67442982Y-118537219D01*
X67453257Y-118552825D01*
X67447877Y-118569843D01*
X67432575Y-118610500D01*
X67408612Y-118671642D01*
X67377244Y-118750119D01*
X67339732Y-118842780D01*
X67297333Y-118946472D01*
X67255663Y-119047526D01*
X67209690Y-119158607D01*
X67167107Y-119261541D01*
X67129221Y-119353165D01*
X67097340Y-119430316D01*
X67072771Y-119489831D01*
X67056820Y-119528544D01*
X67050910Y-119543000D01*
X67036948Y-119557685D01*
X67009940Y-119557642D01*
X66966413Y-119542099D01*
X66902890Y-119510284D01*
X66902388Y-119510013D01*
X66854560Y-119485323D01*
X66815897Y-119467338D01*
X66794095Y-119459614D01*
X66793133Y-119459543D01*
X66776721Y-119467378D01*
X66740487Y-119489165D01*
X66688474Y-119522328D01*
X66624725Y-119564291D01*
X66554060Y-119611943D01*
X66482116Y-119660191D01*
X66417274Y-119702151D01*
X66363735Y-119735227D01*
X66325697Y-119756821D01*
X66307533Y-119764343D01*
X66290808Y-119754457D01*
X66257180Y-119726826D01*
X66210010Y-119684495D01*
X66152658Y-119630505D01*
X66088484Y-119567899D01*
X66067497Y-119546983D01*
X65850499Y-119329623D01*
X66015668Y-119087220D01*
X66065864Y-119012781D01*
X66109919Y-118945972D01*
X66145362Y-118890665D01*
X66169719Y-118850729D01*
X66180522Y-118830036D01*
X66180838Y-118828563D01*
X66175143Y-118809058D01*
X66159826Y-118769822D01*
X66137537Y-118717430D01*
X66121893Y-118682355D01*
X66092641Y-118615201D01*
X66065094Y-118547358D01*
X66043737Y-118490034D01*
X66037935Y-118472572D01*
X66021452Y-118425938D01*
X66005340Y-118389905D01*
X65996490Y-118376287D01*
X65976960Y-118367952D01*
X65934334Y-118356137D01*
X65874145Y-118342181D01*
X65801922Y-118327422D01*
X65769600Y-118321355D01*
X65687522Y-118306273D01*
X65608795Y-118291669D01*
X65541109Y-118278980D01*
X65492160Y-118269642D01*
X65482943Y-118267839D01*
X65406743Y-118252799D01*
X65406743Y-117935492D01*
X65406914Y-117831154D01*
X65407616Y-117752213D01*
X65409134Y-117695038D01*
X65411749Y-117655999D01*
X65415746Y-117631465D01*
X65421409Y-117617805D01*
X65429020Y-117611389D01*
X65432143Y-117610199D01*
X65450978Y-117605980D01*
X65492588Y-117597562D01*
X65551630Y-117585961D01*
X65622757Y-117572195D01*
X65700625Y-117557280D01*
X65779887Y-117542232D01*
X65855198Y-117528069D01*
X65921213Y-117515806D01*
X65972587Y-117506461D01*
X66003975Y-117501050D01*
X66010959Y-117500114D01*
X66017285Y-117487596D01*
X66031290Y-117454246D01*
X66050355Y-117406377D01*
X66057634Y-117387629D01*
X66086996Y-117315195D01*
X66121571Y-117235170D01*
X66152537Y-117167728D01*
X66175323Y-117116159D01*
X66190482Y-117073785D01*
X66195542Y-117047834D01*
X66194736Y-117044356D01*
X66184041Y-117027936D01*
X66159620Y-116991417D01*
X66124095Y-116938687D01*
X66080087Y-116873635D01*
X66030217Y-116800151D01*
X66020356Y-116785645D01*
X65962492Y-116699704D01*
X65919956Y-116634261D01*
X65891054Y-116586304D01*
X65874090Y-116552820D01*
X65867367Y-116530795D01*
X65869190Y-116517217D01*
X65869236Y-116517131D01*
X65883586Y-116499297D01*
X65915323Y-116464817D01*
X65961010Y-116417268D01*
X66017204Y-116360222D01*
X66080468Y-116297255D01*
X66087602Y-116290227D01*
X66167330Y-116213020D01*
X66228857Y-116156330D01*
X66273421Y-116119110D01*
X66302257Y-116100315D01*
X66314958Y-116097889D01*
X66333494Y-116108471D01*
X66371961Y-116132916D01*
X66426386Y-116168612D01*
X66492798Y-116212947D01*
X66567225Y-116263311D01*
X66584601Y-116275160D01*
X66831297Y-116443626D01*
X66942706Y-116393062D01*
X67010457Y-116363595D01*
X67083183Y-116333959D01*
X67145703Y-116310330D01*
X67148457Y-116309358D01*
X67197360Y-116291457D01*
X67235057Y-116276320D01*
X67253425Y-116267210D01*
X67253456Y-116267184D01*
X67259285Y-116250717D01*
X67269192Y-116210219D01*
X67282195Y-116150242D01*
X67297309Y-116075340D01*
X67313552Y-115990064D01*
X67314881Y-115982875D01*
X67331175Y-115895014D01*
X67346133Y-115815260D01*
X67358791Y-115748681D01*
X67368186Y-115700347D01*
X67373354Y-115675325D01*
X67373444Y-115674943D01*
X67376589Y-115664299D01*
X67382704Y-115656262D01*
X67395453Y-115650467D01*
X67418500Y-115646547D01*
X67455509Y-115644135D01*
X67510144Y-115642865D01*
X67586067Y-115642371D01*
X67686944Y-115642286D01*
X67700000Y-115642286D01*
X67803910Y-115642348D01*
G37*
X67803910Y-115642348D02*
X67882454Y-115642778D01*
X67939298Y-115643942D01*
X67978105Y-115646207D01*
X68002538Y-115649940D01*
X68016262Y-115655506D01*
X68022940Y-115663273D01*
X68026236Y-115673605D01*
X68026556Y-115674943D01*
X68031562Y-115699079D01*
X68040829Y-115746701D01*
X68053392Y-115812741D01*
X68068287Y-115892128D01*
X68084551Y-115979796D01*
X68085119Y-115982875D01*
X68101410Y-116068789D01*
X68116652Y-116144696D01*
X68129861Y-116206045D01*
X68140054Y-116248282D01*
X68146248Y-116266855D01*
X68146543Y-116267184D01*
X68164788Y-116276253D01*
X68202405Y-116291367D01*
X68251271Y-116309262D01*
X68251543Y-116309358D01*
X68313093Y-116332493D01*
X68385657Y-116361965D01*
X68454057Y-116391597D01*
X68457294Y-116393062D01*
X68568702Y-116443626D01*
X68815399Y-116275160D01*
X68891077Y-116223803D01*
X68959631Y-116177889D01*
X69017088Y-116140030D01*
X69059476Y-116112837D01*
X69082825Y-116098921D01*
X69085042Y-116097889D01*
X69102010Y-116102484D01*
X69133701Y-116124655D01*
X69181352Y-116165447D01*
X69246198Y-116225905D01*
X69312397Y-116290227D01*
X69376214Y-116353612D01*
X69433329Y-116411451D01*
X69480305Y-116460175D01*
X69513703Y-116496210D01*
X69530085Y-116515984D01*
X69530694Y-116517002D01*
X69532505Y-116530572D01*
X69525683Y-116552733D01*
X69508540Y-116586478D01*
X69479393Y-116634800D01*
X69436555Y-116700692D01*
X69379448Y-116785517D01*
X69328766Y-116860177D01*
X69283461Y-116927140D01*
X69246150Y-116982516D01*
X69219452Y-117022420D01*
X69205985Y-117042962D01*
X69205137Y-117044356D01*
X69206781Y-117064038D01*
X69219245Y-117102293D01*
X69240048Y-117151889D01*
X69247462Y-117167728D01*
X69279814Y-117238290D01*
X69314328Y-117318353D01*
X69342365Y-117387629D01*
X69362568Y-117439045D01*
X69378615Y-117478119D01*
X69387888Y-117498541D01*
X69389041Y-117500114D01*
X69406096Y-117502721D01*
X69446298Y-117509863D01*
X69504302Y-117520523D01*
X69574763Y-117533685D01*
X69652335Y-117548333D01*
X69731672Y-117563449D01*
X69807431Y-117578018D01*
X69874264Y-117591022D01*
X69926828Y-117601445D01*
X69959776Y-117608270D01*
X69967857Y-117610199D01*
X69976205Y-117614962D01*
X69982506Y-117625718D01*
X69987045Y-117646098D01*
X69990104Y-117679734D01*
X69991967Y-117730255D01*
X69992918Y-117801292D01*
X69993240Y-117896476D01*
X69993257Y-117935492D01*
X69993257Y-118252799D01*
X69917057Y-118267839D01*
X69874663Y-118275995D01*
X69811400Y-118287899D01*
X69734962Y-118302116D01*
X69653043Y-118317210D01*
X69630400Y-118321355D01*
X69554806Y-118336053D01*
X69488953Y-118350505D01*
X69438366Y-118363375D01*
X69408574Y-118373322D01*
X69403612Y-118376287D01*
X69391426Y-118397283D01*
X69373953Y-118437967D01*
X69354577Y-118490322D01*
X69350734Y-118501600D01*
X69325339Y-118571523D01*
X69293817Y-118650418D01*
X69262969Y-118721266D01*
X69262817Y-118721595D01*
X69211447Y-118832733D01*
X69380399Y-119081253D01*
X69549352Y-119329772D01*
X69332429Y-119547058D01*
X69266819Y-119611726D01*
X69206979Y-119668733D01*
X69156267Y-119715033D01*
X69118046Y-119747584D01*
X69095675Y-119763343D01*
X69092466Y-119764343D01*
X69073626Y-119756469D01*
X69035180Y-119734578D01*
X68981330Y-119701267D01*
X68916276Y-119659131D01*
X68845940Y-119611943D01*
X68774555Y-119563810D01*
X68710908Y-119521928D01*
X68659041Y-119488871D01*
X68622995Y-119467218D01*
X68606867Y-119459543D01*
X68587189Y-119466037D01*
X68549875Y-119483150D01*
X68502621Y-119507326D01*
X68497612Y-119510013D01*
X68433977Y-119541927D01*
X68390341Y-119557579D01*
X68363202Y-119557745D01*
X68349057Y-119543204D01*
X68348975Y-119543000D01*
X68341905Y-119525779D01*
X68325042Y-119484899D01*
X68299695Y-119423525D01*
X68267171Y-119344819D01*
X68228778Y-119251947D01*
X68185822Y-119148072D01*
X68144222Y-119047502D01*
X68098504Y-118936516D01*
X68056526Y-118833703D01*
X68019548Y-118742215D01*
X67988827Y-118665201D01*
X67965622Y-118605815D01*
X67951190Y-118567209D01*
X67946743Y-118552800D01*
X67957896Y-118536272D01*
X67987069Y-118509930D01*
X68025971Y-118480887D01*
X68136757Y-118389039D01*
X68223351Y-118283759D01*
X68284716Y-118167266D01*
X68319815Y-118041776D01*
X68327608Y-117909507D01*
X68321943Y-117848457D01*
X68291078Y-117721795D01*
X68237920Y-117609941D01*
X68165767Y-117514001D01*
X68077917Y-117435076D01*
X67977665Y-117374270D01*
X67868310Y-117332687D01*
X67753147Y-117311428D01*
X67635475Y-117311599D01*
X67518590Y-117334301D01*
X67405789Y-117380638D01*
X67300369Y-117451713D01*
X67256368Y-117491911D01*
X67171979Y-117595129D01*
X67113222Y-117707925D01*
X67079704Y-117827010D01*
X67071035Y-117949095D01*
X67086823Y-118070893D01*
X67126678Y-118189116D01*
X67190207Y-118300475D01*
X67277021Y-118401684D01*
X67374029Y-118480887D01*
X67414437Y-118511162D01*
X67442982Y-118537219D01*
X67453257Y-118552825D01*
X67447877Y-118569843D01*
X67432575Y-118610500D01*
X67408612Y-118671642D01*
X67377244Y-118750119D01*
X67339732Y-118842780D01*
X67297333Y-118946472D01*
X67255663Y-119047526D01*
X67209690Y-119158607D01*
X67167107Y-119261541D01*
X67129221Y-119353165D01*
X67097340Y-119430316D01*
X67072771Y-119489831D01*
X67056820Y-119528544D01*
X67050910Y-119543000D01*
X67036948Y-119557685D01*
X67009940Y-119557642D01*
X66966413Y-119542099D01*
X66902890Y-119510284D01*
X66902388Y-119510013D01*
X66854560Y-119485323D01*
X66815897Y-119467338D01*
X66794095Y-119459614D01*
X66793133Y-119459543D01*
X66776721Y-119467378D01*
X66740487Y-119489165D01*
X66688474Y-119522328D01*
X66624725Y-119564291D01*
X66554060Y-119611943D01*
X66482116Y-119660191D01*
X66417274Y-119702151D01*
X66363735Y-119735227D01*
X66325697Y-119756821D01*
X66307533Y-119764343D01*
X66290808Y-119754457D01*
X66257180Y-119726826D01*
X66210010Y-119684495D01*
X66152658Y-119630505D01*
X66088484Y-119567899D01*
X66067497Y-119546983D01*
X65850499Y-119329623D01*
X66015668Y-119087220D01*
X66065864Y-119012781D01*
X66109919Y-118945972D01*
X66145362Y-118890665D01*
X66169719Y-118850729D01*
X66180522Y-118830036D01*
X66180838Y-118828563D01*
X66175143Y-118809058D01*
X66159826Y-118769822D01*
X66137537Y-118717430D01*
X66121893Y-118682355D01*
X66092641Y-118615201D01*
X66065094Y-118547358D01*
X66043737Y-118490034D01*
X66037935Y-118472572D01*
X66021452Y-118425938D01*
X66005340Y-118389905D01*
X65996490Y-118376287D01*
X65976960Y-118367952D01*
X65934334Y-118356137D01*
X65874145Y-118342181D01*
X65801922Y-118327422D01*
X65769600Y-118321355D01*
X65687522Y-118306273D01*
X65608795Y-118291669D01*
X65541109Y-118278980D01*
X65492160Y-118269642D01*
X65482943Y-118267839D01*
X65406743Y-118252799D01*
X65406743Y-117935492D01*
X65406914Y-117831154D01*
X65407616Y-117752213D01*
X65409134Y-117695038D01*
X65411749Y-117655999D01*
X65415746Y-117631465D01*
X65421409Y-117617805D01*
X65429020Y-117611389D01*
X65432143Y-117610199D01*
X65450978Y-117605980D01*
X65492588Y-117597562D01*
X65551630Y-117585961D01*
X65622757Y-117572195D01*
X65700625Y-117557280D01*
X65779887Y-117542232D01*
X65855198Y-117528069D01*
X65921213Y-117515806D01*
X65972587Y-117506461D01*
X66003975Y-117501050D01*
X66010959Y-117500114D01*
X66017285Y-117487596D01*
X66031290Y-117454246D01*
X66050355Y-117406377D01*
X66057634Y-117387629D01*
X66086996Y-117315195D01*
X66121571Y-117235170D01*
X66152537Y-117167728D01*
X66175323Y-117116159D01*
X66190482Y-117073785D01*
X66195542Y-117047834D01*
X66194736Y-117044356D01*
X66184041Y-117027936D01*
X66159620Y-116991417D01*
X66124095Y-116938687D01*
X66080087Y-116873635D01*
X66030217Y-116800151D01*
X66020356Y-116785645D01*
X65962492Y-116699704D01*
X65919956Y-116634261D01*
X65891054Y-116586304D01*
X65874090Y-116552820D01*
X65867367Y-116530795D01*
X65869190Y-116517217D01*
X65869236Y-116517131D01*
X65883586Y-116499297D01*
X65915323Y-116464817D01*
X65961010Y-116417268D01*
X66017204Y-116360222D01*
X66080468Y-116297255D01*
X66087602Y-116290227D01*
X66167330Y-116213020D01*
X66228857Y-116156330D01*
X66273421Y-116119110D01*
X66302257Y-116100315D01*
X66314958Y-116097889D01*
X66333494Y-116108471D01*
X66371961Y-116132916D01*
X66426386Y-116168612D01*
X66492798Y-116212947D01*
X66567225Y-116263311D01*
X66584601Y-116275160D01*
X66831297Y-116443626D01*
X66942706Y-116393062D01*
X67010457Y-116363595D01*
X67083183Y-116333959D01*
X67145703Y-116310330D01*
X67148457Y-116309358D01*
X67197360Y-116291457D01*
X67235057Y-116276320D01*
X67253425Y-116267210D01*
X67253456Y-116267184D01*
X67259285Y-116250717D01*
X67269192Y-116210219D01*
X67282195Y-116150242D01*
X67297309Y-116075340D01*
X67313552Y-115990064D01*
X67314881Y-115982875D01*
X67331175Y-115895014D01*
X67346133Y-115815260D01*
X67358791Y-115748681D01*
X67368186Y-115700347D01*
X67373354Y-115675325D01*
X67373444Y-115674943D01*
X67376589Y-115664299D01*
X67382704Y-115656262D01*
X67395453Y-115650467D01*
X67418500Y-115646547D01*
X67455509Y-115644135D01*
X67510144Y-115642865D01*
X67586067Y-115642371D01*
X67686944Y-115642286D01*
X67700000Y-115642286D01*
X67803910Y-115642348D01*
G36*
X70853595Y-120366966D02*
G01*
X70911021Y-120404497D01*
X70938719Y-120438096D01*
X70960662Y-120499064D01*
X70962405Y-120547308D01*
X70958457Y-120611816D01*
X70809686Y-120676934D01*
X70737349Y-120710202D01*
X70690084Y-120736964D01*
X70665507Y-120760144D01*
X70661237Y-120782667D01*
X70674889Y-120807455D01*
X70689943Y-120823886D01*
X70733746Y-120850235D01*
X70781389Y-120852081D01*
X70825145Y-120831546D01*
X70857289Y-120790752D01*
X70863038Y-120776347D01*
X70890576Y-120731356D01*
X70922258Y-120712182D01*
X70965714Y-120695779D01*
X70965714Y-120757966D01*
X70961872Y-120800283D01*
X70946823Y-120835969D01*
X70915280Y-120876943D01*
X70910592Y-120882267D01*
X70875506Y-120918720D01*
X70845347Y-120938283D01*
X70807615Y-120947283D01*
X70776335Y-120950230D01*
X70720385Y-120950965D01*
X70680555Y-120941660D01*
X70655708Y-120927846D01*
X70616656Y-120897467D01*
X70589625Y-120864613D01*
X70572517Y-120823294D01*
X70563238Y-120767521D01*
X70559693Y-120691305D01*
X70559410Y-120652622D01*
X70560372Y-120606247D01*
X70648007Y-120606247D01*
X70649023Y-120631126D01*
X70651556Y-120635200D01*
X70668274Y-120629665D01*
X70704249Y-120615017D01*
X70752331Y-120594190D01*
X70762386Y-120589714D01*
X70823152Y-120558814D01*
X70856632Y-120531657D01*
X70863990Y-120506220D01*
X70846391Y-120480481D01*
X70831856Y-120469109D01*
X70779410Y-120446364D01*
X70730322Y-120450122D01*
X70689227Y-120477884D01*
X70660758Y-120527152D01*
X70651631Y-120566257D01*
X70648007Y-120606247D01*
X70560372Y-120606247D01*
X70561285Y-120562249D01*
X70568196Y-120495384D01*
X70581884Y-120446695D01*
X70604096Y-120410849D01*
X70636574Y-120382513D01*
X70650733Y-120373355D01*
X70715053Y-120349507D01*
X70785473Y-120348006D01*
X70853595Y-120366966D01*
G37*
X70853595Y-120366966D02*
X70911021Y-120404497D01*
X70938719Y-120438096D01*
X70960662Y-120499064D01*
X70962405Y-120547308D01*
X70958457Y-120611816D01*
X70809686Y-120676934D01*
X70737349Y-120710202D01*
X70690084Y-120736964D01*
X70665507Y-120760144D01*
X70661237Y-120782667D01*
X70674889Y-120807455D01*
X70689943Y-120823886D01*
X70733746Y-120850235D01*
X70781389Y-120852081D01*
X70825145Y-120831546D01*
X70857289Y-120790752D01*
X70863038Y-120776347D01*
X70890576Y-120731356D01*
X70922258Y-120712182D01*
X70965714Y-120695779D01*
X70965714Y-120757966D01*
X70961872Y-120800283D01*
X70946823Y-120835969D01*
X70915280Y-120876943D01*
X70910592Y-120882267D01*
X70875506Y-120918720D01*
X70845347Y-120938283D01*
X70807615Y-120947283D01*
X70776335Y-120950230D01*
X70720385Y-120950965D01*
X70680555Y-120941660D01*
X70655708Y-120927846D01*
X70616656Y-120897467D01*
X70589625Y-120864613D01*
X70572517Y-120823294D01*
X70563238Y-120767521D01*
X70559693Y-120691305D01*
X70559410Y-120652622D01*
X70560372Y-120606247D01*
X70648007Y-120606247D01*
X70649023Y-120631126D01*
X70651556Y-120635200D01*
X70668274Y-120629665D01*
X70704249Y-120615017D01*
X70752331Y-120594190D01*
X70762386Y-120589714D01*
X70823152Y-120558814D01*
X70856632Y-120531657D01*
X70863990Y-120506220D01*
X70846391Y-120480481D01*
X70831856Y-120469109D01*
X70779410Y-120446364D01*
X70730322Y-120450122D01*
X70689227Y-120477884D01*
X70660758Y-120527152D01*
X70651631Y-120566257D01*
X70648007Y-120606247D01*
X70560372Y-120606247D01*
X70561285Y-120562249D01*
X70568196Y-120495384D01*
X70581884Y-120446695D01*
X70604096Y-120410849D01*
X70636574Y-120382513D01*
X70650733Y-120373355D01*
X70715053Y-120349507D01*
X70785473Y-120348006D01*
X70853595Y-120366966D01*
G36*
X70352600Y-120358752D02*
G01*
X70369948Y-120366334D01*
X70411356Y-120399128D01*
X70446765Y-120446547D01*
X70468664Y-120497151D01*
X70472229Y-120522098D01*
X70460279Y-120556927D01*
X70434067Y-120575357D01*
X70405964Y-120586516D01*
X70393095Y-120588572D01*
X70386829Y-120573649D01*
X70374456Y-120541175D01*
X70369028Y-120526502D01*
X70338590Y-120475744D01*
X70294520Y-120450427D01*
X70238010Y-120451206D01*
X70233825Y-120452203D01*
X70203655Y-120466507D01*
X70181476Y-120494393D01*
X70166327Y-120539287D01*
X70157250Y-120604615D01*
X70153286Y-120693804D01*
X70152914Y-120741261D01*
X70152730Y-120816071D01*
X70151522Y-120867069D01*
X70148309Y-120899471D01*
X70142109Y-120918495D01*
X70131940Y-120929356D01*
X70116819Y-120937272D01*
X70115946Y-120937670D01*
X70086828Y-120949981D01*
X70072403Y-120954514D01*
X70070186Y-120940809D01*
X70068289Y-120902925D01*
X70066847Y-120845715D01*
X70065998Y-120774027D01*
X70065829Y-120721565D01*
X70066692Y-120620047D01*
X70070070Y-120543032D01*
X70077142Y-120486023D01*
X70089088Y-120444526D01*
X70107090Y-120414043D01*
X70132327Y-120390080D01*
X70157247Y-120373355D01*
X70217171Y-120351097D01*
X70286911Y-120346076D01*
X70352600Y-120358752D01*
G37*
X70352600Y-120358752D02*
X70369948Y-120366334D01*
X70411356Y-120399128D01*
X70446765Y-120446547D01*
X70468664Y-120497151D01*
X70472229Y-120522098D01*
X70460279Y-120556927D01*
X70434067Y-120575357D01*
X70405964Y-120586516D01*
X70393095Y-120588572D01*
X70386829Y-120573649D01*
X70374456Y-120541175D01*
X70369028Y-120526502D01*
X70338590Y-120475744D01*
X70294520Y-120450427D01*
X70238010Y-120451206D01*
X70233825Y-120452203D01*
X70203655Y-120466507D01*
X70181476Y-120494393D01*
X70166327Y-120539287D01*
X70157250Y-120604615D01*
X70153286Y-120693804D01*
X70152914Y-120741261D01*
X70152730Y-120816071D01*
X70151522Y-120867069D01*
X70148309Y-120899471D01*
X70142109Y-120918495D01*
X70131940Y-120929356D01*
X70116819Y-120937272D01*
X70115946Y-120937670D01*
X70086828Y-120949981D01*
X70072403Y-120954514D01*
X70070186Y-120940809D01*
X70068289Y-120902925D01*
X70066847Y-120845715D01*
X70065998Y-120774027D01*
X70065829Y-120721565D01*
X70066692Y-120620047D01*
X70070070Y-120543032D01*
X70077142Y-120486023D01*
X70089088Y-120444526D01*
X70107090Y-120414043D01*
X70132327Y-120390080D01*
X70157247Y-120373355D01*
X70217171Y-120351097D01*
X70286911Y-120346076D01*
X70352600Y-120358752D01*
G36*
X69844876Y-120356335D02*
G01*
X69886667Y-120375344D01*
X69919469Y-120398378D01*
X69943503Y-120424133D01*
X69960097Y-120457358D01*
X69970577Y-120502800D01*
X69976271Y-120565207D01*
X69978507Y-120649327D01*
X69978743Y-120704721D01*
X69978743Y-120920826D01*
X69941774Y-120937670D01*
X69912656Y-120949981D01*
X69898231Y-120954514D01*
X69895472Y-120941025D01*
X69893282Y-120904653D01*
X69891942Y-120851542D01*
X69891657Y-120809372D01*
X69890434Y-120748447D01*
X69887136Y-120700115D01*
X69882321Y-120670518D01*
X69878496Y-120664229D01*
X69852783Y-120670652D01*
X69812418Y-120687125D01*
X69765679Y-120709458D01*
X69720845Y-120733457D01*
X69686193Y-120754930D01*
X69670002Y-120769685D01*
X69669938Y-120769845D01*
X69671330Y-120797152D01*
X69683818Y-120823219D01*
X69705743Y-120844392D01*
X69737743Y-120851474D01*
X69765092Y-120850649D01*
X69803826Y-120850042D01*
X69824158Y-120859116D01*
X69836369Y-120883092D01*
X69837909Y-120887613D01*
X69843203Y-120921806D01*
X69829047Y-120942568D01*
X69792148Y-120952462D01*
X69752289Y-120954292D01*
X69680562Y-120940727D01*
X69643432Y-120921355D01*
X69597576Y-120875845D01*
X69573256Y-120819983D01*
X69571073Y-120760957D01*
X69591629Y-120705953D01*
X69622549Y-120671486D01*
X69653420Y-120652189D01*
X69701942Y-120627759D01*
X69758485Y-120602985D01*
X69767910Y-120599199D01*
X69830019Y-120571791D01*
X69865822Y-120547634D01*
X69877337Y-120523619D01*
X69866580Y-120496635D01*
X69848114Y-120475543D01*
X69804469Y-120449572D01*
X69756446Y-120447624D01*
X69712406Y-120467637D01*
X69680709Y-120507551D01*
X69676549Y-120517848D01*
X69652327Y-120555724D01*
X69616965Y-120583842D01*
X69572343Y-120606917D01*
X69572343Y-120541485D01*
X69574969Y-120501506D01*
X69586230Y-120469997D01*
X69611199Y-120436378D01*
X69635169Y-120410484D01*
X69672441Y-120373817D01*
X69701401Y-120354121D01*
X69732505Y-120346220D01*
X69767713Y-120344914D01*
X69844876Y-120356335D01*
G37*
X69844876Y-120356335D02*
X69886667Y-120375344D01*
X69919469Y-120398378D01*
X69943503Y-120424133D01*
X69960097Y-120457358D01*
X69970577Y-120502800D01*
X69976271Y-120565207D01*
X69978507Y-120649327D01*
X69978743Y-120704721D01*
X69978743Y-120920826D01*
X69941774Y-120937670D01*
X69912656Y-120949981D01*
X69898231Y-120954514D01*
X69895472Y-120941025D01*
X69893282Y-120904653D01*
X69891942Y-120851542D01*
X69891657Y-120809372D01*
X69890434Y-120748447D01*
X69887136Y-120700115D01*
X69882321Y-120670518D01*
X69878496Y-120664229D01*
X69852783Y-120670652D01*
X69812418Y-120687125D01*
X69765679Y-120709458D01*
X69720845Y-120733457D01*
X69686193Y-120754930D01*
X69670002Y-120769685D01*
X69669938Y-120769845D01*
X69671330Y-120797152D01*
X69683818Y-120823219D01*
X69705743Y-120844392D01*
X69737743Y-120851474D01*
X69765092Y-120850649D01*
X69803826Y-120850042D01*
X69824158Y-120859116D01*
X69836369Y-120883092D01*
X69837909Y-120887613D01*
X69843203Y-120921806D01*
X69829047Y-120942568D01*
X69792148Y-120952462D01*
X69752289Y-120954292D01*
X69680562Y-120940727D01*
X69643432Y-120921355D01*
X69597576Y-120875845D01*
X69573256Y-120819983D01*
X69571073Y-120760957D01*
X69591629Y-120705953D01*
X69622549Y-120671486D01*
X69653420Y-120652189D01*
X69701942Y-120627759D01*
X69758485Y-120602985D01*
X69767910Y-120599199D01*
X69830019Y-120571791D01*
X69865822Y-120547634D01*
X69877337Y-120523619D01*
X69866580Y-120496635D01*
X69848114Y-120475543D01*
X69804469Y-120449572D01*
X69756446Y-120447624D01*
X69712406Y-120467637D01*
X69680709Y-120507551D01*
X69676549Y-120517848D01*
X69652327Y-120555724D01*
X69616965Y-120583842D01*
X69572343Y-120606917D01*
X69572343Y-120541485D01*
X69574969Y-120501506D01*
X69586230Y-120469997D01*
X69611199Y-120436378D01*
X69635169Y-120410484D01*
X69672441Y-120373817D01*
X69701401Y-120354121D01*
X69732505Y-120346220D01*
X69767713Y-120344914D01*
X69844876Y-120356335D01*
G36*
X69479833Y-120358663D02*
G01*
X69482048Y-120396850D01*
X69483784Y-120454886D01*
X69484899Y-120528180D01*
X69485257Y-120605055D01*
X69485257Y-120865196D01*
X69439326Y-120911127D01*
X69407675Y-120939429D01*
X69379890Y-120950893D01*
X69341915Y-120950168D01*
X69326840Y-120948321D01*
X69279726Y-120942948D01*
X69240756Y-120939869D01*
X69231257Y-120939585D01*
X69199233Y-120941445D01*
X69153432Y-120946114D01*
X69135674Y-120948321D01*
X69092057Y-120951735D01*
X69062745Y-120944320D01*
X69033680Y-120921427D01*
X69023188Y-120911127D01*
X68977257Y-120865196D01*
X68977257Y-120378602D01*
X69014226Y-120361758D01*
X69046059Y-120349282D01*
X69064683Y-120344914D01*
X69069458Y-120358718D01*
X69073921Y-120397286D01*
X69077775Y-120456356D01*
X69080722Y-120531663D01*
X69082143Y-120595286D01*
X69086114Y-120845657D01*
X69120759Y-120850556D01*
X69152268Y-120847131D01*
X69167708Y-120836041D01*
X69172023Y-120815308D01*
X69175708Y-120771145D01*
X69178469Y-120709146D01*
X69180012Y-120634909D01*
X69180235Y-120596706D01*
X69180457Y-120376783D01*
X69226166Y-120360849D01*
X69258518Y-120350015D01*
X69276115Y-120344962D01*
X69276623Y-120344914D01*
X69278388Y-120358648D01*
X69280329Y-120396730D01*
X69282282Y-120454482D01*
X69284084Y-120527227D01*
X69285343Y-120595286D01*
X69289314Y-120845657D01*
X69376400Y-120845657D01*
X69380396Y-120617240D01*
X69384392Y-120388822D01*
X69426847Y-120366868D01*
X69458192Y-120351793D01*
X69476744Y-120344951D01*
X69477279Y-120344914D01*
X69479833Y-120358663D01*
G37*
X69479833Y-120358663D02*
X69482048Y-120396850D01*
X69483784Y-120454886D01*
X69484899Y-120528180D01*
X69485257Y-120605055D01*
X69485257Y-120865196D01*
X69439326Y-120911127D01*
X69407675Y-120939429D01*
X69379890Y-120950893D01*
X69341915Y-120950168D01*
X69326840Y-120948321D01*
X69279726Y-120942948D01*
X69240756Y-120939869D01*
X69231257Y-120939585D01*
X69199233Y-120941445D01*
X69153432Y-120946114D01*
X69135674Y-120948321D01*
X69092057Y-120951735D01*
X69062745Y-120944320D01*
X69033680Y-120921427D01*
X69023188Y-120911127D01*
X68977257Y-120865196D01*
X68977257Y-120378602D01*
X69014226Y-120361758D01*
X69046059Y-120349282D01*
X69064683Y-120344914D01*
X69069458Y-120358718D01*
X69073921Y-120397286D01*
X69077775Y-120456356D01*
X69080722Y-120531663D01*
X69082143Y-120595286D01*
X69086114Y-120845657D01*
X69120759Y-120850556D01*
X69152268Y-120847131D01*
X69167708Y-120836041D01*
X69172023Y-120815308D01*
X69175708Y-120771145D01*
X69178469Y-120709146D01*
X69180012Y-120634909D01*
X69180235Y-120596706D01*
X69180457Y-120376783D01*
X69226166Y-120360849D01*
X69258518Y-120350015D01*
X69276115Y-120344962D01*
X69276623Y-120344914D01*
X69278388Y-120358648D01*
X69280329Y-120396730D01*
X69282282Y-120454482D01*
X69284084Y-120527227D01*
X69285343Y-120595286D01*
X69289314Y-120845657D01*
X69376400Y-120845657D01*
X69380396Y-120617240D01*
X69384392Y-120388822D01*
X69426847Y-120366868D01*
X69458192Y-120351793D01*
X69476744Y-120344951D01*
X69477279Y-120344914D01*
X69479833Y-120358663D01*
G36*
X68890117Y-120465358D02*
G01*
X68889933Y-120573837D01*
X68889219Y-120657287D01*
X68887675Y-120719704D01*
X68885001Y-120765085D01*
X68880894Y-120797429D01*
X68875055Y-120820733D01*
X68867182Y-120838995D01*
X68861221Y-120849418D01*
X68811855Y-120905945D01*
X68749264Y-120941377D01*
X68680013Y-120954090D01*
X68610668Y-120942463D01*
X68569375Y-120921568D01*
X68526025Y-120885422D01*
X68496481Y-120841276D01*
X68478655Y-120783462D01*
X68470463Y-120706313D01*
X68469302Y-120649714D01*
X68469458Y-120645647D01*
X68570857Y-120645647D01*
X68571476Y-120710550D01*
X68574314Y-120753514D01*
X68580840Y-120781622D01*
X68592523Y-120801953D01*
X68606483Y-120817288D01*
X68653365Y-120846890D01*
X68703701Y-120849419D01*
X68751276Y-120824705D01*
X68754979Y-120821356D01*
X68770783Y-120803935D01*
X68780693Y-120783209D01*
X68786058Y-120752362D01*
X68788228Y-120704577D01*
X68788571Y-120651748D01*
X68787827Y-120585381D01*
X68784748Y-120541106D01*
X68778061Y-120512009D01*
X68766496Y-120491173D01*
X68757013Y-120480107D01*
X68712960Y-120452198D01*
X68662224Y-120448843D01*
X68613796Y-120470159D01*
X68604450Y-120478073D01*
X68588540Y-120495647D01*
X68578610Y-120516587D01*
X68573278Y-120547782D01*
X68571163Y-120596122D01*
X68570857Y-120645647D01*
X68469458Y-120645647D01*
X68472810Y-120558568D01*
X68484726Y-120490086D01*
X68507135Y-120438600D01*
X68542124Y-120398443D01*
X68569375Y-120377861D01*
X68618907Y-120355625D01*
X68676316Y-120345304D01*
X68729682Y-120348067D01*
X68759543Y-120359212D01*
X68771261Y-120362383D01*
X68779037Y-120350557D01*
X68784465Y-120318866D01*
X68788571Y-120270593D01*
X68793067Y-120216829D01*
X68799313Y-120184482D01*
X68810676Y-120165985D01*
X68830528Y-120153770D01*
X68843000Y-120148362D01*
X68890171Y-120128601D01*
X68890117Y-120465358D01*
G37*
X68890117Y-120465358D02*
X68889933Y-120573837D01*
X68889219Y-120657287D01*
X68887675Y-120719704D01*
X68885001Y-120765085D01*
X68880894Y-120797429D01*
X68875055Y-120820733D01*
X68867182Y-120838995D01*
X68861221Y-120849418D01*
X68811855Y-120905945D01*
X68749264Y-120941377D01*
X68680013Y-120954090D01*
X68610668Y-120942463D01*
X68569375Y-120921568D01*
X68526025Y-120885422D01*
X68496481Y-120841276D01*
X68478655Y-120783462D01*
X68470463Y-120706313D01*
X68469302Y-120649714D01*
X68469458Y-120645647D01*
X68570857Y-120645647D01*
X68571476Y-120710550D01*
X68574314Y-120753514D01*
X68580840Y-120781622D01*
X68592523Y-120801953D01*
X68606483Y-120817288D01*
X68653365Y-120846890D01*
X68703701Y-120849419D01*
X68751276Y-120824705D01*
X68754979Y-120821356D01*
X68770783Y-120803935D01*
X68780693Y-120783209D01*
X68786058Y-120752362D01*
X68788228Y-120704577D01*
X68788571Y-120651748D01*
X68787827Y-120585381D01*
X68784748Y-120541106D01*
X68778061Y-120512009D01*
X68766496Y-120491173D01*
X68757013Y-120480107D01*
X68712960Y-120452198D01*
X68662224Y-120448843D01*
X68613796Y-120470159D01*
X68604450Y-120478073D01*
X68588540Y-120495647D01*
X68578610Y-120516587D01*
X68573278Y-120547782D01*
X68571163Y-120596122D01*
X68570857Y-120645647D01*
X68469458Y-120645647D01*
X68472810Y-120558568D01*
X68484726Y-120490086D01*
X68507135Y-120438600D01*
X68542124Y-120398443D01*
X68569375Y-120377861D01*
X68618907Y-120355625D01*
X68676316Y-120345304D01*
X68729682Y-120348067D01*
X68759543Y-120359212D01*
X68771261Y-120362383D01*
X68779037Y-120350557D01*
X68784465Y-120318866D01*
X68788571Y-120270593D01*
X68793067Y-120216829D01*
X68799313Y-120184482D01*
X68810676Y-120165985D01*
X68830528Y-120153770D01*
X68843000Y-120148362D01*
X68890171Y-120128601D01*
X68890117Y-120465358D01*
G36*
X68229926Y-120349755D02*
G01*
X68295858Y-120374084D01*
X68349273Y-120417117D01*
X68370164Y-120447409D01*
X68392939Y-120502994D01*
X68392466Y-120543186D01*
X68368562Y-120570217D01*
X68359717Y-120574813D01*
X68321530Y-120589144D01*
X68302028Y-120585472D01*
X68295422Y-120561407D01*
X68295086Y-120548114D01*
X68282992Y-120499210D01*
X68251471Y-120464999D01*
X68207659Y-120448476D01*
X68158695Y-120452634D01*
X68118894Y-120474227D01*
X68105450Y-120486544D01*
X68095921Y-120501487D01*
X68089485Y-120524075D01*
X68085317Y-120559328D01*
X68082597Y-120612266D01*
X68080502Y-120687907D01*
X68079960Y-120711857D01*
X68077981Y-120793790D01*
X68075731Y-120851455D01*
X68072357Y-120889608D01*
X68067006Y-120913004D01*
X68058824Y-120926398D01*
X68046959Y-120934545D01*
X68039362Y-120938144D01*
X68007102Y-120950452D01*
X67988111Y-120954514D01*
X67981836Y-120940948D01*
X67978006Y-120899934D01*
X67976600Y-120830999D01*
X67977598Y-120733669D01*
X67977908Y-120718657D01*
X67980101Y-120629859D01*
X67982693Y-120565019D01*
X67986382Y-120519067D01*
X67991864Y-120486935D01*
X67999835Y-120463553D01*
X68010993Y-120443852D01*
X68016830Y-120435410D01*
X68050296Y-120398057D01*
X68087727Y-120369003D01*
X68092309Y-120366467D01*
X68159426Y-120346443D01*
X68229926Y-120349755D01*
G37*
X68229926Y-120349755D02*
X68295858Y-120374084D01*
X68349273Y-120417117D01*
X68370164Y-120447409D01*
X68392939Y-120502994D01*
X68392466Y-120543186D01*
X68368562Y-120570217D01*
X68359717Y-120574813D01*
X68321530Y-120589144D01*
X68302028Y-120585472D01*
X68295422Y-120561407D01*
X68295086Y-120548114D01*
X68282992Y-120499210D01*
X68251471Y-120464999D01*
X68207659Y-120448476D01*
X68158695Y-120452634D01*
X68118894Y-120474227D01*
X68105450Y-120486544D01*
X68095921Y-120501487D01*
X68089485Y-120524075D01*
X68085317Y-120559328D01*
X68082597Y-120612266D01*
X68080502Y-120687907D01*
X68079960Y-120711857D01*
X68077981Y-120793790D01*
X68075731Y-120851455D01*
X68072357Y-120889608D01*
X68067006Y-120913004D01*
X68058824Y-120926398D01*
X68046959Y-120934545D01*
X68039362Y-120938144D01*
X68007102Y-120950452D01*
X67988111Y-120954514D01*
X67981836Y-120940948D01*
X67978006Y-120899934D01*
X67976600Y-120830999D01*
X67977598Y-120733669D01*
X67977908Y-120718657D01*
X67980101Y-120629859D01*
X67982693Y-120565019D01*
X67986382Y-120519067D01*
X67991864Y-120486935D01*
X67999835Y-120463553D01*
X68010993Y-120443852D01*
X68016830Y-120435410D01*
X68050296Y-120398057D01*
X68087727Y-120369003D01*
X68092309Y-120366467D01*
X68159426Y-120346443D01*
X68229926Y-120349755D01*
G36*
X67739744Y-120350968D02*
G01*
X67796616Y-120372087D01*
X67797267Y-120372493D01*
X67832440Y-120398380D01*
X67858407Y-120428633D01*
X67876670Y-120468058D01*
X67888732Y-120521462D01*
X67896096Y-120593651D01*
X67900264Y-120689432D01*
X67900629Y-120703078D01*
X67905876Y-120908842D01*
X67861716Y-120931678D01*
X67829763Y-120947110D01*
X67810470Y-120954423D01*
X67809578Y-120954514D01*
X67806239Y-120941022D01*
X67803587Y-120904626D01*
X67801956Y-120851452D01*
X67801600Y-120808393D01*
X67801592Y-120738641D01*
X67798403Y-120694837D01*
X67787288Y-120673944D01*
X67763501Y-120672925D01*
X67722296Y-120688741D01*
X67660086Y-120717815D01*
X67614341Y-120741963D01*
X67590813Y-120762913D01*
X67583896Y-120785747D01*
X67583886Y-120786877D01*
X67595299Y-120826212D01*
X67629092Y-120847462D01*
X67680809Y-120850539D01*
X67718061Y-120850006D01*
X67737703Y-120860735D01*
X67749952Y-120886505D01*
X67757002Y-120919337D01*
X67746842Y-120937966D01*
X67743017Y-120940632D01*
X67707001Y-120951340D01*
X67656566Y-120952856D01*
X67604626Y-120945759D01*
X67567822Y-120932788D01*
X67516938Y-120889585D01*
X67488014Y-120829446D01*
X67482286Y-120782462D01*
X67486657Y-120740082D01*
X67502475Y-120705488D01*
X67533797Y-120674763D01*
X67584678Y-120643990D01*
X67659176Y-120609252D01*
X67663714Y-120607288D01*
X67730821Y-120576287D01*
X67772232Y-120550862D01*
X67789981Y-120528014D01*
X67786107Y-120504745D01*
X67762643Y-120478056D01*
X67755627Y-120471914D01*
X67708630Y-120448100D01*
X67659933Y-120449103D01*
X67617522Y-120472451D01*
X67589384Y-120515675D01*
X67586769Y-120524160D01*
X67561308Y-120565308D01*
X67529001Y-120585128D01*
X67482286Y-120604770D01*
X67482286Y-120553950D01*
X67496496Y-120480082D01*
X67538675Y-120412327D01*
X67560624Y-120389661D01*
X67610517Y-120360569D01*
X67673967Y-120347400D01*
X67739744Y-120350968D01*
G37*
X67739744Y-120350968D02*
X67796616Y-120372087D01*
X67797267Y-120372493D01*
X67832440Y-120398380D01*
X67858407Y-120428633D01*
X67876670Y-120468058D01*
X67888732Y-120521462D01*
X67896096Y-120593651D01*
X67900264Y-120689432D01*
X67900629Y-120703078D01*
X67905876Y-120908842D01*
X67861716Y-120931678D01*
X67829763Y-120947110D01*
X67810470Y-120954423D01*
X67809578Y-120954514D01*
X67806239Y-120941022D01*
X67803587Y-120904626D01*
X67801956Y-120851452D01*
X67801600Y-120808393D01*
X67801592Y-120738641D01*
X67798403Y-120694837D01*
X67787288Y-120673944D01*
X67763501Y-120672925D01*
X67722296Y-120688741D01*
X67660086Y-120717815D01*
X67614341Y-120741963D01*
X67590813Y-120762913D01*
X67583896Y-120785747D01*
X67583886Y-120786877D01*
X67595299Y-120826212D01*
X67629092Y-120847462D01*
X67680809Y-120850539D01*
X67718061Y-120850006D01*
X67737703Y-120860735D01*
X67749952Y-120886505D01*
X67757002Y-120919337D01*
X67746842Y-120937966D01*
X67743017Y-120940632D01*
X67707001Y-120951340D01*
X67656566Y-120952856D01*
X67604626Y-120945759D01*
X67567822Y-120932788D01*
X67516938Y-120889585D01*
X67488014Y-120829446D01*
X67482286Y-120782462D01*
X67486657Y-120740082D01*
X67502475Y-120705488D01*
X67533797Y-120674763D01*
X67584678Y-120643990D01*
X67659176Y-120609252D01*
X67663714Y-120607288D01*
X67730821Y-120576287D01*
X67772232Y-120550862D01*
X67789981Y-120528014D01*
X67786107Y-120504745D01*
X67762643Y-120478056D01*
X67755627Y-120471914D01*
X67708630Y-120448100D01*
X67659933Y-120449103D01*
X67617522Y-120472451D01*
X67589384Y-120515675D01*
X67586769Y-120524160D01*
X67561308Y-120565308D01*
X67529001Y-120585128D01*
X67482286Y-120604770D01*
X67482286Y-120553950D01*
X67496496Y-120480082D01*
X67538675Y-120412327D01*
X67560624Y-120389661D01*
X67610517Y-120360569D01*
X67673967Y-120347400D01*
X67739744Y-120350968D01*
G36*
X67075886Y-120251289D02*
G01*
X67080139Y-120310613D01*
X67085025Y-120345572D01*
X67091795Y-120360820D01*
X67101702Y-120361015D01*
X67104914Y-120359195D01*
X67147644Y-120346015D01*
X67203227Y-120346785D01*
X67259737Y-120360333D01*
X67295082Y-120377861D01*
X67331321Y-120405861D01*
X67357813Y-120437549D01*
X67375999Y-120477813D01*
X67387322Y-120531543D01*
X67393222Y-120603626D01*
X67395143Y-120698951D01*
X67395177Y-120717237D01*
X67395200Y-120922646D01*
X67349491Y-120938580D01*
X67317027Y-120949420D01*
X67299215Y-120954468D01*
X67298691Y-120954514D01*
X67296937Y-120940828D01*
X67295444Y-120903076D01*
X67294326Y-120846224D01*
X67293697Y-120775234D01*
X67293600Y-120732073D01*
X67293398Y-120646973D01*
X67292358Y-120585981D01*
X67289831Y-120544177D01*
X67285164Y-120516642D01*
X67277707Y-120498456D01*
X67266811Y-120484698D01*
X67260007Y-120478073D01*
X67213272Y-120451375D01*
X67162272Y-120449375D01*
X67116001Y-120471955D01*
X67107444Y-120480107D01*
X67094893Y-120495436D01*
X67086188Y-120513618D01*
X67080631Y-120539909D01*
X67077526Y-120579562D01*
X67076176Y-120637832D01*
X67075886Y-120718173D01*
X67075886Y-120922646D01*
X67030177Y-120938580D01*
X66997713Y-120949420D01*
X66979901Y-120954468D01*
X66979377Y-120954514D01*
X66978037Y-120940623D01*
X66976828Y-120901439D01*
X66975801Y-120840700D01*
X66975002Y-120762141D01*
X66974481Y-120669498D01*
X66974286Y-120566509D01*
X66974286Y-120169342D01*
X67021457Y-120149444D01*
X67068629Y-120129547D01*
X67075886Y-120251289D01*
G37*
X67075886Y-120251289D02*
X67080139Y-120310613D01*
X67085025Y-120345572D01*
X67091795Y-120360820D01*
X67101702Y-120361015D01*
X67104914Y-120359195D01*
X67147644Y-120346015D01*
X67203227Y-120346785D01*
X67259737Y-120360333D01*
X67295082Y-120377861D01*
X67331321Y-120405861D01*
X67357813Y-120437549D01*
X67375999Y-120477813D01*
X67387322Y-120531543D01*
X67393222Y-120603626D01*
X67395143Y-120698951D01*
X67395177Y-120717237D01*
X67395200Y-120922646D01*
X67349491Y-120938580D01*
X67317027Y-120949420D01*
X67299215Y-120954468D01*
X67298691Y-120954514D01*
X67296937Y-120940828D01*
X67295444Y-120903076D01*
X67294326Y-120846224D01*
X67293697Y-120775234D01*
X67293600Y-120732073D01*
X67293398Y-120646973D01*
X67292358Y-120585981D01*
X67289831Y-120544177D01*
X67285164Y-120516642D01*
X67277707Y-120498456D01*
X67266811Y-120484698D01*
X67260007Y-120478073D01*
X67213272Y-120451375D01*
X67162272Y-120449375D01*
X67116001Y-120471955D01*
X67107444Y-120480107D01*
X67094893Y-120495436D01*
X67086188Y-120513618D01*
X67080631Y-120539909D01*
X67077526Y-120579562D01*
X67076176Y-120637832D01*
X67075886Y-120718173D01*
X67075886Y-120922646D01*
X67030177Y-120938580D01*
X66997713Y-120949420D01*
X66979901Y-120954468D01*
X66979377Y-120954514D01*
X66978037Y-120940623D01*
X66976828Y-120901439D01*
X66975801Y-120840700D01*
X66975002Y-120762141D01*
X66974481Y-120669498D01*
X66974286Y-120566509D01*
X66974286Y-120169342D01*
X67021457Y-120149444D01*
X67068629Y-120129547D01*
X67075886Y-120251289D01*
G36*
X65868303Y-120331239D02*
G01*
X65925527Y-120369735D01*
X65969749Y-120425335D01*
X65996167Y-120496086D01*
X66001510Y-120548162D01*
X66000903Y-120569893D01*
X65995822Y-120586531D01*
X65981855Y-120601437D01*
X65954589Y-120617973D01*
X65909612Y-120639498D01*
X65842511Y-120669374D01*
X65842171Y-120669524D01*
X65780407Y-120697813D01*
X65729759Y-120722933D01*
X65695404Y-120742179D01*
X65682518Y-120752848D01*
X65682514Y-120752934D01*
X65693872Y-120776166D01*
X65720431Y-120801774D01*
X65750923Y-120820221D01*
X65766370Y-120823886D01*
X65808515Y-120811212D01*
X65844808Y-120779471D01*
X65862517Y-120744572D01*
X65879552Y-120718845D01*
X65912922Y-120689546D01*
X65952149Y-120664235D01*
X65986756Y-120650471D01*
X65993993Y-120649714D01*
X66002139Y-120662160D01*
X66002630Y-120693972D01*
X65996643Y-120736866D01*
X65985357Y-120782558D01*
X65969950Y-120822761D01*
X65969171Y-120824322D01*
X65922804Y-120889062D01*
X65862711Y-120933097D01*
X65794465Y-120954711D01*
X65723638Y-120952185D01*
X65655804Y-120923804D01*
X65652788Y-120921808D01*
X65599427Y-120873448D01*
X65564340Y-120810352D01*
X65544922Y-120727387D01*
X65542316Y-120704078D01*
X65537701Y-120594055D01*
X65543233Y-120542748D01*
X65682514Y-120542748D01*
X65684324Y-120574753D01*
X65694222Y-120584093D01*
X65718898Y-120577105D01*
X65757795Y-120560587D01*
X65801275Y-120539881D01*
X65802356Y-120539333D01*
X65839209Y-120519949D01*
X65854000Y-120507013D01*
X65850353Y-120493451D01*
X65834995Y-120475632D01*
X65795923Y-120449845D01*
X65753846Y-120447950D01*
X65716103Y-120466717D01*
X65690034Y-120502915D01*
X65682514Y-120542748D01*
X65543233Y-120542748D01*
X65547194Y-120506027D01*
X65571550Y-120436212D01*
X65605456Y-120387302D01*
X65666653Y-120337878D01*
X65734063Y-120313359D01*
X65802880Y-120311797D01*
X65868303Y-120331239D01*
G37*
X65868303Y-120331239D02*
X65925527Y-120369735D01*
X65969749Y-120425335D01*
X65996167Y-120496086D01*
X66001510Y-120548162D01*
X66000903Y-120569893D01*
X65995822Y-120586531D01*
X65981855Y-120601437D01*
X65954589Y-120617973D01*
X65909612Y-120639498D01*
X65842511Y-120669374D01*
X65842171Y-120669524D01*
X65780407Y-120697813D01*
X65729759Y-120722933D01*
X65695404Y-120742179D01*
X65682518Y-120752848D01*
X65682514Y-120752934D01*
X65693872Y-120776166D01*
X65720431Y-120801774D01*
X65750923Y-120820221D01*
X65766370Y-120823886D01*
X65808515Y-120811212D01*
X65844808Y-120779471D01*
X65862517Y-120744572D01*
X65879552Y-120718845D01*
X65912922Y-120689546D01*
X65952149Y-120664235D01*
X65986756Y-120650471D01*
X65993993Y-120649714D01*
X66002139Y-120662160D01*
X66002630Y-120693972D01*
X65996643Y-120736866D01*
X65985357Y-120782558D01*
X65969950Y-120822761D01*
X65969171Y-120824322D01*
X65922804Y-120889062D01*
X65862711Y-120933097D01*
X65794465Y-120954711D01*
X65723638Y-120952185D01*
X65655804Y-120923804D01*
X65652788Y-120921808D01*
X65599427Y-120873448D01*
X65564340Y-120810352D01*
X65544922Y-120727387D01*
X65542316Y-120704078D01*
X65537701Y-120594055D01*
X65543233Y-120542748D01*
X65682514Y-120542748D01*
X65684324Y-120574753D01*
X65694222Y-120584093D01*
X65718898Y-120577105D01*
X65757795Y-120560587D01*
X65801275Y-120539881D01*
X65802356Y-120539333D01*
X65839209Y-120519949D01*
X65854000Y-120507013D01*
X65850353Y-120493451D01*
X65834995Y-120475632D01*
X65795923Y-120449845D01*
X65753846Y-120447950D01*
X65716103Y-120466717D01*
X65690034Y-120502915D01*
X65682514Y-120542748D01*
X65543233Y-120542748D01*
X65547194Y-120506027D01*
X65571550Y-120436212D01*
X65605456Y-120387302D01*
X65666653Y-120337878D01*
X65734063Y-120313359D01*
X65802880Y-120311797D01*
X65868303Y-120331239D01*
G36*
X64741115Y-120321962D02*
G01*
X64809145Y-120357733D01*
X64859351Y-120415301D01*
X64877185Y-120452312D01*
X64891063Y-120507882D01*
X64898167Y-120578096D01*
X64898840Y-120654727D01*
X64893427Y-120729552D01*
X64882270Y-120794342D01*
X64865714Y-120840873D01*
X64860626Y-120848887D01*
X64800355Y-120908707D01*
X64728769Y-120944535D01*
X64651092Y-120955020D01*
X64572548Y-120938810D01*
X64550689Y-120929092D01*
X64508122Y-120899143D01*
X64470763Y-120859433D01*
X64467232Y-120854397D01*
X64452881Y-120830124D01*
X64443394Y-120804178D01*
X64437790Y-120770022D01*
X64435086Y-120721119D01*
X64434299Y-120650935D01*
X64434286Y-120635200D01*
X64434322Y-120630192D01*
X64579429Y-120630192D01*
X64580273Y-120696430D01*
X64583596Y-120740386D01*
X64590583Y-120768779D01*
X64602416Y-120788325D01*
X64608457Y-120794857D01*
X64643186Y-120819680D01*
X64676903Y-120818548D01*
X64710995Y-120797016D01*
X64731329Y-120774029D01*
X64743371Y-120740478D01*
X64750134Y-120687569D01*
X64750598Y-120681399D01*
X64751752Y-120585513D01*
X64739688Y-120514299D01*
X64714570Y-120468194D01*
X64676560Y-120447635D01*
X64662992Y-120446514D01*
X64627364Y-120452152D01*
X64602994Y-120471686D01*
X64588093Y-120509042D01*
X64580875Y-120568150D01*
X64579429Y-120630192D01*
X64434322Y-120630192D01*
X64434826Y-120560413D01*
X64437096Y-120508159D01*
X64442068Y-120471949D01*
X64450713Y-120445299D01*
X64464005Y-120421722D01*
X64466943Y-120417338D01*
X64516313Y-120358249D01*
X64570109Y-120323947D01*
X64635602Y-120310331D01*
X64657842Y-120309665D01*
X64741115Y-120321962D01*
G37*
X64741115Y-120321962D02*
X64809145Y-120357733D01*
X64859351Y-120415301D01*
X64877185Y-120452312D01*
X64891063Y-120507882D01*
X64898167Y-120578096D01*
X64898840Y-120654727D01*
X64893427Y-120729552D01*
X64882270Y-120794342D01*
X64865714Y-120840873D01*
X64860626Y-120848887D01*
X64800355Y-120908707D01*
X64728769Y-120944535D01*
X64651092Y-120955020D01*
X64572548Y-120938810D01*
X64550689Y-120929092D01*
X64508122Y-120899143D01*
X64470763Y-120859433D01*
X64467232Y-120854397D01*
X64452881Y-120830124D01*
X64443394Y-120804178D01*
X64437790Y-120770022D01*
X64435086Y-120721119D01*
X64434299Y-120650935D01*
X64434286Y-120635200D01*
X64434322Y-120630192D01*
X64579429Y-120630192D01*
X64580273Y-120696430D01*
X64583596Y-120740386D01*
X64590583Y-120768779D01*
X64602416Y-120788325D01*
X64608457Y-120794857D01*
X64643186Y-120819680D01*
X64676903Y-120818548D01*
X64710995Y-120797016D01*
X64731329Y-120774029D01*
X64743371Y-120740478D01*
X64750134Y-120687569D01*
X64750598Y-120681399D01*
X64751752Y-120585513D01*
X64739688Y-120514299D01*
X64714570Y-120468194D01*
X64676560Y-120447635D01*
X64662992Y-120446514D01*
X64627364Y-120452152D01*
X64602994Y-120471686D01*
X64588093Y-120509042D01*
X64580875Y-120568150D01*
X64579429Y-120630192D01*
X64434322Y-120630192D01*
X64434826Y-120560413D01*
X64437096Y-120508159D01*
X64442068Y-120471949D01*
X64450713Y-120445299D01*
X64464005Y-120421722D01*
X64466943Y-120417338D01*
X64516313Y-120358249D01*
X64570109Y-120323947D01*
X64635602Y-120310331D01*
X64657842Y-120309665D01*
X64741115Y-120321962D01*
G36*
X66416093Y-120327780D02*
G01*
X66462672Y-120354723D01*
X66495057Y-120381466D01*
X66518742Y-120409484D01*
X66535059Y-120443748D01*
X66545339Y-120489227D01*
X66550914Y-120550892D01*
X66553116Y-120633711D01*
X66553371Y-120693246D01*
X66553371Y-120912391D01*
X66491686Y-120940044D01*
X66430000Y-120967697D01*
X66422743Y-120727670D01*
X66419744Y-120638028D01*
X66416598Y-120572962D01*
X66412701Y-120528026D01*
X66407447Y-120498770D01*
X66400231Y-120480748D01*
X66390450Y-120469511D01*
X66387312Y-120467079D01*
X66339761Y-120448083D01*
X66291697Y-120455600D01*
X66263086Y-120475543D01*
X66251447Y-120489675D01*
X66243391Y-120508220D01*
X66238271Y-120536334D01*
X66235441Y-120579173D01*
X66234256Y-120641895D01*
X66234057Y-120707261D01*
X66234018Y-120789268D01*
X66232614Y-120847316D01*
X66227914Y-120886465D01*
X66217987Y-120911780D01*
X66200903Y-120928323D01*
X66174732Y-120941156D01*
X66139775Y-120954491D01*
X66101596Y-120969007D01*
X66106141Y-120711389D01*
X66107971Y-120618519D01*
X66110112Y-120549889D01*
X66113181Y-120500711D01*
X66117794Y-120466198D01*
X66124568Y-120441562D01*
X66134119Y-120422016D01*
X66145634Y-120404770D01*
X66201190Y-120349680D01*
X66268980Y-120317822D01*
X66342713Y-120310191D01*
X66416093Y-120327780D01*
G37*
X66416093Y-120327780D02*
X66462672Y-120354723D01*
X66495057Y-120381466D01*
X66518742Y-120409484D01*
X66535059Y-120443748D01*
X66545339Y-120489227D01*
X66550914Y-120550892D01*
X66553116Y-120633711D01*
X66553371Y-120693246D01*
X66553371Y-120912391D01*
X66491686Y-120940044D01*
X66430000Y-120967697D01*
X66422743Y-120727670D01*
X66419744Y-120638028D01*
X66416598Y-120572962D01*
X66412701Y-120528026D01*
X66407447Y-120498770D01*
X66400231Y-120480748D01*
X66390450Y-120469511D01*
X66387312Y-120467079D01*
X66339761Y-120448083D01*
X66291697Y-120455600D01*
X66263086Y-120475543D01*
X66251447Y-120489675D01*
X66243391Y-120508220D01*
X66238271Y-120536334D01*
X66235441Y-120579173D01*
X66234256Y-120641895D01*
X66234057Y-120707261D01*
X66234018Y-120789268D01*
X66232614Y-120847316D01*
X66227914Y-120886465D01*
X66217987Y-120911780D01*
X66200903Y-120928323D01*
X66174732Y-120941156D01*
X66139775Y-120954491D01*
X66101596Y-120969007D01*
X66106141Y-120711389D01*
X66107971Y-120618519D01*
X66110112Y-120549889D01*
X66113181Y-120500711D01*
X66117794Y-120466198D01*
X66124568Y-120441562D01*
X66134119Y-120422016D01*
X66145634Y-120404770D01*
X66201190Y-120349680D01*
X66268980Y-120317822D01*
X66342713Y-120310191D01*
X66416093Y-120327780D01*
G36*
X65299744Y-120319918D02*
G01*
X65355201Y-120347568D01*
X65404148Y-120398480D01*
X65417629Y-120417338D01*
X65432314Y-120442015D01*
X65441842Y-120468816D01*
X65447293Y-120504587D01*
X65449747Y-120556169D01*
X65450286Y-120624267D01*
X65447852Y-120717588D01*
X65439394Y-120787657D01*
X65423174Y-120839931D01*
X65397454Y-120879869D01*
X65360497Y-120912929D01*
X65357782Y-120914886D01*
X65321360Y-120934908D01*
X65277502Y-120944815D01*
X65221724Y-120947257D01*
X65131048Y-120947257D01*
X65131010Y-121035283D01*
X65130166Y-121084308D01*
X65125024Y-121113065D01*
X65111587Y-121130311D01*
X65085858Y-121144808D01*
X65079679Y-121147769D01*
X65050764Y-121161648D01*
X65028376Y-121170414D01*
X65011729Y-121171171D01*
X65000036Y-121161023D01*
X64992510Y-121137073D01*
X64988366Y-121096426D01*
X64986815Y-121036186D01*
X64987071Y-120953455D01*
X64988349Y-120845339D01*
X64988748Y-120813000D01*
X64990185Y-120701524D01*
X64991472Y-120628603D01*
X65130971Y-120628603D01*
X65131755Y-120690499D01*
X65135240Y-120730997D01*
X65143124Y-120757708D01*
X65157105Y-120778244D01*
X65166597Y-120788260D01*
X65205404Y-120817567D01*
X65239763Y-120819952D01*
X65275216Y-120795750D01*
X65276114Y-120794857D01*
X65290539Y-120776153D01*
X65299313Y-120750732D01*
X65303739Y-120711584D01*
X65305118Y-120651697D01*
X65305143Y-120638430D01*
X65301812Y-120555901D01*
X65290969Y-120498691D01*
X65271340Y-120463766D01*
X65241650Y-120448094D01*
X65224491Y-120446514D01*
X65183766Y-120453926D01*
X65155832Y-120478330D01*
X65139017Y-120522980D01*
X65131650Y-120591130D01*
X65130971Y-120628603D01*
X64991472Y-120628603D01*
X64991708Y-120615245D01*
X64993677Y-120550333D01*
X64996450Y-120502958D01*
X65000388Y-120469290D01*
X65005849Y-120445498D01*
X65013192Y-120427753D01*
X65022777Y-120412224D01*
X65026887Y-120406381D01*
X65081405Y-120351185D01*
X65150336Y-120319890D01*
X65230072Y-120311165D01*
X65299744Y-120319918D01*
G37*
X65299744Y-120319918D02*
X65355201Y-120347568D01*
X65404148Y-120398480D01*
X65417629Y-120417338D01*
X65432314Y-120442015D01*
X65441842Y-120468816D01*
X65447293Y-120504587D01*
X65449747Y-120556169D01*
X65450286Y-120624267D01*
X65447852Y-120717588D01*
X65439394Y-120787657D01*
X65423174Y-120839931D01*
X65397454Y-120879869D01*
X65360497Y-120912929D01*
X65357782Y-120914886D01*
X65321360Y-120934908D01*
X65277502Y-120944815D01*
X65221724Y-120947257D01*
X65131048Y-120947257D01*
X65131010Y-121035283D01*
X65130166Y-121084308D01*
X65125024Y-121113065D01*
X65111587Y-121130311D01*
X65085858Y-121144808D01*
X65079679Y-121147769D01*
X65050764Y-121161648D01*
X65028376Y-121170414D01*
X65011729Y-121171171D01*
X65000036Y-121161023D01*
X64992510Y-121137073D01*
X64988366Y-121096426D01*
X64986815Y-121036186D01*
X64987071Y-120953455D01*
X64988349Y-120845339D01*
X64988748Y-120813000D01*
X64990185Y-120701524D01*
X64991472Y-120628603D01*
X65130971Y-120628603D01*
X65131755Y-120690499D01*
X65135240Y-120730997D01*
X65143124Y-120757708D01*
X65157105Y-120778244D01*
X65166597Y-120788260D01*
X65205404Y-120817567D01*
X65239763Y-120819952D01*
X65275216Y-120795750D01*
X65276114Y-120794857D01*
X65290539Y-120776153D01*
X65299313Y-120750732D01*
X65303739Y-120711584D01*
X65305118Y-120651697D01*
X65305143Y-120638430D01*
X65301812Y-120555901D01*
X65290969Y-120498691D01*
X65271340Y-120463766D01*
X65241650Y-120448094D01*
X65224491Y-120446514D01*
X65183766Y-120453926D01*
X65155832Y-120478330D01*
X65139017Y-120522980D01*
X65131650Y-120591130D01*
X65130971Y-120628603D01*
X64991472Y-120628603D01*
X64991708Y-120615245D01*
X64993677Y-120550333D01*
X64996450Y-120502958D01*
X65000388Y-120469290D01*
X65005849Y-120445498D01*
X65013192Y-120427753D01*
X65022777Y-120412224D01*
X65026887Y-120406381D01*
X65081405Y-120351185D01*
X65150336Y-120319890D01*
X65230072Y-120311165D01*
X65299744Y-120319918D01*
D13*
%TO.C,Fan*%
X68433333Y-86865000D02*
X68433333Y-88135000D01*
X67080000Y-88065000D02*
X68433333Y-88065000D01*
X67080000Y-87945000D02*
X68433333Y-87945000D01*
X67080000Y-87825000D02*
X68433333Y-87825000D01*
X67080000Y-87705000D02*
X68433333Y-87705000D01*
X67080000Y-87585000D02*
X68433333Y-87585000D01*
X67080000Y-87465000D02*
X68433333Y-87465000D01*
X67080000Y-87345000D02*
X68433333Y-87345000D01*
X67080000Y-87225000D02*
X68433333Y-87225000D01*
X67080000Y-87105000D02*
X68433333Y-87105000D01*
X67080000Y-86985000D02*
X68433333Y-86985000D01*
X71140000Y-86865000D02*
X67080000Y-86865000D01*
X71140000Y-88135000D02*
X71140000Y-86865000D01*
X67080000Y-88135000D02*
X71140000Y-88135000D01*
X67080000Y-86865000D02*
X67080000Y-88135000D01*
X63920000Y-84840000D02*
X63920000Y-86223000D01*
X63920000Y-84840000D02*
X65304000Y-84840000D01*
X74060000Y-85080000D02*
X74060000Y-89920000D01*
X64160000Y-85080000D02*
X64160000Y-89920000D01*
X64160000Y-89920000D02*
X74060000Y-89920000D01*
X64160000Y-85080000D02*
X74060000Y-85080000D01*
%TO.C,J108*%
X120170000Y-93170000D02*
X122830000Y-93170000D01*
X120170000Y-93170000D02*
X120170000Y-128790000D01*
X120170000Y-128790000D02*
X122830000Y-128790000D01*
X122830000Y-93170000D02*
X122830000Y-128790000D01*
X122830000Y-90570000D02*
X122830000Y-91900000D01*
X121500000Y-90570000D02*
X122830000Y-90570000D01*
%TO.C,J107*%
X114170000Y-93170000D02*
X116830000Y-93170000D01*
X114170000Y-93170000D02*
X114170000Y-128790000D01*
X114170000Y-128790000D02*
X116830000Y-128790000D01*
X116830000Y-93170000D02*
X116830000Y-128790000D01*
X116830000Y-90570000D02*
X116830000Y-91900000D01*
X115500000Y-90570000D02*
X116830000Y-90570000D01*
%TO.C,J101*%
X68610000Y-77150000D02*
X68610000Y-75790000D01*
X118390000Y-82350000D02*
X118960000Y-82350000D01*
X115850000Y-82350000D02*
X116870000Y-82350000D01*
X113310000Y-82350000D02*
X114330000Y-82350000D01*
X110770000Y-82350000D02*
X111790000Y-82350000D01*
X108230000Y-82350000D02*
X109250000Y-82350000D01*
X105690000Y-82350000D02*
X106710000Y-82350000D01*
X103150000Y-82350000D02*
X104170000Y-82350000D01*
X100610000Y-82350000D02*
X101630000Y-82350000D01*
X98070000Y-82350000D02*
X99090000Y-82350000D01*
X95530000Y-82350000D02*
X96550000Y-82350000D01*
X92990000Y-82350000D02*
X94010000Y-82350000D01*
X90450000Y-82350000D02*
X91470000Y-82350000D01*
X87910000Y-82350000D02*
X88930000Y-82350000D01*
X85370000Y-82350000D02*
X86390000Y-82350000D01*
X82830000Y-82350000D02*
X83850000Y-82350000D01*
X80290000Y-82350000D02*
X81310000Y-82350000D01*
X77750000Y-82350000D02*
X78770000Y-82350000D01*
X75210000Y-82350000D02*
X76230000Y-82350000D01*
X72670000Y-82350000D02*
X73690000Y-82350000D01*
X70130000Y-82350000D02*
X71150000Y-82350000D01*
X68040000Y-82350000D02*
X68610000Y-82350000D01*
X118960000Y-82350000D02*
X118960000Y-77150000D01*
X118390000Y-77150000D02*
X118960000Y-77150000D01*
X115850000Y-77150000D02*
X116870000Y-77150000D01*
X113310000Y-77150000D02*
X114330000Y-77150000D01*
X110770000Y-77150000D02*
X111790000Y-77150000D01*
X108230000Y-77150000D02*
X109250000Y-77150000D01*
X105690000Y-77150000D02*
X106710000Y-77150000D01*
X103150000Y-77150000D02*
X104170000Y-77150000D01*
X100610000Y-77150000D02*
X101630000Y-77150000D01*
X98070000Y-77150000D02*
X99090000Y-77150000D01*
X95530000Y-77150000D02*
X96550000Y-77150000D01*
X92990000Y-77150000D02*
X94010000Y-77150000D01*
X90450000Y-77150000D02*
X91470000Y-77150000D01*
X87910000Y-77150000D02*
X88930000Y-77150000D01*
X85370000Y-77150000D02*
X86390000Y-77150000D01*
X82830000Y-77150000D02*
X83850000Y-77150000D01*
X80290000Y-77150000D02*
X81310000Y-77150000D01*
X77750000Y-77150000D02*
X78770000Y-77150000D01*
X75210000Y-77150000D02*
X76230000Y-77150000D01*
X72670000Y-77150000D02*
X73690000Y-77150000D01*
X70130000Y-77150000D02*
X71150000Y-77150000D01*
X68040000Y-77150000D02*
X68610000Y-77150000D01*
X68040000Y-82350000D02*
X68040000Y-77150000D01*
%TO.C,J106*%
X90530000Y-87700000D02*
X90530000Y-89030000D01*
X90530000Y-89030000D02*
X89200000Y-89030000D01*
X87930000Y-89030000D02*
X75170000Y-89030000D01*
X75170000Y-86370000D02*
X75170000Y-89030000D01*
X87930000Y-86370000D02*
X75170000Y-86370000D01*
X87930000Y-86370000D02*
X87930000Y-89030000D01*
%TO.C,J104*%
X124230000Y-87700000D02*
X124230000Y-89030000D01*
X124230000Y-89030000D02*
X122900000Y-89030000D01*
X121630000Y-89030000D02*
X108870000Y-89030000D01*
X108870000Y-86370000D02*
X108870000Y-89030000D01*
X121630000Y-86370000D02*
X108870000Y-86370000D01*
X121630000Y-86370000D02*
X121630000Y-89030000D01*
%TO.C,J103*%
X107430000Y-87700000D02*
X107430000Y-89030000D01*
X107430000Y-89030000D02*
X106100000Y-89030000D01*
X104830000Y-89030000D02*
X92070000Y-89030000D01*
X92070000Y-86370000D02*
X92070000Y-89030000D01*
X104830000Y-86370000D02*
X92070000Y-86370000D01*
X104830000Y-86370000D02*
X104830000Y-89030000D01*
%TO.C,J102*%
X119550000Y-83950000D02*
X120800000Y-83950000D01*
X119550000Y-82700000D02*
X119550000Y-83950000D01*
X125050000Y-76800000D02*
X125050000Y-79850000D01*
X122100000Y-76800000D02*
X125050000Y-76800000D01*
X122100000Y-76050000D02*
X122100000Y-76800000D01*
X125050000Y-82900000D02*
X125050000Y-79850000D01*
X122100000Y-82900000D02*
X125050000Y-82900000D01*
X122100000Y-83650000D02*
X122100000Y-82900000D01*
X119850000Y-76050000D02*
X119850000Y-77850000D01*
X120600000Y-76050000D02*
X119850000Y-76050000D01*
X120600000Y-77850000D02*
X120600000Y-76050000D01*
X119850000Y-77850000D02*
X120600000Y-77850000D01*
X119850000Y-81850000D02*
X119850000Y-83650000D01*
X120600000Y-81850000D02*
X119850000Y-81850000D01*
X120600000Y-83650000D02*
X120600000Y-81850000D01*
X119850000Y-83650000D02*
X120600000Y-83650000D01*
X119850000Y-79350000D02*
X119850000Y-80350000D01*
X120600000Y-79350000D02*
X119850000Y-79350000D01*
X120600000Y-80350000D02*
X120600000Y-79350000D01*
X119850000Y-80350000D02*
X120600000Y-80350000D01*
X119840000Y-76040000D02*
X119840000Y-83660000D01*
X125810000Y-76040000D02*
X119840000Y-76040000D01*
X125810000Y-83660000D02*
X125810000Y-76040000D01*
X119840000Y-83660000D02*
X125810000Y-83660000D01*
%TO.C,Fan*%
D11*
X64238095Y-83728571D02*
X63904761Y-83728571D01*
X63904761Y-84252380D02*
X63904761Y-83252380D01*
X64380952Y-83252380D01*
X65190476Y-84252380D02*
X65190476Y-83728571D01*
X65142857Y-83633333D01*
X65047619Y-83585714D01*
X64857142Y-83585714D01*
X64761904Y-83633333D01*
X65190476Y-84204761D02*
X65095238Y-84252380D01*
X64857142Y-84252380D01*
X64761904Y-84204761D01*
X64714285Y-84109523D01*
X64714285Y-84014285D01*
X64761904Y-83919047D01*
X64857142Y-83871428D01*
X65095238Y-83871428D01*
X65190476Y-83823809D01*
X65666666Y-83585714D02*
X65666666Y-84252380D01*
X65666666Y-83680952D02*
X65714285Y-83633333D01*
X65809523Y-83585714D01*
X65952380Y-83585714D01*
X66047619Y-83633333D01*
X66095238Y-83728571D01*
X66095238Y-84252380D01*
%TD*%
M02*
