%TF.GenerationSoftware,KiCad,Pcbnew,5.1.9-73d0e3b20d~88~ubuntu18.04.1*%
%TF.CreationDate,2021-07-10T12:21:25+03:00*%
%TF.ProjectId,Rpi-breakout,5270692d-6272-4656-916b-6f75742e6b69,rev?*%
%TF.SameCoordinates,Original*%
%TF.FileFunction,Legend,Bot*%
%TF.FilePolarity,Positive*%
%FSLAX46Y46*%
G04 Gerber Fmt 4.6, Leading zero omitted, Abs format (unit mm)*
G04 Created by KiCad (PCBNEW 5.1.9-73d0e3b20d~88~ubuntu18.04.1) date 2021-07-10 12:21:25*
%MOMM*%
%LPD*%
G01*
G04 APERTURE LIST*
%ADD10C,0.150000*%
%ADD11C,0.300000*%
%ADD12C,0.010000*%
%ADD13C,0.120000*%
G04 APERTURE END LIST*
D10*
X113057142Y-99042857D02*
X113104761Y-98995238D01*
X113152380Y-98852380D01*
X113152380Y-98757142D01*
X113104761Y-98614285D01*
X113009523Y-98519047D01*
X112914285Y-98471428D01*
X112723809Y-98423809D01*
X112580952Y-98423809D01*
X112390476Y-98471428D01*
X112295238Y-98519047D01*
X112200000Y-98614285D01*
X112152380Y-98757142D01*
X112152380Y-98852380D01*
X112200000Y-98995238D01*
X112247619Y-99042857D01*
X113152380Y-99614285D02*
X113104761Y-99519047D01*
X113057142Y-99471428D01*
X112961904Y-99423809D01*
X112676190Y-99423809D01*
X112580952Y-99471428D01*
X112533333Y-99519047D01*
X112485714Y-99614285D01*
X112485714Y-99757142D01*
X112533333Y-99852380D01*
X112580952Y-99900000D01*
X112676190Y-99947619D01*
X112961904Y-99947619D01*
X113057142Y-99900000D01*
X113104761Y-99852380D01*
X113152380Y-99757142D01*
X113152380Y-99614285D01*
X112485714Y-100376190D02*
X113485714Y-100376190D01*
X112533333Y-100376190D02*
X112485714Y-100471428D01*
X112485714Y-100661904D01*
X112533333Y-100757142D01*
X112580952Y-100804761D01*
X112676190Y-100852380D01*
X112961904Y-100852380D01*
X113057142Y-100804761D01*
X113104761Y-100757142D01*
X113152380Y-100661904D01*
X113152380Y-100471428D01*
X113104761Y-100376190D01*
X112485714Y-101185714D02*
X113152380Y-101423809D01*
X112485714Y-101661904D02*
X113152380Y-101423809D01*
X113390476Y-101328571D01*
X113438095Y-101280952D01*
X113485714Y-101185714D01*
X113152380Y-102042857D02*
X112485714Y-102042857D01*
X112676190Y-102042857D02*
X112580952Y-102090476D01*
X112533333Y-102138095D01*
X112485714Y-102233333D01*
X112485714Y-102328571D01*
X113152380Y-102661904D02*
X112485714Y-102661904D01*
X112152380Y-102661904D02*
X112200000Y-102614285D01*
X112247619Y-102661904D01*
X112200000Y-102709523D01*
X112152380Y-102661904D01*
X112247619Y-102661904D01*
X112485714Y-103566666D02*
X113295238Y-103566666D01*
X113390476Y-103519047D01*
X113438095Y-103471428D01*
X113485714Y-103376190D01*
X113485714Y-103233333D01*
X113438095Y-103138095D01*
X113104761Y-103566666D02*
X113152380Y-103471428D01*
X113152380Y-103280952D01*
X113104761Y-103185714D01*
X113057142Y-103138095D01*
X112961904Y-103090476D01*
X112676190Y-103090476D01*
X112580952Y-103138095D01*
X112533333Y-103185714D01*
X112485714Y-103280952D01*
X112485714Y-103471428D01*
X112533333Y-103566666D01*
X113152380Y-104042857D02*
X112152380Y-104042857D01*
X113152380Y-104471428D02*
X112628571Y-104471428D01*
X112533333Y-104423809D01*
X112485714Y-104328571D01*
X112485714Y-104185714D01*
X112533333Y-104090476D01*
X112580952Y-104042857D01*
X112485714Y-104804761D02*
X112485714Y-105185714D01*
X112152380Y-104947619D02*
X113009523Y-104947619D01*
X113104761Y-104995238D01*
X113152380Y-105090476D01*
X113152380Y-105185714D01*
X112390476Y-107090476D02*
X112342857Y-106995238D01*
X112342857Y-106804761D01*
X112390476Y-106709523D01*
X112485714Y-106614285D01*
X112580952Y-106566666D01*
X112771428Y-106566666D01*
X112866666Y-106614285D01*
X112961904Y-106709523D01*
X113009523Y-106804761D01*
X113009523Y-106995238D01*
X112961904Y-107090476D01*
X112009523Y-106900000D02*
X112057142Y-106661904D01*
X112200000Y-106423809D01*
X112438095Y-106280952D01*
X112676190Y-106233333D01*
X112914285Y-106280952D01*
X113152380Y-106423809D01*
X113295238Y-106661904D01*
X113342857Y-106900000D01*
X113295238Y-107138095D01*
X113152380Y-107376190D01*
X112914285Y-107519047D01*
X112676190Y-107566666D01*
X112438095Y-107519047D01*
X112200000Y-107376190D01*
X112057142Y-107138095D01*
X112009523Y-106900000D01*
X112247619Y-108709523D02*
X112200000Y-108757142D01*
X112152380Y-108852380D01*
X112152380Y-109090476D01*
X112200000Y-109185714D01*
X112247619Y-109233333D01*
X112342857Y-109280952D01*
X112438095Y-109280952D01*
X112580952Y-109233333D01*
X113152380Y-108661904D01*
X113152380Y-109280952D01*
X112152380Y-109899999D02*
X112152380Y-109995238D01*
X112200000Y-110090476D01*
X112247619Y-110138095D01*
X112342857Y-110185714D01*
X112533333Y-110233333D01*
X112771428Y-110233333D01*
X112961904Y-110185714D01*
X113057142Y-110138095D01*
X113104761Y-110090476D01*
X113152380Y-109995238D01*
X113152380Y-109899999D01*
X113104761Y-109804761D01*
X113057142Y-109757142D01*
X112961904Y-109709523D01*
X112771428Y-109661904D01*
X112533333Y-109661904D01*
X112342857Y-109709523D01*
X112247619Y-109757142D01*
X112200000Y-109804761D01*
X112152380Y-109899999D01*
X112247619Y-110614285D02*
X112200000Y-110661904D01*
X112152380Y-110757142D01*
X112152380Y-110995238D01*
X112200000Y-111090476D01*
X112247619Y-111138095D01*
X112342857Y-111185714D01*
X112438095Y-111185714D01*
X112580952Y-111138095D01*
X113152380Y-110566666D01*
X113152380Y-111185714D01*
X113152380Y-112138095D02*
X113152380Y-111566666D01*
X113152380Y-111852380D02*
X112152380Y-111852380D01*
X112295238Y-111757142D01*
X112390476Y-111661904D01*
X112438095Y-111566666D01*
X113104761Y-113280952D02*
X113152380Y-113423809D01*
X113152380Y-113661904D01*
X113104761Y-113757142D01*
X113057142Y-113804761D01*
X112961904Y-113852380D01*
X112866666Y-113852380D01*
X112771428Y-113804761D01*
X112723809Y-113757142D01*
X112676190Y-113661904D01*
X112628571Y-113471428D01*
X112580952Y-113376190D01*
X112533333Y-113328571D01*
X112438095Y-113280952D01*
X112342857Y-113280952D01*
X112247619Y-113328571D01*
X112200000Y-113376190D01*
X112152380Y-113471428D01*
X112152380Y-113709523D01*
X112200000Y-113852380D01*
X112485714Y-114280952D02*
X113485714Y-114280952D01*
X112533333Y-114280952D02*
X112485714Y-114376190D01*
X112485714Y-114566666D01*
X112533333Y-114661904D01*
X112580952Y-114709523D01*
X112676190Y-114757142D01*
X112961904Y-114757142D01*
X113057142Y-114709523D01*
X113104761Y-114661904D01*
X113152380Y-114566666D01*
X113152380Y-114376190D01*
X113104761Y-114280952D01*
X112485714Y-115090476D02*
X113152380Y-115328571D01*
X112485714Y-115566666D02*
X113152380Y-115328571D01*
X113390476Y-115233333D01*
X113438095Y-115185714D01*
X113485714Y-115090476D01*
X113152380Y-115947619D02*
X112485714Y-115947619D01*
X112676190Y-115947619D02*
X112580952Y-115995238D01*
X112533333Y-116042857D01*
X112485714Y-116138095D01*
X112485714Y-116233333D01*
X113152380Y-116566666D02*
X112485714Y-116566666D01*
X112152380Y-116566666D02*
X112200000Y-116519047D01*
X112247619Y-116566666D01*
X112200000Y-116614285D01*
X112152380Y-116566666D01*
X112247619Y-116566666D01*
X113152380Y-117471428D02*
X112152380Y-117471428D01*
X113104761Y-117471428D02*
X113152380Y-117376190D01*
X113152380Y-117185714D01*
X113104761Y-117090476D01*
X113057142Y-117042857D01*
X112961904Y-116995238D01*
X112676190Y-116995238D01*
X112580952Y-117042857D01*
X112533333Y-117090476D01*
X112485714Y-117185714D01*
X112485714Y-117376190D01*
X112533333Y-117471428D01*
X113152380Y-118376190D02*
X112628571Y-118376190D01*
X112533333Y-118328571D01*
X112485714Y-118233333D01*
X112485714Y-118042857D01*
X112533333Y-117947619D01*
X113104761Y-118376190D02*
X113152380Y-118280952D01*
X113152380Y-118042857D01*
X113104761Y-117947619D01*
X113009523Y-117899999D01*
X112914285Y-117899999D01*
X112819047Y-117947619D01*
X112771428Y-118042857D01*
X112771428Y-118280952D01*
X112723809Y-118376190D01*
X113152380Y-118852380D02*
X112152380Y-118852380D01*
X112771428Y-118947619D02*
X113152380Y-119233333D01*
X112485714Y-119233333D02*
X112866666Y-118852380D01*
X113152380Y-119661904D02*
X112485714Y-119661904D01*
X112152380Y-119661904D02*
X112200000Y-119614285D01*
X112247619Y-119661904D01*
X112200000Y-119709523D01*
X112152380Y-119661904D01*
X112247619Y-119661904D01*
X113104761Y-120090476D02*
X113152380Y-120185714D01*
X113152380Y-120376190D01*
X113104761Y-120471428D01*
X113009523Y-120519047D01*
X112961904Y-120519047D01*
X112866666Y-120471428D01*
X112819047Y-120376190D01*
X112819047Y-120233333D01*
X112771428Y-120138095D01*
X112676190Y-120090476D01*
X112628571Y-120090476D01*
X112533333Y-120138095D01*
X112485714Y-120233333D01*
X112485714Y-120376190D01*
X112533333Y-120471428D01*
X113057142Y-122280952D02*
X113104761Y-122233333D01*
X113152380Y-122090476D01*
X113152380Y-121995238D01*
X113104761Y-121852380D01*
X113009523Y-121757142D01*
X112914285Y-121709523D01*
X112723809Y-121661904D01*
X112580952Y-121661904D01*
X112390476Y-121709523D01*
X112295238Y-121757142D01*
X112200000Y-121852380D01*
X112152380Y-121995238D01*
X112152380Y-122090476D01*
X112200000Y-122233333D01*
X112247619Y-122280952D01*
X113152380Y-122709523D02*
X112152380Y-122709523D01*
X113152380Y-123138095D02*
X112628571Y-123138095D01*
X112533333Y-123090476D01*
X112485714Y-122995238D01*
X112485714Y-122852380D01*
X112533333Y-122757142D01*
X112580952Y-122709523D01*
X113152380Y-123614285D02*
X112485714Y-123614285D01*
X112676190Y-123614285D02*
X112580952Y-123661904D01*
X112533333Y-123709523D01*
X112485714Y-123804761D01*
X112485714Y-123899999D01*
X113152380Y-124233333D02*
X112485714Y-124233333D01*
X112152380Y-124233333D02*
X112200000Y-124185714D01*
X112247619Y-124233333D01*
X112200000Y-124280952D01*
X112152380Y-124233333D01*
X112247619Y-124233333D01*
X113104761Y-124661904D02*
X113152380Y-124757142D01*
X113152380Y-124947619D01*
X113104761Y-125042857D01*
X113009523Y-125090476D01*
X112961904Y-125090476D01*
X112866666Y-125042857D01*
X112819047Y-124947619D01*
X112819047Y-124804761D01*
X112771428Y-124709523D01*
X112676190Y-124661904D01*
X112628571Y-124661904D01*
X112533333Y-124709523D01*
X112485714Y-124804761D01*
X112485714Y-124947619D01*
X112533333Y-125042857D01*
X112485714Y-125376190D02*
X112485714Y-125757142D01*
X112152380Y-125519047D02*
X113009523Y-125519047D01*
X113104761Y-125566666D01*
X113152380Y-125661904D01*
X113152380Y-125757142D01*
X113152380Y-126233333D02*
X113104761Y-126138095D01*
X113057142Y-126090476D01*
X112961904Y-126042857D01*
X112676190Y-126042857D01*
X112580952Y-126090476D01*
X112533333Y-126138095D01*
X112485714Y-126233333D01*
X112485714Y-126376190D01*
X112533333Y-126471428D01*
X112580952Y-126519047D01*
X112676190Y-126566666D01*
X112961904Y-126566666D01*
X113057142Y-126519047D01*
X113104761Y-126471428D01*
X113152380Y-126376190D01*
X113152380Y-126233333D01*
X113104761Y-126947619D02*
X113152380Y-127042857D01*
X113152380Y-127233333D01*
X113104761Y-127328571D01*
X113009523Y-127376190D01*
X112961904Y-127376190D01*
X112866666Y-127328571D01*
X112819047Y-127233333D01*
X112819047Y-127090476D01*
X112771428Y-126995238D01*
X112676190Y-126947619D01*
X112628571Y-126947619D01*
X112533333Y-126995238D01*
X112485714Y-127090476D01*
X112485714Y-127233333D01*
X112533333Y-127328571D01*
D11*
X76685714Y-89278571D02*
X77400000Y-89278571D01*
X77471428Y-89992857D01*
X77400000Y-89921428D01*
X77257142Y-89850000D01*
X76900000Y-89850000D01*
X76757142Y-89921428D01*
X76685714Y-89992857D01*
X76614285Y-90135714D01*
X76614285Y-90492857D01*
X76685714Y-90635714D01*
X76757142Y-90707142D01*
X76900000Y-90778571D01*
X77257142Y-90778571D01*
X77400000Y-90707142D01*
X77471428Y-90635714D01*
X76185714Y-89278571D02*
X75685714Y-90778571D01*
X75185714Y-89278571D01*
X94864285Y-89350000D02*
X95007142Y-89278571D01*
X95221428Y-89278571D01*
X95435714Y-89350000D01*
X95578571Y-89492857D01*
X95650000Y-89635714D01*
X95721428Y-89921428D01*
X95721428Y-90135714D01*
X95650000Y-90421428D01*
X95578571Y-90564285D01*
X95435714Y-90707142D01*
X95221428Y-90778571D01*
X95078571Y-90778571D01*
X94864285Y-90707142D01*
X94792857Y-90635714D01*
X94792857Y-90135714D01*
X95078571Y-90135714D01*
X94150000Y-89778571D02*
X94150000Y-90778571D01*
X94150000Y-89921428D02*
X94078571Y-89850000D01*
X93935714Y-89778571D01*
X93721428Y-89778571D01*
X93578571Y-89850000D01*
X93507142Y-89992857D01*
X93507142Y-90778571D01*
X92150000Y-90778571D02*
X92150000Y-89278571D01*
X92150000Y-90707142D02*
X92292857Y-90778571D01*
X92578571Y-90778571D01*
X92721428Y-90707142D01*
X92792857Y-90635714D01*
X92864285Y-90492857D01*
X92864285Y-90064285D01*
X92792857Y-89921428D01*
X92721428Y-89850000D01*
X92578571Y-89778571D01*
X92292857Y-89778571D01*
X92150000Y-89850000D01*
X112485714Y-89378571D02*
X111557142Y-89378571D01*
X112057142Y-89950000D01*
X111842857Y-89950000D01*
X111700000Y-90021428D01*
X111628571Y-90092857D01*
X111557142Y-90235714D01*
X111557142Y-90592857D01*
X111628571Y-90735714D01*
X111700000Y-90807142D01*
X111842857Y-90878571D01*
X112271428Y-90878571D01*
X112414285Y-90807142D01*
X112485714Y-90735714D01*
X111057142Y-89878571D02*
X110700000Y-90878571D01*
X110342857Y-89878571D01*
X109914285Y-89378571D02*
X108985714Y-89378571D01*
X109485714Y-89950000D01*
X109271428Y-89950000D01*
X109128571Y-90021428D01*
X109057142Y-90092857D01*
X108985714Y-90235714D01*
X108985714Y-90592857D01*
X109057142Y-90735714D01*
X109128571Y-90807142D01*
X109271428Y-90878571D01*
X109700000Y-90878571D01*
X109842857Y-90807142D01*
X109914285Y-90735714D01*
X98828571Y-129378571D02*
X99328571Y-128664285D01*
X99685714Y-129378571D02*
X99685714Y-127878571D01*
X99114285Y-127878571D01*
X98971428Y-127950000D01*
X98900000Y-128021428D01*
X98828571Y-128164285D01*
X98828571Y-128378571D01*
X98900000Y-128521428D01*
X98971428Y-128592857D01*
X99114285Y-128664285D01*
X99685714Y-128664285D01*
X97542857Y-129378571D02*
X97542857Y-128592857D01*
X97614285Y-128450000D01*
X97757142Y-128378571D01*
X98042857Y-128378571D01*
X98185714Y-128450000D01*
X97542857Y-129307142D02*
X97685714Y-129378571D01*
X98042857Y-129378571D01*
X98185714Y-129307142D01*
X98257142Y-129164285D01*
X98257142Y-129021428D01*
X98185714Y-128878571D01*
X98042857Y-128807142D01*
X97685714Y-128807142D01*
X97542857Y-128735714D01*
X96900000Y-129307142D02*
X96757142Y-129378571D01*
X96471428Y-129378571D01*
X96328571Y-129307142D01*
X96257142Y-129164285D01*
X96257142Y-129092857D01*
X96328571Y-128950000D01*
X96471428Y-128878571D01*
X96685714Y-128878571D01*
X96828571Y-128807142D01*
X96900000Y-128664285D01*
X96900000Y-128592857D01*
X96828571Y-128450000D01*
X96685714Y-128378571D01*
X96471428Y-128378571D01*
X96328571Y-128450000D01*
X95614285Y-128378571D02*
X95614285Y-129878571D01*
X95614285Y-128450000D02*
X95471428Y-128378571D01*
X95185714Y-128378571D01*
X95042857Y-128450000D01*
X94971428Y-128521428D01*
X94900000Y-128664285D01*
X94900000Y-129092857D01*
X94971428Y-129235714D01*
X95042857Y-129307142D01*
X95185714Y-129378571D01*
X95471428Y-129378571D01*
X95614285Y-129307142D01*
X94257142Y-129378571D02*
X94257142Y-127878571D01*
X94257142Y-128450000D02*
X94114285Y-128378571D01*
X93828571Y-128378571D01*
X93685714Y-128450000D01*
X93614285Y-128521428D01*
X93542857Y-128664285D01*
X93542857Y-129092857D01*
X93614285Y-129235714D01*
X93685714Y-129307142D01*
X93828571Y-129378571D01*
X94114285Y-129378571D01*
X94257142Y-129307142D01*
X92328571Y-129307142D02*
X92471428Y-129378571D01*
X92757142Y-129378571D01*
X92900000Y-129307142D01*
X92971428Y-129164285D01*
X92971428Y-128592857D01*
X92900000Y-128450000D01*
X92757142Y-128378571D01*
X92471428Y-128378571D01*
X92328571Y-128450000D01*
X92257142Y-128592857D01*
X92257142Y-128735714D01*
X92971428Y-128878571D01*
X91614285Y-129378571D02*
X91614285Y-128378571D01*
X91614285Y-128664285D02*
X91542857Y-128521428D01*
X91471428Y-128450000D01*
X91328571Y-128378571D01*
X91185714Y-128378571D01*
X90685714Y-129378571D02*
X90685714Y-128378571D01*
X90685714Y-128664285D02*
X90614285Y-128521428D01*
X90542857Y-128450000D01*
X90399999Y-128378571D01*
X90257142Y-128378571D01*
X89899999Y-128378571D02*
X89542857Y-129378571D01*
X89185714Y-128378571D02*
X89542857Y-129378571D01*
X89685714Y-129735714D01*
X89757142Y-129807142D01*
X89899999Y-129878571D01*
X87471428Y-129378571D02*
X87471428Y-127878571D01*
X86900000Y-127878571D01*
X86757142Y-127950000D01*
X86685714Y-128021428D01*
X86614285Y-128164285D01*
X86614285Y-128378571D01*
X86685714Y-128521428D01*
X86757142Y-128592857D01*
X86900000Y-128664285D01*
X87471428Y-128664285D01*
X85971428Y-129378571D02*
X85971428Y-128378571D01*
X85971428Y-127878571D02*
X86042857Y-127950000D01*
X85971428Y-128021428D01*
X85900000Y-127950000D01*
X85971428Y-127878571D01*
X85971428Y-128021428D01*
X84114285Y-129378571D02*
X84114285Y-127878571D01*
X84114285Y-128450000D02*
X83971428Y-128378571D01*
X83685714Y-128378571D01*
X83542857Y-128450000D01*
X83471428Y-128521428D01*
X83400000Y-128664285D01*
X83400000Y-129092857D01*
X83471428Y-129235714D01*
X83542857Y-129307142D01*
X83685714Y-129378571D01*
X83971428Y-129378571D01*
X84114285Y-129307142D01*
X82757142Y-129378571D02*
X82757142Y-128378571D01*
X82757142Y-128664285D02*
X82685714Y-128521428D01*
X82614285Y-128450000D01*
X82471428Y-128378571D01*
X82328571Y-128378571D01*
X81257142Y-129307142D02*
X81400000Y-129378571D01*
X81685714Y-129378571D01*
X81828571Y-129307142D01*
X81900000Y-129164285D01*
X81900000Y-128592857D01*
X81828571Y-128450000D01*
X81685714Y-128378571D01*
X81400000Y-128378571D01*
X81257142Y-128450000D01*
X81185714Y-128592857D01*
X81185714Y-128735714D01*
X81900000Y-128878571D01*
X79900000Y-129378571D02*
X79900000Y-128592857D01*
X79971428Y-128450000D01*
X80114285Y-128378571D01*
X80400000Y-128378571D01*
X80542857Y-128450000D01*
X79900000Y-129307142D02*
X80042857Y-129378571D01*
X80400000Y-129378571D01*
X80542857Y-129307142D01*
X80614285Y-129164285D01*
X80614285Y-129021428D01*
X80542857Y-128878571D01*
X80400000Y-128807142D01*
X80042857Y-128807142D01*
X79900000Y-128735714D01*
X79185714Y-129378571D02*
X79185714Y-127878571D01*
X79042857Y-128807142D02*
X78614285Y-129378571D01*
X78614285Y-128378571D02*
X79185714Y-128950000D01*
X77757142Y-129378571D02*
X77899999Y-129307142D01*
X77971428Y-129235714D01*
X78042857Y-129092857D01*
X78042857Y-128664285D01*
X77971428Y-128521428D01*
X77899999Y-128450000D01*
X77757142Y-128378571D01*
X77542857Y-128378571D01*
X77399999Y-128450000D01*
X77328571Y-128521428D01*
X77257142Y-128664285D01*
X77257142Y-129092857D01*
X77328571Y-129235714D01*
X77399999Y-129307142D01*
X77542857Y-129378571D01*
X77757142Y-129378571D01*
X75971428Y-128378571D02*
X75971428Y-129378571D01*
X76614285Y-128378571D02*
X76614285Y-129164285D01*
X76542857Y-129307142D01*
X76399999Y-129378571D01*
X76185714Y-129378571D01*
X76042857Y-129307142D01*
X75971428Y-129235714D01*
X75471428Y-128378571D02*
X74899999Y-128378571D01*
X75257142Y-127878571D02*
X75257142Y-129164285D01*
X75185714Y-129307142D01*
X75042857Y-129378571D01*
X74899999Y-129378571D01*
D10*
X123552380Y-119380952D02*
X124266666Y-119380952D01*
X124409523Y-119333333D01*
X124504761Y-119238095D01*
X124552380Y-119095238D01*
X124552380Y-119000000D01*
X124552380Y-120333333D02*
X124552380Y-119857142D01*
X123552380Y-119857142D01*
X124457142Y-121238095D02*
X124504761Y-121190476D01*
X124552380Y-121047619D01*
X124552380Y-120952380D01*
X124504761Y-120809523D01*
X124409523Y-120714285D01*
X124314285Y-120666666D01*
X124123809Y-120619047D01*
X123980952Y-120619047D01*
X123790476Y-120666666D01*
X123695238Y-120714285D01*
X123600000Y-120809523D01*
X123552380Y-120952380D01*
X123552380Y-121047619D01*
X123600000Y-121190476D01*
X123647619Y-121238095D01*
X123552380Y-121952380D02*
X124266666Y-121952380D01*
X124409523Y-121904761D01*
X124504761Y-121809523D01*
X124552380Y-121666666D01*
X124552380Y-121571428D01*
X124552380Y-122904761D02*
X124552380Y-122428571D01*
X123552380Y-122428571D01*
X124457142Y-123809523D02*
X124504761Y-123761904D01*
X124552380Y-123619047D01*
X124552380Y-123523809D01*
X124504761Y-123380952D01*
X124409523Y-123285714D01*
X124314285Y-123238095D01*
X124123809Y-123190476D01*
X123980952Y-123190476D01*
X123790476Y-123238095D01*
X123695238Y-123285714D01*
X123600000Y-123380952D01*
X123552380Y-123523809D01*
X123552380Y-123619047D01*
X123600000Y-123761904D01*
X123647619Y-123809523D01*
X123552380Y-124523809D02*
X124266666Y-124523809D01*
X124409523Y-124476190D01*
X124504761Y-124380952D01*
X124552380Y-124238095D01*
X124552380Y-124142857D01*
X124552380Y-125476190D02*
X124552380Y-125000000D01*
X123552380Y-125000000D01*
X124457142Y-126380952D02*
X124504761Y-126333333D01*
X124552380Y-126190476D01*
X124552380Y-126095238D01*
X124504761Y-125952380D01*
X124409523Y-125857142D01*
X124314285Y-125809523D01*
X124123809Y-125761904D01*
X123980952Y-125761904D01*
X123790476Y-125809523D01*
X123695238Y-125857142D01*
X123600000Y-125952380D01*
X123552380Y-126095238D01*
X123552380Y-126190476D01*
X123600000Y-126333333D01*
X123647619Y-126380952D01*
X123552380Y-127095238D02*
X124266666Y-127095238D01*
X124409523Y-127047619D01*
X124504761Y-126952380D01*
X124552380Y-126809523D01*
X124552380Y-126714285D01*
X124552380Y-128047619D02*
X124552380Y-127571428D01*
X123552380Y-127571428D01*
X124457142Y-128952380D02*
X124504761Y-128904761D01*
X124552380Y-128761904D01*
X124552380Y-128666666D01*
X124504761Y-128523809D01*
X124409523Y-128428571D01*
X124314285Y-128380952D01*
X124123809Y-128333333D01*
X123980952Y-128333333D01*
X123790476Y-128380952D01*
X123695238Y-128428571D01*
X123600000Y-128523809D01*
X123552380Y-128666666D01*
X123552380Y-128761904D01*
X123600000Y-128904761D01*
X123647619Y-128952380D01*
D12*
%TO.C,REF\u002A\u002A*%
G36*
X67596090Y-115642348D02*
G01*
X67517546Y-115642778D01*
X67460702Y-115643942D01*
X67421895Y-115646207D01*
X67397462Y-115649940D01*
X67383738Y-115655506D01*
X67377060Y-115663273D01*
X67373764Y-115673605D01*
X67373444Y-115674943D01*
X67368438Y-115699079D01*
X67359171Y-115746701D01*
X67346608Y-115812741D01*
X67331713Y-115892128D01*
X67315449Y-115979796D01*
X67314881Y-115982875D01*
X67298590Y-116068789D01*
X67283348Y-116144696D01*
X67270139Y-116206045D01*
X67259946Y-116248282D01*
X67253752Y-116266855D01*
X67253457Y-116267184D01*
X67235212Y-116276253D01*
X67197595Y-116291367D01*
X67148729Y-116309262D01*
X67148457Y-116309358D01*
X67086907Y-116332493D01*
X67014343Y-116361965D01*
X66945943Y-116391597D01*
X66942706Y-116393062D01*
X66831298Y-116443626D01*
X66584601Y-116275160D01*
X66508923Y-116223803D01*
X66440369Y-116177889D01*
X66382912Y-116140030D01*
X66340524Y-116112837D01*
X66317175Y-116098921D01*
X66314958Y-116097889D01*
X66297990Y-116102484D01*
X66266299Y-116124655D01*
X66218648Y-116165447D01*
X66153802Y-116225905D01*
X66087603Y-116290227D01*
X66023786Y-116353612D01*
X65966671Y-116411451D01*
X65919695Y-116460175D01*
X65886297Y-116496210D01*
X65869915Y-116515984D01*
X65869306Y-116517002D01*
X65867495Y-116530572D01*
X65874317Y-116552733D01*
X65891460Y-116586478D01*
X65920607Y-116634800D01*
X65963445Y-116700692D01*
X66020552Y-116785517D01*
X66071234Y-116860177D01*
X66116539Y-116927140D01*
X66153850Y-116982516D01*
X66180548Y-117022420D01*
X66194015Y-117042962D01*
X66194863Y-117044356D01*
X66193219Y-117064038D01*
X66180755Y-117102293D01*
X66159952Y-117151889D01*
X66152538Y-117167728D01*
X66120186Y-117238290D01*
X66085672Y-117318353D01*
X66057635Y-117387629D01*
X66037432Y-117439045D01*
X66021385Y-117478119D01*
X66012112Y-117498541D01*
X66010959Y-117500114D01*
X65993904Y-117502721D01*
X65953702Y-117509863D01*
X65895698Y-117520523D01*
X65825237Y-117533685D01*
X65747665Y-117548333D01*
X65668328Y-117563449D01*
X65592569Y-117578018D01*
X65525736Y-117591022D01*
X65473172Y-117601445D01*
X65440224Y-117608270D01*
X65432143Y-117610199D01*
X65423795Y-117614962D01*
X65417494Y-117625718D01*
X65412955Y-117646098D01*
X65409896Y-117679734D01*
X65408033Y-117730255D01*
X65407082Y-117801292D01*
X65406760Y-117896476D01*
X65406743Y-117935492D01*
X65406743Y-118252799D01*
X65482943Y-118267839D01*
X65525337Y-118275995D01*
X65588600Y-118287899D01*
X65665038Y-118302116D01*
X65746957Y-118317210D01*
X65769600Y-118321355D01*
X65845194Y-118336053D01*
X65911047Y-118350505D01*
X65961634Y-118363375D01*
X65991426Y-118373322D01*
X65996388Y-118376287D01*
X66008574Y-118397283D01*
X66026047Y-118437967D01*
X66045423Y-118490322D01*
X66049266Y-118501600D01*
X66074661Y-118571523D01*
X66106183Y-118650418D01*
X66137031Y-118721266D01*
X66137183Y-118721595D01*
X66188553Y-118832733D01*
X66019601Y-119081253D01*
X65850648Y-119329772D01*
X66067571Y-119547058D01*
X66133181Y-119611726D01*
X66193021Y-119668733D01*
X66243733Y-119715033D01*
X66281954Y-119747584D01*
X66304325Y-119763343D01*
X66307534Y-119764343D01*
X66326374Y-119756469D01*
X66364820Y-119734578D01*
X66418670Y-119701267D01*
X66483724Y-119659131D01*
X66554060Y-119611943D01*
X66625445Y-119563810D01*
X66689092Y-119521928D01*
X66740959Y-119488871D01*
X66777005Y-119467218D01*
X66793133Y-119459543D01*
X66812811Y-119466037D01*
X66850125Y-119483150D01*
X66897379Y-119507326D01*
X66902388Y-119510013D01*
X66966023Y-119541927D01*
X67009659Y-119557579D01*
X67036798Y-119557745D01*
X67050943Y-119543204D01*
X67051025Y-119543000D01*
X67058095Y-119525779D01*
X67074958Y-119484899D01*
X67100305Y-119423525D01*
X67132829Y-119344819D01*
X67171222Y-119251947D01*
X67214178Y-119148072D01*
X67255778Y-119047502D01*
X67301496Y-118936516D01*
X67343474Y-118833703D01*
X67380452Y-118742215D01*
X67411173Y-118665201D01*
X67434378Y-118605815D01*
X67448810Y-118567209D01*
X67453257Y-118552800D01*
X67442104Y-118536272D01*
X67412931Y-118509930D01*
X67374029Y-118480887D01*
X67263243Y-118389039D01*
X67176649Y-118283759D01*
X67115284Y-118167266D01*
X67080185Y-118041776D01*
X67072392Y-117909507D01*
X67078057Y-117848457D01*
X67108922Y-117721795D01*
X67162080Y-117609941D01*
X67234233Y-117514001D01*
X67322083Y-117435076D01*
X67422335Y-117374270D01*
X67531690Y-117332687D01*
X67646853Y-117311428D01*
X67764525Y-117311599D01*
X67881410Y-117334301D01*
X67994211Y-117380638D01*
X68099631Y-117451713D01*
X68143632Y-117491911D01*
X68228021Y-117595129D01*
X68286778Y-117707925D01*
X68320296Y-117827010D01*
X68328965Y-117949095D01*
X68313177Y-118070893D01*
X68273322Y-118189116D01*
X68209793Y-118300475D01*
X68122979Y-118401684D01*
X68025971Y-118480887D01*
X67985563Y-118511162D01*
X67957018Y-118537219D01*
X67946743Y-118552825D01*
X67952123Y-118569843D01*
X67967425Y-118610500D01*
X67991388Y-118671642D01*
X68022756Y-118750119D01*
X68060268Y-118842780D01*
X68102667Y-118946472D01*
X68144337Y-119047526D01*
X68190310Y-119158607D01*
X68232893Y-119261541D01*
X68270779Y-119353165D01*
X68302660Y-119430316D01*
X68327229Y-119489831D01*
X68343180Y-119528544D01*
X68349090Y-119543000D01*
X68363052Y-119557685D01*
X68390060Y-119557642D01*
X68433587Y-119542099D01*
X68497110Y-119510284D01*
X68497612Y-119510013D01*
X68545440Y-119485323D01*
X68584103Y-119467338D01*
X68605905Y-119459614D01*
X68606867Y-119459543D01*
X68623279Y-119467378D01*
X68659513Y-119489165D01*
X68711526Y-119522328D01*
X68775275Y-119564291D01*
X68845940Y-119611943D01*
X68917884Y-119660191D01*
X68982726Y-119702151D01*
X69036265Y-119735227D01*
X69074303Y-119756821D01*
X69092467Y-119764343D01*
X69109192Y-119754457D01*
X69142820Y-119726826D01*
X69189990Y-119684495D01*
X69247342Y-119630505D01*
X69311516Y-119567899D01*
X69332503Y-119546983D01*
X69549501Y-119329623D01*
X69384332Y-119087220D01*
X69334136Y-119012781D01*
X69290081Y-118945972D01*
X69254638Y-118890665D01*
X69230281Y-118850729D01*
X69219478Y-118830036D01*
X69219162Y-118828563D01*
X69224857Y-118809058D01*
X69240174Y-118769822D01*
X69262463Y-118717430D01*
X69278107Y-118682355D01*
X69307359Y-118615201D01*
X69334906Y-118547358D01*
X69356263Y-118490034D01*
X69362065Y-118472572D01*
X69378548Y-118425938D01*
X69394660Y-118389905D01*
X69403510Y-118376287D01*
X69423040Y-118367952D01*
X69465666Y-118356137D01*
X69525855Y-118342181D01*
X69598078Y-118327422D01*
X69630400Y-118321355D01*
X69712478Y-118306273D01*
X69791205Y-118291669D01*
X69858891Y-118278980D01*
X69907840Y-118269642D01*
X69917057Y-118267839D01*
X69993257Y-118252799D01*
X69993257Y-117935492D01*
X69993086Y-117831154D01*
X69992384Y-117752213D01*
X69990866Y-117695038D01*
X69988251Y-117655999D01*
X69984254Y-117631465D01*
X69978591Y-117617805D01*
X69970980Y-117611389D01*
X69967857Y-117610199D01*
X69949022Y-117605980D01*
X69907412Y-117597562D01*
X69848370Y-117585961D01*
X69777243Y-117572195D01*
X69699375Y-117557280D01*
X69620113Y-117542232D01*
X69544802Y-117528069D01*
X69478787Y-117515806D01*
X69427413Y-117506461D01*
X69396025Y-117501050D01*
X69389041Y-117500114D01*
X69382715Y-117487596D01*
X69368710Y-117454246D01*
X69349645Y-117406377D01*
X69342366Y-117387629D01*
X69313004Y-117315195D01*
X69278429Y-117235170D01*
X69247463Y-117167728D01*
X69224677Y-117116159D01*
X69209518Y-117073785D01*
X69204458Y-117047834D01*
X69205264Y-117044356D01*
X69215959Y-117027936D01*
X69240380Y-116991417D01*
X69275905Y-116938687D01*
X69319913Y-116873635D01*
X69369783Y-116800151D01*
X69379644Y-116785645D01*
X69437508Y-116699704D01*
X69480044Y-116634261D01*
X69508946Y-116586304D01*
X69525910Y-116552820D01*
X69532633Y-116530795D01*
X69530810Y-116517217D01*
X69530764Y-116517131D01*
X69516414Y-116499297D01*
X69484677Y-116464817D01*
X69438990Y-116417268D01*
X69382796Y-116360222D01*
X69319532Y-116297255D01*
X69312398Y-116290227D01*
X69232670Y-116213020D01*
X69171143Y-116156330D01*
X69126579Y-116119110D01*
X69097743Y-116100315D01*
X69085042Y-116097889D01*
X69066506Y-116108471D01*
X69028039Y-116132916D01*
X68973614Y-116168612D01*
X68907202Y-116212947D01*
X68832775Y-116263311D01*
X68815399Y-116275160D01*
X68568703Y-116443626D01*
X68457294Y-116393062D01*
X68389543Y-116363595D01*
X68316817Y-116333959D01*
X68254297Y-116310330D01*
X68251543Y-116309358D01*
X68202640Y-116291457D01*
X68164943Y-116276320D01*
X68146575Y-116267210D01*
X68146544Y-116267184D01*
X68140715Y-116250717D01*
X68130808Y-116210219D01*
X68117805Y-116150242D01*
X68102691Y-116075340D01*
X68086448Y-115990064D01*
X68085119Y-115982875D01*
X68068825Y-115895014D01*
X68053867Y-115815260D01*
X68041209Y-115748681D01*
X68031814Y-115700347D01*
X68026646Y-115675325D01*
X68026556Y-115674943D01*
X68023411Y-115664299D01*
X68017296Y-115656262D01*
X68004547Y-115650467D01*
X67981500Y-115646547D01*
X67944491Y-115644135D01*
X67889856Y-115642865D01*
X67813933Y-115642371D01*
X67713056Y-115642286D01*
X67700000Y-115642286D01*
X67596090Y-115642348D01*
G37*
X67596090Y-115642348D02*
X67517546Y-115642778D01*
X67460702Y-115643942D01*
X67421895Y-115646207D01*
X67397462Y-115649940D01*
X67383738Y-115655506D01*
X67377060Y-115663273D01*
X67373764Y-115673605D01*
X67373444Y-115674943D01*
X67368438Y-115699079D01*
X67359171Y-115746701D01*
X67346608Y-115812741D01*
X67331713Y-115892128D01*
X67315449Y-115979796D01*
X67314881Y-115982875D01*
X67298590Y-116068789D01*
X67283348Y-116144696D01*
X67270139Y-116206045D01*
X67259946Y-116248282D01*
X67253752Y-116266855D01*
X67253457Y-116267184D01*
X67235212Y-116276253D01*
X67197595Y-116291367D01*
X67148729Y-116309262D01*
X67148457Y-116309358D01*
X67086907Y-116332493D01*
X67014343Y-116361965D01*
X66945943Y-116391597D01*
X66942706Y-116393062D01*
X66831298Y-116443626D01*
X66584601Y-116275160D01*
X66508923Y-116223803D01*
X66440369Y-116177889D01*
X66382912Y-116140030D01*
X66340524Y-116112837D01*
X66317175Y-116098921D01*
X66314958Y-116097889D01*
X66297990Y-116102484D01*
X66266299Y-116124655D01*
X66218648Y-116165447D01*
X66153802Y-116225905D01*
X66087603Y-116290227D01*
X66023786Y-116353612D01*
X65966671Y-116411451D01*
X65919695Y-116460175D01*
X65886297Y-116496210D01*
X65869915Y-116515984D01*
X65869306Y-116517002D01*
X65867495Y-116530572D01*
X65874317Y-116552733D01*
X65891460Y-116586478D01*
X65920607Y-116634800D01*
X65963445Y-116700692D01*
X66020552Y-116785517D01*
X66071234Y-116860177D01*
X66116539Y-116927140D01*
X66153850Y-116982516D01*
X66180548Y-117022420D01*
X66194015Y-117042962D01*
X66194863Y-117044356D01*
X66193219Y-117064038D01*
X66180755Y-117102293D01*
X66159952Y-117151889D01*
X66152538Y-117167728D01*
X66120186Y-117238290D01*
X66085672Y-117318353D01*
X66057635Y-117387629D01*
X66037432Y-117439045D01*
X66021385Y-117478119D01*
X66012112Y-117498541D01*
X66010959Y-117500114D01*
X65993904Y-117502721D01*
X65953702Y-117509863D01*
X65895698Y-117520523D01*
X65825237Y-117533685D01*
X65747665Y-117548333D01*
X65668328Y-117563449D01*
X65592569Y-117578018D01*
X65525736Y-117591022D01*
X65473172Y-117601445D01*
X65440224Y-117608270D01*
X65432143Y-117610199D01*
X65423795Y-117614962D01*
X65417494Y-117625718D01*
X65412955Y-117646098D01*
X65409896Y-117679734D01*
X65408033Y-117730255D01*
X65407082Y-117801292D01*
X65406760Y-117896476D01*
X65406743Y-117935492D01*
X65406743Y-118252799D01*
X65482943Y-118267839D01*
X65525337Y-118275995D01*
X65588600Y-118287899D01*
X65665038Y-118302116D01*
X65746957Y-118317210D01*
X65769600Y-118321355D01*
X65845194Y-118336053D01*
X65911047Y-118350505D01*
X65961634Y-118363375D01*
X65991426Y-118373322D01*
X65996388Y-118376287D01*
X66008574Y-118397283D01*
X66026047Y-118437967D01*
X66045423Y-118490322D01*
X66049266Y-118501600D01*
X66074661Y-118571523D01*
X66106183Y-118650418D01*
X66137031Y-118721266D01*
X66137183Y-118721595D01*
X66188553Y-118832733D01*
X66019601Y-119081253D01*
X65850648Y-119329772D01*
X66067571Y-119547058D01*
X66133181Y-119611726D01*
X66193021Y-119668733D01*
X66243733Y-119715033D01*
X66281954Y-119747584D01*
X66304325Y-119763343D01*
X66307534Y-119764343D01*
X66326374Y-119756469D01*
X66364820Y-119734578D01*
X66418670Y-119701267D01*
X66483724Y-119659131D01*
X66554060Y-119611943D01*
X66625445Y-119563810D01*
X66689092Y-119521928D01*
X66740959Y-119488871D01*
X66777005Y-119467218D01*
X66793133Y-119459543D01*
X66812811Y-119466037D01*
X66850125Y-119483150D01*
X66897379Y-119507326D01*
X66902388Y-119510013D01*
X66966023Y-119541927D01*
X67009659Y-119557579D01*
X67036798Y-119557745D01*
X67050943Y-119543204D01*
X67051025Y-119543000D01*
X67058095Y-119525779D01*
X67074958Y-119484899D01*
X67100305Y-119423525D01*
X67132829Y-119344819D01*
X67171222Y-119251947D01*
X67214178Y-119148072D01*
X67255778Y-119047502D01*
X67301496Y-118936516D01*
X67343474Y-118833703D01*
X67380452Y-118742215D01*
X67411173Y-118665201D01*
X67434378Y-118605815D01*
X67448810Y-118567209D01*
X67453257Y-118552800D01*
X67442104Y-118536272D01*
X67412931Y-118509930D01*
X67374029Y-118480887D01*
X67263243Y-118389039D01*
X67176649Y-118283759D01*
X67115284Y-118167266D01*
X67080185Y-118041776D01*
X67072392Y-117909507D01*
X67078057Y-117848457D01*
X67108922Y-117721795D01*
X67162080Y-117609941D01*
X67234233Y-117514001D01*
X67322083Y-117435076D01*
X67422335Y-117374270D01*
X67531690Y-117332687D01*
X67646853Y-117311428D01*
X67764525Y-117311599D01*
X67881410Y-117334301D01*
X67994211Y-117380638D01*
X68099631Y-117451713D01*
X68143632Y-117491911D01*
X68228021Y-117595129D01*
X68286778Y-117707925D01*
X68320296Y-117827010D01*
X68328965Y-117949095D01*
X68313177Y-118070893D01*
X68273322Y-118189116D01*
X68209793Y-118300475D01*
X68122979Y-118401684D01*
X68025971Y-118480887D01*
X67985563Y-118511162D01*
X67957018Y-118537219D01*
X67946743Y-118552825D01*
X67952123Y-118569843D01*
X67967425Y-118610500D01*
X67991388Y-118671642D01*
X68022756Y-118750119D01*
X68060268Y-118842780D01*
X68102667Y-118946472D01*
X68144337Y-119047526D01*
X68190310Y-119158607D01*
X68232893Y-119261541D01*
X68270779Y-119353165D01*
X68302660Y-119430316D01*
X68327229Y-119489831D01*
X68343180Y-119528544D01*
X68349090Y-119543000D01*
X68363052Y-119557685D01*
X68390060Y-119557642D01*
X68433587Y-119542099D01*
X68497110Y-119510284D01*
X68497612Y-119510013D01*
X68545440Y-119485323D01*
X68584103Y-119467338D01*
X68605905Y-119459614D01*
X68606867Y-119459543D01*
X68623279Y-119467378D01*
X68659513Y-119489165D01*
X68711526Y-119522328D01*
X68775275Y-119564291D01*
X68845940Y-119611943D01*
X68917884Y-119660191D01*
X68982726Y-119702151D01*
X69036265Y-119735227D01*
X69074303Y-119756821D01*
X69092467Y-119764343D01*
X69109192Y-119754457D01*
X69142820Y-119726826D01*
X69189990Y-119684495D01*
X69247342Y-119630505D01*
X69311516Y-119567899D01*
X69332503Y-119546983D01*
X69549501Y-119329623D01*
X69384332Y-119087220D01*
X69334136Y-119012781D01*
X69290081Y-118945972D01*
X69254638Y-118890665D01*
X69230281Y-118850729D01*
X69219478Y-118830036D01*
X69219162Y-118828563D01*
X69224857Y-118809058D01*
X69240174Y-118769822D01*
X69262463Y-118717430D01*
X69278107Y-118682355D01*
X69307359Y-118615201D01*
X69334906Y-118547358D01*
X69356263Y-118490034D01*
X69362065Y-118472572D01*
X69378548Y-118425938D01*
X69394660Y-118389905D01*
X69403510Y-118376287D01*
X69423040Y-118367952D01*
X69465666Y-118356137D01*
X69525855Y-118342181D01*
X69598078Y-118327422D01*
X69630400Y-118321355D01*
X69712478Y-118306273D01*
X69791205Y-118291669D01*
X69858891Y-118278980D01*
X69907840Y-118269642D01*
X69917057Y-118267839D01*
X69993257Y-118252799D01*
X69993257Y-117935492D01*
X69993086Y-117831154D01*
X69992384Y-117752213D01*
X69990866Y-117695038D01*
X69988251Y-117655999D01*
X69984254Y-117631465D01*
X69978591Y-117617805D01*
X69970980Y-117611389D01*
X69967857Y-117610199D01*
X69949022Y-117605980D01*
X69907412Y-117597562D01*
X69848370Y-117585961D01*
X69777243Y-117572195D01*
X69699375Y-117557280D01*
X69620113Y-117542232D01*
X69544802Y-117528069D01*
X69478787Y-117515806D01*
X69427413Y-117506461D01*
X69396025Y-117501050D01*
X69389041Y-117500114D01*
X69382715Y-117487596D01*
X69368710Y-117454246D01*
X69349645Y-117406377D01*
X69342366Y-117387629D01*
X69313004Y-117315195D01*
X69278429Y-117235170D01*
X69247463Y-117167728D01*
X69224677Y-117116159D01*
X69209518Y-117073785D01*
X69204458Y-117047834D01*
X69205264Y-117044356D01*
X69215959Y-117027936D01*
X69240380Y-116991417D01*
X69275905Y-116938687D01*
X69319913Y-116873635D01*
X69369783Y-116800151D01*
X69379644Y-116785645D01*
X69437508Y-116699704D01*
X69480044Y-116634261D01*
X69508946Y-116586304D01*
X69525910Y-116552820D01*
X69532633Y-116530795D01*
X69530810Y-116517217D01*
X69530764Y-116517131D01*
X69516414Y-116499297D01*
X69484677Y-116464817D01*
X69438990Y-116417268D01*
X69382796Y-116360222D01*
X69319532Y-116297255D01*
X69312398Y-116290227D01*
X69232670Y-116213020D01*
X69171143Y-116156330D01*
X69126579Y-116119110D01*
X69097743Y-116100315D01*
X69085042Y-116097889D01*
X69066506Y-116108471D01*
X69028039Y-116132916D01*
X68973614Y-116168612D01*
X68907202Y-116212947D01*
X68832775Y-116263311D01*
X68815399Y-116275160D01*
X68568703Y-116443626D01*
X68457294Y-116393062D01*
X68389543Y-116363595D01*
X68316817Y-116333959D01*
X68254297Y-116310330D01*
X68251543Y-116309358D01*
X68202640Y-116291457D01*
X68164943Y-116276320D01*
X68146575Y-116267210D01*
X68146544Y-116267184D01*
X68140715Y-116250717D01*
X68130808Y-116210219D01*
X68117805Y-116150242D01*
X68102691Y-116075340D01*
X68086448Y-115990064D01*
X68085119Y-115982875D01*
X68068825Y-115895014D01*
X68053867Y-115815260D01*
X68041209Y-115748681D01*
X68031814Y-115700347D01*
X68026646Y-115675325D01*
X68026556Y-115674943D01*
X68023411Y-115664299D01*
X68017296Y-115656262D01*
X68004547Y-115650467D01*
X67981500Y-115646547D01*
X67944491Y-115644135D01*
X67889856Y-115642865D01*
X67813933Y-115642371D01*
X67713056Y-115642286D01*
X67700000Y-115642286D01*
X67596090Y-115642348D01*
G36*
X64546405Y-120366966D02*
G01*
X64488979Y-120404497D01*
X64461281Y-120438096D01*
X64439338Y-120499064D01*
X64437595Y-120547308D01*
X64441543Y-120611816D01*
X64590314Y-120676934D01*
X64662651Y-120710202D01*
X64709916Y-120736964D01*
X64734493Y-120760144D01*
X64738763Y-120782667D01*
X64725111Y-120807455D01*
X64710057Y-120823886D01*
X64666254Y-120850235D01*
X64618611Y-120852081D01*
X64574855Y-120831546D01*
X64542711Y-120790752D01*
X64536962Y-120776347D01*
X64509424Y-120731356D01*
X64477742Y-120712182D01*
X64434286Y-120695779D01*
X64434286Y-120757966D01*
X64438128Y-120800283D01*
X64453177Y-120835969D01*
X64484720Y-120876943D01*
X64489408Y-120882267D01*
X64524494Y-120918720D01*
X64554653Y-120938283D01*
X64592385Y-120947283D01*
X64623665Y-120950230D01*
X64679615Y-120950965D01*
X64719445Y-120941660D01*
X64744292Y-120927846D01*
X64783344Y-120897467D01*
X64810375Y-120864613D01*
X64827483Y-120823294D01*
X64836762Y-120767521D01*
X64840307Y-120691305D01*
X64840590Y-120652622D01*
X64839628Y-120606247D01*
X64751993Y-120606247D01*
X64750977Y-120631126D01*
X64748444Y-120635200D01*
X64731726Y-120629665D01*
X64695751Y-120615017D01*
X64647669Y-120594190D01*
X64637614Y-120589714D01*
X64576848Y-120558814D01*
X64543368Y-120531657D01*
X64536010Y-120506220D01*
X64553609Y-120480481D01*
X64568144Y-120469109D01*
X64620590Y-120446364D01*
X64669678Y-120450122D01*
X64710773Y-120477884D01*
X64739242Y-120527152D01*
X64748369Y-120566257D01*
X64751993Y-120606247D01*
X64839628Y-120606247D01*
X64838715Y-120562249D01*
X64831804Y-120495384D01*
X64818116Y-120446695D01*
X64795904Y-120410849D01*
X64763426Y-120382513D01*
X64749267Y-120373355D01*
X64684947Y-120349507D01*
X64614527Y-120348006D01*
X64546405Y-120366966D01*
G37*
X64546405Y-120366966D02*
X64488979Y-120404497D01*
X64461281Y-120438096D01*
X64439338Y-120499064D01*
X64437595Y-120547308D01*
X64441543Y-120611816D01*
X64590314Y-120676934D01*
X64662651Y-120710202D01*
X64709916Y-120736964D01*
X64734493Y-120760144D01*
X64738763Y-120782667D01*
X64725111Y-120807455D01*
X64710057Y-120823886D01*
X64666254Y-120850235D01*
X64618611Y-120852081D01*
X64574855Y-120831546D01*
X64542711Y-120790752D01*
X64536962Y-120776347D01*
X64509424Y-120731356D01*
X64477742Y-120712182D01*
X64434286Y-120695779D01*
X64434286Y-120757966D01*
X64438128Y-120800283D01*
X64453177Y-120835969D01*
X64484720Y-120876943D01*
X64489408Y-120882267D01*
X64524494Y-120918720D01*
X64554653Y-120938283D01*
X64592385Y-120947283D01*
X64623665Y-120950230D01*
X64679615Y-120950965D01*
X64719445Y-120941660D01*
X64744292Y-120927846D01*
X64783344Y-120897467D01*
X64810375Y-120864613D01*
X64827483Y-120823294D01*
X64836762Y-120767521D01*
X64840307Y-120691305D01*
X64840590Y-120652622D01*
X64839628Y-120606247D01*
X64751993Y-120606247D01*
X64750977Y-120631126D01*
X64748444Y-120635200D01*
X64731726Y-120629665D01*
X64695751Y-120615017D01*
X64647669Y-120594190D01*
X64637614Y-120589714D01*
X64576848Y-120558814D01*
X64543368Y-120531657D01*
X64536010Y-120506220D01*
X64553609Y-120480481D01*
X64568144Y-120469109D01*
X64620590Y-120446364D01*
X64669678Y-120450122D01*
X64710773Y-120477884D01*
X64739242Y-120527152D01*
X64748369Y-120566257D01*
X64751993Y-120606247D01*
X64839628Y-120606247D01*
X64838715Y-120562249D01*
X64831804Y-120495384D01*
X64818116Y-120446695D01*
X64795904Y-120410849D01*
X64763426Y-120382513D01*
X64749267Y-120373355D01*
X64684947Y-120349507D01*
X64614527Y-120348006D01*
X64546405Y-120366966D01*
G36*
X65047400Y-120358752D02*
G01*
X65030052Y-120366334D01*
X64988644Y-120399128D01*
X64953235Y-120446547D01*
X64931336Y-120497151D01*
X64927771Y-120522098D01*
X64939721Y-120556927D01*
X64965933Y-120575357D01*
X64994036Y-120586516D01*
X65006905Y-120588572D01*
X65013171Y-120573649D01*
X65025544Y-120541175D01*
X65030972Y-120526502D01*
X65061410Y-120475744D01*
X65105480Y-120450427D01*
X65161990Y-120451206D01*
X65166175Y-120452203D01*
X65196345Y-120466507D01*
X65218524Y-120494393D01*
X65233673Y-120539287D01*
X65242750Y-120604615D01*
X65246714Y-120693804D01*
X65247086Y-120741261D01*
X65247270Y-120816071D01*
X65248478Y-120867069D01*
X65251691Y-120899471D01*
X65257891Y-120918495D01*
X65268060Y-120929356D01*
X65283181Y-120937272D01*
X65284054Y-120937670D01*
X65313172Y-120949981D01*
X65327597Y-120954514D01*
X65329814Y-120940809D01*
X65331711Y-120902925D01*
X65333153Y-120845715D01*
X65334002Y-120774027D01*
X65334171Y-120721565D01*
X65333308Y-120620047D01*
X65329930Y-120543032D01*
X65322858Y-120486023D01*
X65310912Y-120444526D01*
X65292910Y-120414043D01*
X65267673Y-120390080D01*
X65242753Y-120373355D01*
X65182829Y-120351097D01*
X65113089Y-120346076D01*
X65047400Y-120358752D01*
G37*
X65047400Y-120358752D02*
X65030052Y-120366334D01*
X64988644Y-120399128D01*
X64953235Y-120446547D01*
X64931336Y-120497151D01*
X64927771Y-120522098D01*
X64939721Y-120556927D01*
X64965933Y-120575357D01*
X64994036Y-120586516D01*
X65006905Y-120588572D01*
X65013171Y-120573649D01*
X65025544Y-120541175D01*
X65030972Y-120526502D01*
X65061410Y-120475744D01*
X65105480Y-120450427D01*
X65161990Y-120451206D01*
X65166175Y-120452203D01*
X65196345Y-120466507D01*
X65218524Y-120494393D01*
X65233673Y-120539287D01*
X65242750Y-120604615D01*
X65246714Y-120693804D01*
X65247086Y-120741261D01*
X65247270Y-120816071D01*
X65248478Y-120867069D01*
X65251691Y-120899471D01*
X65257891Y-120918495D01*
X65268060Y-120929356D01*
X65283181Y-120937272D01*
X65284054Y-120937670D01*
X65313172Y-120949981D01*
X65327597Y-120954514D01*
X65329814Y-120940809D01*
X65331711Y-120902925D01*
X65333153Y-120845715D01*
X65334002Y-120774027D01*
X65334171Y-120721565D01*
X65333308Y-120620047D01*
X65329930Y-120543032D01*
X65322858Y-120486023D01*
X65310912Y-120444526D01*
X65292910Y-120414043D01*
X65267673Y-120390080D01*
X65242753Y-120373355D01*
X65182829Y-120351097D01*
X65113089Y-120346076D01*
X65047400Y-120358752D01*
G36*
X65555124Y-120356335D02*
G01*
X65513333Y-120375344D01*
X65480531Y-120398378D01*
X65456497Y-120424133D01*
X65439903Y-120457358D01*
X65429423Y-120502800D01*
X65423729Y-120565207D01*
X65421493Y-120649327D01*
X65421257Y-120704721D01*
X65421257Y-120920826D01*
X65458226Y-120937670D01*
X65487344Y-120949981D01*
X65501769Y-120954514D01*
X65504528Y-120941025D01*
X65506718Y-120904653D01*
X65508058Y-120851542D01*
X65508343Y-120809372D01*
X65509566Y-120748447D01*
X65512864Y-120700115D01*
X65517679Y-120670518D01*
X65521504Y-120664229D01*
X65547217Y-120670652D01*
X65587582Y-120687125D01*
X65634321Y-120709458D01*
X65679155Y-120733457D01*
X65713807Y-120754930D01*
X65729998Y-120769685D01*
X65730062Y-120769845D01*
X65728670Y-120797152D01*
X65716182Y-120823219D01*
X65694257Y-120844392D01*
X65662257Y-120851474D01*
X65634908Y-120850649D01*
X65596174Y-120850042D01*
X65575842Y-120859116D01*
X65563631Y-120883092D01*
X65562091Y-120887613D01*
X65556797Y-120921806D01*
X65570953Y-120942568D01*
X65607852Y-120952462D01*
X65647711Y-120954292D01*
X65719438Y-120940727D01*
X65756568Y-120921355D01*
X65802424Y-120875845D01*
X65826744Y-120819983D01*
X65828927Y-120760957D01*
X65808371Y-120705953D01*
X65777451Y-120671486D01*
X65746580Y-120652189D01*
X65698058Y-120627759D01*
X65641515Y-120602985D01*
X65632090Y-120599199D01*
X65569981Y-120571791D01*
X65534178Y-120547634D01*
X65522663Y-120523619D01*
X65533420Y-120496635D01*
X65551886Y-120475543D01*
X65595531Y-120449572D01*
X65643554Y-120447624D01*
X65687594Y-120467637D01*
X65719291Y-120507551D01*
X65723451Y-120517848D01*
X65747673Y-120555724D01*
X65783035Y-120583842D01*
X65827657Y-120606917D01*
X65827657Y-120541485D01*
X65825031Y-120501506D01*
X65813770Y-120469997D01*
X65788801Y-120436378D01*
X65764831Y-120410484D01*
X65727559Y-120373817D01*
X65698599Y-120354121D01*
X65667495Y-120346220D01*
X65632287Y-120344914D01*
X65555124Y-120356335D01*
G37*
X65555124Y-120356335D02*
X65513333Y-120375344D01*
X65480531Y-120398378D01*
X65456497Y-120424133D01*
X65439903Y-120457358D01*
X65429423Y-120502800D01*
X65423729Y-120565207D01*
X65421493Y-120649327D01*
X65421257Y-120704721D01*
X65421257Y-120920826D01*
X65458226Y-120937670D01*
X65487344Y-120949981D01*
X65501769Y-120954514D01*
X65504528Y-120941025D01*
X65506718Y-120904653D01*
X65508058Y-120851542D01*
X65508343Y-120809372D01*
X65509566Y-120748447D01*
X65512864Y-120700115D01*
X65517679Y-120670518D01*
X65521504Y-120664229D01*
X65547217Y-120670652D01*
X65587582Y-120687125D01*
X65634321Y-120709458D01*
X65679155Y-120733457D01*
X65713807Y-120754930D01*
X65729998Y-120769685D01*
X65730062Y-120769845D01*
X65728670Y-120797152D01*
X65716182Y-120823219D01*
X65694257Y-120844392D01*
X65662257Y-120851474D01*
X65634908Y-120850649D01*
X65596174Y-120850042D01*
X65575842Y-120859116D01*
X65563631Y-120883092D01*
X65562091Y-120887613D01*
X65556797Y-120921806D01*
X65570953Y-120942568D01*
X65607852Y-120952462D01*
X65647711Y-120954292D01*
X65719438Y-120940727D01*
X65756568Y-120921355D01*
X65802424Y-120875845D01*
X65826744Y-120819983D01*
X65828927Y-120760957D01*
X65808371Y-120705953D01*
X65777451Y-120671486D01*
X65746580Y-120652189D01*
X65698058Y-120627759D01*
X65641515Y-120602985D01*
X65632090Y-120599199D01*
X65569981Y-120571791D01*
X65534178Y-120547634D01*
X65522663Y-120523619D01*
X65533420Y-120496635D01*
X65551886Y-120475543D01*
X65595531Y-120449572D01*
X65643554Y-120447624D01*
X65687594Y-120467637D01*
X65719291Y-120507551D01*
X65723451Y-120517848D01*
X65747673Y-120555724D01*
X65783035Y-120583842D01*
X65827657Y-120606917D01*
X65827657Y-120541485D01*
X65825031Y-120501506D01*
X65813770Y-120469997D01*
X65788801Y-120436378D01*
X65764831Y-120410484D01*
X65727559Y-120373817D01*
X65698599Y-120354121D01*
X65667495Y-120346220D01*
X65632287Y-120344914D01*
X65555124Y-120356335D01*
G36*
X65920167Y-120358663D02*
G01*
X65917952Y-120396850D01*
X65916216Y-120454886D01*
X65915101Y-120528180D01*
X65914743Y-120605055D01*
X65914743Y-120865196D01*
X65960674Y-120911127D01*
X65992325Y-120939429D01*
X66020110Y-120950893D01*
X66058085Y-120950168D01*
X66073160Y-120948321D01*
X66120274Y-120942948D01*
X66159244Y-120939869D01*
X66168743Y-120939585D01*
X66200767Y-120941445D01*
X66246568Y-120946114D01*
X66264326Y-120948321D01*
X66307943Y-120951735D01*
X66337255Y-120944320D01*
X66366320Y-120921427D01*
X66376812Y-120911127D01*
X66422743Y-120865196D01*
X66422743Y-120378602D01*
X66385774Y-120361758D01*
X66353941Y-120349282D01*
X66335317Y-120344914D01*
X66330542Y-120358718D01*
X66326079Y-120397286D01*
X66322225Y-120456356D01*
X66319278Y-120531663D01*
X66317857Y-120595286D01*
X66313886Y-120845657D01*
X66279241Y-120850556D01*
X66247732Y-120847131D01*
X66232292Y-120836041D01*
X66227977Y-120815308D01*
X66224292Y-120771145D01*
X66221531Y-120709146D01*
X66219988Y-120634909D01*
X66219765Y-120596706D01*
X66219543Y-120376783D01*
X66173834Y-120360849D01*
X66141482Y-120350015D01*
X66123885Y-120344962D01*
X66123377Y-120344914D01*
X66121612Y-120358648D01*
X66119671Y-120396730D01*
X66117718Y-120454482D01*
X66115916Y-120527227D01*
X66114657Y-120595286D01*
X66110686Y-120845657D01*
X66023600Y-120845657D01*
X66019604Y-120617240D01*
X66015608Y-120388822D01*
X65973153Y-120366868D01*
X65941808Y-120351793D01*
X65923256Y-120344951D01*
X65922721Y-120344914D01*
X65920167Y-120358663D01*
G37*
X65920167Y-120358663D02*
X65917952Y-120396850D01*
X65916216Y-120454886D01*
X65915101Y-120528180D01*
X65914743Y-120605055D01*
X65914743Y-120865196D01*
X65960674Y-120911127D01*
X65992325Y-120939429D01*
X66020110Y-120950893D01*
X66058085Y-120950168D01*
X66073160Y-120948321D01*
X66120274Y-120942948D01*
X66159244Y-120939869D01*
X66168743Y-120939585D01*
X66200767Y-120941445D01*
X66246568Y-120946114D01*
X66264326Y-120948321D01*
X66307943Y-120951735D01*
X66337255Y-120944320D01*
X66366320Y-120921427D01*
X66376812Y-120911127D01*
X66422743Y-120865196D01*
X66422743Y-120378602D01*
X66385774Y-120361758D01*
X66353941Y-120349282D01*
X66335317Y-120344914D01*
X66330542Y-120358718D01*
X66326079Y-120397286D01*
X66322225Y-120456356D01*
X66319278Y-120531663D01*
X66317857Y-120595286D01*
X66313886Y-120845657D01*
X66279241Y-120850556D01*
X66247732Y-120847131D01*
X66232292Y-120836041D01*
X66227977Y-120815308D01*
X66224292Y-120771145D01*
X66221531Y-120709146D01*
X66219988Y-120634909D01*
X66219765Y-120596706D01*
X66219543Y-120376783D01*
X66173834Y-120360849D01*
X66141482Y-120350015D01*
X66123885Y-120344962D01*
X66123377Y-120344914D01*
X66121612Y-120358648D01*
X66119671Y-120396730D01*
X66117718Y-120454482D01*
X66115916Y-120527227D01*
X66114657Y-120595286D01*
X66110686Y-120845657D01*
X66023600Y-120845657D01*
X66019604Y-120617240D01*
X66015608Y-120388822D01*
X65973153Y-120366868D01*
X65941808Y-120351793D01*
X65923256Y-120344951D01*
X65922721Y-120344914D01*
X65920167Y-120358663D01*
G36*
X66509883Y-120465358D02*
G01*
X66510067Y-120573837D01*
X66510781Y-120657287D01*
X66512325Y-120719704D01*
X66514999Y-120765085D01*
X66519106Y-120797429D01*
X66524945Y-120820733D01*
X66532818Y-120838995D01*
X66538779Y-120849418D01*
X66588145Y-120905945D01*
X66650736Y-120941377D01*
X66719987Y-120954090D01*
X66789332Y-120942463D01*
X66830625Y-120921568D01*
X66873975Y-120885422D01*
X66903519Y-120841276D01*
X66921345Y-120783462D01*
X66929537Y-120706313D01*
X66930698Y-120649714D01*
X66930542Y-120645647D01*
X66829143Y-120645647D01*
X66828524Y-120710550D01*
X66825686Y-120753514D01*
X66819160Y-120781622D01*
X66807477Y-120801953D01*
X66793517Y-120817288D01*
X66746635Y-120846890D01*
X66696299Y-120849419D01*
X66648724Y-120824705D01*
X66645021Y-120821356D01*
X66629217Y-120803935D01*
X66619307Y-120783209D01*
X66613942Y-120752362D01*
X66611772Y-120704577D01*
X66611429Y-120651748D01*
X66612173Y-120585381D01*
X66615252Y-120541106D01*
X66621939Y-120512009D01*
X66633504Y-120491173D01*
X66642987Y-120480107D01*
X66687040Y-120452198D01*
X66737776Y-120448843D01*
X66786204Y-120470159D01*
X66795550Y-120478073D01*
X66811460Y-120495647D01*
X66821390Y-120516587D01*
X66826722Y-120547782D01*
X66828837Y-120596122D01*
X66829143Y-120645647D01*
X66930542Y-120645647D01*
X66927190Y-120558568D01*
X66915274Y-120490086D01*
X66892865Y-120438600D01*
X66857876Y-120398443D01*
X66830625Y-120377861D01*
X66781093Y-120355625D01*
X66723684Y-120345304D01*
X66670318Y-120348067D01*
X66640457Y-120359212D01*
X66628739Y-120362383D01*
X66620963Y-120350557D01*
X66615535Y-120318866D01*
X66611429Y-120270593D01*
X66606933Y-120216829D01*
X66600687Y-120184482D01*
X66589324Y-120165985D01*
X66569472Y-120153770D01*
X66557000Y-120148362D01*
X66509829Y-120128601D01*
X66509883Y-120465358D01*
G37*
X66509883Y-120465358D02*
X66510067Y-120573837D01*
X66510781Y-120657287D01*
X66512325Y-120719704D01*
X66514999Y-120765085D01*
X66519106Y-120797429D01*
X66524945Y-120820733D01*
X66532818Y-120838995D01*
X66538779Y-120849418D01*
X66588145Y-120905945D01*
X66650736Y-120941377D01*
X66719987Y-120954090D01*
X66789332Y-120942463D01*
X66830625Y-120921568D01*
X66873975Y-120885422D01*
X66903519Y-120841276D01*
X66921345Y-120783462D01*
X66929537Y-120706313D01*
X66930698Y-120649714D01*
X66930542Y-120645647D01*
X66829143Y-120645647D01*
X66828524Y-120710550D01*
X66825686Y-120753514D01*
X66819160Y-120781622D01*
X66807477Y-120801953D01*
X66793517Y-120817288D01*
X66746635Y-120846890D01*
X66696299Y-120849419D01*
X66648724Y-120824705D01*
X66645021Y-120821356D01*
X66629217Y-120803935D01*
X66619307Y-120783209D01*
X66613942Y-120752362D01*
X66611772Y-120704577D01*
X66611429Y-120651748D01*
X66612173Y-120585381D01*
X66615252Y-120541106D01*
X66621939Y-120512009D01*
X66633504Y-120491173D01*
X66642987Y-120480107D01*
X66687040Y-120452198D01*
X66737776Y-120448843D01*
X66786204Y-120470159D01*
X66795550Y-120478073D01*
X66811460Y-120495647D01*
X66821390Y-120516587D01*
X66826722Y-120547782D01*
X66828837Y-120596122D01*
X66829143Y-120645647D01*
X66930542Y-120645647D01*
X66927190Y-120558568D01*
X66915274Y-120490086D01*
X66892865Y-120438600D01*
X66857876Y-120398443D01*
X66830625Y-120377861D01*
X66781093Y-120355625D01*
X66723684Y-120345304D01*
X66670318Y-120348067D01*
X66640457Y-120359212D01*
X66628739Y-120362383D01*
X66620963Y-120350557D01*
X66615535Y-120318866D01*
X66611429Y-120270593D01*
X66606933Y-120216829D01*
X66600687Y-120184482D01*
X66589324Y-120165985D01*
X66569472Y-120153770D01*
X66557000Y-120148362D01*
X66509829Y-120128601D01*
X66509883Y-120465358D01*
G36*
X67170074Y-120349755D02*
G01*
X67104142Y-120374084D01*
X67050727Y-120417117D01*
X67029836Y-120447409D01*
X67007061Y-120502994D01*
X67007534Y-120543186D01*
X67031438Y-120570217D01*
X67040283Y-120574813D01*
X67078470Y-120589144D01*
X67097972Y-120585472D01*
X67104578Y-120561407D01*
X67104914Y-120548114D01*
X67117008Y-120499210D01*
X67148529Y-120464999D01*
X67192341Y-120448476D01*
X67241305Y-120452634D01*
X67281106Y-120474227D01*
X67294550Y-120486544D01*
X67304079Y-120501487D01*
X67310515Y-120524075D01*
X67314683Y-120559328D01*
X67317403Y-120612266D01*
X67319498Y-120687907D01*
X67320040Y-120711857D01*
X67322019Y-120793790D01*
X67324269Y-120851455D01*
X67327643Y-120889608D01*
X67332994Y-120913004D01*
X67341176Y-120926398D01*
X67353041Y-120934545D01*
X67360638Y-120938144D01*
X67392898Y-120950452D01*
X67411889Y-120954514D01*
X67418164Y-120940948D01*
X67421994Y-120899934D01*
X67423400Y-120830999D01*
X67422402Y-120733669D01*
X67422092Y-120718657D01*
X67419899Y-120629859D01*
X67417307Y-120565019D01*
X67413618Y-120519067D01*
X67408136Y-120486935D01*
X67400165Y-120463553D01*
X67389007Y-120443852D01*
X67383170Y-120435410D01*
X67349704Y-120398057D01*
X67312273Y-120369003D01*
X67307691Y-120366467D01*
X67240574Y-120346443D01*
X67170074Y-120349755D01*
G37*
X67170074Y-120349755D02*
X67104142Y-120374084D01*
X67050727Y-120417117D01*
X67029836Y-120447409D01*
X67007061Y-120502994D01*
X67007534Y-120543186D01*
X67031438Y-120570217D01*
X67040283Y-120574813D01*
X67078470Y-120589144D01*
X67097972Y-120585472D01*
X67104578Y-120561407D01*
X67104914Y-120548114D01*
X67117008Y-120499210D01*
X67148529Y-120464999D01*
X67192341Y-120448476D01*
X67241305Y-120452634D01*
X67281106Y-120474227D01*
X67294550Y-120486544D01*
X67304079Y-120501487D01*
X67310515Y-120524075D01*
X67314683Y-120559328D01*
X67317403Y-120612266D01*
X67319498Y-120687907D01*
X67320040Y-120711857D01*
X67322019Y-120793790D01*
X67324269Y-120851455D01*
X67327643Y-120889608D01*
X67332994Y-120913004D01*
X67341176Y-120926398D01*
X67353041Y-120934545D01*
X67360638Y-120938144D01*
X67392898Y-120950452D01*
X67411889Y-120954514D01*
X67418164Y-120940948D01*
X67421994Y-120899934D01*
X67423400Y-120830999D01*
X67422402Y-120733669D01*
X67422092Y-120718657D01*
X67419899Y-120629859D01*
X67417307Y-120565019D01*
X67413618Y-120519067D01*
X67408136Y-120486935D01*
X67400165Y-120463553D01*
X67389007Y-120443852D01*
X67383170Y-120435410D01*
X67349704Y-120398057D01*
X67312273Y-120369003D01*
X67307691Y-120366467D01*
X67240574Y-120346443D01*
X67170074Y-120349755D01*
G36*
X67660256Y-120350968D02*
G01*
X67603384Y-120372087D01*
X67602733Y-120372493D01*
X67567560Y-120398380D01*
X67541593Y-120428633D01*
X67523330Y-120468058D01*
X67511268Y-120521462D01*
X67503904Y-120593651D01*
X67499736Y-120689432D01*
X67499371Y-120703078D01*
X67494124Y-120908842D01*
X67538284Y-120931678D01*
X67570237Y-120947110D01*
X67589530Y-120954423D01*
X67590422Y-120954514D01*
X67593761Y-120941022D01*
X67596413Y-120904626D01*
X67598044Y-120851452D01*
X67598400Y-120808393D01*
X67598408Y-120738641D01*
X67601597Y-120694837D01*
X67612712Y-120673944D01*
X67636499Y-120672925D01*
X67677704Y-120688741D01*
X67739914Y-120717815D01*
X67785659Y-120741963D01*
X67809187Y-120762913D01*
X67816104Y-120785747D01*
X67816114Y-120786877D01*
X67804701Y-120826212D01*
X67770908Y-120847462D01*
X67719191Y-120850539D01*
X67681939Y-120850006D01*
X67662297Y-120860735D01*
X67650048Y-120886505D01*
X67642998Y-120919337D01*
X67653158Y-120937966D01*
X67656983Y-120940632D01*
X67692999Y-120951340D01*
X67743434Y-120952856D01*
X67795374Y-120945759D01*
X67832178Y-120932788D01*
X67883062Y-120889585D01*
X67911986Y-120829446D01*
X67917714Y-120782462D01*
X67913343Y-120740082D01*
X67897525Y-120705488D01*
X67866203Y-120674763D01*
X67815322Y-120643990D01*
X67740824Y-120609252D01*
X67736286Y-120607288D01*
X67669179Y-120576287D01*
X67627768Y-120550862D01*
X67610019Y-120528014D01*
X67613893Y-120504745D01*
X67637357Y-120478056D01*
X67644373Y-120471914D01*
X67691370Y-120448100D01*
X67740067Y-120449103D01*
X67782478Y-120472451D01*
X67810616Y-120515675D01*
X67813231Y-120524160D01*
X67838692Y-120565308D01*
X67870999Y-120585128D01*
X67917714Y-120604770D01*
X67917714Y-120553950D01*
X67903504Y-120480082D01*
X67861325Y-120412327D01*
X67839376Y-120389661D01*
X67789483Y-120360569D01*
X67726033Y-120347400D01*
X67660256Y-120350968D01*
G37*
X67660256Y-120350968D02*
X67603384Y-120372087D01*
X67602733Y-120372493D01*
X67567560Y-120398380D01*
X67541593Y-120428633D01*
X67523330Y-120468058D01*
X67511268Y-120521462D01*
X67503904Y-120593651D01*
X67499736Y-120689432D01*
X67499371Y-120703078D01*
X67494124Y-120908842D01*
X67538284Y-120931678D01*
X67570237Y-120947110D01*
X67589530Y-120954423D01*
X67590422Y-120954514D01*
X67593761Y-120941022D01*
X67596413Y-120904626D01*
X67598044Y-120851452D01*
X67598400Y-120808393D01*
X67598408Y-120738641D01*
X67601597Y-120694837D01*
X67612712Y-120673944D01*
X67636499Y-120672925D01*
X67677704Y-120688741D01*
X67739914Y-120717815D01*
X67785659Y-120741963D01*
X67809187Y-120762913D01*
X67816104Y-120785747D01*
X67816114Y-120786877D01*
X67804701Y-120826212D01*
X67770908Y-120847462D01*
X67719191Y-120850539D01*
X67681939Y-120850006D01*
X67662297Y-120860735D01*
X67650048Y-120886505D01*
X67642998Y-120919337D01*
X67653158Y-120937966D01*
X67656983Y-120940632D01*
X67692999Y-120951340D01*
X67743434Y-120952856D01*
X67795374Y-120945759D01*
X67832178Y-120932788D01*
X67883062Y-120889585D01*
X67911986Y-120829446D01*
X67917714Y-120782462D01*
X67913343Y-120740082D01*
X67897525Y-120705488D01*
X67866203Y-120674763D01*
X67815322Y-120643990D01*
X67740824Y-120609252D01*
X67736286Y-120607288D01*
X67669179Y-120576287D01*
X67627768Y-120550862D01*
X67610019Y-120528014D01*
X67613893Y-120504745D01*
X67637357Y-120478056D01*
X67644373Y-120471914D01*
X67691370Y-120448100D01*
X67740067Y-120449103D01*
X67782478Y-120472451D01*
X67810616Y-120515675D01*
X67813231Y-120524160D01*
X67838692Y-120565308D01*
X67870999Y-120585128D01*
X67917714Y-120604770D01*
X67917714Y-120553950D01*
X67903504Y-120480082D01*
X67861325Y-120412327D01*
X67839376Y-120389661D01*
X67789483Y-120360569D01*
X67726033Y-120347400D01*
X67660256Y-120350968D01*
G36*
X68324114Y-120251289D02*
G01*
X68319861Y-120310613D01*
X68314975Y-120345572D01*
X68308205Y-120360820D01*
X68298298Y-120361015D01*
X68295086Y-120359195D01*
X68252356Y-120346015D01*
X68196773Y-120346785D01*
X68140263Y-120360333D01*
X68104918Y-120377861D01*
X68068679Y-120405861D01*
X68042187Y-120437549D01*
X68024001Y-120477813D01*
X68012678Y-120531543D01*
X68006778Y-120603626D01*
X68004857Y-120698951D01*
X68004823Y-120717237D01*
X68004800Y-120922646D01*
X68050509Y-120938580D01*
X68082973Y-120949420D01*
X68100785Y-120954468D01*
X68101309Y-120954514D01*
X68103063Y-120940828D01*
X68104556Y-120903076D01*
X68105674Y-120846224D01*
X68106303Y-120775234D01*
X68106400Y-120732073D01*
X68106602Y-120646973D01*
X68107642Y-120585981D01*
X68110169Y-120544177D01*
X68114836Y-120516642D01*
X68122293Y-120498456D01*
X68133189Y-120484698D01*
X68139993Y-120478073D01*
X68186728Y-120451375D01*
X68237728Y-120449375D01*
X68283999Y-120471955D01*
X68292556Y-120480107D01*
X68305107Y-120495436D01*
X68313812Y-120513618D01*
X68319369Y-120539909D01*
X68322474Y-120579562D01*
X68323824Y-120637832D01*
X68324114Y-120718173D01*
X68324114Y-120922646D01*
X68369823Y-120938580D01*
X68402287Y-120949420D01*
X68420099Y-120954468D01*
X68420623Y-120954514D01*
X68421963Y-120940623D01*
X68423172Y-120901439D01*
X68424199Y-120840700D01*
X68424998Y-120762141D01*
X68425519Y-120669498D01*
X68425714Y-120566509D01*
X68425714Y-120169342D01*
X68378543Y-120149444D01*
X68331371Y-120129547D01*
X68324114Y-120251289D01*
G37*
X68324114Y-120251289D02*
X68319861Y-120310613D01*
X68314975Y-120345572D01*
X68308205Y-120360820D01*
X68298298Y-120361015D01*
X68295086Y-120359195D01*
X68252356Y-120346015D01*
X68196773Y-120346785D01*
X68140263Y-120360333D01*
X68104918Y-120377861D01*
X68068679Y-120405861D01*
X68042187Y-120437549D01*
X68024001Y-120477813D01*
X68012678Y-120531543D01*
X68006778Y-120603626D01*
X68004857Y-120698951D01*
X68004823Y-120717237D01*
X68004800Y-120922646D01*
X68050509Y-120938580D01*
X68082973Y-120949420D01*
X68100785Y-120954468D01*
X68101309Y-120954514D01*
X68103063Y-120940828D01*
X68104556Y-120903076D01*
X68105674Y-120846224D01*
X68106303Y-120775234D01*
X68106400Y-120732073D01*
X68106602Y-120646973D01*
X68107642Y-120585981D01*
X68110169Y-120544177D01*
X68114836Y-120516642D01*
X68122293Y-120498456D01*
X68133189Y-120484698D01*
X68139993Y-120478073D01*
X68186728Y-120451375D01*
X68237728Y-120449375D01*
X68283999Y-120471955D01*
X68292556Y-120480107D01*
X68305107Y-120495436D01*
X68313812Y-120513618D01*
X68319369Y-120539909D01*
X68322474Y-120579562D01*
X68323824Y-120637832D01*
X68324114Y-120718173D01*
X68324114Y-120922646D01*
X68369823Y-120938580D01*
X68402287Y-120949420D01*
X68420099Y-120954468D01*
X68420623Y-120954514D01*
X68421963Y-120940623D01*
X68423172Y-120901439D01*
X68424199Y-120840700D01*
X68424998Y-120762141D01*
X68425519Y-120669498D01*
X68425714Y-120566509D01*
X68425714Y-120169342D01*
X68378543Y-120149444D01*
X68331371Y-120129547D01*
X68324114Y-120251289D01*
G36*
X69531697Y-120331239D02*
G01*
X69474473Y-120369735D01*
X69430251Y-120425335D01*
X69403833Y-120496086D01*
X69398490Y-120548162D01*
X69399097Y-120569893D01*
X69404178Y-120586531D01*
X69418145Y-120601437D01*
X69445411Y-120617973D01*
X69490388Y-120639498D01*
X69557489Y-120669374D01*
X69557829Y-120669524D01*
X69619593Y-120697813D01*
X69670241Y-120722933D01*
X69704596Y-120742179D01*
X69717482Y-120752848D01*
X69717486Y-120752934D01*
X69706128Y-120776166D01*
X69679569Y-120801774D01*
X69649077Y-120820221D01*
X69633630Y-120823886D01*
X69591485Y-120811212D01*
X69555192Y-120779471D01*
X69537483Y-120744572D01*
X69520448Y-120718845D01*
X69487078Y-120689546D01*
X69447851Y-120664235D01*
X69413244Y-120650471D01*
X69406007Y-120649714D01*
X69397861Y-120662160D01*
X69397370Y-120693972D01*
X69403357Y-120736866D01*
X69414643Y-120782558D01*
X69430050Y-120822761D01*
X69430829Y-120824322D01*
X69477196Y-120889062D01*
X69537289Y-120933097D01*
X69605535Y-120954711D01*
X69676362Y-120952185D01*
X69744196Y-120923804D01*
X69747212Y-120921808D01*
X69800573Y-120873448D01*
X69835660Y-120810352D01*
X69855078Y-120727387D01*
X69857684Y-120704078D01*
X69862299Y-120594055D01*
X69856767Y-120542748D01*
X69717486Y-120542748D01*
X69715676Y-120574753D01*
X69705778Y-120584093D01*
X69681102Y-120577105D01*
X69642205Y-120560587D01*
X69598725Y-120539881D01*
X69597644Y-120539333D01*
X69560791Y-120519949D01*
X69546000Y-120507013D01*
X69549647Y-120493451D01*
X69565005Y-120475632D01*
X69604077Y-120449845D01*
X69646154Y-120447950D01*
X69683897Y-120466717D01*
X69709966Y-120502915D01*
X69717486Y-120542748D01*
X69856767Y-120542748D01*
X69852806Y-120506027D01*
X69828450Y-120436212D01*
X69794544Y-120387302D01*
X69733347Y-120337878D01*
X69665937Y-120313359D01*
X69597120Y-120311797D01*
X69531697Y-120331239D01*
G37*
X69531697Y-120331239D02*
X69474473Y-120369735D01*
X69430251Y-120425335D01*
X69403833Y-120496086D01*
X69398490Y-120548162D01*
X69399097Y-120569893D01*
X69404178Y-120586531D01*
X69418145Y-120601437D01*
X69445411Y-120617973D01*
X69490388Y-120639498D01*
X69557489Y-120669374D01*
X69557829Y-120669524D01*
X69619593Y-120697813D01*
X69670241Y-120722933D01*
X69704596Y-120742179D01*
X69717482Y-120752848D01*
X69717486Y-120752934D01*
X69706128Y-120776166D01*
X69679569Y-120801774D01*
X69649077Y-120820221D01*
X69633630Y-120823886D01*
X69591485Y-120811212D01*
X69555192Y-120779471D01*
X69537483Y-120744572D01*
X69520448Y-120718845D01*
X69487078Y-120689546D01*
X69447851Y-120664235D01*
X69413244Y-120650471D01*
X69406007Y-120649714D01*
X69397861Y-120662160D01*
X69397370Y-120693972D01*
X69403357Y-120736866D01*
X69414643Y-120782558D01*
X69430050Y-120822761D01*
X69430829Y-120824322D01*
X69477196Y-120889062D01*
X69537289Y-120933097D01*
X69605535Y-120954711D01*
X69676362Y-120952185D01*
X69744196Y-120923804D01*
X69747212Y-120921808D01*
X69800573Y-120873448D01*
X69835660Y-120810352D01*
X69855078Y-120727387D01*
X69857684Y-120704078D01*
X69862299Y-120594055D01*
X69856767Y-120542748D01*
X69717486Y-120542748D01*
X69715676Y-120574753D01*
X69705778Y-120584093D01*
X69681102Y-120577105D01*
X69642205Y-120560587D01*
X69598725Y-120539881D01*
X69597644Y-120539333D01*
X69560791Y-120519949D01*
X69546000Y-120507013D01*
X69549647Y-120493451D01*
X69565005Y-120475632D01*
X69604077Y-120449845D01*
X69646154Y-120447950D01*
X69683897Y-120466717D01*
X69709966Y-120502915D01*
X69717486Y-120542748D01*
X69856767Y-120542748D01*
X69852806Y-120506027D01*
X69828450Y-120436212D01*
X69794544Y-120387302D01*
X69733347Y-120337878D01*
X69665937Y-120313359D01*
X69597120Y-120311797D01*
X69531697Y-120331239D01*
G36*
X70658885Y-120321962D02*
G01*
X70590855Y-120357733D01*
X70540649Y-120415301D01*
X70522815Y-120452312D01*
X70508937Y-120507882D01*
X70501833Y-120578096D01*
X70501160Y-120654727D01*
X70506573Y-120729552D01*
X70517730Y-120794342D01*
X70534286Y-120840873D01*
X70539374Y-120848887D01*
X70599645Y-120908707D01*
X70671231Y-120944535D01*
X70748908Y-120955020D01*
X70827452Y-120938810D01*
X70849311Y-120929092D01*
X70891878Y-120899143D01*
X70929237Y-120859433D01*
X70932768Y-120854397D01*
X70947119Y-120830124D01*
X70956606Y-120804178D01*
X70962210Y-120770022D01*
X70964914Y-120721119D01*
X70965701Y-120650935D01*
X70965714Y-120635200D01*
X70965678Y-120630192D01*
X70820571Y-120630192D01*
X70819727Y-120696430D01*
X70816404Y-120740386D01*
X70809417Y-120768779D01*
X70797584Y-120788325D01*
X70791543Y-120794857D01*
X70756814Y-120819680D01*
X70723097Y-120818548D01*
X70689005Y-120797016D01*
X70668671Y-120774029D01*
X70656629Y-120740478D01*
X70649866Y-120687569D01*
X70649402Y-120681399D01*
X70648248Y-120585513D01*
X70660312Y-120514299D01*
X70685430Y-120468194D01*
X70723440Y-120447635D01*
X70737008Y-120446514D01*
X70772636Y-120452152D01*
X70797006Y-120471686D01*
X70811907Y-120509042D01*
X70819125Y-120568150D01*
X70820571Y-120630192D01*
X70965678Y-120630192D01*
X70965174Y-120560413D01*
X70962904Y-120508159D01*
X70957932Y-120471949D01*
X70949287Y-120445299D01*
X70935995Y-120421722D01*
X70933057Y-120417338D01*
X70883687Y-120358249D01*
X70829891Y-120323947D01*
X70764398Y-120310331D01*
X70742158Y-120309665D01*
X70658885Y-120321962D01*
G37*
X70658885Y-120321962D02*
X70590855Y-120357733D01*
X70540649Y-120415301D01*
X70522815Y-120452312D01*
X70508937Y-120507882D01*
X70501833Y-120578096D01*
X70501160Y-120654727D01*
X70506573Y-120729552D01*
X70517730Y-120794342D01*
X70534286Y-120840873D01*
X70539374Y-120848887D01*
X70599645Y-120908707D01*
X70671231Y-120944535D01*
X70748908Y-120955020D01*
X70827452Y-120938810D01*
X70849311Y-120929092D01*
X70891878Y-120899143D01*
X70929237Y-120859433D01*
X70932768Y-120854397D01*
X70947119Y-120830124D01*
X70956606Y-120804178D01*
X70962210Y-120770022D01*
X70964914Y-120721119D01*
X70965701Y-120650935D01*
X70965714Y-120635200D01*
X70965678Y-120630192D01*
X70820571Y-120630192D01*
X70819727Y-120696430D01*
X70816404Y-120740386D01*
X70809417Y-120768779D01*
X70797584Y-120788325D01*
X70791543Y-120794857D01*
X70756814Y-120819680D01*
X70723097Y-120818548D01*
X70689005Y-120797016D01*
X70668671Y-120774029D01*
X70656629Y-120740478D01*
X70649866Y-120687569D01*
X70649402Y-120681399D01*
X70648248Y-120585513D01*
X70660312Y-120514299D01*
X70685430Y-120468194D01*
X70723440Y-120447635D01*
X70737008Y-120446514D01*
X70772636Y-120452152D01*
X70797006Y-120471686D01*
X70811907Y-120509042D01*
X70819125Y-120568150D01*
X70820571Y-120630192D01*
X70965678Y-120630192D01*
X70965174Y-120560413D01*
X70962904Y-120508159D01*
X70957932Y-120471949D01*
X70949287Y-120445299D01*
X70935995Y-120421722D01*
X70933057Y-120417338D01*
X70883687Y-120358249D01*
X70829891Y-120323947D01*
X70764398Y-120310331D01*
X70742158Y-120309665D01*
X70658885Y-120321962D01*
G36*
X68983907Y-120327780D02*
G01*
X68937328Y-120354723D01*
X68904943Y-120381466D01*
X68881258Y-120409484D01*
X68864941Y-120443748D01*
X68854661Y-120489227D01*
X68849086Y-120550892D01*
X68846884Y-120633711D01*
X68846629Y-120693246D01*
X68846629Y-120912391D01*
X68908314Y-120940044D01*
X68970000Y-120967697D01*
X68977257Y-120727670D01*
X68980256Y-120638028D01*
X68983402Y-120572962D01*
X68987299Y-120528026D01*
X68992553Y-120498770D01*
X68999769Y-120480748D01*
X69009550Y-120469511D01*
X69012688Y-120467079D01*
X69060239Y-120448083D01*
X69108303Y-120455600D01*
X69136914Y-120475543D01*
X69148553Y-120489675D01*
X69156609Y-120508220D01*
X69161729Y-120536334D01*
X69164559Y-120579173D01*
X69165744Y-120641895D01*
X69165943Y-120707261D01*
X69165982Y-120789268D01*
X69167386Y-120847316D01*
X69172086Y-120886465D01*
X69182013Y-120911780D01*
X69199097Y-120928323D01*
X69225268Y-120941156D01*
X69260225Y-120954491D01*
X69298404Y-120969007D01*
X69293859Y-120711389D01*
X69292029Y-120618519D01*
X69289888Y-120549889D01*
X69286819Y-120500711D01*
X69282206Y-120466198D01*
X69275432Y-120441562D01*
X69265881Y-120422016D01*
X69254366Y-120404770D01*
X69198810Y-120349680D01*
X69131020Y-120317822D01*
X69057287Y-120310191D01*
X68983907Y-120327780D01*
G37*
X68983907Y-120327780D02*
X68937328Y-120354723D01*
X68904943Y-120381466D01*
X68881258Y-120409484D01*
X68864941Y-120443748D01*
X68854661Y-120489227D01*
X68849086Y-120550892D01*
X68846884Y-120633711D01*
X68846629Y-120693246D01*
X68846629Y-120912391D01*
X68908314Y-120940044D01*
X68970000Y-120967697D01*
X68977257Y-120727670D01*
X68980256Y-120638028D01*
X68983402Y-120572962D01*
X68987299Y-120528026D01*
X68992553Y-120498770D01*
X68999769Y-120480748D01*
X69009550Y-120469511D01*
X69012688Y-120467079D01*
X69060239Y-120448083D01*
X69108303Y-120455600D01*
X69136914Y-120475543D01*
X69148553Y-120489675D01*
X69156609Y-120508220D01*
X69161729Y-120536334D01*
X69164559Y-120579173D01*
X69165744Y-120641895D01*
X69165943Y-120707261D01*
X69165982Y-120789268D01*
X69167386Y-120847316D01*
X69172086Y-120886465D01*
X69182013Y-120911780D01*
X69199097Y-120928323D01*
X69225268Y-120941156D01*
X69260225Y-120954491D01*
X69298404Y-120969007D01*
X69293859Y-120711389D01*
X69292029Y-120618519D01*
X69289888Y-120549889D01*
X69286819Y-120500711D01*
X69282206Y-120466198D01*
X69275432Y-120441562D01*
X69265881Y-120422016D01*
X69254366Y-120404770D01*
X69198810Y-120349680D01*
X69131020Y-120317822D01*
X69057287Y-120310191D01*
X68983907Y-120327780D01*
G36*
X70100256Y-120319918D02*
G01*
X70044799Y-120347568D01*
X69995852Y-120398480D01*
X69982371Y-120417338D01*
X69967686Y-120442015D01*
X69958158Y-120468816D01*
X69952707Y-120504587D01*
X69950253Y-120556169D01*
X69949714Y-120624267D01*
X69952148Y-120717588D01*
X69960606Y-120787657D01*
X69976826Y-120839931D01*
X70002546Y-120879869D01*
X70039503Y-120912929D01*
X70042218Y-120914886D01*
X70078640Y-120934908D01*
X70122498Y-120944815D01*
X70178276Y-120947257D01*
X70268952Y-120947257D01*
X70268990Y-121035283D01*
X70269834Y-121084308D01*
X70274976Y-121113065D01*
X70288413Y-121130311D01*
X70314142Y-121144808D01*
X70320321Y-121147769D01*
X70349236Y-121161648D01*
X70371624Y-121170414D01*
X70388271Y-121171171D01*
X70399964Y-121161023D01*
X70407490Y-121137073D01*
X70411634Y-121096426D01*
X70413185Y-121036186D01*
X70412929Y-120953455D01*
X70411651Y-120845339D01*
X70411252Y-120813000D01*
X70409815Y-120701524D01*
X70408528Y-120628603D01*
X70269029Y-120628603D01*
X70268245Y-120690499D01*
X70264760Y-120730997D01*
X70256876Y-120757708D01*
X70242895Y-120778244D01*
X70233403Y-120788260D01*
X70194596Y-120817567D01*
X70160237Y-120819952D01*
X70124784Y-120795750D01*
X70123886Y-120794857D01*
X70109461Y-120776153D01*
X70100687Y-120750732D01*
X70096261Y-120711584D01*
X70094882Y-120651697D01*
X70094857Y-120638430D01*
X70098188Y-120555901D01*
X70109031Y-120498691D01*
X70128660Y-120463766D01*
X70158350Y-120448094D01*
X70175509Y-120446514D01*
X70216234Y-120453926D01*
X70244168Y-120478330D01*
X70260983Y-120522980D01*
X70268350Y-120591130D01*
X70269029Y-120628603D01*
X70408528Y-120628603D01*
X70408292Y-120615245D01*
X70406323Y-120550333D01*
X70403550Y-120502958D01*
X70399612Y-120469290D01*
X70394151Y-120445498D01*
X70386808Y-120427753D01*
X70377223Y-120412224D01*
X70373113Y-120406381D01*
X70318595Y-120351185D01*
X70249664Y-120319890D01*
X70169928Y-120311165D01*
X70100256Y-120319918D01*
G37*
X70100256Y-120319918D02*
X70044799Y-120347568D01*
X69995852Y-120398480D01*
X69982371Y-120417338D01*
X69967686Y-120442015D01*
X69958158Y-120468816D01*
X69952707Y-120504587D01*
X69950253Y-120556169D01*
X69949714Y-120624267D01*
X69952148Y-120717588D01*
X69960606Y-120787657D01*
X69976826Y-120839931D01*
X70002546Y-120879869D01*
X70039503Y-120912929D01*
X70042218Y-120914886D01*
X70078640Y-120934908D01*
X70122498Y-120944815D01*
X70178276Y-120947257D01*
X70268952Y-120947257D01*
X70268990Y-121035283D01*
X70269834Y-121084308D01*
X70274976Y-121113065D01*
X70288413Y-121130311D01*
X70314142Y-121144808D01*
X70320321Y-121147769D01*
X70349236Y-121161648D01*
X70371624Y-121170414D01*
X70388271Y-121171171D01*
X70399964Y-121161023D01*
X70407490Y-121137073D01*
X70411634Y-121096426D01*
X70413185Y-121036186D01*
X70412929Y-120953455D01*
X70411651Y-120845339D01*
X70411252Y-120813000D01*
X70409815Y-120701524D01*
X70408528Y-120628603D01*
X70269029Y-120628603D01*
X70268245Y-120690499D01*
X70264760Y-120730997D01*
X70256876Y-120757708D01*
X70242895Y-120778244D01*
X70233403Y-120788260D01*
X70194596Y-120817567D01*
X70160237Y-120819952D01*
X70124784Y-120795750D01*
X70123886Y-120794857D01*
X70109461Y-120776153D01*
X70100687Y-120750732D01*
X70096261Y-120711584D01*
X70094882Y-120651697D01*
X70094857Y-120638430D01*
X70098188Y-120555901D01*
X70109031Y-120498691D01*
X70128660Y-120463766D01*
X70158350Y-120448094D01*
X70175509Y-120446514D01*
X70216234Y-120453926D01*
X70244168Y-120478330D01*
X70260983Y-120522980D01*
X70268350Y-120591130D01*
X70269029Y-120628603D01*
X70408528Y-120628603D01*
X70408292Y-120615245D01*
X70406323Y-120550333D01*
X70403550Y-120502958D01*
X70399612Y-120469290D01*
X70394151Y-120445498D01*
X70386808Y-120427753D01*
X70377223Y-120412224D01*
X70373113Y-120406381D01*
X70318595Y-120351185D01*
X70249664Y-120319890D01*
X70169928Y-120311165D01*
X70100256Y-120319918D01*
D13*
%TO.C,J105*%
X68610000Y-82350000D02*
X68610000Y-83710000D01*
X118390000Y-77150000D02*
X118960000Y-77150000D01*
X115850000Y-77150000D02*
X116870000Y-77150000D01*
X113310000Y-77150000D02*
X114330000Y-77150000D01*
X110770000Y-77150000D02*
X111790000Y-77150000D01*
X108230000Y-77150000D02*
X109250000Y-77150000D01*
X105690000Y-77150000D02*
X106710000Y-77150000D01*
X103150000Y-77150000D02*
X104170000Y-77150000D01*
X100610000Y-77150000D02*
X101630000Y-77150000D01*
X98070000Y-77150000D02*
X99090000Y-77150000D01*
X95530000Y-77150000D02*
X96550000Y-77150000D01*
X92990000Y-77150000D02*
X94010000Y-77150000D01*
X90450000Y-77150000D02*
X91470000Y-77150000D01*
X87910000Y-77150000D02*
X88930000Y-77150000D01*
X85370000Y-77150000D02*
X86390000Y-77150000D01*
X82830000Y-77150000D02*
X83850000Y-77150000D01*
X80290000Y-77150000D02*
X81310000Y-77150000D01*
X77750000Y-77150000D02*
X78770000Y-77150000D01*
X75210000Y-77150000D02*
X76230000Y-77150000D01*
X72670000Y-77150000D02*
X73690000Y-77150000D01*
X70130000Y-77150000D02*
X71150000Y-77150000D01*
X68040000Y-77150000D02*
X68610000Y-77150000D01*
X118960000Y-77150000D02*
X118960000Y-82350000D01*
X118390000Y-82350000D02*
X118960000Y-82350000D01*
X115850000Y-82350000D02*
X116870000Y-82350000D01*
X113310000Y-82350000D02*
X114330000Y-82350000D01*
X110770000Y-82350000D02*
X111790000Y-82350000D01*
X108230000Y-82350000D02*
X109250000Y-82350000D01*
X105690000Y-82350000D02*
X106710000Y-82350000D01*
X103150000Y-82350000D02*
X104170000Y-82350000D01*
X100610000Y-82350000D02*
X101630000Y-82350000D01*
X98070000Y-82350000D02*
X99090000Y-82350000D01*
X95530000Y-82350000D02*
X96550000Y-82350000D01*
X92990000Y-82350000D02*
X94010000Y-82350000D01*
X90450000Y-82350000D02*
X91470000Y-82350000D01*
X87910000Y-82350000D02*
X88930000Y-82350000D01*
X85370000Y-82350000D02*
X86390000Y-82350000D01*
X82830000Y-82350000D02*
X83850000Y-82350000D01*
X80290000Y-82350000D02*
X81310000Y-82350000D01*
X77750000Y-82350000D02*
X78770000Y-82350000D01*
X75210000Y-82350000D02*
X76230000Y-82350000D01*
X72670000Y-82350000D02*
X73690000Y-82350000D01*
X70130000Y-82350000D02*
X71150000Y-82350000D01*
X68040000Y-82350000D02*
X68610000Y-82350000D01*
X68040000Y-77150000D02*
X68040000Y-82350000D01*
%TD*%
M02*
