%TF.GenerationSoftware,KiCad,Pcbnew,5.1.9-73d0e3b20d~88~ubuntu18.04.1*%
%TF.CreationDate,2021-07-10T12:21:25+03:00*%
%TF.ProjectId,Rpi-breakout,5270692d-6272-4656-916b-6f75742e6b69,rev?*%
%TF.SameCoordinates,Original*%
%TF.FileFunction,Copper,L1,Top*%
%TF.FilePolarity,Positive*%
%FSLAX46Y46*%
G04 Gerber Fmt 4.6, Leading zero omitted, Abs format (unit mm)*
G04 Created by KiCad (PCBNEW 5.1.9-73d0e3b20d~88~ubuntu18.04.1) date 2021-07-10 12:21:25*
%MOMM*%
%LPD*%
G01*
G04 APERTURE LIST*
%TA.AperFunction,ComponentPad*%
%ADD10O,1.600000X1.600000*%
%TD*%
%TA.AperFunction,ComponentPad*%
%ADD11R,1.600000X1.600000*%
%TD*%
%TA.AperFunction,ComponentPad*%
%ADD12O,1.700000X1.700000*%
%TD*%
%TA.AperFunction,ComponentPad*%
%ADD13R,1.700000X1.700000*%
%TD*%
%TA.AperFunction,SMDPad,CuDef*%
%ADD14R,1.000000X3.000000*%
%TD*%
%TA.AperFunction,ComponentPad*%
%ADD15C,5.600000*%
%TD*%
%TA.AperFunction,ComponentPad*%
%ADD16O,2.000000X1.700000*%
%TD*%
%TA.AperFunction,ViaPad*%
%ADD17C,0.800000*%
%TD*%
%TA.AperFunction,Conductor*%
%ADD18C,0.250000*%
%TD*%
%TA.AperFunction,Conductor*%
%ADD19C,0.700000*%
%TD*%
%TA.AperFunction,Conductor*%
%ADD20C,0.254000*%
%TD*%
%TA.AperFunction,Conductor*%
%ADD21C,0.100000*%
%TD*%
G04 APERTURE END LIST*
D10*
%TO.P,Fan,2*%
%TO.N,Net-(J102-Pad1)*%
X72920000Y-87500000D03*
D11*
%TO.P,Fan,1*%
%TO.N,+5V*%
X65300000Y-87500000D03*
%TD*%
D12*
%TO.P,J108,15*%
%TO.N,Net-(J107-Pad15)*%
X121500000Y-127460000D03*
%TO.P,J108,14*%
%TO.N,Net-(J107-Pad14)*%
X121500000Y-124920000D03*
%TO.P,J108,13*%
%TO.N,Net-(J107-Pad13)*%
X121500000Y-122380000D03*
%TO.P,J108,12*%
%TO.N,Net-(J107-Pad12)*%
X121500000Y-119840000D03*
%TO.P,J108,11*%
%TO.N,Net-(J107-Pad11)*%
X121500000Y-117300000D03*
%TO.P,J108,10*%
%TO.N,Net-(J107-Pad10)*%
X121500000Y-114760000D03*
%TO.P,J108,9*%
%TO.N,Net-(J107-Pad9)*%
X121500000Y-112220000D03*
%TO.P,J108,8*%
%TO.N,Net-(J107-Pad8)*%
X121500000Y-109680000D03*
%TO.P,J108,7*%
%TO.N,Net-(J107-Pad7)*%
X121500000Y-107140000D03*
%TO.P,J108,6*%
%TO.N,Net-(J107-Pad6)*%
X121500000Y-104600000D03*
%TO.P,J108,5*%
%TO.N,Net-(J107-Pad5)*%
X121500000Y-102060000D03*
%TO.P,J108,4*%
%TO.N,Net-(J107-Pad4)*%
X121500000Y-99520000D03*
%TO.P,J108,3*%
%TO.N,Net-(J107-Pad3)*%
X121500000Y-96980000D03*
%TO.P,J108,2*%
%TO.N,Net-(J107-Pad2)*%
X121500000Y-94440000D03*
D13*
%TO.P,J108,1*%
%TO.N,Net-(J107-Pad1)*%
X121500000Y-91900000D03*
%TD*%
D12*
%TO.P,J107,15*%
%TO.N,Net-(J107-Pad15)*%
X115500000Y-127460000D03*
%TO.P,J107,14*%
%TO.N,Net-(J107-Pad14)*%
X115500000Y-124920000D03*
%TO.P,J107,13*%
%TO.N,Net-(J107-Pad13)*%
X115500000Y-122380000D03*
%TO.P,J107,12*%
%TO.N,Net-(J107-Pad12)*%
X115500000Y-119840000D03*
%TO.P,J107,11*%
%TO.N,Net-(J107-Pad11)*%
X115500000Y-117300000D03*
%TO.P,J107,10*%
%TO.N,Net-(J107-Pad10)*%
X115500000Y-114760000D03*
%TO.P,J107,9*%
%TO.N,Net-(J107-Pad9)*%
X115500000Y-112220000D03*
%TO.P,J107,8*%
%TO.N,Net-(J107-Pad8)*%
X115500000Y-109680000D03*
%TO.P,J107,7*%
%TO.N,Net-(J107-Pad7)*%
X115500000Y-107140000D03*
%TO.P,J107,6*%
%TO.N,Net-(J107-Pad6)*%
X115500000Y-104600000D03*
%TO.P,J107,5*%
%TO.N,Net-(J107-Pad5)*%
X115500000Y-102060000D03*
%TO.P,J107,4*%
%TO.N,Net-(J107-Pad4)*%
X115500000Y-99520000D03*
%TO.P,J107,3*%
%TO.N,Net-(J107-Pad3)*%
X115500000Y-96980000D03*
%TO.P,J107,2*%
%TO.N,Net-(J107-Pad2)*%
X115500000Y-94440000D03*
D13*
%TO.P,J107,1*%
%TO.N,Net-(J107-Pad1)*%
X115500000Y-91900000D03*
%TD*%
D14*
%TO.P,J101,40*%
%TO.N,GND*%
X117630000Y-82270000D03*
%TO.P,J101,39*%
%TO.N,/C39*%
X117630000Y-77230000D03*
%TO.P,J101,38*%
%TO.N,/C38*%
X115090000Y-82270000D03*
%TO.P,J101,37*%
%TO.N,/C37*%
X115090000Y-77230000D03*
%TO.P,J101,36*%
%TO.N,/C36*%
X112550000Y-82270000D03*
%TO.P,J101,35*%
%TO.N,/C35*%
X112550000Y-77230000D03*
%TO.P,J101,34*%
%TO.N,/C34*%
X110010000Y-82270000D03*
%TO.P,J101,33*%
%TO.N,GND*%
X110010000Y-77230000D03*
%TO.P,J101,32*%
%TO.N,/C32*%
X107470000Y-82270000D03*
%TO.P,J101,31*%
%TO.N,/C31*%
X107470000Y-77230000D03*
%TO.P,J101,30*%
%TO.N,/C30*%
X104930000Y-82270000D03*
%TO.P,J101,29*%
%TO.N,GND*%
X104930000Y-77230000D03*
%TO.P,J101,28*%
%TO.N,/C28*%
X102390000Y-82270000D03*
%TO.P,J101,27*%
%TO.N,/C27*%
X102390000Y-77230000D03*
%TO.P,J101,26*%
%TO.N,GND*%
X99850000Y-82270000D03*
%TO.P,J101,25*%
%TO.N,/C25*%
X99850000Y-77230000D03*
%TO.P,J101,24*%
%TO.N,/C24*%
X97310000Y-82270000D03*
%TO.P,J101,23*%
%TO.N,/C23*%
X97310000Y-77230000D03*
%TO.P,J101,22*%
%TO.N,/C22*%
X94770000Y-82270000D03*
%TO.P,J101,21*%
%TO.N,/C21*%
X94770000Y-77230000D03*
%TO.P,J101,20*%
%TO.N,/C20*%
X92230000Y-82270000D03*
%TO.P,J101,19*%
%TO.N,GND*%
X92230000Y-77230000D03*
%TO.P,J101,18*%
%TO.N,+3V3*%
X89690000Y-82270000D03*
%TO.P,J101,17*%
%TO.N,/C17*%
X89690000Y-77230000D03*
%TO.P,J101,16*%
%TO.N,/C16*%
X87150000Y-82270000D03*
%TO.P,J101,15*%
%TO.N,/C15*%
X87150000Y-77230000D03*
%TO.P,J101,14*%
%TO.N,/C14*%
X84610000Y-82270000D03*
%TO.P,J101,13*%
%TO.N,GND*%
X84610000Y-77230000D03*
%TO.P,J101,12*%
%TO.N,/C12*%
X82070000Y-82270000D03*
%TO.P,J101,11*%
%TO.N,/C11*%
X82070000Y-77230000D03*
%TO.P,J101,10*%
%TO.N,GND*%
X79530000Y-82270000D03*
%TO.P,J101,9*%
%TO.N,/C9*%
X79530000Y-77230000D03*
%TO.P,J101,8*%
%TO.N,/C8*%
X76990000Y-82270000D03*
%TO.P,J101,7*%
%TO.N,/C7*%
X76990000Y-77230000D03*
%TO.P,J101,6*%
%TO.N,/C6*%
X74450000Y-82270000D03*
%TO.P,J101,5*%
%TO.N,GND*%
X74450000Y-77230000D03*
%TO.P,J101,4*%
%TO.N,/C4*%
X71910000Y-82270000D03*
%TO.P,J101,3*%
%TO.N,+5V*%
X71910000Y-77230000D03*
%TO.P,J101,2*%
%TO.N,/C2*%
X69370000Y-82270000D03*
%TO.P,J101,1*%
%TO.N,+5V*%
X69370000Y-77230000D03*
%TD*%
D15*
%TO.P,REF\u002A\u002A,1*%
%TO.N,N/C*%
X103000000Y-126000000D03*
%TD*%
%TO.P,REF\u002A\u002A,1*%
%TO.N,N/C*%
X71000000Y-126000000D03*
%TD*%
%TO.P,REF\u002A\u002A,1*%
%TO.N,N/C*%
X103000000Y-94000000D03*
%TD*%
%TO.P,REF\u002A\u002A,1*%
%TO.N,N/C*%
X71100000Y-93850000D03*
%TD*%
D12*
%TO.P,J106,6*%
%TO.N,+5V*%
X76500000Y-87700000D03*
%TO.P,J106,5*%
X79040000Y-87700000D03*
%TO.P,J106,4*%
X81580000Y-87700000D03*
%TO.P,J106,3*%
X84120000Y-87700000D03*
%TO.P,J106,2*%
X86660000Y-87700000D03*
D13*
%TO.P,J106,1*%
X89200000Y-87700000D03*
%TD*%
D12*
%TO.P,J104,6*%
%TO.N,+3V3*%
X110200000Y-87700000D03*
%TO.P,J104,5*%
X112740000Y-87700000D03*
%TO.P,J104,4*%
X115280000Y-87700000D03*
%TO.P,J104,3*%
X117820000Y-87700000D03*
%TO.P,J104,2*%
X120360000Y-87700000D03*
D13*
%TO.P,J104,1*%
X122900000Y-87700000D03*
%TD*%
D12*
%TO.P,J103,6*%
%TO.N,GND*%
X93400000Y-87700000D03*
%TO.P,J103,5*%
X95940000Y-87700000D03*
%TO.P,J103,4*%
X98480000Y-87700000D03*
%TO.P,J103,3*%
X101020000Y-87700000D03*
%TO.P,J103,2*%
X103560000Y-87700000D03*
D13*
%TO.P,J103,1*%
X106100000Y-87700000D03*
%TD*%
D16*
%TO.P,J102,2*%
%TO.N,GND*%
X122300000Y-78600000D03*
%TO.P,J102,1*%
%TO.N,Net-(J102-Pad1)*%
%TA.AperFunction,ComponentPad*%
G36*
G01*
X123050000Y-81950000D02*
X121550000Y-81950000D01*
G75*
G02*
X121300000Y-81700000I0J250000D01*
G01*
X121300000Y-80500000D01*
G75*
G02*
X121550000Y-80250000I250000J0D01*
G01*
X123050000Y-80250000D01*
G75*
G02*
X123300000Y-80500000I0J-250000D01*
G01*
X123300000Y-81700000D01*
G75*
G02*
X123050000Y-81950000I-250000J0D01*
G01*
G37*
%TD.AperFunction*%
%TD*%
D17*
%TO.N,/C39*%
X116250000Y-78500000D03*
%TO.N,/C38*%
X113750000Y-81000000D03*
%TO.N,/C37*%
X113750000Y-78500000D03*
%TO.N,/C36*%
X111250000Y-81000000D03*
%TO.N,/C35*%
X111250000Y-78500000D03*
%TO.N,/C34*%
X108750000Y-81000000D03*
%TO.N,/C32*%
X106250000Y-81000000D03*
%TO.N,/C31*%
X106250000Y-78500000D03*
%TO.N,/C30*%
X103750000Y-81000000D03*
%TO.N,/C28*%
X101000000Y-81000000D03*
%TO.N,/C27*%
X101000000Y-78500000D03*
%TO.N,/C25*%
X98500000Y-78500000D03*
%TO.N,/C24*%
X96000000Y-81000000D03*
%TO.N,/C23*%
X96000000Y-78500000D03*
%TO.N,/C22*%
X93500000Y-81000000D03*
%TO.N,/C21*%
X93500000Y-78500000D03*
%TO.N,/C20*%
X91000000Y-81000000D03*
%TO.N,/C17*%
X88500000Y-78500000D03*
%TO.N,/C16*%
X86000000Y-81000000D03*
%TO.N,/C15*%
X86000000Y-78500000D03*
%TO.N,/C14*%
X83250000Y-81000000D03*
%TO.N,/C12*%
X80750000Y-81000000D03*
%TO.N,/C11*%
X80750000Y-78500000D03*
%TO.N,/C9*%
X78250000Y-78500000D03*
%TO.N,/C8*%
X75750000Y-81000000D03*
%TO.N,/C7*%
X75750000Y-78500000D03*
%TO.N,/C6*%
X73250000Y-81000000D03*
%TO.N,/C4*%
X70750000Y-81000000D03*
%TO.N,/C2*%
X68250000Y-81000000D03*
%TO.N,GND*%
X116250000Y-81000000D03*
X108750000Y-78500000D03*
X103500000Y-78500000D03*
X98500000Y-81000000D03*
X91000000Y-78500000D03*
X83250000Y-78500000D03*
X78250000Y-81000000D03*
X73250000Y-78500000D03*
%TO.N,+5V*%
X70749998Y-78500000D03*
X68000000Y-78500000D03*
%TO.N,+3V3*%
X88500000Y-81000000D03*
%TD*%
D18*
%TO.N,/C39*%
X117630000Y-77230000D02*
X117520000Y-77230000D01*
X117520000Y-77230000D02*
X116250000Y-78500000D01*
%TO.N,/C38*%
X115090000Y-82270000D02*
X115020000Y-82270000D01*
X115020000Y-82270000D02*
X113750000Y-81000000D01*
%TO.N,/C37*%
X113820000Y-78500000D02*
X115090000Y-77230000D01*
X113750000Y-78500000D02*
X113820000Y-78500000D01*
%TO.N,/C36*%
X111280000Y-81000000D02*
X112550000Y-82270000D01*
X111250000Y-81000000D02*
X111280000Y-81000000D01*
%TO.N,/C35*%
X112550000Y-77230000D02*
X112520000Y-77230000D01*
X112520000Y-77230000D02*
X111250000Y-78500000D01*
%TO.N,/C34*%
X110010000Y-82270000D02*
X110010000Y-82260000D01*
X110010000Y-82260000D02*
X108750000Y-81000000D01*
%TO.N,/C32*%
X106250000Y-81050000D02*
X107470000Y-82270000D01*
X106250000Y-81000000D02*
X106250000Y-81050000D01*
%TO.N,/C31*%
X107470000Y-77230000D02*
X107470000Y-77280000D01*
X107470000Y-77280000D02*
X106250000Y-78500000D01*
%TO.N,/C30*%
X104930000Y-82270000D02*
X104930000Y-82180000D01*
X104930000Y-82180000D02*
X103750000Y-81000000D01*
%TO.N,/C28*%
X101120000Y-81000000D02*
X102390000Y-82270000D01*
X101000000Y-81000000D02*
X101120000Y-81000000D01*
%TO.N,/C27*%
X102390000Y-77230000D02*
X102270000Y-77230000D01*
X102270000Y-77230000D02*
X101000000Y-78500000D01*
%TO.N,/C25*%
X98580000Y-78500000D02*
X99850000Y-77230000D01*
X98500000Y-78500000D02*
X98580000Y-78500000D01*
%TO.N,/C24*%
X96040000Y-81000000D02*
X97310000Y-82270000D01*
X96000000Y-81000000D02*
X96040000Y-81000000D01*
%TO.N,/C23*%
X97310000Y-77230000D02*
X97270000Y-77230000D01*
X97270000Y-77230000D02*
X96000000Y-78500000D01*
%TO.N,/C22*%
X94770000Y-82270000D02*
X93500000Y-81000000D01*
%TO.N,/C21*%
X93500000Y-78500000D02*
X94770000Y-77230000D01*
%TO.N,/C20*%
X91000000Y-81040000D02*
X92230000Y-82270000D01*
X91000000Y-81000000D02*
X91000000Y-81040000D01*
%TO.N,/C17*%
X88500000Y-78420000D02*
X89690000Y-77230000D01*
X88500000Y-78500000D02*
X88500000Y-78420000D01*
%TO.N,/C16*%
X86000000Y-81120000D02*
X87150000Y-82270000D01*
X86000000Y-81000000D02*
X86000000Y-81120000D01*
%TO.N,/C15*%
X87150000Y-77230000D02*
X87150000Y-77350000D01*
X87150000Y-77350000D02*
X86000000Y-78500000D01*
%TO.N,/C14*%
X84610000Y-82270000D02*
X84520000Y-82270000D01*
X84520000Y-82270000D02*
X83250000Y-81000000D01*
%TO.N,/C12*%
X80800000Y-81000000D02*
X82070000Y-82270000D01*
X80750000Y-81000000D02*
X80800000Y-81000000D01*
%TO.N,/C11*%
X82070000Y-77230000D02*
X82020000Y-77230000D01*
X82020000Y-77230000D02*
X80750000Y-78500000D01*
%TO.N,/C9*%
X78260000Y-78500000D02*
X78250000Y-78500000D01*
X79530000Y-77230000D02*
X78260000Y-78500000D01*
%TO.N,/C8*%
X75750000Y-81030000D02*
X76990000Y-82270000D01*
X75750000Y-81000000D02*
X75750000Y-81030000D01*
%TO.N,/C7*%
X76990000Y-77230000D02*
X76990000Y-77260000D01*
X76990000Y-77260000D02*
X75750000Y-78500000D01*
%TO.N,/C6*%
X74450000Y-82270000D02*
X74450000Y-82200000D01*
X74450000Y-82200000D02*
X73250000Y-81000000D01*
%TO.N,/C4*%
X70750000Y-81110000D02*
X71910000Y-82270000D01*
X70750000Y-81000000D02*
X70750000Y-81110000D01*
%TO.N,/C2*%
X69370000Y-82270000D02*
X68250000Y-81150000D01*
X68250000Y-81150000D02*
X68250000Y-81000000D01*
%TO.N,GND*%
X116360000Y-81000000D02*
X117630000Y-82270000D01*
X116250000Y-81000000D02*
X116360000Y-81000000D01*
X108750000Y-78490000D02*
X110010000Y-77230000D01*
X108750000Y-78500000D02*
X108750000Y-78490000D01*
X103660000Y-78500000D02*
X104930000Y-77230000D01*
X103500000Y-78500000D02*
X103660000Y-78500000D01*
X99850000Y-82270000D02*
X99770000Y-82270000D01*
X99770000Y-82270000D02*
X98500000Y-81000000D01*
X92230000Y-77230000D02*
X92230000Y-77270000D01*
X92230000Y-77270000D02*
X91000000Y-78500000D01*
X83340000Y-78500000D02*
X84610000Y-77230000D01*
X83250000Y-78500000D02*
X83340000Y-78500000D01*
X78260000Y-81000000D02*
X78250000Y-81000000D01*
X79530000Y-82270000D02*
X78260000Y-81000000D01*
X74450000Y-77230000D02*
X73250000Y-78430000D01*
X73250000Y-78430000D02*
X73250000Y-78500000D01*
%TO.N,+5V*%
X71910000Y-77230000D02*
X70749998Y-78390002D01*
X70749998Y-78390002D02*
X70749998Y-78500000D01*
X69370000Y-77230000D02*
X68100000Y-78500000D01*
X68100000Y-78500000D02*
X68000000Y-78500000D01*
D19*
X76500000Y-87700000D02*
X79040000Y-87700000D01*
X79040000Y-87700000D02*
X81580000Y-87700000D01*
X81580000Y-87700000D02*
X84120000Y-87700000D01*
X84120000Y-87700000D02*
X86660000Y-87700000D01*
X86660000Y-87700000D02*
X89200000Y-87700000D01*
D18*
%TO.N,+3V3*%
X89690000Y-82270000D02*
X89690000Y-82190000D01*
X89690000Y-82190000D02*
X88500000Y-81000000D01*
D19*
X110200000Y-87700000D02*
X112740000Y-87700000D01*
X112740000Y-87700000D02*
X115280000Y-87700000D01*
X115280000Y-87700000D02*
X117820000Y-87700000D01*
X117820000Y-87700000D02*
X120360000Y-87700000D01*
X120360000Y-87700000D02*
X122900000Y-87700000D01*
%TD*%
D20*
%TO.N,GND*%
X68625820Y-75140498D02*
X68515506Y-75199463D01*
X68418815Y-75278815D01*
X68339463Y-75375506D01*
X68280498Y-75485820D01*
X68244188Y-75605518D01*
X68231928Y-75730000D01*
X68231928Y-77293270D01*
X68060199Y-77465000D01*
X67898061Y-77465000D01*
X67698102Y-77504774D01*
X67509744Y-77582795D01*
X67340226Y-77696063D01*
X67196063Y-77840226D01*
X67082795Y-78009744D01*
X67004774Y-78198102D01*
X66965000Y-78398061D01*
X66965000Y-78601939D01*
X67004774Y-78801898D01*
X67082795Y-78990256D01*
X67196063Y-79159774D01*
X67340226Y-79303937D01*
X67509744Y-79417205D01*
X67698102Y-79495226D01*
X67898061Y-79535000D01*
X68101939Y-79535000D01*
X68301898Y-79495226D01*
X68490256Y-79417205D01*
X68633151Y-79321726D01*
X68745518Y-79355812D01*
X68870000Y-79368072D01*
X69870000Y-79368072D01*
X69994482Y-79355812D01*
X70113725Y-79319640D01*
X70259742Y-79417205D01*
X70448100Y-79495226D01*
X70648059Y-79535000D01*
X70851937Y-79535000D01*
X71051896Y-79495226D01*
X71240254Y-79417205D01*
X71326147Y-79359813D01*
X71410000Y-79368072D01*
X72410000Y-79368072D01*
X72534482Y-79355812D01*
X72654180Y-79319502D01*
X72764494Y-79260537D01*
X72861185Y-79181185D01*
X72940537Y-79084494D01*
X72999502Y-78974180D01*
X73035812Y-78854482D01*
X73048072Y-78730000D01*
X73311928Y-78730000D01*
X73324188Y-78854482D01*
X73360498Y-78974180D01*
X73419463Y-79084494D01*
X73498815Y-79181185D01*
X73595506Y-79260537D01*
X73705820Y-79319502D01*
X73825518Y-79355812D01*
X73950000Y-79368072D01*
X74164250Y-79365000D01*
X74323000Y-79206250D01*
X74323000Y-77357000D01*
X73473750Y-77357000D01*
X73315000Y-77515750D01*
X73311928Y-78730000D01*
X73048072Y-78730000D01*
X73048072Y-75730000D01*
X73035812Y-75605518D01*
X72999502Y-75485820D01*
X72940537Y-75375506D01*
X72861185Y-75278815D01*
X72764494Y-75199463D01*
X72654180Y-75140498D01*
X72553642Y-75110000D01*
X73806358Y-75110000D01*
X73705820Y-75140498D01*
X73595506Y-75199463D01*
X73498815Y-75278815D01*
X73419463Y-75375506D01*
X73360498Y-75485820D01*
X73324188Y-75605518D01*
X73311928Y-75730000D01*
X73315000Y-76944250D01*
X73473750Y-77103000D01*
X74323000Y-77103000D01*
X74323000Y-77083000D01*
X74577000Y-77083000D01*
X74577000Y-77103000D01*
X75426250Y-77103000D01*
X75585000Y-76944250D01*
X75588072Y-75730000D01*
X75575812Y-75605518D01*
X75539502Y-75485820D01*
X75480537Y-75375506D01*
X75401185Y-75278815D01*
X75304494Y-75199463D01*
X75194180Y-75140498D01*
X75093642Y-75110000D01*
X76346358Y-75110000D01*
X76245820Y-75140498D01*
X76135506Y-75199463D01*
X76038815Y-75278815D01*
X75959463Y-75375506D01*
X75900498Y-75485820D01*
X75864188Y-75605518D01*
X75851928Y-75730000D01*
X75851928Y-77323270D01*
X75710199Y-77465000D01*
X75648061Y-77465000D01*
X75553132Y-77483882D01*
X75426250Y-77357000D01*
X74577000Y-77357000D01*
X74577000Y-79206250D01*
X74735750Y-79365000D01*
X74950000Y-79368072D01*
X75074482Y-79355812D01*
X75138706Y-79336330D01*
X75259744Y-79417205D01*
X75448102Y-79495226D01*
X75648061Y-79535000D01*
X75851939Y-79535000D01*
X76051898Y-79495226D01*
X76240256Y-79417205D01*
X76342560Y-79348848D01*
X76365518Y-79355812D01*
X76490000Y-79368072D01*
X77490000Y-79368072D01*
X77614482Y-79355812D01*
X77651195Y-79344675D01*
X77759744Y-79417205D01*
X77948102Y-79495226D01*
X78148061Y-79535000D01*
X78351939Y-79535000D01*
X78551898Y-79495226D01*
X78740256Y-79417205D01*
X78855050Y-79340503D01*
X78905518Y-79355812D01*
X79030000Y-79368072D01*
X80030000Y-79368072D01*
X80154482Y-79355812D01*
X80163685Y-79353020D01*
X80259744Y-79417205D01*
X80448102Y-79495226D01*
X80648061Y-79535000D01*
X80851939Y-79535000D01*
X81051898Y-79495226D01*
X81240256Y-79417205D01*
X81367539Y-79332157D01*
X81445518Y-79355812D01*
X81570000Y-79368072D01*
X82570000Y-79368072D01*
X82694482Y-79355812D01*
X82814180Y-79319502D01*
X82924494Y-79260537D01*
X83021185Y-79181185D01*
X83100537Y-79084494D01*
X83159502Y-78974180D01*
X83195812Y-78854482D01*
X83208072Y-78730000D01*
X83471928Y-78730000D01*
X83484188Y-78854482D01*
X83520498Y-78974180D01*
X83579463Y-79084494D01*
X83658815Y-79181185D01*
X83755506Y-79260537D01*
X83865820Y-79319502D01*
X83985518Y-79355812D01*
X84110000Y-79368072D01*
X84324250Y-79365000D01*
X84483000Y-79206250D01*
X84483000Y-77357000D01*
X83633750Y-77357000D01*
X83475000Y-77515750D01*
X83471928Y-78730000D01*
X83208072Y-78730000D01*
X83208072Y-75730000D01*
X83195812Y-75605518D01*
X83159502Y-75485820D01*
X83100537Y-75375506D01*
X83021185Y-75278815D01*
X82924494Y-75199463D01*
X82814180Y-75140498D01*
X82713642Y-75110000D01*
X83966358Y-75110000D01*
X83865820Y-75140498D01*
X83755506Y-75199463D01*
X83658815Y-75278815D01*
X83579463Y-75375506D01*
X83520498Y-75485820D01*
X83484188Y-75605518D01*
X83471928Y-75730000D01*
X83475000Y-76944250D01*
X83633750Y-77103000D01*
X84483000Y-77103000D01*
X84483000Y-77083000D01*
X84737000Y-77083000D01*
X84737000Y-77103000D01*
X85586250Y-77103000D01*
X85745000Y-76944250D01*
X85748072Y-75730000D01*
X85735812Y-75605518D01*
X85699502Y-75485820D01*
X85640537Y-75375506D01*
X85561185Y-75278815D01*
X85464494Y-75199463D01*
X85354180Y-75140498D01*
X85253642Y-75110000D01*
X86506358Y-75110000D01*
X86405820Y-75140498D01*
X86295506Y-75199463D01*
X86198815Y-75278815D01*
X86119463Y-75375506D01*
X86060498Y-75485820D01*
X86024188Y-75605518D01*
X86011928Y-75730000D01*
X86011928Y-77413271D01*
X85960199Y-77465000D01*
X85898061Y-77465000D01*
X85728064Y-77498814D01*
X85586250Y-77357000D01*
X84737000Y-77357000D01*
X84737000Y-79206250D01*
X84895750Y-79365000D01*
X85110000Y-79368072D01*
X85234482Y-79355812D01*
X85354180Y-79319502D01*
X85359369Y-79316728D01*
X85509744Y-79417205D01*
X85698102Y-79495226D01*
X85898061Y-79535000D01*
X86101939Y-79535000D01*
X86301898Y-79495226D01*
X86490256Y-79417205D01*
X86574864Y-79360672D01*
X86650000Y-79368072D01*
X87650000Y-79368072D01*
X87774482Y-79355812D01*
X87873094Y-79325898D01*
X88009744Y-79417205D01*
X88198102Y-79495226D01*
X88398061Y-79535000D01*
X88601939Y-79535000D01*
X88801898Y-79495226D01*
X88990256Y-79417205D01*
X89080002Y-79357239D01*
X89190000Y-79368072D01*
X90190000Y-79368072D01*
X90314482Y-79355812D01*
X90434180Y-79319502D01*
X90544494Y-79260537D01*
X90641185Y-79181185D01*
X90720537Y-79084494D01*
X90779502Y-78974180D01*
X90815812Y-78854482D01*
X90828072Y-78730000D01*
X91091928Y-78730000D01*
X91104188Y-78854482D01*
X91140498Y-78974180D01*
X91199463Y-79084494D01*
X91278815Y-79181185D01*
X91375506Y-79260537D01*
X91485820Y-79319502D01*
X91605518Y-79355812D01*
X91730000Y-79368072D01*
X91944250Y-79365000D01*
X92103000Y-79206250D01*
X92103000Y-77357000D01*
X91253750Y-77357000D01*
X91095000Y-77515750D01*
X91091928Y-78730000D01*
X90828072Y-78730000D01*
X90828072Y-75730000D01*
X90815812Y-75605518D01*
X90779502Y-75485820D01*
X90720537Y-75375506D01*
X90641185Y-75278815D01*
X90544494Y-75199463D01*
X90434180Y-75140498D01*
X90333642Y-75110000D01*
X91586358Y-75110000D01*
X91485820Y-75140498D01*
X91375506Y-75199463D01*
X91278815Y-75278815D01*
X91199463Y-75375506D01*
X91140498Y-75485820D01*
X91104188Y-75605518D01*
X91091928Y-75730000D01*
X91095000Y-76944250D01*
X91253750Y-77103000D01*
X92103000Y-77103000D01*
X92103000Y-77083000D01*
X92357000Y-77083000D01*
X92357000Y-77103000D01*
X93206250Y-77103000D01*
X93365000Y-76944250D01*
X93368072Y-75730000D01*
X93355812Y-75605518D01*
X93319502Y-75485820D01*
X93260537Y-75375506D01*
X93181185Y-75278815D01*
X93084494Y-75199463D01*
X92974180Y-75140498D01*
X92873642Y-75110000D01*
X94126358Y-75110000D01*
X94025820Y-75140498D01*
X93915506Y-75199463D01*
X93818815Y-75278815D01*
X93739463Y-75375506D01*
X93680498Y-75485820D01*
X93644188Y-75605518D01*
X93631928Y-75730000D01*
X93631928Y-77293270D01*
X93460199Y-77465000D01*
X93398061Y-77465000D01*
X93328155Y-77478905D01*
X93206250Y-77357000D01*
X92357000Y-77357000D01*
X92357000Y-79206250D01*
X92515750Y-79365000D01*
X92730000Y-79368072D01*
X92854482Y-79355812D01*
X92898073Y-79342589D01*
X93009744Y-79417205D01*
X93198102Y-79495226D01*
X93398061Y-79535000D01*
X93601939Y-79535000D01*
X93801898Y-79495226D01*
X93990256Y-79417205D01*
X94101927Y-79342589D01*
X94145518Y-79355812D01*
X94270000Y-79368072D01*
X95270000Y-79368072D01*
X95394482Y-79355812D01*
X95410562Y-79350934D01*
X95509744Y-79417205D01*
X95698102Y-79495226D01*
X95898061Y-79535000D01*
X96101939Y-79535000D01*
X96301898Y-79495226D01*
X96490256Y-79417205D01*
X96614417Y-79334244D01*
X96685518Y-79355812D01*
X96810000Y-79368072D01*
X97810000Y-79368072D01*
X97919998Y-79357239D01*
X98009744Y-79417205D01*
X98198102Y-79495226D01*
X98398061Y-79535000D01*
X98601939Y-79535000D01*
X98801898Y-79495226D01*
X98990256Y-79417205D01*
X99126906Y-79325898D01*
X99225518Y-79355812D01*
X99350000Y-79368072D01*
X100350000Y-79368072D01*
X100425136Y-79360672D01*
X100509744Y-79417205D01*
X100698102Y-79495226D01*
X100898061Y-79535000D01*
X101101939Y-79535000D01*
X101301898Y-79495226D01*
X101490256Y-79417205D01*
X101640631Y-79316728D01*
X101645820Y-79319502D01*
X101765518Y-79355812D01*
X101890000Y-79368072D01*
X102890000Y-79368072D01*
X103014482Y-79355812D01*
X103134180Y-79319502D01*
X103244494Y-79260537D01*
X103341185Y-79181185D01*
X103420537Y-79084494D01*
X103479502Y-78974180D01*
X103515812Y-78854482D01*
X103528072Y-78730000D01*
X103791928Y-78730000D01*
X103804188Y-78854482D01*
X103840498Y-78974180D01*
X103899463Y-79084494D01*
X103978815Y-79181185D01*
X104075506Y-79260537D01*
X104185820Y-79319502D01*
X104305518Y-79355812D01*
X104430000Y-79368072D01*
X104644250Y-79365000D01*
X104803000Y-79206250D01*
X104803000Y-77357000D01*
X103953750Y-77357000D01*
X103795000Y-77515750D01*
X103791928Y-78730000D01*
X103528072Y-78730000D01*
X103528072Y-75730000D01*
X103515812Y-75605518D01*
X103479502Y-75485820D01*
X103420537Y-75375506D01*
X103341185Y-75278815D01*
X103244494Y-75199463D01*
X103134180Y-75140498D01*
X103033642Y-75110000D01*
X104286358Y-75110000D01*
X104185820Y-75140498D01*
X104075506Y-75199463D01*
X103978815Y-75278815D01*
X103899463Y-75375506D01*
X103840498Y-75485820D01*
X103804188Y-75605518D01*
X103791928Y-75730000D01*
X103795000Y-76944250D01*
X103953750Y-77103000D01*
X104803000Y-77103000D01*
X104803000Y-77083000D01*
X105057000Y-77083000D01*
X105057000Y-77103000D01*
X105906250Y-77103000D01*
X106065000Y-76944250D01*
X106068072Y-75730000D01*
X106055812Y-75605518D01*
X106019502Y-75485820D01*
X105960537Y-75375506D01*
X105881185Y-75278815D01*
X105784494Y-75199463D01*
X105674180Y-75140498D01*
X105573642Y-75110000D01*
X106826358Y-75110000D01*
X106725820Y-75140498D01*
X106615506Y-75199463D01*
X106518815Y-75278815D01*
X106439463Y-75375506D01*
X106380498Y-75485820D01*
X106344188Y-75605518D01*
X106331928Y-75730000D01*
X106331928Y-77343270D01*
X106210199Y-77465000D01*
X106148061Y-77465000D01*
X106036451Y-77487201D01*
X105906250Y-77357000D01*
X105057000Y-77357000D01*
X105057000Y-79206250D01*
X105215750Y-79365000D01*
X105430000Y-79368072D01*
X105554482Y-79355812D01*
X105632461Y-79332157D01*
X105759744Y-79417205D01*
X105948102Y-79495226D01*
X106148061Y-79535000D01*
X106351939Y-79535000D01*
X106551898Y-79495226D01*
X106740256Y-79417205D01*
X106836315Y-79353020D01*
X106845518Y-79355812D01*
X106970000Y-79368072D01*
X107970000Y-79368072D01*
X108094482Y-79355812D01*
X108214180Y-79319502D01*
X108324494Y-79260537D01*
X108421185Y-79181185D01*
X108500537Y-79084494D01*
X108559502Y-78974180D01*
X108595812Y-78854482D01*
X108608072Y-78730000D01*
X108871928Y-78730000D01*
X108884188Y-78854482D01*
X108920498Y-78974180D01*
X108979463Y-79084494D01*
X109058815Y-79181185D01*
X109155506Y-79260537D01*
X109265820Y-79319502D01*
X109385518Y-79355812D01*
X109510000Y-79368072D01*
X109724250Y-79365000D01*
X109883000Y-79206250D01*
X109883000Y-77357000D01*
X109033750Y-77357000D01*
X108875000Y-77515750D01*
X108871928Y-78730000D01*
X108608072Y-78730000D01*
X108608072Y-75730000D01*
X108595812Y-75605518D01*
X108559502Y-75485820D01*
X108500537Y-75375506D01*
X108421185Y-75278815D01*
X108324494Y-75199463D01*
X108214180Y-75140498D01*
X108113642Y-75110000D01*
X109366358Y-75110000D01*
X109265820Y-75140498D01*
X109155506Y-75199463D01*
X109058815Y-75278815D01*
X108979463Y-75375506D01*
X108920498Y-75485820D01*
X108884188Y-75605518D01*
X108871928Y-75730000D01*
X108875000Y-76944250D01*
X109033750Y-77103000D01*
X109883000Y-77103000D01*
X109883000Y-77083000D01*
X110137000Y-77083000D01*
X110137000Y-77103000D01*
X110986250Y-77103000D01*
X111145000Y-76944250D01*
X111148072Y-75730000D01*
X111135812Y-75605518D01*
X111099502Y-75485820D01*
X111040537Y-75375506D01*
X110961185Y-75278815D01*
X110864494Y-75199463D01*
X110754180Y-75140498D01*
X110653642Y-75110000D01*
X111906358Y-75110000D01*
X111805820Y-75140498D01*
X111695506Y-75199463D01*
X111598815Y-75278815D01*
X111519463Y-75375506D01*
X111460498Y-75485820D01*
X111424188Y-75605518D01*
X111411928Y-75730000D01*
X111411928Y-77263270D01*
X111210199Y-77465000D01*
X111148061Y-77465000D01*
X111103178Y-77473928D01*
X110986250Y-77357000D01*
X110137000Y-77357000D01*
X110137000Y-79206250D01*
X110295750Y-79365000D01*
X110510000Y-79368072D01*
X110634482Y-79355812D01*
X110657440Y-79348848D01*
X110759744Y-79417205D01*
X110948102Y-79495226D01*
X111148061Y-79535000D01*
X111351939Y-79535000D01*
X111551898Y-79495226D01*
X111740256Y-79417205D01*
X111861294Y-79336330D01*
X111925518Y-79355812D01*
X112050000Y-79368072D01*
X113050000Y-79368072D01*
X113168713Y-79356380D01*
X113259744Y-79417205D01*
X113448102Y-79495226D01*
X113648061Y-79535000D01*
X113851939Y-79535000D01*
X114051898Y-79495226D01*
X114240256Y-79417205D01*
X114373784Y-79327985D01*
X114465518Y-79355812D01*
X114590000Y-79368072D01*
X115590000Y-79368072D01*
X115673852Y-79359814D01*
X115759744Y-79417205D01*
X115948102Y-79495226D01*
X116148061Y-79535000D01*
X116351939Y-79535000D01*
X116551898Y-79495226D01*
X116740256Y-79417205D01*
X116886273Y-79319640D01*
X117005518Y-79355812D01*
X117130000Y-79368072D01*
X118130000Y-79368072D01*
X118254482Y-79355812D01*
X118374180Y-79319502D01*
X118484494Y-79260537D01*
X118581185Y-79181185D01*
X118660537Y-79084494D01*
X118719502Y-78974180D01*
X118755812Y-78854482D01*
X118768072Y-78730000D01*
X118768072Y-78243110D01*
X120708524Y-78243110D01*
X120829845Y-78473000D01*
X122173000Y-78473000D01*
X122173000Y-77272768D01*
X122427000Y-77272768D01*
X122427000Y-78473000D01*
X123770155Y-78473000D01*
X123891476Y-78243110D01*
X123889554Y-78230739D01*
X123789854Y-77956991D01*
X123638664Y-77707954D01*
X123441795Y-77493198D01*
X123206812Y-77320975D01*
X122942745Y-77197904D01*
X122659742Y-77128715D01*
X122427000Y-77272768D01*
X122173000Y-77272768D01*
X121940258Y-77128715D01*
X121657255Y-77197904D01*
X121393188Y-77320975D01*
X121158205Y-77493198D01*
X120961336Y-77707954D01*
X120810146Y-77956991D01*
X120710446Y-78230739D01*
X120708524Y-78243110D01*
X118768072Y-78243110D01*
X118768072Y-75730000D01*
X118755812Y-75605518D01*
X118719502Y-75485820D01*
X118660537Y-75375506D01*
X118581185Y-75278815D01*
X118484494Y-75199463D01*
X118374180Y-75140498D01*
X118273642Y-75110000D01*
X124865278Y-75110000D01*
X124916820Y-75115054D01*
X124932996Y-75119938D01*
X124947923Y-75127874D01*
X124961018Y-75138554D01*
X124971789Y-75151575D01*
X124979830Y-75166445D01*
X124984827Y-75182590D01*
X124990000Y-75231805D01*
X124990001Y-129365269D01*
X124984946Y-129416819D01*
X124980062Y-129432999D01*
X124972127Y-129447921D01*
X124961447Y-129461016D01*
X124948424Y-129471790D01*
X124933553Y-129479831D01*
X124917413Y-129484827D01*
X124868195Y-129490000D01*
X64034721Y-129490000D01*
X63983181Y-129484946D01*
X63967001Y-129480062D01*
X63952079Y-129472127D01*
X63938984Y-129461447D01*
X63928210Y-129448424D01*
X63920169Y-129433553D01*
X63915173Y-129417413D01*
X63910000Y-129368195D01*
X63910000Y-125661682D01*
X67565000Y-125661682D01*
X67565000Y-126338318D01*
X67697006Y-127001952D01*
X67955943Y-127627082D01*
X68331862Y-128189685D01*
X68810315Y-128668138D01*
X69372918Y-129044057D01*
X69998048Y-129302994D01*
X70661682Y-129435000D01*
X71338318Y-129435000D01*
X72001952Y-129302994D01*
X72627082Y-129044057D01*
X73189685Y-128668138D01*
X73668138Y-128189685D01*
X74044057Y-127627082D01*
X74302994Y-127001952D01*
X74435000Y-126338318D01*
X74435000Y-125661682D01*
X74302994Y-124998048D01*
X74044057Y-124372918D01*
X73668138Y-123810315D01*
X73189685Y-123331862D01*
X72627082Y-122955943D01*
X72001952Y-122697006D01*
X71338318Y-122565000D01*
X70661682Y-122565000D01*
X69998048Y-122697006D01*
X69372918Y-122955943D01*
X68810315Y-123331862D01*
X68331862Y-123810315D01*
X67955943Y-124372918D01*
X67697006Y-124998048D01*
X67565000Y-125661682D01*
X63910000Y-125661682D01*
X63910000Y-109149985D01*
X69697550Y-109149985D01*
X69697550Y-110850015D01*
X69864182Y-112541859D01*
X70195841Y-114209223D01*
X70689334Y-115836050D01*
X71339907Y-117406672D01*
X72141295Y-118905965D01*
X73085781Y-120319488D01*
X74164269Y-121633629D01*
X75366371Y-122835731D01*
X76680512Y-123914219D01*
X78094035Y-124858705D01*
X79593328Y-125660093D01*
X81163950Y-126310666D01*
X82790777Y-126804159D01*
X84458141Y-127135818D01*
X86149985Y-127302450D01*
X87850015Y-127302450D01*
X89541859Y-127135818D01*
X91209223Y-126804159D01*
X92836050Y-126310666D01*
X94402835Y-125661682D01*
X99565000Y-125661682D01*
X99565000Y-126338318D01*
X99697006Y-127001952D01*
X99955943Y-127627082D01*
X100331862Y-128189685D01*
X100810315Y-128668138D01*
X101372918Y-129044057D01*
X101998048Y-129302994D01*
X102661682Y-129435000D01*
X103338318Y-129435000D01*
X104001952Y-129302994D01*
X104627082Y-129044057D01*
X105189685Y-128668138D01*
X105668138Y-128189685D01*
X106044057Y-127627082D01*
X106302994Y-127001952D01*
X106435000Y-126338318D01*
X106435000Y-125661682D01*
X106302994Y-124998048D01*
X106044057Y-124372918D01*
X105668138Y-123810315D01*
X105189685Y-123331862D01*
X104627082Y-122955943D01*
X104001952Y-122697006D01*
X103338318Y-122565000D01*
X102661682Y-122565000D01*
X101998048Y-122697006D01*
X101372918Y-122955943D01*
X100810315Y-123331862D01*
X100331862Y-123810315D01*
X99955943Y-124372918D01*
X99697006Y-124998048D01*
X99565000Y-125661682D01*
X94402835Y-125661682D01*
X94406672Y-125660093D01*
X95905965Y-124858705D01*
X97319488Y-123914219D01*
X98633629Y-122835731D01*
X99835731Y-121633629D01*
X100914219Y-120319488D01*
X101858705Y-118905965D01*
X102660093Y-117406672D01*
X103310666Y-115836050D01*
X103804159Y-114209223D01*
X104135818Y-112541859D01*
X104302450Y-110850015D01*
X104302450Y-109149985D01*
X104135818Y-107458141D01*
X103804159Y-105790777D01*
X103310666Y-104163950D01*
X102660093Y-102593328D01*
X101858705Y-101094035D01*
X100914219Y-99680512D01*
X99835731Y-98366371D01*
X98633629Y-97164269D01*
X97319488Y-96085781D01*
X95905965Y-95141295D01*
X94406672Y-94339907D01*
X92836050Y-93689334D01*
X92744894Y-93661682D01*
X99565000Y-93661682D01*
X99565000Y-94338318D01*
X99697006Y-95001952D01*
X99955943Y-95627082D01*
X100331862Y-96189685D01*
X100810315Y-96668138D01*
X101372918Y-97044057D01*
X101998048Y-97302994D01*
X102661682Y-97435000D01*
X103338318Y-97435000D01*
X104001952Y-97302994D01*
X104627082Y-97044057D01*
X105189685Y-96668138D01*
X105668138Y-96189685D01*
X106044057Y-95627082D01*
X106302994Y-95001952D01*
X106435000Y-94338318D01*
X106435000Y-93661682D01*
X106302994Y-92998048D01*
X106044057Y-92372918D01*
X105668138Y-91810315D01*
X105189685Y-91331862D01*
X104767849Y-91050000D01*
X114011928Y-91050000D01*
X114011928Y-92750000D01*
X114024188Y-92874482D01*
X114060498Y-92994180D01*
X114119463Y-93104494D01*
X114198815Y-93201185D01*
X114295506Y-93280537D01*
X114405820Y-93339502D01*
X114478380Y-93361513D01*
X114346525Y-93493368D01*
X114184010Y-93736589D01*
X114072068Y-94006842D01*
X114015000Y-94293740D01*
X114015000Y-94586260D01*
X114072068Y-94873158D01*
X114184010Y-95143411D01*
X114346525Y-95386632D01*
X114553368Y-95593475D01*
X114727760Y-95710000D01*
X114553368Y-95826525D01*
X114346525Y-96033368D01*
X114184010Y-96276589D01*
X114072068Y-96546842D01*
X114015000Y-96833740D01*
X114015000Y-97126260D01*
X114072068Y-97413158D01*
X114184010Y-97683411D01*
X114346525Y-97926632D01*
X114553368Y-98133475D01*
X114727760Y-98250000D01*
X114553368Y-98366525D01*
X114346525Y-98573368D01*
X114184010Y-98816589D01*
X114072068Y-99086842D01*
X114015000Y-99373740D01*
X114015000Y-99666260D01*
X114072068Y-99953158D01*
X114184010Y-100223411D01*
X114346525Y-100466632D01*
X114553368Y-100673475D01*
X114727760Y-100790000D01*
X114553368Y-100906525D01*
X114346525Y-101113368D01*
X114184010Y-101356589D01*
X114072068Y-101626842D01*
X114015000Y-101913740D01*
X114015000Y-102206260D01*
X114072068Y-102493158D01*
X114184010Y-102763411D01*
X114346525Y-103006632D01*
X114553368Y-103213475D01*
X114727760Y-103330000D01*
X114553368Y-103446525D01*
X114346525Y-103653368D01*
X114184010Y-103896589D01*
X114072068Y-104166842D01*
X114015000Y-104453740D01*
X114015000Y-104746260D01*
X114072068Y-105033158D01*
X114184010Y-105303411D01*
X114346525Y-105546632D01*
X114553368Y-105753475D01*
X114727760Y-105870000D01*
X114553368Y-105986525D01*
X114346525Y-106193368D01*
X114184010Y-106436589D01*
X114072068Y-106706842D01*
X114015000Y-106993740D01*
X114015000Y-107286260D01*
X114072068Y-107573158D01*
X114184010Y-107843411D01*
X114346525Y-108086632D01*
X114553368Y-108293475D01*
X114727760Y-108410000D01*
X114553368Y-108526525D01*
X114346525Y-108733368D01*
X114184010Y-108976589D01*
X114072068Y-109246842D01*
X114015000Y-109533740D01*
X114015000Y-109826260D01*
X114072068Y-110113158D01*
X114184010Y-110383411D01*
X114346525Y-110626632D01*
X114553368Y-110833475D01*
X114727760Y-110950000D01*
X114553368Y-111066525D01*
X114346525Y-111273368D01*
X114184010Y-111516589D01*
X114072068Y-111786842D01*
X114015000Y-112073740D01*
X114015000Y-112366260D01*
X114072068Y-112653158D01*
X114184010Y-112923411D01*
X114346525Y-113166632D01*
X114553368Y-113373475D01*
X114727760Y-113490000D01*
X114553368Y-113606525D01*
X114346525Y-113813368D01*
X114184010Y-114056589D01*
X114072068Y-114326842D01*
X114015000Y-114613740D01*
X114015000Y-114906260D01*
X114072068Y-115193158D01*
X114184010Y-115463411D01*
X114346525Y-115706632D01*
X114553368Y-115913475D01*
X114727760Y-116030000D01*
X114553368Y-116146525D01*
X114346525Y-116353368D01*
X114184010Y-116596589D01*
X114072068Y-116866842D01*
X114015000Y-117153740D01*
X114015000Y-117446260D01*
X114072068Y-117733158D01*
X114184010Y-118003411D01*
X114346525Y-118246632D01*
X114553368Y-118453475D01*
X114727760Y-118570000D01*
X114553368Y-118686525D01*
X114346525Y-118893368D01*
X114184010Y-119136589D01*
X114072068Y-119406842D01*
X114015000Y-119693740D01*
X114015000Y-119986260D01*
X114072068Y-120273158D01*
X114184010Y-120543411D01*
X114346525Y-120786632D01*
X114553368Y-120993475D01*
X114727760Y-121110000D01*
X114553368Y-121226525D01*
X114346525Y-121433368D01*
X114184010Y-121676589D01*
X114072068Y-121946842D01*
X114015000Y-122233740D01*
X114015000Y-122526260D01*
X114072068Y-122813158D01*
X114184010Y-123083411D01*
X114346525Y-123326632D01*
X114553368Y-123533475D01*
X114727760Y-123650000D01*
X114553368Y-123766525D01*
X114346525Y-123973368D01*
X114184010Y-124216589D01*
X114072068Y-124486842D01*
X114015000Y-124773740D01*
X114015000Y-125066260D01*
X114072068Y-125353158D01*
X114184010Y-125623411D01*
X114346525Y-125866632D01*
X114553368Y-126073475D01*
X114727760Y-126190000D01*
X114553368Y-126306525D01*
X114346525Y-126513368D01*
X114184010Y-126756589D01*
X114072068Y-127026842D01*
X114015000Y-127313740D01*
X114015000Y-127606260D01*
X114072068Y-127893158D01*
X114184010Y-128163411D01*
X114346525Y-128406632D01*
X114553368Y-128613475D01*
X114796589Y-128775990D01*
X115066842Y-128887932D01*
X115353740Y-128945000D01*
X115646260Y-128945000D01*
X115933158Y-128887932D01*
X116203411Y-128775990D01*
X116446632Y-128613475D01*
X116653475Y-128406632D01*
X116815990Y-128163411D01*
X116927932Y-127893158D01*
X116985000Y-127606260D01*
X116985000Y-127313740D01*
X116927932Y-127026842D01*
X116815990Y-126756589D01*
X116653475Y-126513368D01*
X116446632Y-126306525D01*
X116272240Y-126190000D01*
X116446632Y-126073475D01*
X116653475Y-125866632D01*
X116815990Y-125623411D01*
X116927932Y-125353158D01*
X116985000Y-125066260D01*
X116985000Y-124773740D01*
X116927932Y-124486842D01*
X116815990Y-124216589D01*
X116653475Y-123973368D01*
X116446632Y-123766525D01*
X116272240Y-123650000D01*
X116446632Y-123533475D01*
X116653475Y-123326632D01*
X116815990Y-123083411D01*
X116927932Y-122813158D01*
X116985000Y-122526260D01*
X116985000Y-122233740D01*
X116927932Y-121946842D01*
X116815990Y-121676589D01*
X116653475Y-121433368D01*
X116446632Y-121226525D01*
X116272240Y-121110000D01*
X116446632Y-120993475D01*
X116653475Y-120786632D01*
X116815990Y-120543411D01*
X116927932Y-120273158D01*
X116985000Y-119986260D01*
X116985000Y-119693740D01*
X116927932Y-119406842D01*
X116815990Y-119136589D01*
X116653475Y-118893368D01*
X116446632Y-118686525D01*
X116272240Y-118570000D01*
X116446632Y-118453475D01*
X116653475Y-118246632D01*
X116815990Y-118003411D01*
X116927932Y-117733158D01*
X116985000Y-117446260D01*
X116985000Y-117153740D01*
X116927932Y-116866842D01*
X116815990Y-116596589D01*
X116653475Y-116353368D01*
X116446632Y-116146525D01*
X116272240Y-116030000D01*
X116446632Y-115913475D01*
X116653475Y-115706632D01*
X116815990Y-115463411D01*
X116927932Y-115193158D01*
X116985000Y-114906260D01*
X116985000Y-114613740D01*
X116927932Y-114326842D01*
X116815990Y-114056589D01*
X116653475Y-113813368D01*
X116446632Y-113606525D01*
X116272240Y-113490000D01*
X116446632Y-113373475D01*
X116653475Y-113166632D01*
X116815990Y-112923411D01*
X116927932Y-112653158D01*
X116985000Y-112366260D01*
X116985000Y-112073740D01*
X116927932Y-111786842D01*
X116815990Y-111516589D01*
X116653475Y-111273368D01*
X116446632Y-111066525D01*
X116272240Y-110950000D01*
X116446632Y-110833475D01*
X116653475Y-110626632D01*
X116815990Y-110383411D01*
X116927932Y-110113158D01*
X116985000Y-109826260D01*
X116985000Y-109533740D01*
X116927932Y-109246842D01*
X116815990Y-108976589D01*
X116653475Y-108733368D01*
X116446632Y-108526525D01*
X116272240Y-108410000D01*
X116446632Y-108293475D01*
X116653475Y-108086632D01*
X116815990Y-107843411D01*
X116927932Y-107573158D01*
X116985000Y-107286260D01*
X116985000Y-106993740D01*
X116927932Y-106706842D01*
X116815990Y-106436589D01*
X116653475Y-106193368D01*
X116446632Y-105986525D01*
X116272240Y-105870000D01*
X116446632Y-105753475D01*
X116653475Y-105546632D01*
X116815990Y-105303411D01*
X116927932Y-105033158D01*
X116985000Y-104746260D01*
X116985000Y-104453740D01*
X116927932Y-104166842D01*
X116815990Y-103896589D01*
X116653475Y-103653368D01*
X116446632Y-103446525D01*
X116272240Y-103330000D01*
X116446632Y-103213475D01*
X116653475Y-103006632D01*
X116815990Y-102763411D01*
X116927932Y-102493158D01*
X116985000Y-102206260D01*
X116985000Y-101913740D01*
X116927932Y-101626842D01*
X116815990Y-101356589D01*
X116653475Y-101113368D01*
X116446632Y-100906525D01*
X116272240Y-100790000D01*
X116446632Y-100673475D01*
X116653475Y-100466632D01*
X116815990Y-100223411D01*
X116927932Y-99953158D01*
X116985000Y-99666260D01*
X116985000Y-99373740D01*
X116927932Y-99086842D01*
X116815990Y-98816589D01*
X116653475Y-98573368D01*
X116446632Y-98366525D01*
X116272240Y-98250000D01*
X116446632Y-98133475D01*
X116653475Y-97926632D01*
X116815990Y-97683411D01*
X116927932Y-97413158D01*
X116985000Y-97126260D01*
X116985000Y-96833740D01*
X116927932Y-96546842D01*
X116815990Y-96276589D01*
X116653475Y-96033368D01*
X116446632Y-95826525D01*
X116272240Y-95710000D01*
X116446632Y-95593475D01*
X116653475Y-95386632D01*
X116815990Y-95143411D01*
X116927932Y-94873158D01*
X116985000Y-94586260D01*
X116985000Y-94293740D01*
X116927932Y-94006842D01*
X116815990Y-93736589D01*
X116653475Y-93493368D01*
X116521620Y-93361513D01*
X116594180Y-93339502D01*
X116704494Y-93280537D01*
X116801185Y-93201185D01*
X116880537Y-93104494D01*
X116939502Y-92994180D01*
X116975812Y-92874482D01*
X116988072Y-92750000D01*
X116988072Y-91050000D01*
X120011928Y-91050000D01*
X120011928Y-92750000D01*
X120024188Y-92874482D01*
X120060498Y-92994180D01*
X120119463Y-93104494D01*
X120198815Y-93201185D01*
X120295506Y-93280537D01*
X120405820Y-93339502D01*
X120478380Y-93361513D01*
X120346525Y-93493368D01*
X120184010Y-93736589D01*
X120072068Y-94006842D01*
X120015000Y-94293740D01*
X120015000Y-94586260D01*
X120072068Y-94873158D01*
X120184010Y-95143411D01*
X120346525Y-95386632D01*
X120553368Y-95593475D01*
X120727760Y-95710000D01*
X120553368Y-95826525D01*
X120346525Y-96033368D01*
X120184010Y-96276589D01*
X120072068Y-96546842D01*
X120015000Y-96833740D01*
X120015000Y-97126260D01*
X120072068Y-97413158D01*
X120184010Y-97683411D01*
X120346525Y-97926632D01*
X120553368Y-98133475D01*
X120727760Y-98250000D01*
X120553368Y-98366525D01*
X120346525Y-98573368D01*
X120184010Y-98816589D01*
X120072068Y-99086842D01*
X120015000Y-99373740D01*
X120015000Y-99666260D01*
X120072068Y-99953158D01*
X120184010Y-100223411D01*
X120346525Y-100466632D01*
X120553368Y-100673475D01*
X120727760Y-100790000D01*
X120553368Y-100906525D01*
X120346525Y-101113368D01*
X120184010Y-101356589D01*
X120072068Y-101626842D01*
X120015000Y-101913740D01*
X120015000Y-102206260D01*
X120072068Y-102493158D01*
X120184010Y-102763411D01*
X120346525Y-103006632D01*
X120553368Y-103213475D01*
X120727760Y-103330000D01*
X120553368Y-103446525D01*
X120346525Y-103653368D01*
X120184010Y-103896589D01*
X120072068Y-104166842D01*
X120015000Y-104453740D01*
X120015000Y-104746260D01*
X120072068Y-105033158D01*
X120184010Y-105303411D01*
X120346525Y-105546632D01*
X120553368Y-105753475D01*
X120727760Y-105870000D01*
X120553368Y-105986525D01*
X120346525Y-106193368D01*
X120184010Y-106436589D01*
X120072068Y-106706842D01*
X120015000Y-106993740D01*
X120015000Y-107286260D01*
X120072068Y-107573158D01*
X120184010Y-107843411D01*
X120346525Y-108086632D01*
X120553368Y-108293475D01*
X120727760Y-108410000D01*
X120553368Y-108526525D01*
X120346525Y-108733368D01*
X120184010Y-108976589D01*
X120072068Y-109246842D01*
X120015000Y-109533740D01*
X120015000Y-109826260D01*
X120072068Y-110113158D01*
X120184010Y-110383411D01*
X120346525Y-110626632D01*
X120553368Y-110833475D01*
X120727760Y-110950000D01*
X120553368Y-111066525D01*
X120346525Y-111273368D01*
X120184010Y-111516589D01*
X120072068Y-111786842D01*
X120015000Y-112073740D01*
X120015000Y-112366260D01*
X120072068Y-112653158D01*
X120184010Y-112923411D01*
X120346525Y-113166632D01*
X120553368Y-113373475D01*
X120727760Y-113490000D01*
X120553368Y-113606525D01*
X120346525Y-113813368D01*
X120184010Y-114056589D01*
X120072068Y-114326842D01*
X120015000Y-114613740D01*
X120015000Y-114906260D01*
X120072068Y-115193158D01*
X120184010Y-115463411D01*
X120346525Y-115706632D01*
X120553368Y-115913475D01*
X120727760Y-116030000D01*
X120553368Y-116146525D01*
X120346525Y-116353368D01*
X120184010Y-116596589D01*
X120072068Y-116866842D01*
X120015000Y-117153740D01*
X120015000Y-117446260D01*
X120072068Y-117733158D01*
X120184010Y-118003411D01*
X120346525Y-118246632D01*
X120553368Y-118453475D01*
X120727760Y-118570000D01*
X120553368Y-118686525D01*
X120346525Y-118893368D01*
X120184010Y-119136589D01*
X120072068Y-119406842D01*
X120015000Y-119693740D01*
X120015000Y-119986260D01*
X120072068Y-120273158D01*
X120184010Y-120543411D01*
X120346525Y-120786632D01*
X120553368Y-120993475D01*
X120727760Y-121110000D01*
X120553368Y-121226525D01*
X120346525Y-121433368D01*
X120184010Y-121676589D01*
X120072068Y-121946842D01*
X120015000Y-122233740D01*
X120015000Y-122526260D01*
X120072068Y-122813158D01*
X120184010Y-123083411D01*
X120346525Y-123326632D01*
X120553368Y-123533475D01*
X120727760Y-123650000D01*
X120553368Y-123766525D01*
X120346525Y-123973368D01*
X120184010Y-124216589D01*
X120072068Y-124486842D01*
X120015000Y-124773740D01*
X120015000Y-125066260D01*
X120072068Y-125353158D01*
X120184010Y-125623411D01*
X120346525Y-125866632D01*
X120553368Y-126073475D01*
X120727760Y-126190000D01*
X120553368Y-126306525D01*
X120346525Y-126513368D01*
X120184010Y-126756589D01*
X120072068Y-127026842D01*
X120015000Y-127313740D01*
X120015000Y-127606260D01*
X120072068Y-127893158D01*
X120184010Y-128163411D01*
X120346525Y-128406632D01*
X120553368Y-128613475D01*
X120796589Y-128775990D01*
X121066842Y-128887932D01*
X121353740Y-128945000D01*
X121646260Y-128945000D01*
X121933158Y-128887932D01*
X122203411Y-128775990D01*
X122446632Y-128613475D01*
X122653475Y-128406632D01*
X122815990Y-128163411D01*
X122927932Y-127893158D01*
X122985000Y-127606260D01*
X122985000Y-127313740D01*
X122927932Y-127026842D01*
X122815990Y-126756589D01*
X122653475Y-126513368D01*
X122446632Y-126306525D01*
X122272240Y-126190000D01*
X122446632Y-126073475D01*
X122653475Y-125866632D01*
X122815990Y-125623411D01*
X122927932Y-125353158D01*
X122985000Y-125066260D01*
X122985000Y-124773740D01*
X122927932Y-124486842D01*
X122815990Y-124216589D01*
X122653475Y-123973368D01*
X122446632Y-123766525D01*
X122272240Y-123650000D01*
X122446632Y-123533475D01*
X122653475Y-123326632D01*
X122815990Y-123083411D01*
X122927932Y-122813158D01*
X122985000Y-122526260D01*
X122985000Y-122233740D01*
X122927932Y-121946842D01*
X122815990Y-121676589D01*
X122653475Y-121433368D01*
X122446632Y-121226525D01*
X122272240Y-121110000D01*
X122446632Y-120993475D01*
X122653475Y-120786632D01*
X122815990Y-120543411D01*
X122927932Y-120273158D01*
X122985000Y-119986260D01*
X122985000Y-119693740D01*
X122927932Y-119406842D01*
X122815990Y-119136589D01*
X122653475Y-118893368D01*
X122446632Y-118686525D01*
X122272240Y-118570000D01*
X122446632Y-118453475D01*
X122653475Y-118246632D01*
X122815990Y-118003411D01*
X122927932Y-117733158D01*
X122985000Y-117446260D01*
X122985000Y-117153740D01*
X122927932Y-116866842D01*
X122815990Y-116596589D01*
X122653475Y-116353368D01*
X122446632Y-116146525D01*
X122272240Y-116030000D01*
X122446632Y-115913475D01*
X122653475Y-115706632D01*
X122815990Y-115463411D01*
X122927932Y-115193158D01*
X122985000Y-114906260D01*
X122985000Y-114613740D01*
X122927932Y-114326842D01*
X122815990Y-114056589D01*
X122653475Y-113813368D01*
X122446632Y-113606525D01*
X122272240Y-113490000D01*
X122446632Y-113373475D01*
X122653475Y-113166632D01*
X122815990Y-112923411D01*
X122927932Y-112653158D01*
X122985000Y-112366260D01*
X122985000Y-112073740D01*
X122927932Y-111786842D01*
X122815990Y-111516589D01*
X122653475Y-111273368D01*
X122446632Y-111066525D01*
X122272240Y-110950000D01*
X122446632Y-110833475D01*
X122653475Y-110626632D01*
X122815990Y-110383411D01*
X122927932Y-110113158D01*
X122985000Y-109826260D01*
X122985000Y-109533740D01*
X122927932Y-109246842D01*
X122815990Y-108976589D01*
X122653475Y-108733368D01*
X122446632Y-108526525D01*
X122272240Y-108410000D01*
X122446632Y-108293475D01*
X122653475Y-108086632D01*
X122815990Y-107843411D01*
X122927932Y-107573158D01*
X122985000Y-107286260D01*
X122985000Y-106993740D01*
X122927932Y-106706842D01*
X122815990Y-106436589D01*
X122653475Y-106193368D01*
X122446632Y-105986525D01*
X122272240Y-105870000D01*
X122446632Y-105753475D01*
X122653475Y-105546632D01*
X122815990Y-105303411D01*
X122927932Y-105033158D01*
X122985000Y-104746260D01*
X122985000Y-104453740D01*
X122927932Y-104166842D01*
X122815990Y-103896589D01*
X122653475Y-103653368D01*
X122446632Y-103446525D01*
X122272240Y-103330000D01*
X122446632Y-103213475D01*
X122653475Y-103006632D01*
X122815990Y-102763411D01*
X122927932Y-102493158D01*
X122985000Y-102206260D01*
X122985000Y-101913740D01*
X122927932Y-101626842D01*
X122815990Y-101356589D01*
X122653475Y-101113368D01*
X122446632Y-100906525D01*
X122272240Y-100790000D01*
X122446632Y-100673475D01*
X122653475Y-100466632D01*
X122815990Y-100223411D01*
X122927932Y-99953158D01*
X122985000Y-99666260D01*
X122985000Y-99373740D01*
X122927932Y-99086842D01*
X122815990Y-98816589D01*
X122653475Y-98573368D01*
X122446632Y-98366525D01*
X122272240Y-98250000D01*
X122446632Y-98133475D01*
X122653475Y-97926632D01*
X122815990Y-97683411D01*
X122927932Y-97413158D01*
X122985000Y-97126260D01*
X122985000Y-96833740D01*
X122927932Y-96546842D01*
X122815990Y-96276589D01*
X122653475Y-96033368D01*
X122446632Y-95826525D01*
X122272240Y-95710000D01*
X122446632Y-95593475D01*
X122653475Y-95386632D01*
X122815990Y-95143411D01*
X122927932Y-94873158D01*
X122985000Y-94586260D01*
X122985000Y-94293740D01*
X122927932Y-94006842D01*
X122815990Y-93736589D01*
X122653475Y-93493368D01*
X122521620Y-93361513D01*
X122594180Y-93339502D01*
X122704494Y-93280537D01*
X122801185Y-93201185D01*
X122880537Y-93104494D01*
X122939502Y-92994180D01*
X122975812Y-92874482D01*
X122988072Y-92750000D01*
X122988072Y-91050000D01*
X122975812Y-90925518D01*
X122939502Y-90805820D01*
X122880537Y-90695506D01*
X122801185Y-90598815D01*
X122704494Y-90519463D01*
X122594180Y-90460498D01*
X122474482Y-90424188D01*
X122350000Y-90411928D01*
X120650000Y-90411928D01*
X120525518Y-90424188D01*
X120405820Y-90460498D01*
X120295506Y-90519463D01*
X120198815Y-90598815D01*
X120119463Y-90695506D01*
X120060498Y-90805820D01*
X120024188Y-90925518D01*
X120011928Y-91050000D01*
X116988072Y-91050000D01*
X116975812Y-90925518D01*
X116939502Y-90805820D01*
X116880537Y-90695506D01*
X116801185Y-90598815D01*
X116704494Y-90519463D01*
X116594180Y-90460498D01*
X116474482Y-90424188D01*
X116350000Y-90411928D01*
X114650000Y-90411928D01*
X114525518Y-90424188D01*
X114405820Y-90460498D01*
X114295506Y-90519463D01*
X114198815Y-90598815D01*
X114119463Y-90695506D01*
X114060498Y-90805820D01*
X114024188Y-90925518D01*
X114011928Y-91050000D01*
X104767849Y-91050000D01*
X104627082Y-90955943D01*
X104001952Y-90697006D01*
X103338318Y-90565000D01*
X102661682Y-90565000D01*
X101998048Y-90697006D01*
X101372918Y-90955943D01*
X100810315Y-91331862D01*
X100331862Y-91810315D01*
X99955943Y-92372918D01*
X99697006Y-92998048D01*
X99565000Y-93661682D01*
X92744894Y-93661682D01*
X91209223Y-93195841D01*
X89541859Y-92864182D01*
X87850015Y-92697550D01*
X86149985Y-92697550D01*
X84458141Y-92864182D01*
X82790777Y-93195841D01*
X81163950Y-93689334D01*
X79593328Y-94339907D01*
X78094035Y-95141295D01*
X76680512Y-96085781D01*
X75366371Y-97164269D01*
X74164269Y-98366371D01*
X73085781Y-99680512D01*
X72141295Y-101094035D01*
X71339907Y-102593328D01*
X70689334Y-104163950D01*
X70195841Y-105790777D01*
X69864182Y-107458141D01*
X69697550Y-109149985D01*
X63910000Y-109149985D01*
X63910000Y-93511682D01*
X67665000Y-93511682D01*
X67665000Y-94188318D01*
X67797006Y-94851952D01*
X68055943Y-95477082D01*
X68431862Y-96039685D01*
X68910315Y-96518138D01*
X69472918Y-96894057D01*
X70098048Y-97152994D01*
X70761682Y-97285000D01*
X71438318Y-97285000D01*
X72101952Y-97152994D01*
X72727082Y-96894057D01*
X73289685Y-96518138D01*
X73768138Y-96039685D01*
X74144057Y-95477082D01*
X74402994Y-94851952D01*
X74535000Y-94188318D01*
X74535000Y-93511682D01*
X74402994Y-92848048D01*
X74144057Y-92222918D01*
X73768138Y-91660315D01*
X73289685Y-91181862D01*
X72727082Y-90805943D01*
X72101952Y-90547006D01*
X71438318Y-90415000D01*
X70761682Y-90415000D01*
X70098048Y-90547006D01*
X69472918Y-90805943D01*
X68910315Y-91181862D01*
X68431862Y-91660315D01*
X68055943Y-92222918D01*
X67797006Y-92848048D01*
X67665000Y-93511682D01*
X63910000Y-93511682D01*
X63910000Y-88542538D01*
X63910498Y-88544180D01*
X63969463Y-88654494D01*
X64048815Y-88751185D01*
X64145506Y-88830537D01*
X64255820Y-88889502D01*
X64375518Y-88925812D01*
X64500000Y-88938072D01*
X66100000Y-88938072D01*
X66224482Y-88925812D01*
X66344180Y-88889502D01*
X66454494Y-88830537D01*
X66551185Y-88751185D01*
X66630537Y-88654494D01*
X66689502Y-88544180D01*
X66725812Y-88424482D01*
X66738072Y-88300000D01*
X66738072Y-87358665D01*
X71485000Y-87358665D01*
X71485000Y-87641335D01*
X71540147Y-87918574D01*
X71648320Y-88179727D01*
X71805363Y-88414759D01*
X72005241Y-88614637D01*
X72240273Y-88771680D01*
X72501426Y-88879853D01*
X72778665Y-88935000D01*
X73061335Y-88935000D01*
X73338574Y-88879853D01*
X73599727Y-88771680D01*
X73834759Y-88614637D01*
X74034637Y-88414759D01*
X74191680Y-88179727D01*
X74299853Y-87918574D01*
X74355000Y-87641335D01*
X74355000Y-87553740D01*
X75015000Y-87553740D01*
X75015000Y-87846260D01*
X75072068Y-88133158D01*
X75184010Y-88403411D01*
X75346525Y-88646632D01*
X75553368Y-88853475D01*
X75796589Y-89015990D01*
X76066842Y-89127932D01*
X76353740Y-89185000D01*
X76646260Y-89185000D01*
X76933158Y-89127932D01*
X77203411Y-89015990D01*
X77446632Y-88853475D01*
X77615107Y-88685000D01*
X77924893Y-88685000D01*
X78093368Y-88853475D01*
X78336589Y-89015990D01*
X78606842Y-89127932D01*
X78893740Y-89185000D01*
X79186260Y-89185000D01*
X79473158Y-89127932D01*
X79743411Y-89015990D01*
X79986632Y-88853475D01*
X80155107Y-88685000D01*
X80464893Y-88685000D01*
X80633368Y-88853475D01*
X80876589Y-89015990D01*
X81146842Y-89127932D01*
X81433740Y-89185000D01*
X81726260Y-89185000D01*
X82013158Y-89127932D01*
X82283411Y-89015990D01*
X82526632Y-88853475D01*
X82695107Y-88685000D01*
X83004893Y-88685000D01*
X83173368Y-88853475D01*
X83416589Y-89015990D01*
X83686842Y-89127932D01*
X83973740Y-89185000D01*
X84266260Y-89185000D01*
X84553158Y-89127932D01*
X84823411Y-89015990D01*
X85066632Y-88853475D01*
X85235107Y-88685000D01*
X85544893Y-88685000D01*
X85713368Y-88853475D01*
X85956589Y-89015990D01*
X86226842Y-89127932D01*
X86513740Y-89185000D01*
X86806260Y-89185000D01*
X87093158Y-89127932D01*
X87363411Y-89015990D01*
X87606632Y-88853475D01*
X87738487Y-88721620D01*
X87760498Y-88794180D01*
X87819463Y-88904494D01*
X87898815Y-89001185D01*
X87995506Y-89080537D01*
X88105820Y-89139502D01*
X88225518Y-89175812D01*
X88350000Y-89188072D01*
X90050000Y-89188072D01*
X90174482Y-89175812D01*
X90294180Y-89139502D01*
X90404494Y-89080537D01*
X90501185Y-89001185D01*
X90580537Y-88904494D01*
X90639502Y-88794180D01*
X90675812Y-88674482D01*
X90688072Y-88550000D01*
X90688072Y-88056891D01*
X91958519Y-88056891D01*
X92055843Y-88331252D01*
X92204822Y-88581355D01*
X92399731Y-88797588D01*
X92633080Y-88971641D01*
X92895901Y-89096825D01*
X93043110Y-89141476D01*
X93273000Y-89020155D01*
X93273000Y-87827000D01*
X93527000Y-87827000D01*
X93527000Y-89020155D01*
X93756890Y-89141476D01*
X93904099Y-89096825D01*
X94166920Y-88971641D01*
X94400269Y-88797588D01*
X94595178Y-88581355D01*
X94670000Y-88455745D01*
X94744822Y-88581355D01*
X94939731Y-88797588D01*
X95173080Y-88971641D01*
X95435901Y-89096825D01*
X95583110Y-89141476D01*
X95813000Y-89020155D01*
X95813000Y-87827000D01*
X96067000Y-87827000D01*
X96067000Y-89020155D01*
X96296890Y-89141476D01*
X96444099Y-89096825D01*
X96706920Y-88971641D01*
X96940269Y-88797588D01*
X97135178Y-88581355D01*
X97210000Y-88455745D01*
X97284822Y-88581355D01*
X97479731Y-88797588D01*
X97713080Y-88971641D01*
X97975901Y-89096825D01*
X98123110Y-89141476D01*
X98353000Y-89020155D01*
X98353000Y-87827000D01*
X98607000Y-87827000D01*
X98607000Y-89020155D01*
X98836890Y-89141476D01*
X98984099Y-89096825D01*
X99246920Y-88971641D01*
X99480269Y-88797588D01*
X99675178Y-88581355D01*
X99750000Y-88455745D01*
X99824822Y-88581355D01*
X100019731Y-88797588D01*
X100253080Y-88971641D01*
X100515901Y-89096825D01*
X100663110Y-89141476D01*
X100893000Y-89020155D01*
X100893000Y-87827000D01*
X101147000Y-87827000D01*
X101147000Y-89020155D01*
X101376890Y-89141476D01*
X101524099Y-89096825D01*
X101786920Y-88971641D01*
X102020269Y-88797588D01*
X102215178Y-88581355D01*
X102290000Y-88455745D01*
X102364822Y-88581355D01*
X102559731Y-88797588D01*
X102793080Y-88971641D01*
X103055901Y-89096825D01*
X103203110Y-89141476D01*
X103433000Y-89020155D01*
X103433000Y-87827000D01*
X103687000Y-87827000D01*
X103687000Y-89020155D01*
X103916890Y-89141476D01*
X104064099Y-89096825D01*
X104326920Y-88971641D01*
X104560269Y-88797588D01*
X104636034Y-88713534D01*
X104660498Y-88794180D01*
X104719463Y-88904494D01*
X104798815Y-89001185D01*
X104895506Y-89080537D01*
X105005820Y-89139502D01*
X105125518Y-89175812D01*
X105250000Y-89188072D01*
X105814250Y-89185000D01*
X105973000Y-89026250D01*
X105973000Y-87827000D01*
X106227000Y-87827000D01*
X106227000Y-89026250D01*
X106385750Y-89185000D01*
X106950000Y-89188072D01*
X107074482Y-89175812D01*
X107194180Y-89139502D01*
X107304494Y-89080537D01*
X107401185Y-89001185D01*
X107480537Y-88904494D01*
X107539502Y-88794180D01*
X107575812Y-88674482D01*
X107588072Y-88550000D01*
X107585000Y-87985750D01*
X107426250Y-87827000D01*
X106227000Y-87827000D01*
X105973000Y-87827000D01*
X103687000Y-87827000D01*
X103433000Y-87827000D01*
X101147000Y-87827000D01*
X100893000Y-87827000D01*
X98607000Y-87827000D01*
X98353000Y-87827000D01*
X96067000Y-87827000D01*
X95813000Y-87827000D01*
X93527000Y-87827000D01*
X93273000Y-87827000D01*
X92079186Y-87827000D01*
X91958519Y-88056891D01*
X90688072Y-88056891D01*
X90688072Y-87343109D01*
X91958519Y-87343109D01*
X92079186Y-87573000D01*
X93273000Y-87573000D01*
X93273000Y-86379845D01*
X93527000Y-86379845D01*
X93527000Y-87573000D01*
X95813000Y-87573000D01*
X95813000Y-86379845D01*
X96067000Y-86379845D01*
X96067000Y-87573000D01*
X98353000Y-87573000D01*
X98353000Y-86379845D01*
X98607000Y-86379845D01*
X98607000Y-87573000D01*
X100893000Y-87573000D01*
X100893000Y-86379845D01*
X101147000Y-86379845D01*
X101147000Y-87573000D01*
X103433000Y-87573000D01*
X103433000Y-86379845D01*
X103687000Y-86379845D01*
X103687000Y-87573000D01*
X105973000Y-87573000D01*
X105973000Y-86373750D01*
X106227000Y-86373750D01*
X106227000Y-87573000D01*
X107426250Y-87573000D01*
X107445510Y-87553740D01*
X108715000Y-87553740D01*
X108715000Y-87846260D01*
X108772068Y-88133158D01*
X108884010Y-88403411D01*
X109046525Y-88646632D01*
X109253368Y-88853475D01*
X109496589Y-89015990D01*
X109766842Y-89127932D01*
X110053740Y-89185000D01*
X110346260Y-89185000D01*
X110633158Y-89127932D01*
X110903411Y-89015990D01*
X111146632Y-88853475D01*
X111315107Y-88685000D01*
X111624893Y-88685000D01*
X111793368Y-88853475D01*
X112036589Y-89015990D01*
X112306842Y-89127932D01*
X112593740Y-89185000D01*
X112886260Y-89185000D01*
X113173158Y-89127932D01*
X113443411Y-89015990D01*
X113686632Y-88853475D01*
X113855107Y-88685000D01*
X114164893Y-88685000D01*
X114333368Y-88853475D01*
X114576589Y-89015990D01*
X114846842Y-89127932D01*
X115133740Y-89185000D01*
X115426260Y-89185000D01*
X115713158Y-89127932D01*
X115983411Y-89015990D01*
X116226632Y-88853475D01*
X116395107Y-88685000D01*
X116704893Y-88685000D01*
X116873368Y-88853475D01*
X117116589Y-89015990D01*
X117386842Y-89127932D01*
X117673740Y-89185000D01*
X117966260Y-89185000D01*
X118253158Y-89127932D01*
X118523411Y-89015990D01*
X118766632Y-88853475D01*
X118935107Y-88685000D01*
X119244893Y-88685000D01*
X119413368Y-88853475D01*
X119656589Y-89015990D01*
X119926842Y-89127932D01*
X120213740Y-89185000D01*
X120506260Y-89185000D01*
X120793158Y-89127932D01*
X121063411Y-89015990D01*
X121306632Y-88853475D01*
X121438487Y-88721620D01*
X121460498Y-88794180D01*
X121519463Y-88904494D01*
X121598815Y-89001185D01*
X121695506Y-89080537D01*
X121805820Y-89139502D01*
X121925518Y-89175812D01*
X122050000Y-89188072D01*
X123750000Y-89188072D01*
X123874482Y-89175812D01*
X123994180Y-89139502D01*
X124104494Y-89080537D01*
X124201185Y-89001185D01*
X124280537Y-88904494D01*
X124339502Y-88794180D01*
X124375812Y-88674482D01*
X124388072Y-88550000D01*
X124388072Y-86850000D01*
X124375812Y-86725518D01*
X124339502Y-86605820D01*
X124280537Y-86495506D01*
X124201185Y-86398815D01*
X124104494Y-86319463D01*
X123994180Y-86260498D01*
X123874482Y-86224188D01*
X123750000Y-86211928D01*
X122050000Y-86211928D01*
X121925518Y-86224188D01*
X121805820Y-86260498D01*
X121695506Y-86319463D01*
X121598815Y-86398815D01*
X121519463Y-86495506D01*
X121460498Y-86605820D01*
X121438487Y-86678380D01*
X121306632Y-86546525D01*
X121063411Y-86384010D01*
X120793158Y-86272068D01*
X120506260Y-86215000D01*
X120213740Y-86215000D01*
X119926842Y-86272068D01*
X119656589Y-86384010D01*
X119413368Y-86546525D01*
X119244893Y-86715000D01*
X118935107Y-86715000D01*
X118766632Y-86546525D01*
X118523411Y-86384010D01*
X118253158Y-86272068D01*
X117966260Y-86215000D01*
X117673740Y-86215000D01*
X117386842Y-86272068D01*
X117116589Y-86384010D01*
X116873368Y-86546525D01*
X116704893Y-86715000D01*
X116395107Y-86715000D01*
X116226632Y-86546525D01*
X115983411Y-86384010D01*
X115713158Y-86272068D01*
X115426260Y-86215000D01*
X115133740Y-86215000D01*
X114846842Y-86272068D01*
X114576589Y-86384010D01*
X114333368Y-86546525D01*
X114164893Y-86715000D01*
X113855107Y-86715000D01*
X113686632Y-86546525D01*
X113443411Y-86384010D01*
X113173158Y-86272068D01*
X112886260Y-86215000D01*
X112593740Y-86215000D01*
X112306842Y-86272068D01*
X112036589Y-86384010D01*
X111793368Y-86546525D01*
X111624893Y-86715000D01*
X111315107Y-86715000D01*
X111146632Y-86546525D01*
X110903411Y-86384010D01*
X110633158Y-86272068D01*
X110346260Y-86215000D01*
X110053740Y-86215000D01*
X109766842Y-86272068D01*
X109496589Y-86384010D01*
X109253368Y-86546525D01*
X109046525Y-86753368D01*
X108884010Y-86996589D01*
X108772068Y-87266842D01*
X108715000Y-87553740D01*
X107445510Y-87553740D01*
X107585000Y-87414250D01*
X107588072Y-86850000D01*
X107575812Y-86725518D01*
X107539502Y-86605820D01*
X107480537Y-86495506D01*
X107401185Y-86398815D01*
X107304494Y-86319463D01*
X107194180Y-86260498D01*
X107074482Y-86224188D01*
X106950000Y-86211928D01*
X106385750Y-86215000D01*
X106227000Y-86373750D01*
X105973000Y-86373750D01*
X105814250Y-86215000D01*
X105250000Y-86211928D01*
X105125518Y-86224188D01*
X105005820Y-86260498D01*
X104895506Y-86319463D01*
X104798815Y-86398815D01*
X104719463Y-86495506D01*
X104660498Y-86605820D01*
X104636034Y-86686466D01*
X104560269Y-86602412D01*
X104326920Y-86428359D01*
X104064099Y-86303175D01*
X103916890Y-86258524D01*
X103687000Y-86379845D01*
X103433000Y-86379845D01*
X103203110Y-86258524D01*
X103055901Y-86303175D01*
X102793080Y-86428359D01*
X102559731Y-86602412D01*
X102364822Y-86818645D01*
X102290000Y-86944255D01*
X102215178Y-86818645D01*
X102020269Y-86602412D01*
X101786920Y-86428359D01*
X101524099Y-86303175D01*
X101376890Y-86258524D01*
X101147000Y-86379845D01*
X100893000Y-86379845D01*
X100663110Y-86258524D01*
X100515901Y-86303175D01*
X100253080Y-86428359D01*
X100019731Y-86602412D01*
X99824822Y-86818645D01*
X99750000Y-86944255D01*
X99675178Y-86818645D01*
X99480269Y-86602412D01*
X99246920Y-86428359D01*
X98984099Y-86303175D01*
X98836890Y-86258524D01*
X98607000Y-86379845D01*
X98353000Y-86379845D01*
X98123110Y-86258524D01*
X97975901Y-86303175D01*
X97713080Y-86428359D01*
X97479731Y-86602412D01*
X97284822Y-86818645D01*
X97210000Y-86944255D01*
X97135178Y-86818645D01*
X96940269Y-86602412D01*
X96706920Y-86428359D01*
X96444099Y-86303175D01*
X96296890Y-86258524D01*
X96067000Y-86379845D01*
X95813000Y-86379845D01*
X95583110Y-86258524D01*
X95435901Y-86303175D01*
X95173080Y-86428359D01*
X94939731Y-86602412D01*
X94744822Y-86818645D01*
X94670000Y-86944255D01*
X94595178Y-86818645D01*
X94400269Y-86602412D01*
X94166920Y-86428359D01*
X93904099Y-86303175D01*
X93756890Y-86258524D01*
X93527000Y-86379845D01*
X93273000Y-86379845D01*
X93043110Y-86258524D01*
X92895901Y-86303175D01*
X92633080Y-86428359D01*
X92399731Y-86602412D01*
X92204822Y-86818645D01*
X92055843Y-87068748D01*
X91958519Y-87343109D01*
X90688072Y-87343109D01*
X90688072Y-86850000D01*
X90675812Y-86725518D01*
X90639502Y-86605820D01*
X90580537Y-86495506D01*
X90501185Y-86398815D01*
X90404494Y-86319463D01*
X90294180Y-86260498D01*
X90174482Y-86224188D01*
X90050000Y-86211928D01*
X88350000Y-86211928D01*
X88225518Y-86224188D01*
X88105820Y-86260498D01*
X87995506Y-86319463D01*
X87898815Y-86398815D01*
X87819463Y-86495506D01*
X87760498Y-86605820D01*
X87738487Y-86678380D01*
X87606632Y-86546525D01*
X87363411Y-86384010D01*
X87093158Y-86272068D01*
X86806260Y-86215000D01*
X86513740Y-86215000D01*
X86226842Y-86272068D01*
X85956589Y-86384010D01*
X85713368Y-86546525D01*
X85544893Y-86715000D01*
X85235107Y-86715000D01*
X85066632Y-86546525D01*
X84823411Y-86384010D01*
X84553158Y-86272068D01*
X84266260Y-86215000D01*
X83973740Y-86215000D01*
X83686842Y-86272068D01*
X83416589Y-86384010D01*
X83173368Y-86546525D01*
X83004893Y-86715000D01*
X82695107Y-86715000D01*
X82526632Y-86546525D01*
X82283411Y-86384010D01*
X82013158Y-86272068D01*
X81726260Y-86215000D01*
X81433740Y-86215000D01*
X81146842Y-86272068D01*
X80876589Y-86384010D01*
X80633368Y-86546525D01*
X80464893Y-86715000D01*
X80155107Y-86715000D01*
X79986632Y-86546525D01*
X79743411Y-86384010D01*
X79473158Y-86272068D01*
X79186260Y-86215000D01*
X78893740Y-86215000D01*
X78606842Y-86272068D01*
X78336589Y-86384010D01*
X78093368Y-86546525D01*
X77924893Y-86715000D01*
X77615107Y-86715000D01*
X77446632Y-86546525D01*
X77203411Y-86384010D01*
X76933158Y-86272068D01*
X76646260Y-86215000D01*
X76353740Y-86215000D01*
X76066842Y-86272068D01*
X75796589Y-86384010D01*
X75553368Y-86546525D01*
X75346525Y-86753368D01*
X75184010Y-86996589D01*
X75072068Y-87266842D01*
X75015000Y-87553740D01*
X74355000Y-87553740D01*
X74355000Y-87358665D01*
X74299853Y-87081426D01*
X74191680Y-86820273D01*
X74034637Y-86585241D01*
X73834759Y-86385363D01*
X73599727Y-86228320D01*
X73338574Y-86120147D01*
X73061335Y-86065000D01*
X72778665Y-86065000D01*
X72501426Y-86120147D01*
X72240273Y-86228320D01*
X72005241Y-86385363D01*
X71805363Y-86585241D01*
X71648320Y-86820273D01*
X71540147Y-87081426D01*
X71485000Y-87358665D01*
X66738072Y-87358665D01*
X66738072Y-86700000D01*
X66725812Y-86575518D01*
X66689502Y-86455820D01*
X66630537Y-86345506D01*
X66551185Y-86248815D01*
X66454494Y-86169463D01*
X66344180Y-86110498D01*
X66224482Y-86074188D01*
X66100000Y-86061928D01*
X64500000Y-86061928D01*
X64375518Y-86074188D01*
X64255820Y-86110498D01*
X64145506Y-86169463D01*
X64048815Y-86248815D01*
X63969463Y-86345506D01*
X63910498Y-86455820D01*
X63910000Y-86457462D01*
X63910000Y-80898061D01*
X67215000Y-80898061D01*
X67215000Y-81101939D01*
X67254774Y-81301898D01*
X67332795Y-81490256D01*
X67446063Y-81659774D01*
X67590226Y-81803937D01*
X67759744Y-81917205D01*
X67948102Y-81995226D01*
X68038382Y-82013184D01*
X68231928Y-82206729D01*
X68231928Y-83770000D01*
X68244188Y-83894482D01*
X68280498Y-84014180D01*
X68339463Y-84124494D01*
X68418815Y-84221185D01*
X68515506Y-84300537D01*
X68625820Y-84359502D01*
X68745518Y-84395812D01*
X68870000Y-84408072D01*
X69870000Y-84408072D01*
X69994482Y-84395812D01*
X70114180Y-84359502D01*
X70224494Y-84300537D01*
X70321185Y-84221185D01*
X70400537Y-84124494D01*
X70459502Y-84014180D01*
X70495812Y-83894482D01*
X70508072Y-83770000D01*
X70508072Y-82007155D01*
X70588314Y-82023116D01*
X70771928Y-82206729D01*
X70771928Y-83770000D01*
X70784188Y-83894482D01*
X70820498Y-84014180D01*
X70879463Y-84124494D01*
X70958815Y-84221185D01*
X71055506Y-84300537D01*
X71165820Y-84359502D01*
X71285518Y-84395812D01*
X71410000Y-84408072D01*
X72410000Y-84408072D01*
X72534482Y-84395812D01*
X72654180Y-84359502D01*
X72764494Y-84300537D01*
X72861185Y-84221185D01*
X72940537Y-84124494D01*
X72999502Y-84014180D01*
X73035812Y-83894482D01*
X73048072Y-83770000D01*
X73048072Y-82015111D01*
X73148061Y-82035000D01*
X73210199Y-82035000D01*
X73311928Y-82136729D01*
X73311928Y-83770000D01*
X73324188Y-83894482D01*
X73360498Y-84014180D01*
X73419463Y-84124494D01*
X73498815Y-84221185D01*
X73595506Y-84300537D01*
X73705820Y-84359502D01*
X73825518Y-84395812D01*
X73950000Y-84408072D01*
X74950000Y-84408072D01*
X75074482Y-84395812D01*
X75194180Y-84359502D01*
X75304494Y-84300537D01*
X75401185Y-84221185D01*
X75480537Y-84124494D01*
X75539502Y-84014180D01*
X75575812Y-83894482D01*
X75588072Y-83770000D01*
X75588072Y-82023068D01*
X75648061Y-82035000D01*
X75680199Y-82035000D01*
X75851928Y-82206730D01*
X75851928Y-83770000D01*
X75864188Y-83894482D01*
X75900498Y-84014180D01*
X75959463Y-84124494D01*
X76038815Y-84221185D01*
X76135506Y-84300537D01*
X76245820Y-84359502D01*
X76365518Y-84395812D01*
X76490000Y-84408072D01*
X77490000Y-84408072D01*
X77614482Y-84395812D01*
X77734180Y-84359502D01*
X77844494Y-84300537D01*
X77941185Y-84221185D01*
X78020537Y-84124494D01*
X78079502Y-84014180D01*
X78115812Y-83894482D01*
X78128072Y-83770000D01*
X78391928Y-83770000D01*
X78404188Y-83894482D01*
X78440498Y-84014180D01*
X78499463Y-84124494D01*
X78578815Y-84221185D01*
X78675506Y-84300537D01*
X78785820Y-84359502D01*
X78905518Y-84395812D01*
X79030000Y-84408072D01*
X79244250Y-84405000D01*
X79403000Y-84246250D01*
X79403000Y-82397000D01*
X79657000Y-82397000D01*
X79657000Y-84246250D01*
X79815750Y-84405000D01*
X80030000Y-84408072D01*
X80154482Y-84395812D01*
X80274180Y-84359502D01*
X80384494Y-84300537D01*
X80481185Y-84221185D01*
X80560537Y-84124494D01*
X80619502Y-84014180D01*
X80655812Y-83894482D01*
X80668072Y-83770000D01*
X80665000Y-82555750D01*
X80506250Y-82397000D01*
X79657000Y-82397000D01*
X79403000Y-82397000D01*
X78553750Y-82397000D01*
X78395000Y-82555750D01*
X78391928Y-83770000D01*
X78128072Y-83770000D01*
X78128072Y-80770000D01*
X78391928Y-80770000D01*
X78395000Y-81984250D01*
X78553750Y-82143000D01*
X79403000Y-82143000D01*
X79403000Y-80293750D01*
X79657000Y-80293750D01*
X79657000Y-82143000D01*
X80506250Y-82143000D01*
X80619860Y-82029390D01*
X80648061Y-82035000D01*
X80760199Y-82035000D01*
X80931928Y-82206730D01*
X80931928Y-83770000D01*
X80944188Y-83894482D01*
X80980498Y-84014180D01*
X81039463Y-84124494D01*
X81118815Y-84221185D01*
X81215506Y-84300537D01*
X81325820Y-84359502D01*
X81445518Y-84395812D01*
X81570000Y-84408072D01*
X82570000Y-84408072D01*
X82694482Y-84395812D01*
X82814180Y-84359502D01*
X82924494Y-84300537D01*
X83021185Y-84221185D01*
X83100537Y-84124494D01*
X83159502Y-84014180D01*
X83195812Y-83894482D01*
X83208072Y-83770000D01*
X83208072Y-82035000D01*
X83210199Y-82035000D01*
X83471928Y-82296730D01*
X83471928Y-83770000D01*
X83484188Y-83894482D01*
X83520498Y-84014180D01*
X83579463Y-84124494D01*
X83658815Y-84221185D01*
X83755506Y-84300537D01*
X83865820Y-84359502D01*
X83985518Y-84395812D01*
X84110000Y-84408072D01*
X85110000Y-84408072D01*
X85234482Y-84395812D01*
X85354180Y-84359502D01*
X85464494Y-84300537D01*
X85561185Y-84221185D01*
X85640537Y-84124494D01*
X85699502Y-84014180D01*
X85735812Y-83894482D01*
X85748072Y-83770000D01*
X85748072Y-82005166D01*
X85825831Y-82020633D01*
X86011928Y-82206729D01*
X86011928Y-83770000D01*
X86024188Y-83894482D01*
X86060498Y-84014180D01*
X86119463Y-84124494D01*
X86198815Y-84221185D01*
X86295506Y-84300537D01*
X86405820Y-84359502D01*
X86525518Y-84395812D01*
X86650000Y-84408072D01*
X87650000Y-84408072D01*
X87774482Y-84395812D01*
X87894180Y-84359502D01*
X88004494Y-84300537D01*
X88101185Y-84221185D01*
X88180537Y-84124494D01*
X88239502Y-84014180D01*
X88275812Y-83894482D01*
X88288072Y-83770000D01*
X88288072Y-82013122D01*
X88398061Y-82035000D01*
X88460199Y-82035000D01*
X88551928Y-82126729D01*
X88551928Y-83770000D01*
X88564188Y-83894482D01*
X88600498Y-84014180D01*
X88659463Y-84124494D01*
X88738815Y-84221185D01*
X88835506Y-84300537D01*
X88945820Y-84359502D01*
X89065518Y-84395812D01*
X89190000Y-84408072D01*
X90190000Y-84408072D01*
X90314482Y-84395812D01*
X90434180Y-84359502D01*
X90544494Y-84300537D01*
X90641185Y-84221185D01*
X90720537Y-84124494D01*
X90779502Y-84014180D01*
X90815812Y-83894482D01*
X90828072Y-83770000D01*
X90828072Y-82021078D01*
X90898061Y-82035000D01*
X90920199Y-82035000D01*
X91091928Y-82206730D01*
X91091928Y-83770000D01*
X91104188Y-83894482D01*
X91140498Y-84014180D01*
X91199463Y-84124494D01*
X91278815Y-84221185D01*
X91375506Y-84300537D01*
X91485820Y-84359502D01*
X91605518Y-84395812D01*
X91730000Y-84408072D01*
X92730000Y-84408072D01*
X92854482Y-84395812D01*
X92974180Y-84359502D01*
X93084494Y-84300537D01*
X93181185Y-84221185D01*
X93260537Y-84124494D01*
X93319502Y-84014180D01*
X93355812Y-83894482D01*
X93368072Y-83770000D01*
X93368072Y-82029035D01*
X93398061Y-82035000D01*
X93460199Y-82035000D01*
X93631928Y-82206730D01*
X93631928Y-83770000D01*
X93644188Y-83894482D01*
X93680498Y-84014180D01*
X93739463Y-84124494D01*
X93818815Y-84221185D01*
X93915506Y-84300537D01*
X94025820Y-84359502D01*
X94145518Y-84395812D01*
X94270000Y-84408072D01*
X95270000Y-84408072D01*
X95394482Y-84395812D01*
X95514180Y-84359502D01*
X95624494Y-84300537D01*
X95721185Y-84221185D01*
X95800537Y-84124494D01*
X95859502Y-84014180D01*
X95895812Y-83894482D01*
X95908072Y-83770000D01*
X95908072Y-82035000D01*
X96000199Y-82035000D01*
X96171928Y-82206730D01*
X96171928Y-83770000D01*
X96184188Y-83894482D01*
X96220498Y-84014180D01*
X96279463Y-84124494D01*
X96358815Y-84221185D01*
X96455506Y-84300537D01*
X96565820Y-84359502D01*
X96685518Y-84395812D01*
X96810000Y-84408072D01*
X97810000Y-84408072D01*
X97934482Y-84395812D01*
X98054180Y-84359502D01*
X98164494Y-84300537D01*
X98261185Y-84221185D01*
X98340537Y-84124494D01*
X98399502Y-84014180D01*
X98435812Y-83894482D01*
X98448072Y-83770000D01*
X98711928Y-83770000D01*
X98724188Y-83894482D01*
X98760498Y-84014180D01*
X98819463Y-84124494D01*
X98898815Y-84221185D01*
X98995506Y-84300537D01*
X99105820Y-84359502D01*
X99225518Y-84395812D01*
X99350000Y-84408072D01*
X99564250Y-84405000D01*
X99723000Y-84246250D01*
X99723000Y-82397000D01*
X99977000Y-82397000D01*
X99977000Y-84246250D01*
X100135750Y-84405000D01*
X100350000Y-84408072D01*
X100474482Y-84395812D01*
X100594180Y-84359502D01*
X100704494Y-84300537D01*
X100801185Y-84221185D01*
X100880537Y-84124494D01*
X100939502Y-84014180D01*
X100975812Y-83894482D01*
X100988072Y-83770000D01*
X100985000Y-82555750D01*
X100826250Y-82397000D01*
X99977000Y-82397000D01*
X99723000Y-82397000D01*
X98873750Y-82397000D01*
X98715000Y-82555750D01*
X98711928Y-83770000D01*
X98448072Y-83770000D01*
X98448072Y-80770000D01*
X98711928Y-80770000D01*
X98715000Y-81984250D01*
X98873750Y-82143000D01*
X99723000Y-82143000D01*
X99723000Y-80898061D01*
X99965000Y-80898061D01*
X99965000Y-81101939D01*
X99977000Y-81162268D01*
X99977000Y-82143000D01*
X100826250Y-82143000D01*
X100934250Y-82035000D01*
X101080199Y-82035000D01*
X101251928Y-82206730D01*
X101251928Y-83770000D01*
X101264188Y-83894482D01*
X101300498Y-84014180D01*
X101359463Y-84124494D01*
X101438815Y-84221185D01*
X101535506Y-84300537D01*
X101645820Y-84359502D01*
X101765518Y-84395812D01*
X101890000Y-84408072D01*
X102890000Y-84408072D01*
X103014482Y-84395812D01*
X103134180Y-84359502D01*
X103244494Y-84300537D01*
X103341185Y-84221185D01*
X103420537Y-84124494D01*
X103479502Y-84014180D01*
X103515812Y-83894482D01*
X103528072Y-83770000D01*
X103528072Y-82011133D01*
X103648061Y-82035000D01*
X103710199Y-82035000D01*
X103791928Y-82116729D01*
X103791928Y-83770000D01*
X103804188Y-83894482D01*
X103840498Y-84014180D01*
X103899463Y-84124494D01*
X103978815Y-84221185D01*
X104075506Y-84300537D01*
X104185820Y-84359502D01*
X104305518Y-84395812D01*
X104430000Y-84408072D01*
X105430000Y-84408072D01*
X105554482Y-84395812D01*
X105674180Y-84359502D01*
X105784494Y-84300537D01*
X105881185Y-84221185D01*
X105960537Y-84124494D01*
X106019502Y-84014180D01*
X106055812Y-83894482D01*
X106068072Y-83770000D01*
X106068072Y-82019089D01*
X106148061Y-82035000D01*
X106160199Y-82035000D01*
X106331928Y-82206730D01*
X106331928Y-83770000D01*
X106344188Y-83894482D01*
X106380498Y-84014180D01*
X106439463Y-84124494D01*
X106518815Y-84221185D01*
X106615506Y-84300537D01*
X106725820Y-84359502D01*
X106845518Y-84395812D01*
X106970000Y-84408072D01*
X107970000Y-84408072D01*
X108094482Y-84395812D01*
X108214180Y-84359502D01*
X108324494Y-84300537D01*
X108421185Y-84221185D01*
X108500537Y-84124494D01*
X108559502Y-84014180D01*
X108595812Y-83894482D01*
X108608072Y-83770000D01*
X108608072Y-82027046D01*
X108648061Y-82035000D01*
X108710199Y-82035000D01*
X108871928Y-82196730D01*
X108871928Y-83770000D01*
X108884188Y-83894482D01*
X108920498Y-84014180D01*
X108979463Y-84124494D01*
X109058815Y-84221185D01*
X109155506Y-84300537D01*
X109265820Y-84359502D01*
X109385518Y-84395812D01*
X109510000Y-84408072D01*
X110510000Y-84408072D01*
X110634482Y-84395812D01*
X110754180Y-84359502D01*
X110864494Y-84300537D01*
X110961185Y-84221185D01*
X111040537Y-84124494D01*
X111099502Y-84014180D01*
X111135812Y-83894482D01*
X111148072Y-83770000D01*
X111148072Y-82035000D01*
X111240199Y-82035000D01*
X111411928Y-82206730D01*
X111411928Y-83770000D01*
X111424188Y-83894482D01*
X111460498Y-84014180D01*
X111519463Y-84124494D01*
X111598815Y-84221185D01*
X111695506Y-84300537D01*
X111805820Y-84359502D01*
X111925518Y-84395812D01*
X112050000Y-84408072D01*
X113050000Y-84408072D01*
X113174482Y-84395812D01*
X113294180Y-84359502D01*
X113404494Y-84300537D01*
X113501185Y-84221185D01*
X113580537Y-84124494D01*
X113639502Y-84014180D01*
X113675812Y-83894482D01*
X113688072Y-83770000D01*
X113688072Y-82035000D01*
X113710199Y-82035000D01*
X113951928Y-82276730D01*
X113951928Y-83770000D01*
X113964188Y-83894482D01*
X114000498Y-84014180D01*
X114059463Y-84124494D01*
X114138815Y-84221185D01*
X114235506Y-84300537D01*
X114345820Y-84359502D01*
X114465518Y-84395812D01*
X114590000Y-84408072D01*
X115590000Y-84408072D01*
X115714482Y-84395812D01*
X115834180Y-84359502D01*
X115944494Y-84300537D01*
X116041185Y-84221185D01*
X116120537Y-84124494D01*
X116179502Y-84014180D01*
X116215812Y-83894482D01*
X116228072Y-83770000D01*
X116491928Y-83770000D01*
X116504188Y-83894482D01*
X116540498Y-84014180D01*
X116599463Y-84124494D01*
X116678815Y-84221185D01*
X116775506Y-84300537D01*
X116885820Y-84359502D01*
X117005518Y-84395812D01*
X117130000Y-84408072D01*
X117344250Y-84405000D01*
X117503000Y-84246250D01*
X117503000Y-82397000D01*
X117757000Y-82397000D01*
X117757000Y-84246250D01*
X117915750Y-84405000D01*
X118130000Y-84408072D01*
X118254482Y-84395812D01*
X118374180Y-84359502D01*
X118484494Y-84300537D01*
X118581185Y-84221185D01*
X118660537Y-84124494D01*
X118719502Y-84014180D01*
X118755812Y-83894482D01*
X118768072Y-83770000D01*
X118765000Y-82555750D01*
X118606250Y-82397000D01*
X117757000Y-82397000D01*
X117503000Y-82397000D01*
X116653750Y-82397000D01*
X116495000Y-82555750D01*
X116491928Y-83770000D01*
X116228072Y-83770000D01*
X116228072Y-80770000D01*
X116491928Y-80770000D01*
X116495000Y-81984250D01*
X116653750Y-82143000D01*
X117503000Y-82143000D01*
X117503000Y-80293750D01*
X117757000Y-80293750D01*
X117757000Y-82143000D01*
X118606250Y-82143000D01*
X118765000Y-81984250D01*
X118768072Y-80770000D01*
X118755812Y-80645518D01*
X118719502Y-80525820D01*
X118705701Y-80500000D01*
X120661928Y-80500000D01*
X120661928Y-81700000D01*
X120678992Y-81873254D01*
X120729528Y-82039850D01*
X120811595Y-82193386D01*
X120922038Y-82327962D01*
X121056614Y-82438405D01*
X121210150Y-82520472D01*
X121376746Y-82571008D01*
X121550000Y-82588072D01*
X123050000Y-82588072D01*
X123223254Y-82571008D01*
X123389850Y-82520472D01*
X123543386Y-82438405D01*
X123677962Y-82327962D01*
X123788405Y-82193386D01*
X123870472Y-82039850D01*
X123921008Y-81873254D01*
X123938072Y-81700000D01*
X123938072Y-80500000D01*
X123921008Y-80326746D01*
X123870472Y-80160150D01*
X123788405Y-80006614D01*
X123677962Y-79872038D01*
X123543386Y-79761595D01*
X123441407Y-79707086D01*
X123441795Y-79706802D01*
X123638664Y-79492046D01*
X123789854Y-79243009D01*
X123889554Y-78969261D01*
X123891476Y-78956890D01*
X123770155Y-78727000D01*
X122427000Y-78727000D01*
X122427000Y-78747000D01*
X122173000Y-78747000D01*
X122173000Y-78727000D01*
X120829845Y-78727000D01*
X120708524Y-78956890D01*
X120710446Y-78969261D01*
X120810146Y-79243009D01*
X120961336Y-79492046D01*
X121158205Y-79706802D01*
X121158593Y-79707086D01*
X121056614Y-79761595D01*
X120922038Y-79872038D01*
X120811595Y-80006614D01*
X120729528Y-80160150D01*
X120678992Y-80326746D01*
X120661928Y-80500000D01*
X118705701Y-80500000D01*
X118660537Y-80415506D01*
X118581185Y-80318815D01*
X118484494Y-80239463D01*
X118374180Y-80180498D01*
X118254482Y-80144188D01*
X118130000Y-80131928D01*
X117915750Y-80135000D01*
X117757000Y-80293750D01*
X117503000Y-80293750D01*
X117344250Y-80135000D01*
X117130000Y-80131928D01*
X117005518Y-80144188D01*
X116885820Y-80180498D01*
X116775506Y-80239463D01*
X116678815Y-80318815D01*
X116599463Y-80415506D01*
X116540498Y-80525820D01*
X116504188Y-80645518D01*
X116491928Y-80770000D01*
X116228072Y-80770000D01*
X116215812Y-80645518D01*
X116179502Y-80525820D01*
X116120537Y-80415506D01*
X116041185Y-80318815D01*
X115944494Y-80239463D01*
X115834180Y-80180498D01*
X115714482Y-80144188D01*
X115590000Y-80131928D01*
X114590000Y-80131928D01*
X114465518Y-80144188D01*
X114373784Y-80172015D01*
X114240256Y-80082795D01*
X114051898Y-80004774D01*
X113851939Y-79965000D01*
X113648061Y-79965000D01*
X113448102Y-80004774D01*
X113259744Y-80082795D01*
X113168713Y-80143620D01*
X113050000Y-80131928D01*
X112050000Y-80131928D01*
X111925518Y-80144188D01*
X111861294Y-80163670D01*
X111740256Y-80082795D01*
X111551898Y-80004774D01*
X111351939Y-79965000D01*
X111148061Y-79965000D01*
X110948102Y-80004774D01*
X110759744Y-80082795D01*
X110657440Y-80151152D01*
X110634482Y-80144188D01*
X110510000Y-80131928D01*
X109510000Y-80131928D01*
X109385518Y-80144188D01*
X109348805Y-80155325D01*
X109240256Y-80082795D01*
X109051898Y-80004774D01*
X108851939Y-79965000D01*
X108648061Y-79965000D01*
X108448102Y-80004774D01*
X108259744Y-80082795D01*
X108144950Y-80159497D01*
X108094482Y-80144188D01*
X107970000Y-80131928D01*
X106970000Y-80131928D01*
X106845518Y-80144188D01*
X106836315Y-80146980D01*
X106740256Y-80082795D01*
X106551898Y-80004774D01*
X106351939Y-79965000D01*
X106148061Y-79965000D01*
X105948102Y-80004774D01*
X105759744Y-80082795D01*
X105632461Y-80167843D01*
X105554482Y-80144188D01*
X105430000Y-80131928D01*
X104430000Y-80131928D01*
X104328718Y-80141903D01*
X104240256Y-80082795D01*
X104051898Y-80004774D01*
X103851939Y-79965000D01*
X103648061Y-79965000D01*
X103448102Y-80004774D01*
X103259744Y-80082795D01*
X103119971Y-80176188D01*
X103014482Y-80144188D01*
X102890000Y-80131928D01*
X101890000Y-80131928D01*
X101765518Y-80144188D01*
X101645820Y-80180498D01*
X101640631Y-80183272D01*
X101490256Y-80082795D01*
X101301898Y-80004774D01*
X101101939Y-79965000D01*
X100898061Y-79965000D01*
X100698102Y-80004774D01*
X100509744Y-80082795D01*
X100425136Y-80139328D01*
X100350000Y-80131928D01*
X100135750Y-80135000D01*
X99977000Y-80293750D01*
X99977000Y-80837732D01*
X99965000Y-80898061D01*
X99723000Y-80898061D01*
X99723000Y-80293750D01*
X99564250Y-80135000D01*
X99350000Y-80131928D01*
X99225518Y-80144188D01*
X99105820Y-80180498D01*
X98995506Y-80239463D01*
X98898815Y-80318815D01*
X98819463Y-80415506D01*
X98760498Y-80525820D01*
X98724188Y-80645518D01*
X98711928Y-80770000D01*
X98448072Y-80770000D01*
X98435812Y-80645518D01*
X98399502Y-80525820D01*
X98340537Y-80415506D01*
X98261185Y-80318815D01*
X98164494Y-80239463D01*
X98054180Y-80180498D01*
X97934482Y-80144188D01*
X97810000Y-80131928D01*
X96810000Y-80131928D01*
X96685518Y-80144188D01*
X96614417Y-80165756D01*
X96490256Y-80082795D01*
X96301898Y-80004774D01*
X96101939Y-79965000D01*
X95898061Y-79965000D01*
X95698102Y-80004774D01*
X95509744Y-80082795D01*
X95410562Y-80149066D01*
X95394482Y-80144188D01*
X95270000Y-80131928D01*
X94270000Y-80131928D01*
X94145518Y-80144188D01*
X94101927Y-80157411D01*
X93990256Y-80082795D01*
X93801898Y-80004774D01*
X93601939Y-79965000D01*
X93398061Y-79965000D01*
X93198102Y-80004774D01*
X93009744Y-80082795D01*
X92898073Y-80157411D01*
X92854482Y-80144188D01*
X92730000Y-80131928D01*
X91730000Y-80131928D01*
X91605518Y-80144188D01*
X91589438Y-80149066D01*
X91490256Y-80082795D01*
X91301898Y-80004774D01*
X91101939Y-79965000D01*
X90898061Y-79965000D01*
X90698102Y-80004774D01*
X90509744Y-80082795D01*
X90385583Y-80165756D01*
X90314482Y-80144188D01*
X90190000Y-80131928D01*
X89190000Y-80131928D01*
X89080002Y-80142761D01*
X88990256Y-80082795D01*
X88801898Y-80004774D01*
X88601939Y-79965000D01*
X88398061Y-79965000D01*
X88198102Y-80004774D01*
X88009744Y-80082795D01*
X87873094Y-80174102D01*
X87774482Y-80144188D01*
X87650000Y-80131928D01*
X86650000Y-80131928D01*
X86574864Y-80139328D01*
X86490256Y-80082795D01*
X86301898Y-80004774D01*
X86101939Y-79965000D01*
X85898061Y-79965000D01*
X85698102Y-80004774D01*
X85509744Y-80082795D01*
X85359369Y-80183272D01*
X85354180Y-80180498D01*
X85234482Y-80144188D01*
X85110000Y-80131928D01*
X84110000Y-80131928D01*
X83985518Y-80144188D01*
X83880029Y-80176188D01*
X83740256Y-80082795D01*
X83551898Y-80004774D01*
X83351939Y-79965000D01*
X83148061Y-79965000D01*
X82948102Y-80004774D01*
X82759744Y-80082795D01*
X82671282Y-80141903D01*
X82570000Y-80131928D01*
X81570000Y-80131928D01*
X81445518Y-80144188D01*
X81367539Y-80167843D01*
X81240256Y-80082795D01*
X81051898Y-80004774D01*
X80851939Y-79965000D01*
X80648061Y-79965000D01*
X80448102Y-80004774D01*
X80259744Y-80082795D01*
X80163685Y-80146980D01*
X80154482Y-80144188D01*
X80030000Y-80131928D01*
X79815750Y-80135000D01*
X79657000Y-80293750D01*
X79403000Y-80293750D01*
X79244250Y-80135000D01*
X79030000Y-80131928D01*
X78905518Y-80144188D01*
X78785820Y-80180498D01*
X78675506Y-80239463D01*
X78578815Y-80318815D01*
X78499463Y-80415506D01*
X78440498Y-80525820D01*
X78404188Y-80645518D01*
X78391928Y-80770000D01*
X78128072Y-80770000D01*
X78115812Y-80645518D01*
X78079502Y-80525820D01*
X78020537Y-80415506D01*
X77941185Y-80318815D01*
X77844494Y-80239463D01*
X77734180Y-80180498D01*
X77614482Y-80144188D01*
X77490000Y-80131928D01*
X76490000Y-80131928D01*
X76365518Y-80144188D01*
X76342560Y-80151152D01*
X76240256Y-80082795D01*
X76051898Y-80004774D01*
X75851939Y-79965000D01*
X75648061Y-79965000D01*
X75448102Y-80004774D01*
X75259744Y-80082795D01*
X75138706Y-80163670D01*
X75074482Y-80144188D01*
X74950000Y-80131928D01*
X73950000Y-80131928D01*
X73831287Y-80143620D01*
X73740256Y-80082795D01*
X73551898Y-80004774D01*
X73351939Y-79965000D01*
X73148061Y-79965000D01*
X72948102Y-80004774D01*
X72759744Y-80082795D01*
X72626216Y-80172015D01*
X72534482Y-80144188D01*
X72410000Y-80131928D01*
X71410000Y-80131928D01*
X71326148Y-80140186D01*
X71240256Y-80082795D01*
X71051898Y-80004774D01*
X70851939Y-79965000D01*
X70648061Y-79965000D01*
X70448102Y-80004774D01*
X70259744Y-80082795D01*
X70113727Y-80180360D01*
X69994482Y-80144188D01*
X69870000Y-80131928D01*
X68870000Y-80131928D01*
X68821010Y-80136753D01*
X68740256Y-80082795D01*
X68551898Y-80004774D01*
X68351939Y-79965000D01*
X68148061Y-79965000D01*
X67948102Y-80004774D01*
X67759744Y-80082795D01*
X67590226Y-80196063D01*
X67446063Y-80340226D01*
X67332795Y-80509744D01*
X67254774Y-80698102D01*
X67215000Y-80898061D01*
X63910000Y-80898061D01*
X63910000Y-75234722D01*
X63915054Y-75183180D01*
X63919938Y-75167004D01*
X63927874Y-75152077D01*
X63938554Y-75138982D01*
X63951575Y-75128211D01*
X63966445Y-75120170D01*
X63982590Y-75115173D01*
X64031805Y-75110000D01*
X68726358Y-75110000D01*
X68625820Y-75140498D01*
%TA.AperFunction,Conductor*%
D21*
G36*
X68625820Y-75140498D02*
G01*
X68515506Y-75199463D01*
X68418815Y-75278815D01*
X68339463Y-75375506D01*
X68280498Y-75485820D01*
X68244188Y-75605518D01*
X68231928Y-75730000D01*
X68231928Y-77293270D01*
X68060199Y-77465000D01*
X67898061Y-77465000D01*
X67698102Y-77504774D01*
X67509744Y-77582795D01*
X67340226Y-77696063D01*
X67196063Y-77840226D01*
X67082795Y-78009744D01*
X67004774Y-78198102D01*
X66965000Y-78398061D01*
X66965000Y-78601939D01*
X67004774Y-78801898D01*
X67082795Y-78990256D01*
X67196063Y-79159774D01*
X67340226Y-79303937D01*
X67509744Y-79417205D01*
X67698102Y-79495226D01*
X67898061Y-79535000D01*
X68101939Y-79535000D01*
X68301898Y-79495226D01*
X68490256Y-79417205D01*
X68633151Y-79321726D01*
X68745518Y-79355812D01*
X68870000Y-79368072D01*
X69870000Y-79368072D01*
X69994482Y-79355812D01*
X70113725Y-79319640D01*
X70259742Y-79417205D01*
X70448100Y-79495226D01*
X70648059Y-79535000D01*
X70851937Y-79535000D01*
X71051896Y-79495226D01*
X71240254Y-79417205D01*
X71326147Y-79359813D01*
X71410000Y-79368072D01*
X72410000Y-79368072D01*
X72534482Y-79355812D01*
X72654180Y-79319502D01*
X72764494Y-79260537D01*
X72861185Y-79181185D01*
X72940537Y-79084494D01*
X72999502Y-78974180D01*
X73035812Y-78854482D01*
X73048072Y-78730000D01*
X73311928Y-78730000D01*
X73324188Y-78854482D01*
X73360498Y-78974180D01*
X73419463Y-79084494D01*
X73498815Y-79181185D01*
X73595506Y-79260537D01*
X73705820Y-79319502D01*
X73825518Y-79355812D01*
X73950000Y-79368072D01*
X74164250Y-79365000D01*
X74323000Y-79206250D01*
X74323000Y-77357000D01*
X73473750Y-77357000D01*
X73315000Y-77515750D01*
X73311928Y-78730000D01*
X73048072Y-78730000D01*
X73048072Y-75730000D01*
X73035812Y-75605518D01*
X72999502Y-75485820D01*
X72940537Y-75375506D01*
X72861185Y-75278815D01*
X72764494Y-75199463D01*
X72654180Y-75140498D01*
X72553642Y-75110000D01*
X73806358Y-75110000D01*
X73705820Y-75140498D01*
X73595506Y-75199463D01*
X73498815Y-75278815D01*
X73419463Y-75375506D01*
X73360498Y-75485820D01*
X73324188Y-75605518D01*
X73311928Y-75730000D01*
X73315000Y-76944250D01*
X73473750Y-77103000D01*
X74323000Y-77103000D01*
X74323000Y-77083000D01*
X74577000Y-77083000D01*
X74577000Y-77103000D01*
X75426250Y-77103000D01*
X75585000Y-76944250D01*
X75588072Y-75730000D01*
X75575812Y-75605518D01*
X75539502Y-75485820D01*
X75480537Y-75375506D01*
X75401185Y-75278815D01*
X75304494Y-75199463D01*
X75194180Y-75140498D01*
X75093642Y-75110000D01*
X76346358Y-75110000D01*
X76245820Y-75140498D01*
X76135506Y-75199463D01*
X76038815Y-75278815D01*
X75959463Y-75375506D01*
X75900498Y-75485820D01*
X75864188Y-75605518D01*
X75851928Y-75730000D01*
X75851928Y-77323270D01*
X75710199Y-77465000D01*
X75648061Y-77465000D01*
X75553132Y-77483882D01*
X75426250Y-77357000D01*
X74577000Y-77357000D01*
X74577000Y-79206250D01*
X74735750Y-79365000D01*
X74950000Y-79368072D01*
X75074482Y-79355812D01*
X75138706Y-79336330D01*
X75259744Y-79417205D01*
X75448102Y-79495226D01*
X75648061Y-79535000D01*
X75851939Y-79535000D01*
X76051898Y-79495226D01*
X76240256Y-79417205D01*
X76342560Y-79348848D01*
X76365518Y-79355812D01*
X76490000Y-79368072D01*
X77490000Y-79368072D01*
X77614482Y-79355812D01*
X77651195Y-79344675D01*
X77759744Y-79417205D01*
X77948102Y-79495226D01*
X78148061Y-79535000D01*
X78351939Y-79535000D01*
X78551898Y-79495226D01*
X78740256Y-79417205D01*
X78855050Y-79340503D01*
X78905518Y-79355812D01*
X79030000Y-79368072D01*
X80030000Y-79368072D01*
X80154482Y-79355812D01*
X80163685Y-79353020D01*
X80259744Y-79417205D01*
X80448102Y-79495226D01*
X80648061Y-79535000D01*
X80851939Y-79535000D01*
X81051898Y-79495226D01*
X81240256Y-79417205D01*
X81367539Y-79332157D01*
X81445518Y-79355812D01*
X81570000Y-79368072D01*
X82570000Y-79368072D01*
X82694482Y-79355812D01*
X82814180Y-79319502D01*
X82924494Y-79260537D01*
X83021185Y-79181185D01*
X83100537Y-79084494D01*
X83159502Y-78974180D01*
X83195812Y-78854482D01*
X83208072Y-78730000D01*
X83471928Y-78730000D01*
X83484188Y-78854482D01*
X83520498Y-78974180D01*
X83579463Y-79084494D01*
X83658815Y-79181185D01*
X83755506Y-79260537D01*
X83865820Y-79319502D01*
X83985518Y-79355812D01*
X84110000Y-79368072D01*
X84324250Y-79365000D01*
X84483000Y-79206250D01*
X84483000Y-77357000D01*
X83633750Y-77357000D01*
X83475000Y-77515750D01*
X83471928Y-78730000D01*
X83208072Y-78730000D01*
X83208072Y-75730000D01*
X83195812Y-75605518D01*
X83159502Y-75485820D01*
X83100537Y-75375506D01*
X83021185Y-75278815D01*
X82924494Y-75199463D01*
X82814180Y-75140498D01*
X82713642Y-75110000D01*
X83966358Y-75110000D01*
X83865820Y-75140498D01*
X83755506Y-75199463D01*
X83658815Y-75278815D01*
X83579463Y-75375506D01*
X83520498Y-75485820D01*
X83484188Y-75605518D01*
X83471928Y-75730000D01*
X83475000Y-76944250D01*
X83633750Y-77103000D01*
X84483000Y-77103000D01*
X84483000Y-77083000D01*
X84737000Y-77083000D01*
X84737000Y-77103000D01*
X85586250Y-77103000D01*
X85745000Y-76944250D01*
X85748072Y-75730000D01*
X85735812Y-75605518D01*
X85699502Y-75485820D01*
X85640537Y-75375506D01*
X85561185Y-75278815D01*
X85464494Y-75199463D01*
X85354180Y-75140498D01*
X85253642Y-75110000D01*
X86506358Y-75110000D01*
X86405820Y-75140498D01*
X86295506Y-75199463D01*
X86198815Y-75278815D01*
X86119463Y-75375506D01*
X86060498Y-75485820D01*
X86024188Y-75605518D01*
X86011928Y-75730000D01*
X86011928Y-77413271D01*
X85960199Y-77465000D01*
X85898061Y-77465000D01*
X85728064Y-77498814D01*
X85586250Y-77357000D01*
X84737000Y-77357000D01*
X84737000Y-79206250D01*
X84895750Y-79365000D01*
X85110000Y-79368072D01*
X85234482Y-79355812D01*
X85354180Y-79319502D01*
X85359369Y-79316728D01*
X85509744Y-79417205D01*
X85698102Y-79495226D01*
X85898061Y-79535000D01*
X86101939Y-79535000D01*
X86301898Y-79495226D01*
X86490256Y-79417205D01*
X86574864Y-79360672D01*
X86650000Y-79368072D01*
X87650000Y-79368072D01*
X87774482Y-79355812D01*
X87873094Y-79325898D01*
X88009744Y-79417205D01*
X88198102Y-79495226D01*
X88398061Y-79535000D01*
X88601939Y-79535000D01*
X88801898Y-79495226D01*
X88990256Y-79417205D01*
X89080002Y-79357239D01*
X89190000Y-79368072D01*
X90190000Y-79368072D01*
X90314482Y-79355812D01*
X90434180Y-79319502D01*
X90544494Y-79260537D01*
X90641185Y-79181185D01*
X90720537Y-79084494D01*
X90779502Y-78974180D01*
X90815812Y-78854482D01*
X90828072Y-78730000D01*
X91091928Y-78730000D01*
X91104188Y-78854482D01*
X91140498Y-78974180D01*
X91199463Y-79084494D01*
X91278815Y-79181185D01*
X91375506Y-79260537D01*
X91485820Y-79319502D01*
X91605518Y-79355812D01*
X91730000Y-79368072D01*
X91944250Y-79365000D01*
X92103000Y-79206250D01*
X92103000Y-77357000D01*
X91253750Y-77357000D01*
X91095000Y-77515750D01*
X91091928Y-78730000D01*
X90828072Y-78730000D01*
X90828072Y-75730000D01*
X90815812Y-75605518D01*
X90779502Y-75485820D01*
X90720537Y-75375506D01*
X90641185Y-75278815D01*
X90544494Y-75199463D01*
X90434180Y-75140498D01*
X90333642Y-75110000D01*
X91586358Y-75110000D01*
X91485820Y-75140498D01*
X91375506Y-75199463D01*
X91278815Y-75278815D01*
X91199463Y-75375506D01*
X91140498Y-75485820D01*
X91104188Y-75605518D01*
X91091928Y-75730000D01*
X91095000Y-76944250D01*
X91253750Y-77103000D01*
X92103000Y-77103000D01*
X92103000Y-77083000D01*
X92357000Y-77083000D01*
X92357000Y-77103000D01*
X93206250Y-77103000D01*
X93365000Y-76944250D01*
X93368072Y-75730000D01*
X93355812Y-75605518D01*
X93319502Y-75485820D01*
X93260537Y-75375506D01*
X93181185Y-75278815D01*
X93084494Y-75199463D01*
X92974180Y-75140498D01*
X92873642Y-75110000D01*
X94126358Y-75110000D01*
X94025820Y-75140498D01*
X93915506Y-75199463D01*
X93818815Y-75278815D01*
X93739463Y-75375506D01*
X93680498Y-75485820D01*
X93644188Y-75605518D01*
X93631928Y-75730000D01*
X93631928Y-77293270D01*
X93460199Y-77465000D01*
X93398061Y-77465000D01*
X93328155Y-77478905D01*
X93206250Y-77357000D01*
X92357000Y-77357000D01*
X92357000Y-79206250D01*
X92515750Y-79365000D01*
X92730000Y-79368072D01*
X92854482Y-79355812D01*
X92898073Y-79342589D01*
X93009744Y-79417205D01*
X93198102Y-79495226D01*
X93398061Y-79535000D01*
X93601939Y-79535000D01*
X93801898Y-79495226D01*
X93990256Y-79417205D01*
X94101927Y-79342589D01*
X94145518Y-79355812D01*
X94270000Y-79368072D01*
X95270000Y-79368072D01*
X95394482Y-79355812D01*
X95410562Y-79350934D01*
X95509744Y-79417205D01*
X95698102Y-79495226D01*
X95898061Y-79535000D01*
X96101939Y-79535000D01*
X96301898Y-79495226D01*
X96490256Y-79417205D01*
X96614417Y-79334244D01*
X96685518Y-79355812D01*
X96810000Y-79368072D01*
X97810000Y-79368072D01*
X97919998Y-79357239D01*
X98009744Y-79417205D01*
X98198102Y-79495226D01*
X98398061Y-79535000D01*
X98601939Y-79535000D01*
X98801898Y-79495226D01*
X98990256Y-79417205D01*
X99126906Y-79325898D01*
X99225518Y-79355812D01*
X99350000Y-79368072D01*
X100350000Y-79368072D01*
X100425136Y-79360672D01*
X100509744Y-79417205D01*
X100698102Y-79495226D01*
X100898061Y-79535000D01*
X101101939Y-79535000D01*
X101301898Y-79495226D01*
X101490256Y-79417205D01*
X101640631Y-79316728D01*
X101645820Y-79319502D01*
X101765518Y-79355812D01*
X101890000Y-79368072D01*
X102890000Y-79368072D01*
X103014482Y-79355812D01*
X103134180Y-79319502D01*
X103244494Y-79260537D01*
X103341185Y-79181185D01*
X103420537Y-79084494D01*
X103479502Y-78974180D01*
X103515812Y-78854482D01*
X103528072Y-78730000D01*
X103791928Y-78730000D01*
X103804188Y-78854482D01*
X103840498Y-78974180D01*
X103899463Y-79084494D01*
X103978815Y-79181185D01*
X104075506Y-79260537D01*
X104185820Y-79319502D01*
X104305518Y-79355812D01*
X104430000Y-79368072D01*
X104644250Y-79365000D01*
X104803000Y-79206250D01*
X104803000Y-77357000D01*
X103953750Y-77357000D01*
X103795000Y-77515750D01*
X103791928Y-78730000D01*
X103528072Y-78730000D01*
X103528072Y-75730000D01*
X103515812Y-75605518D01*
X103479502Y-75485820D01*
X103420537Y-75375506D01*
X103341185Y-75278815D01*
X103244494Y-75199463D01*
X103134180Y-75140498D01*
X103033642Y-75110000D01*
X104286358Y-75110000D01*
X104185820Y-75140498D01*
X104075506Y-75199463D01*
X103978815Y-75278815D01*
X103899463Y-75375506D01*
X103840498Y-75485820D01*
X103804188Y-75605518D01*
X103791928Y-75730000D01*
X103795000Y-76944250D01*
X103953750Y-77103000D01*
X104803000Y-77103000D01*
X104803000Y-77083000D01*
X105057000Y-77083000D01*
X105057000Y-77103000D01*
X105906250Y-77103000D01*
X106065000Y-76944250D01*
X106068072Y-75730000D01*
X106055812Y-75605518D01*
X106019502Y-75485820D01*
X105960537Y-75375506D01*
X105881185Y-75278815D01*
X105784494Y-75199463D01*
X105674180Y-75140498D01*
X105573642Y-75110000D01*
X106826358Y-75110000D01*
X106725820Y-75140498D01*
X106615506Y-75199463D01*
X106518815Y-75278815D01*
X106439463Y-75375506D01*
X106380498Y-75485820D01*
X106344188Y-75605518D01*
X106331928Y-75730000D01*
X106331928Y-77343270D01*
X106210199Y-77465000D01*
X106148061Y-77465000D01*
X106036451Y-77487201D01*
X105906250Y-77357000D01*
X105057000Y-77357000D01*
X105057000Y-79206250D01*
X105215750Y-79365000D01*
X105430000Y-79368072D01*
X105554482Y-79355812D01*
X105632461Y-79332157D01*
X105759744Y-79417205D01*
X105948102Y-79495226D01*
X106148061Y-79535000D01*
X106351939Y-79535000D01*
X106551898Y-79495226D01*
X106740256Y-79417205D01*
X106836315Y-79353020D01*
X106845518Y-79355812D01*
X106970000Y-79368072D01*
X107970000Y-79368072D01*
X108094482Y-79355812D01*
X108214180Y-79319502D01*
X108324494Y-79260537D01*
X108421185Y-79181185D01*
X108500537Y-79084494D01*
X108559502Y-78974180D01*
X108595812Y-78854482D01*
X108608072Y-78730000D01*
X108871928Y-78730000D01*
X108884188Y-78854482D01*
X108920498Y-78974180D01*
X108979463Y-79084494D01*
X109058815Y-79181185D01*
X109155506Y-79260537D01*
X109265820Y-79319502D01*
X109385518Y-79355812D01*
X109510000Y-79368072D01*
X109724250Y-79365000D01*
X109883000Y-79206250D01*
X109883000Y-77357000D01*
X109033750Y-77357000D01*
X108875000Y-77515750D01*
X108871928Y-78730000D01*
X108608072Y-78730000D01*
X108608072Y-75730000D01*
X108595812Y-75605518D01*
X108559502Y-75485820D01*
X108500537Y-75375506D01*
X108421185Y-75278815D01*
X108324494Y-75199463D01*
X108214180Y-75140498D01*
X108113642Y-75110000D01*
X109366358Y-75110000D01*
X109265820Y-75140498D01*
X109155506Y-75199463D01*
X109058815Y-75278815D01*
X108979463Y-75375506D01*
X108920498Y-75485820D01*
X108884188Y-75605518D01*
X108871928Y-75730000D01*
X108875000Y-76944250D01*
X109033750Y-77103000D01*
X109883000Y-77103000D01*
X109883000Y-77083000D01*
X110137000Y-77083000D01*
X110137000Y-77103000D01*
X110986250Y-77103000D01*
X111145000Y-76944250D01*
X111148072Y-75730000D01*
X111135812Y-75605518D01*
X111099502Y-75485820D01*
X111040537Y-75375506D01*
X110961185Y-75278815D01*
X110864494Y-75199463D01*
X110754180Y-75140498D01*
X110653642Y-75110000D01*
X111906358Y-75110000D01*
X111805820Y-75140498D01*
X111695506Y-75199463D01*
X111598815Y-75278815D01*
X111519463Y-75375506D01*
X111460498Y-75485820D01*
X111424188Y-75605518D01*
X111411928Y-75730000D01*
X111411928Y-77263270D01*
X111210199Y-77465000D01*
X111148061Y-77465000D01*
X111103178Y-77473928D01*
X110986250Y-77357000D01*
X110137000Y-77357000D01*
X110137000Y-79206250D01*
X110295750Y-79365000D01*
X110510000Y-79368072D01*
X110634482Y-79355812D01*
X110657440Y-79348848D01*
X110759744Y-79417205D01*
X110948102Y-79495226D01*
X111148061Y-79535000D01*
X111351939Y-79535000D01*
X111551898Y-79495226D01*
X111740256Y-79417205D01*
X111861294Y-79336330D01*
X111925518Y-79355812D01*
X112050000Y-79368072D01*
X113050000Y-79368072D01*
X113168713Y-79356380D01*
X113259744Y-79417205D01*
X113448102Y-79495226D01*
X113648061Y-79535000D01*
X113851939Y-79535000D01*
X114051898Y-79495226D01*
X114240256Y-79417205D01*
X114373784Y-79327985D01*
X114465518Y-79355812D01*
X114590000Y-79368072D01*
X115590000Y-79368072D01*
X115673852Y-79359814D01*
X115759744Y-79417205D01*
X115948102Y-79495226D01*
X116148061Y-79535000D01*
X116351939Y-79535000D01*
X116551898Y-79495226D01*
X116740256Y-79417205D01*
X116886273Y-79319640D01*
X117005518Y-79355812D01*
X117130000Y-79368072D01*
X118130000Y-79368072D01*
X118254482Y-79355812D01*
X118374180Y-79319502D01*
X118484494Y-79260537D01*
X118581185Y-79181185D01*
X118660537Y-79084494D01*
X118719502Y-78974180D01*
X118755812Y-78854482D01*
X118768072Y-78730000D01*
X118768072Y-78243110D01*
X120708524Y-78243110D01*
X120829845Y-78473000D01*
X122173000Y-78473000D01*
X122173000Y-77272768D01*
X122427000Y-77272768D01*
X122427000Y-78473000D01*
X123770155Y-78473000D01*
X123891476Y-78243110D01*
X123889554Y-78230739D01*
X123789854Y-77956991D01*
X123638664Y-77707954D01*
X123441795Y-77493198D01*
X123206812Y-77320975D01*
X122942745Y-77197904D01*
X122659742Y-77128715D01*
X122427000Y-77272768D01*
X122173000Y-77272768D01*
X121940258Y-77128715D01*
X121657255Y-77197904D01*
X121393188Y-77320975D01*
X121158205Y-77493198D01*
X120961336Y-77707954D01*
X120810146Y-77956991D01*
X120710446Y-78230739D01*
X120708524Y-78243110D01*
X118768072Y-78243110D01*
X118768072Y-75730000D01*
X118755812Y-75605518D01*
X118719502Y-75485820D01*
X118660537Y-75375506D01*
X118581185Y-75278815D01*
X118484494Y-75199463D01*
X118374180Y-75140498D01*
X118273642Y-75110000D01*
X124865278Y-75110000D01*
X124916820Y-75115054D01*
X124932996Y-75119938D01*
X124947923Y-75127874D01*
X124961018Y-75138554D01*
X124971789Y-75151575D01*
X124979830Y-75166445D01*
X124984827Y-75182590D01*
X124990000Y-75231805D01*
X124990001Y-129365269D01*
X124984946Y-129416819D01*
X124980062Y-129432999D01*
X124972127Y-129447921D01*
X124961447Y-129461016D01*
X124948424Y-129471790D01*
X124933553Y-129479831D01*
X124917413Y-129484827D01*
X124868195Y-129490000D01*
X64034721Y-129490000D01*
X63983181Y-129484946D01*
X63967001Y-129480062D01*
X63952079Y-129472127D01*
X63938984Y-129461447D01*
X63928210Y-129448424D01*
X63920169Y-129433553D01*
X63915173Y-129417413D01*
X63910000Y-129368195D01*
X63910000Y-125661682D01*
X67565000Y-125661682D01*
X67565000Y-126338318D01*
X67697006Y-127001952D01*
X67955943Y-127627082D01*
X68331862Y-128189685D01*
X68810315Y-128668138D01*
X69372918Y-129044057D01*
X69998048Y-129302994D01*
X70661682Y-129435000D01*
X71338318Y-129435000D01*
X72001952Y-129302994D01*
X72627082Y-129044057D01*
X73189685Y-128668138D01*
X73668138Y-128189685D01*
X74044057Y-127627082D01*
X74302994Y-127001952D01*
X74435000Y-126338318D01*
X74435000Y-125661682D01*
X74302994Y-124998048D01*
X74044057Y-124372918D01*
X73668138Y-123810315D01*
X73189685Y-123331862D01*
X72627082Y-122955943D01*
X72001952Y-122697006D01*
X71338318Y-122565000D01*
X70661682Y-122565000D01*
X69998048Y-122697006D01*
X69372918Y-122955943D01*
X68810315Y-123331862D01*
X68331862Y-123810315D01*
X67955943Y-124372918D01*
X67697006Y-124998048D01*
X67565000Y-125661682D01*
X63910000Y-125661682D01*
X63910000Y-109149985D01*
X69697550Y-109149985D01*
X69697550Y-110850015D01*
X69864182Y-112541859D01*
X70195841Y-114209223D01*
X70689334Y-115836050D01*
X71339907Y-117406672D01*
X72141295Y-118905965D01*
X73085781Y-120319488D01*
X74164269Y-121633629D01*
X75366371Y-122835731D01*
X76680512Y-123914219D01*
X78094035Y-124858705D01*
X79593328Y-125660093D01*
X81163950Y-126310666D01*
X82790777Y-126804159D01*
X84458141Y-127135818D01*
X86149985Y-127302450D01*
X87850015Y-127302450D01*
X89541859Y-127135818D01*
X91209223Y-126804159D01*
X92836050Y-126310666D01*
X94402835Y-125661682D01*
X99565000Y-125661682D01*
X99565000Y-126338318D01*
X99697006Y-127001952D01*
X99955943Y-127627082D01*
X100331862Y-128189685D01*
X100810315Y-128668138D01*
X101372918Y-129044057D01*
X101998048Y-129302994D01*
X102661682Y-129435000D01*
X103338318Y-129435000D01*
X104001952Y-129302994D01*
X104627082Y-129044057D01*
X105189685Y-128668138D01*
X105668138Y-128189685D01*
X106044057Y-127627082D01*
X106302994Y-127001952D01*
X106435000Y-126338318D01*
X106435000Y-125661682D01*
X106302994Y-124998048D01*
X106044057Y-124372918D01*
X105668138Y-123810315D01*
X105189685Y-123331862D01*
X104627082Y-122955943D01*
X104001952Y-122697006D01*
X103338318Y-122565000D01*
X102661682Y-122565000D01*
X101998048Y-122697006D01*
X101372918Y-122955943D01*
X100810315Y-123331862D01*
X100331862Y-123810315D01*
X99955943Y-124372918D01*
X99697006Y-124998048D01*
X99565000Y-125661682D01*
X94402835Y-125661682D01*
X94406672Y-125660093D01*
X95905965Y-124858705D01*
X97319488Y-123914219D01*
X98633629Y-122835731D01*
X99835731Y-121633629D01*
X100914219Y-120319488D01*
X101858705Y-118905965D01*
X102660093Y-117406672D01*
X103310666Y-115836050D01*
X103804159Y-114209223D01*
X104135818Y-112541859D01*
X104302450Y-110850015D01*
X104302450Y-109149985D01*
X104135818Y-107458141D01*
X103804159Y-105790777D01*
X103310666Y-104163950D01*
X102660093Y-102593328D01*
X101858705Y-101094035D01*
X100914219Y-99680512D01*
X99835731Y-98366371D01*
X98633629Y-97164269D01*
X97319488Y-96085781D01*
X95905965Y-95141295D01*
X94406672Y-94339907D01*
X92836050Y-93689334D01*
X92744894Y-93661682D01*
X99565000Y-93661682D01*
X99565000Y-94338318D01*
X99697006Y-95001952D01*
X99955943Y-95627082D01*
X100331862Y-96189685D01*
X100810315Y-96668138D01*
X101372918Y-97044057D01*
X101998048Y-97302994D01*
X102661682Y-97435000D01*
X103338318Y-97435000D01*
X104001952Y-97302994D01*
X104627082Y-97044057D01*
X105189685Y-96668138D01*
X105668138Y-96189685D01*
X106044057Y-95627082D01*
X106302994Y-95001952D01*
X106435000Y-94338318D01*
X106435000Y-93661682D01*
X106302994Y-92998048D01*
X106044057Y-92372918D01*
X105668138Y-91810315D01*
X105189685Y-91331862D01*
X104767849Y-91050000D01*
X114011928Y-91050000D01*
X114011928Y-92750000D01*
X114024188Y-92874482D01*
X114060498Y-92994180D01*
X114119463Y-93104494D01*
X114198815Y-93201185D01*
X114295506Y-93280537D01*
X114405820Y-93339502D01*
X114478380Y-93361513D01*
X114346525Y-93493368D01*
X114184010Y-93736589D01*
X114072068Y-94006842D01*
X114015000Y-94293740D01*
X114015000Y-94586260D01*
X114072068Y-94873158D01*
X114184010Y-95143411D01*
X114346525Y-95386632D01*
X114553368Y-95593475D01*
X114727760Y-95710000D01*
X114553368Y-95826525D01*
X114346525Y-96033368D01*
X114184010Y-96276589D01*
X114072068Y-96546842D01*
X114015000Y-96833740D01*
X114015000Y-97126260D01*
X114072068Y-97413158D01*
X114184010Y-97683411D01*
X114346525Y-97926632D01*
X114553368Y-98133475D01*
X114727760Y-98250000D01*
X114553368Y-98366525D01*
X114346525Y-98573368D01*
X114184010Y-98816589D01*
X114072068Y-99086842D01*
X114015000Y-99373740D01*
X114015000Y-99666260D01*
X114072068Y-99953158D01*
X114184010Y-100223411D01*
X114346525Y-100466632D01*
X114553368Y-100673475D01*
X114727760Y-100790000D01*
X114553368Y-100906525D01*
X114346525Y-101113368D01*
X114184010Y-101356589D01*
X114072068Y-101626842D01*
X114015000Y-101913740D01*
X114015000Y-102206260D01*
X114072068Y-102493158D01*
X114184010Y-102763411D01*
X114346525Y-103006632D01*
X114553368Y-103213475D01*
X114727760Y-103330000D01*
X114553368Y-103446525D01*
X114346525Y-103653368D01*
X114184010Y-103896589D01*
X114072068Y-104166842D01*
X114015000Y-104453740D01*
X114015000Y-104746260D01*
X114072068Y-105033158D01*
X114184010Y-105303411D01*
X114346525Y-105546632D01*
X114553368Y-105753475D01*
X114727760Y-105870000D01*
X114553368Y-105986525D01*
X114346525Y-106193368D01*
X114184010Y-106436589D01*
X114072068Y-106706842D01*
X114015000Y-106993740D01*
X114015000Y-107286260D01*
X114072068Y-107573158D01*
X114184010Y-107843411D01*
X114346525Y-108086632D01*
X114553368Y-108293475D01*
X114727760Y-108410000D01*
X114553368Y-108526525D01*
X114346525Y-108733368D01*
X114184010Y-108976589D01*
X114072068Y-109246842D01*
X114015000Y-109533740D01*
X114015000Y-109826260D01*
X114072068Y-110113158D01*
X114184010Y-110383411D01*
X114346525Y-110626632D01*
X114553368Y-110833475D01*
X114727760Y-110950000D01*
X114553368Y-111066525D01*
X114346525Y-111273368D01*
X114184010Y-111516589D01*
X114072068Y-111786842D01*
X114015000Y-112073740D01*
X114015000Y-112366260D01*
X114072068Y-112653158D01*
X114184010Y-112923411D01*
X114346525Y-113166632D01*
X114553368Y-113373475D01*
X114727760Y-113490000D01*
X114553368Y-113606525D01*
X114346525Y-113813368D01*
X114184010Y-114056589D01*
X114072068Y-114326842D01*
X114015000Y-114613740D01*
X114015000Y-114906260D01*
X114072068Y-115193158D01*
X114184010Y-115463411D01*
X114346525Y-115706632D01*
X114553368Y-115913475D01*
X114727760Y-116030000D01*
X114553368Y-116146525D01*
X114346525Y-116353368D01*
X114184010Y-116596589D01*
X114072068Y-116866842D01*
X114015000Y-117153740D01*
X114015000Y-117446260D01*
X114072068Y-117733158D01*
X114184010Y-118003411D01*
X114346525Y-118246632D01*
X114553368Y-118453475D01*
X114727760Y-118570000D01*
X114553368Y-118686525D01*
X114346525Y-118893368D01*
X114184010Y-119136589D01*
X114072068Y-119406842D01*
X114015000Y-119693740D01*
X114015000Y-119986260D01*
X114072068Y-120273158D01*
X114184010Y-120543411D01*
X114346525Y-120786632D01*
X114553368Y-120993475D01*
X114727760Y-121110000D01*
X114553368Y-121226525D01*
X114346525Y-121433368D01*
X114184010Y-121676589D01*
X114072068Y-121946842D01*
X114015000Y-122233740D01*
X114015000Y-122526260D01*
X114072068Y-122813158D01*
X114184010Y-123083411D01*
X114346525Y-123326632D01*
X114553368Y-123533475D01*
X114727760Y-123650000D01*
X114553368Y-123766525D01*
X114346525Y-123973368D01*
X114184010Y-124216589D01*
X114072068Y-124486842D01*
X114015000Y-124773740D01*
X114015000Y-125066260D01*
X114072068Y-125353158D01*
X114184010Y-125623411D01*
X114346525Y-125866632D01*
X114553368Y-126073475D01*
X114727760Y-126190000D01*
X114553368Y-126306525D01*
X114346525Y-126513368D01*
X114184010Y-126756589D01*
X114072068Y-127026842D01*
X114015000Y-127313740D01*
X114015000Y-127606260D01*
X114072068Y-127893158D01*
X114184010Y-128163411D01*
X114346525Y-128406632D01*
X114553368Y-128613475D01*
X114796589Y-128775990D01*
X115066842Y-128887932D01*
X115353740Y-128945000D01*
X115646260Y-128945000D01*
X115933158Y-128887932D01*
X116203411Y-128775990D01*
X116446632Y-128613475D01*
X116653475Y-128406632D01*
X116815990Y-128163411D01*
X116927932Y-127893158D01*
X116985000Y-127606260D01*
X116985000Y-127313740D01*
X116927932Y-127026842D01*
X116815990Y-126756589D01*
X116653475Y-126513368D01*
X116446632Y-126306525D01*
X116272240Y-126190000D01*
X116446632Y-126073475D01*
X116653475Y-125866632D01*
X116815990Y-125623411D01*
X116927932Y-125353158D01*
X116985000Y-125066260D01*
X116985000Y-124773740D01*
X116927932Y-124486842D01*
X116815990Y-124216589D01*
X116653475Y-123973368D01*
X116446632Y-123766525D01*
X116272240Y-123650000D01*
X116446632Y-123533475D01*
X116653475Y-123326632D01*
X116815990Y-123083411D01*
X116927932Y-122813158D01*
X116985000Y-122526260D01*
X116985000Y-122233740D01*
X116927932Y-121946842D01*
X116815990Y-121676589D01*
X116653475Y-121433368D01*
X116446632Y-121226525D01*
X116272240Y-121110000D01*
X116446632Y-120993475D01*
X116653475Y-120786632D01*
X116815990Y-120543411D01*
X116927932Y-120273158D01*
X116985000Y-119986260D01*
X116985000Y-119693740D01*
X116927932Y-119406842D01*
X116815990Y-119136589D01*
X116653475Y-118893368D01*
X116446632Y-118686525D01*
X116272240Y-118570000D01*
X116446632Y-118453475D01*
X116653475Y-118246632D01*
X116815990Y-118003411D01*
X116927932Y-117733158D01*
X116985000Y-117446260D01*
X116985000Y-117153740D01*
X116927932Y-116866842D01*
X116815990Y-116596589D01*
X116653475Y-116353368D01*
X116446632Y-116146525D01*
X116272240Y-116030000D01*
X116446632Y-115913475D01*
X116653475Y-115706632D01*
X116815990Y-115463411D01*
X116927932Y-115193158D01*
X116985000Y-114906260D01*
X116985000Y-114613740D01*
X116927932Y-114326842D01*
X116815990Y-114056589D01*
X116653475Y-113813368D01*
X116446632Y-113606525D01*
X116272240Y-113490000D01*
X116446632Y-113373475D01*
X116653475Y-113166632D01*
X116815990Y-112923411D01*
X116927932Y-112653158D01*
X116985000Y-112366260D01*
X116985000Y-112073740D01*
X116927932Y-111786842D01*
X116815990Y-111516589D01*
X116653475Y-111273368D01*
X116446632Y-111066525D01*
X116272240Y-110950000D01*
X116446632Y-110833475D01*
X116653475Y-110626632D01*
X116815990Y-110383411D01*
X116927932Y-110113158D01*
X116985000Y-109826260D01*
X116985000Y-109533740D01*
X116927932Y-109246842D01*
X116815990Y-108976589D01*
X116653475Y-108733368D01*
X116446632Y-108526525D01*
X116272240Y-108410000D01*
X116446632Y-108293475D01*
X116653475Y-108086632D01*
X116815990Y-107843411D01*
X116927932Y-107573158D01*
X116985000Y-107286260D01*
X116985000Y-106993740D01*
X116927932Y-106706842D01*
X116815990Y-106436589D01*
X116653475Y-106193368D01*
X116446632Y-105986525D01*
X116272240Y-105870000D01*
X116446632Y-105753475D01*
X116653475Y-105546632D01*
X116815990Y-105303411D01*
X116927932Y-105033158D01*
X116985000Y-104746260D01*
X116985000Y-104453740D01*
X116927932Y-104166842D01*
X116815990Y-103896589D01*
X116653475Y-103653368D01*
X116446632Y-103446525D01*
X116272240Y-103330000D01*
X116446632Y-103213475D01*
X116653475Y-103006632D01*
X116815990Y-102763411D01*
X116927932Y-102493158D01*
X116985000Y-102206260D01*
X116985000Y-101913740D01*
X116927932Y-101626842D01*
X116815990Y-101356589D01*
X116653475Y-101113368D01*
X116446632Y-100906525D01*
X116272240Y-100790000D01*
X116446632Y-100673475D01*
X116653475Y-100466632D01*
X116815990Y-100223411D01*
X116927932Y-99953158D01*
X116985000Y-99666260D01*
X116985000Y-99373740D01*
X116927932Y-99086842D01*
X116815990Y-98816589D01*
X116653475Y-98573368D01*
X116446632Y-98366525D01*
X116272240Y-98250000D01*
X116446632Y-98133475D01*
X116653475Y-97926632D01*
X116815990Y-97683411D01*
X116927932Y-97413158D01*
X116985000Y-97126260D01*
X116985000Y-96833740D01*
X116927932Y-96546842D01*
X116815990Y-96276589D01*
X116653475Y-96033368D01*
X116446632Y-95826525D01*
X116272240Y-95710000D01*
X116446632Y-95593475D01*
X116653475Y-95386632D01*
X116815990Y-95143411D01*
X116927932Y-94873158D01*
X116985000Y-94586260D01*
X116985000Y-94293740D01*
X116927932Y-94006842D01*
X116815990Y-93736589D01*
X116653475Y-93493368D01*
X116521620Y-93361513D01*
X116594180Y-93339502D01*
X116704494Y-93280537D01*
X116801185Y-93201185D01*
X116880537Y-93104494D01*
X116939502Y-92994180D01*
X116975812Y-92874482D01*
X116988072Y-92750000D01*
X116988072Y-91050000D01*
X120011928Y-91050000D01*
X120011928Y-92750000D01*
X120024188Y-92874482D01*
X120060498Y-92994180D01*
X120119463Y-93104494D01*
X120198815Y-93201185D01*
X120295506Y-93280537D01*
X120405820Y-93339502D01*
X120478380Y-93361513D01*
X120346525Y-93493368D01*
X120184010Y-93736589D01*
X120072068Y-94006842D01*
X120015000Y-94293740D01*
X120015000Y-94586260D01*
X120072068Y-94873158D01*
X120184010Y-95143411D01*
X120346525Y-95386632D01*
X120553368Y-95593475D01*
X120727760Y-95710000D01*
X120553368Y-95826525D01*
X120346525Y-96033368D01*
X120184010Y-96276589D01*
X120072068Y-96546842D01*
X120015000Y-96833740D01*
X120015000Y-97126260D01*
X120072068Y-97413158D01*
X120184010Y-97683411D01*
X120346525Y-97926632D01*
X120553368Y-98133475D01*
X120727760Y-98250000D01*
X120553368Y-98366525D01*
X120346525Y-98573368D01*
X120184010Y-98816589D01*
X120072068Y-99086842D01*
X120015000Y-99373740D01*
X120015000Y-99666260D01*
X120072068Y-99953158D01*
X120184010Y-100223411D01*
X120346525Y-100466632D01*
X120553368Y-100673475D01*
X120727760Y-100790000D01*
X120553368Y-100906525D01*
X120346525Y-101113368D01*
X120184010Y-101356589D01*
X120072068Y-101626842D01*
X120015000Y-101913740D01*
X120015000Y-102206260D01*
X120072068Y-102493158D01*
X120184010Y-102763411D01*
X120346525Y-103006632D01*
X120553368Y-103213475D01*
X120727760Y-103330000D01*
X120553368Y-103446525D01*
X120346525Y-103653368D01*
X120184010Y-103896589D01*
X120072068Y-104166842D01*
X120015000Y-104453740D01*
X120015000Y-104746260D01*
X120072068Y-105033158D01*
X120184010Y-105303411D01*
X120346525Y-105546632D01*
X120553368Y-105753475D01*
X120727760Y-105870000D01*
X120553368Y-105986525D01*
X120346525Y-106193368D01*
X120184010Y-106436589D01*
X120072068Y-106706842D01*
X120015000Y-106993740D01*
X120015000Y-107286260D01*
X120072068Y-107573158D01*
X120184010Y-107843411D01*
X120346525Y-108086632D01*
X120553368Y-108293475D01*
X120727760Y-108410000D01*
X120553368Y-108526525D01*
X120346525Y-108733368D01*
X120184010Y-108976589D01*
X120072068Y-109246842D01*
X120015000Y-109533740D01*
X120015000Y-109826260D01*
X120072068Y-110113158D01*
X120184010Y-110383411D01*
X120346525Y-110626632D01*
X120553368Y-110833475D01*
X120727760Y-110950000D01*
X120553368Y-111066525D01*
X120346525Y-111273368D01*
X120184010Y-111516589D01*
X120072068Y-111786842D01*
X120015000Y-112073740D01*
X120015000Y-112366260D01*
X120072068Y-112653158D01*
X120184010Y-112923411D01*
X120346525Y-113166632D01*
X120553368Y-113373475D01*
X120727760Y-113490000D01*
X120553368Y-113606525D01*
X120346525Y-113813368D01*
X120184010Y-114056589D01*
X120072068Y-114326842D01*
X120015000Y-114613740D01*
X120015000Y-114906260D01*
X120072068Y-115193158D01*
X120184010Y-115463411D01*
X120346525Y-115706632D01*
X120553368Y-115913475D01*
X120727760Y-116030000D01*
X120553368Y-116146525D01*
X120346525Y-116353368D01*
X120184010Y-116596589D01*
X120072068Y-116866842D01*
X120015000Y-117153740D01*
X120015000Y-117446260D01*
X120072068Y-117733158D01*
X120184010Y-118003411D01*
X120346525Y-118246632D01*
X120553368Y-118453475D01*
X120727760Y-118570000D01*
X120553368Y-118686525D01*
X120346525Y-118893368D01*
X120184010Y-119136589D01*
X120072068Y-119406842D01*
X120015000Y-119693740D01*
X120015000Y-119986260D01*
X120072068Y-120273158D01*
X120184010Y-120543411D01*
X120346525Y-120786632D01*
X120553368Y-120993475D01*
X120727760Y-121110000D01*
X120553368Y-121226525D01*
X120346525Y-121433368D01*
X120184010Y-121676589D01*
X120072068Y-121946842D01*
X120015000Y-122233740D01*
X120015000Y-122526260D01*
X120072068Y-122813158D01*
X120184010Y-123083411D01*
X120346525Y-123326632D01*
X120553368Y-123533475D01*
X120727760Y-123650000D01*
X120553368Y-123766525D01*
X120346525Y-123973368D01*
X120184010Y-124216589D01*
X120072068Y-124486842D01*
X120015000Y-124773740D01*
X120015000Y-125066260D01*
X120072068Y-125353158D01*
X120184010Y-125623411D01*
X120346525Y-125866632D01*
X120553368Y-126073475D01*
X120727760Y-126190000D01*
X120553368Y-126306525D01*
X120346525Y-126513368D01*
X120184010Y-126756589D01*
X120072068Y-127026842D01*
X120015000Y-127313740D01*
X120015000Y-127606260D01*
X120072068Y-127893158D01*
X120184010Y-128163411D01*
X120346525Y-128406632D01*
X120553368Y-128613475D01*
X120796589Y-128775990D01*
X121066842Y-128887932D01*
X121353740Y-128945000D01*
X121646260Y-128945000D01*
X121933158Y-128887932D01*
X122203411Y-128775990D01*
X122446632Y-128613475D01*
X122653475Y-128406632D01*
X122815990Y-128163411D01*
X122927932Y-127893158D01*
X122985000Y-127606260D01*
X122985000Y-127313740D01*
X122927932Y-127026842D01*
X122815990Y-126756589D01*
X122653475Y-126513368D01*
X122446632Y-126306525D01*
X122272240Y-126190000D01*
X122446632Y-126073475D01*
X122653475Y-125866632D01*
X122815990Y-125623411D01*
X122927932Y-125353158D01*
X122985000Y-125066260D01*
X122985000Y-124773740D01*
X122927932Y-124486842D01*
X122815990Y-124216589D01*
X122653475Y-123973368D01*
X122446632Y-123766525D01*
X122272240Y-123650000D01*
X122446632Y-123533475D01*
X122653475Y-123326632D01*
X122815990Y-123083411D01*
X122927932Y-122813158D01*
X122985000Y-122526260D01*
X122985000Y-122233740D01*
X122927932Y-121946842D01*
X122815990Y-121676589D01*
X122653475Y-121433368D01*
X122446632Y-121226525D01*
X122272240Y-121110000D01*
X122446632Y-120993475D01*
X122653475Y-120786632D01*
X122815990Y-120543411D01*
X122927932Y-120273158D01*
X122985000Y-119986260D01*
X122985000Y-119693740D01*
X122927932Y-119406842D01*
X122815990Y-119136589D01*
X122653475Y-118893368D01*
X122446632Y-118686525D01*
X122272240Y-118570000D01*
X122446632Y-118453475D01*
X122653475Y-118246632D01*
X122815990Y-118003411D01*
X122927932Y-117733158D01*
X122985000Y-117446260D01*
X122985000Y-117153740D01*
X122927932Y-116866842D01*
X122815990Y-116596589D01*
X122653475Y-116353368D01*
X122446632Y-116146525D01*
X122272240Y-116030000D01*
X122446632Y-115913475D01*
X122653475Y-115706632D01*
X122815990Y-115463411D01*
X122927932Y-115193158D01*
X122985000Y-114906260D01*
X122985000Y-114613740D01*
X122927932Y-114326842D01*
X122815990Y-114056589D01*
X122653475Y-113813368D01*
X122446632Y-113606525D01*
X122272240Y-113490000D01*
X122446632Y-113373475D01*
X122653475Y-113166632D01*
X122815990Y-112923411D01*
X122927932Y-112653158D01*
X122985000Y-112366260D01*
X122985000Y-112073740D01*
X122927932Y-111786842D01*
X122815990Y-111516589D01*
X122653475Y-111273368D01*
X122446632Y-111066525D01*
X122272240Y-110950000D01*
X122446632Y-110833475D01*
X122653475Y-110626632D01*
X122815990Y-110383411D01*
X122927932Y-110113158D01*
X122985000Y-109826260D01*
X122985000Y-109533740D01*
X122927932Y-109246842D01*
X122815990Y-108976589D01*
X122653475Y-108733368D01*
X122446632Y-108526525D01*
X122272240Y-108410000D01*
X122446632Y-108293475D01*
X122653475Y-108086632D01*
X122815990Y-107843411D01*
X122927932Y-107573158D01*
X122985000Y-107286260D01*
X122985000Y-106993740D01*
X122927932Y-106706842D01*
X122815990Y-106436589D01*
X122653475Y-106193368D01*
X122446632Y-105986525D01*
X122272240Y-105870000D01*
X122446632Y-105753475D01*
X122653475Y-105546632D01*
X122815990Y-105303411D01*
X122927932Y-105033158D01*
X122985000Y-104746260D01*
X122985000Y-104453740D01*
X122927932Y-104166842D01*
X122815990Y-103896589D01*
X122653475Y-103653368D01*
X122446632Y-103446525D01*
X122272240Y-103330000D01*
X122446632Y-103213475D01*
X122653475Y-103006632D01*
X122815990Y-102763411D01*
X122927932Y-102493158D01*
X122985000Y-102206260D01*
X122985000Y-101913740D01*
X122927932Y-101626842D01*
X122815990Y-101356589D01*
X122653475Y-101113368D01*
X122446632Y-100906525D01*
X122272240Y-100790000D01*
X122446632Y-100673475D01*
X122653475Y-100466632D01*
X122815990Y-100223411D01*
X122927932Y-99953158D01*
X122985000Y-99666260D01*
X122985000Y-99373740D01*
X122927932Y-99086842D01*
X122815990Y-98816589D01*
X122653475Y-98573368D01*
X122446632Y-98366525D01*
X122272240Y-98250000D01*
X122446632Y-98133475D01*
X122653475Y-97926632D01*
X122815990Y-97683411D01*
X122927932Y-97413158D01*
X122985000Y-97126260D01*
X122985000Y-96833740D01*
X122927932Y-96546842D01*
X122815990Y-96276589D01*
X122653475Y-96033368D01*
X122446632Y-95826525D01*
X122272240Y-95710000D01*
X122446632Y-95593475D01*
X122653475Y-95386632D01*
X122815990Y-95143411D01*
X122927932Y-94873158D01*
X122985000Y-94586260D01*
X122985000Y-94293740D01*
X122927932Y-94006842D01*
X122815990Y-93736589D01*
X122653475Y-93493368D01*
X122521620Y-93361513D01*
X122594180Y-93339502D01*
X122704494Y-93280537D01*
X122801185Y-93201185D01*
X122880537Y-93104494D01*
X122939502Y-92994180D01*
X122975812Y-92874482D01*
X122988072Y-92750000D01*
X122988072Y-91050000D01*
X122975812Y-90925518D01*
X122939502Y-90805820D01*
X122880537Y-90695506D01*
X122801185Y-90598815D01*
X122704494Y-90519463D01*
X122594180Y-90460498D01*
X122474482Y-90424188D01*
X122350000Y-90411928D01*
X120650000Y-90411928D01*
X120525518Y-90424188D01*
X120405820Y-90460498D01*
X120295506Y-90519463D01*
X120198815Y-90598815D01*
X120119463Y-90695506D01*
X120060498Y-90805820D01*
X120024188Y-90925518D01*
X120011928Y-91050000D01*
X116988072Y-91050000D01*
X116975812Y-90925518D01*
X116939502Y-90805820D01*
X116880537Y-90695506D01*
X116801185Y-90598815D01*
X116704494Y-90519463D01*
X116594180Y-90460498D01*
X116474482Y-90424188D01*
X116350000Y-90411928D01*
X114650000Y-90411928D01*
X114525518Y-90424188D01*
X114405820Y-90460498D01*
X114295506Y-90519463D01*
X114198815Y-90598815D01*
X114119463Y-90695506D01*
X114060498Y-90805820D01*
X114024188Y-90925518D01*
X114011928Y-91050000D01*
X104767849Y-91050000D01*
X104627082Y-90955943D01*
X104001952Y-90697006D01*
X103338318Y-90565000D01*
X102661682Y-90565000D01*
X101998048Y-90697006D01*
X101372918Y-90955943D01*
X100810315Y-91331862D01*
X100331862Y-91810315D01*
X99955943Y-92372918D01*
X99697006Y-92998048D01*
X99565000Y-93661682D01*
X92744894Y-93661682D01*
X91209223Y-93195841D01*
X89541859Y-92864182D01*
X87850015Y-92697550D01*
X86149985Y-92697550D01*
X84458141Y-92864182D01*
X82790777Y-93195841D01*
X81163950Y-93689334D01*
X79593328Y-94339907D01*
X78094035Y-95141295D01*
X76680512Y-96085781D01*
X75366371Y-97164269D01*
X74164269Y-98366371D01*
X73085781Y-99680512D01*
X72141295Y-101094035D01*
X71339907Y-102593328D01*
X70689334Y-104163950D01*
X70195841Y-105790777D01*
X69864182Y-107458141D01*
X69697550Y-109149985D01*
X63910000Y-109149985D01*
X63910000Y-93511682D01*
X67665000Y-93511682D01*
X67665000Y-94188318D01*
X67797006Y-94851952D01*
X68055943Y-95477082D01*
X68431862Y-96039685D01*
X68910315Y-96518138D01*
X69472918Y-96894057D01*
X70098048Y-97152994D01*
X70761682Y-97285000D01*
X71438318Y-97285000D01*
X72101952Y-97152994D01*
X72727082Y-96894057D01*
X73289685Y-96518138D01*
X73768138Y-96039685D01*
X74144057Y-95477082D01*
X74402994Y-94851952D01*
X74535000Y-94188318D01*
X74535000Y-93511682D01*
X74402994Y-92848048D01*
X74144057Y-92222918D01*
X73768138Y-91660315D01*
X73289685Y-91181862D01*
X72727082Y-90805943D01*
X72101952Y-90547006D01*
X71438318Y-90415000D01*
X70761682Y-90415000D01*
X70098048Y-90547006D01*
X69472918Y-90805943D01*
X68910315Y-91181862D01*
X68431862Y-91660315D01*
X68055943Y-92222918D01*
X67797006Y-92848048D01*
X67665000Y-93511682D01*
X63910000Y-93511682D01*
X63910000Y-88542538D01*
X63910498Y-88544180D01*
X63969463Y-88654494D01*
X64048815Y-88751185D01*
X64145506Y-88830537D01*
X64255820Y-88889502D01*
X64375518Y-88925812D01*
X64500000Y-88938072D01*
X66100000Y-88938072D01*
X66224482Y-88925812D01*
X66344180Y-88889502D01*
X66454494Y-88830537D01*
X66551185Y-88751185D01*
X66630537Y-88654494D01*
X66689502Y-88544180D01*
X66725812Y-88424482D01*
X66738072Y-88300000D01*
X66738072Y-87358665D01*
X71485000Y-87358665D01*
X71485000Y-87641335D01*
X71540147Y-87918574D01*
X71648320Y-88179727D01*
X71805363Y-88414759D01*
X72005241Y-88614637D01*
X72240273Y-88771680D01*
X72501426Y-88879853D01*
X72778665Y-88935000D01*
X73061335Y-88935000D01*
X73338574Y-88879853D01*
X73599727Y-88771680D01*
X73834759Y-88614637D01*
X74034637Y-88414759D01*
X74191680Y-88179727D01*
X74299853Y-87918574D01*
X74355000Y-87641335D01*
X74355000Y-87553740D01*
X75015000Y-87553740D01*
X75015000Y-87846260D01*
X75072068Y-88133158D01*
X75184010Y-88403411D01*
X75346525Y-88646632D01*
X75553368Y-88853475D01*
X75796589Y-89015990D01*
X76066842Y-89127932D01*
X76353740Y-89185000D01*
X76646260Y-89185000D01*
X76933158Y-89127932D01*
X77203411Y-89015990D01*
X77446632Y-88853475D01*
X77615107Y-88685000D01*
X77924893Y-88685000D01*
X78093368Y-88853475D01*
X78336589Y-89015990D01*
X78606842Y-89127932D01*
X78893740Y-89185000D01*
X79186260Y-89185000D01*
X79473158Y-89127932D01*
X79743411Y-89015990D01*
X79986632Y-88853475D01*
X80155107Y-88685000D01*
X80464893Y-88685000D01*
X80633368Y-88853475D01*
X80876589Y-89015990D01*
X81146842Y-89127932D01*
X81433740Y-89185000D01*
X81726260Y-89185000D01*
X82013158Y-89127932D01*
X82283411Y-89015990D01*
X82526632Y-88853475D01*
X82695107Y-88685000D01*
X83004893Y-88685000D01*
X83173368Y-88853475D01*
X83416589Y-89015990D01*
X83686842Y-89127932D01*
X83973740Y-89185000D01*
X84266260Y-89185000D01*
X84553158Y-89127932D01*
X84823411Y-89015990D01*
X85066632Y-88853475D01*
X85235107Y-88685000D01*
X85544893Y-88685000D01*
X85713368Y-88853475D01*
X85956589Y-89015990D01*
X86226842Y-89127932D01*
X86513740Y-89185000D01*
X86806260Y-89185000D01*
X87093158Y-89127932D01*
X87363411Y-89015990D01*
X87606632Y-88853475D01*
X87738487Y-88721620D01*
X87760498Y-88794180D01*
X87819463Y-88904494D01*
X87898815Y-89001185D01*
X87995506Y-89080537D01*
X88105820Y-89139502D01*
X88225518Y-89175812D01*
X88350000Y-89188072D01*
X90050000Y-89188072D01*
X90174482Y-89175812D01*
X90294180Y-89139502D01*
X90404494Y-89080537D01*
X90501185Y-89001185D01*
X90580537Y-88904494D01*
X90639502Y-88794180D01*
X90675812Y-88674482D01*
X90688072Y-88550000D01*
X90688072Y-88056891D01*
X91958519Y-88056891D01*
X92055843Y-88331252D01*
X92204822Y-88581355D01*
X92399731Y-88797588D01*
X92633080Y-88971641D01*
X92895901Y-89096825D01*
X93043110Y-89141476D01*
X93273000Y-89020155D01*
X93273000Y-87827000D01*
X93527000Y-87827000D01*
X93527000Y-89020155D01*
X93756890Y-89141476D01*
X93904099Y-89096825D01*
X94166920Y-88971641D01*
X94400269Y-88797588D01*
X94595178Y-88581355D01*
X94670000Y-88455745D01*
X94744822Y-88581355D01*
X94939731Y-88797588D01*
X95173080Y-88971641D01*
X95435901Y-89096825D01*
X95583110Y-89141476D01*
X95813000Y-89020155D01*
X95813000Y-87827000D01*
X96067000Y-87827000D01*
X96067000Y-89020155D01*
X96296890Y-89141476D01*
X96444099Y-89096825D01*
X96706920Y-88971641D01*
X96940269Y-88797588D01*
X97135178Y-88581355D01*
X97210000Y-88455745D01*
X97284822Y-88581355D01*
X97479731Y-88797588D01*
X97713080Y-88971641D01*
X97975901Y-89096825D01*
X98123110Y-89141476D01*
X98353000Y-89020155D01*
X98353000Y-87827000D01*
X98607000Y-87827000D01*
X98607000Y-89020155D01*
X98836890Y-89141476D01*
X98984099Y-89096825D01*
X99246920Y-88971641D01*
X99480269Y-88797588D01*
X99675178Y-88581355D01*
X99750000Y-88455745D01*
X99824822Y-88581355D01*
X100019731Y-88797588D01*
X100253080Y-88971641D01*
X100515901Y-89096825D01*
X100663110Y-89141476D01*
X100893000Y-89020155D01*
X100893000Y-87827000D01*
X101147000Y-87827000D01*
X101147000Y-89020155D01*
X101376890Y-89141476D01*
X101524099Y-89096825D01*
X101786920Y-88971641D01*
X102020269Y-88797588D01*
X102215178Y-88581355D01*
X102290000Y-88455745D01*
X102364822Y-88581355D01*
X102559731Y-88797588D01*
X102793080Y-88971641D01*
X103055901Y-89096825D01*
X103203110Y-89141476D01*
X103433000Y-89020155D01*
X103433000Y-87827000D01*
X103687000Y-87827000D01*
X103687000Y-89020155D01*
X103916890Y-89141476D01*
X104064099Y-89096825D01*
X104326920Y-88971641D01*
X104560269Y-88797588D01*
X104636034Y-88713534D01*
X104660498Y-88794180D01*
X104719463Y-88904494D01*
X104798815Y-89001185D01*
X104895506Y-89080537D01*
X105005820Y-89139502D01*
X105125518Y-89175812D01*
X105250000Y-89188072D01*
X105814250Y-89185000D01*
X105973000Y-89026250D01*
X105973000Y-87827000D01*
X106227000Y-87827000D01*
X106227000Y-89026250D01*
X106385750Y-89185000D01*
X106950000Y-89188072D01*
X107074482Y-89175812D01*
X107194180Y-89139502D01*
X107304494Y-89080537D01*
X107401185Y-89001185D01*
X107480537Y-88904494D01*
X107539502Y-88794180D01*
X107575812Y-88674482D01*
X107588072Y-88550000D01*
X107585000Y-87985750D01*
X107426250Y-87827000D01*
X106227000Y-87827000D01*
X105973000Y-87827000D01*
X103687000Y-87827000D01*
X103433000Y-87827000D01*
X101147000Y-87827000D01*
X100893000Y-87827000D01*
X98607000Y-87827000D01*
X98353000Y-87827000D01*
X96067000Y-87827000D01*
X95813000Y-87827000D01*
X93527000Y-87827000D01*
X93273000Y-87827000D01*
X92079186Y-87827000D01*
X91958519Y-88056891D01*
X90688072Y-88056891D01*
X90688072Y-87343109D01*
X91958519Y-87343109D01*
X92079186Y-87573000D01*
X93273000Y-87573000D01*
X93273000Y-86379845D01*
X93527000Y-86379845D01*
X93527000Y-87573000D01*
X95813000Y-87573000D01*
X95813000Y-86379845D01*
X96067000Y-86379845D01*
X96067000Y-87573000D01*
X98353000Y-87573000D01*
X98353000Y-86379845D01*
X98607000Y-86379845D01*
X98607000Y-87573000D01*
X100893000Y-87573000D01*
X100893000Y-86379845D01*
X101147000Y-86379845D01*
X101147000Y-87573000D01*
X103433000Y-87573000D01*
X103433000Y-86379845D01*
X103687000Y-86379845D01*
X103687000Y-87573000D01*
X105973000Y-87573000D01*
X105973000Y-86373750D01*
X106227000Y-86373750D01*
X106227000Y-87573000D01*
X107426250Y-87573000D01*
X107445510Y-87553740D01*
X108715000Y-87553740D01*
X108715000Y-87846260D01*
X108772068Y-88133158D01*
X108884010Y-88403411D01*
X109046525Y-88646632D01*
X109253368Y-88853475D01*
X109496589Y-89015990D01*
X109766842Y-89127932D01*
X110053740Y-89185000D01*
X110346260Y-89185000D01*
X110633158Y-89127932D01*
X110903411Y-89015990D01*
X111146632Y-88853475D01*
X111315107Y-88685000D01*
X111624893Y-88685000D01*
X111793368Y-88853475D01*
X112036589Y-89015990D01*
X112306842Y-89127932D01*
X112593740Y-89185000D01*
X112886260Y-89185000D01*
X113173158Y-89127932D01*
X113443411Y-89015990D01*
X113686632Y-88853475D01*
X113855107Y-88685000D01*
X114164893Y-88685000D01*
X114333368Y-88853475D01*
X114576589Y-89015990D01*
X114846842Y-89127932D01*
X115133740Y-89185000D01*
X115426260Y-89185000D01*
X115713158Y-89127932D01*
X115983411Y-89015990D01*
X116226632Y-88853475D01*
X116395107Y-88685000D01*
X116704893Y-88685000D01*
X116873368Y-88853475D01*
X117116589Y-89015990D01*
X117386842Y-89127932D01*
X117673740Y-89185000D01*
X117966260Y-89185000D01*
X118253158Y-89127932D01*
X118523411Y-89015990D01*
X118766632Y-88853475D01*
X118935107Y-88685000D01*
X119244893Y-88685000D01*
X119413368Y-88853475D01*
X119656589Y-89015990D01*
X119926842Y-89127932D01*
X120213740Y-89185000D01*
X120506260Y-89185000D01*
X120793158Y-89127932D01*
X121063411Y-89015990D01*
X121306632Y-88853475D01*
X121438487Y-88721620D01*
X121460498Y-88794180D01*
X121519463Y-88904494D01*
X121598815Y-89001185D01*
X121695506Y-89080537D01*
X121805820Y-89139502D01*
X121925518Y-89175812D01*
X122050000Y-89188072D01*
X123750000Y-89188072D01*
X123874482Y-89175812D01*
X123994180Y-89139502D01*
X124104494Y-89080537D01*
X124201185Y-89001185D01*
X124280537Y-88904494D01*
X124339502Y-88794180D01*
X124375812Y-88674482D01*
X124388072Y-88550000D01*
X124388072Y-86850000D01*
X124375812Y-86725518D01*
X124339502Y-86605820D01*
X124280537Y-86495506D01*
X124201185Y-86398815D01*
X124104494Y-86319463D01*
X123994180Y-86260498D01*
X123874482Y-86224188D01*
X123750000Y-86211928D01*
X122050000Y-86211928D01*
X121925518Y-86224188D01*
X121805820Y-86260498D01*
X121695506Y-86319463D01*
X121598815Y-86398815D01*
X121519463Y-86495506D01*
X121460498Y-86605820D01*
X121438487Y-86678380D01*
X121306632Y-86546525D01*
X121063411Y-86384010D01*
X120793158Y-86272068D01*
X120506260Y-86215000D01*
X120213740Y-86215000D01*
X119926842Y-86272068D01*
X119656589Y-86384010D01*
X119413368Y-86546525D01*
X119244893Y-86715000D01*
X118935107Y-86715000D01*
X118766632Y-86546525D01*
X118523411Y-86384010D01*
X118253158Y-86272068D01*
X117966260Y-86215000D01*
X117673740Y-86215000D01*
X117386842Y-86272068D01*
X117116589Y-86384010D01*
X116873368Y-86546525D01*
X116704893Y-86715000D01*
X116395107Y-86715000D01*
X116226632Y-86546525D01*
X115983411Y-86384010D01*
X115713158Y-86272068D01*
X115426260Y-86215000D01*
X115133740Y-86215000D01*
X114846842Y-86272068D01*
X114576589Y-86384010D01*
X114333368Y-86546525D01*
X114164893Y-86715000D01*
X113855107Y-86715000D01*
X113686632Y-86546525D01*
X113443411Y-86384010D01*
X113173158Y-86272068D01*
X112886260Y-86215000D01*
X112593740Y-86215000D01*
X112306842Y-86272068D01*
X112036589Y-86384010D01*
X111793368Y-86546525D01*
X111624893Y-86715000D01*
X111315107Y-86715000D01*
X111146632Y-86546525D01*
X110903411Y-86384010D01*
X110633158Y-86272068D01*
X110346260Y-86215000D01*
X110053740Y-86215000D01*
X109766842Y-86272068D01*
X109496589Y-86384010D01*
X109253368Y-86546525D01*
X109046525Y-86753368D01*
X108884010Y-86996589D01*
X108772068Y-87266842D01*
X108715000Y-87553740D01*
X107445510Y-87553740D01*
X107585000Y-87414250D01*
X107588072Y-86850000D01*
X107575812Y-86725518D01*
X107539502Y-86605820D01*
X107480537Y-86495506D01*
X107401185Y-86398815D01*
X107304494Y-86319463D01*
X107194180Y-86260498D01*
X107074482Y-86224188D01*
X106950000Y-86211928D01*
X106385750Y-86215000D01*
X106227000Y-86373750D01*
X105973000Y-86373750D01*
X105814250Y-86215000D01*
X105250000Y-86211928D01*
X105125518Y-86224188D01*
X105005820Y-86260498D01*
X104895506Y-86319463D01*
X104798815Y-86398815D01*
X104719463Y-86495506D01*
X104660498Y-86605820D01*
X104636034Y-86686466D01*
X104560269Y-86602412D01*
X104326920Y-86428359D01*
X104064099Y-86303175D01*
X103916890Y-86258524D01*
X103687000Y-86379845D01*
X103433000Y-86379845D01*
X103203110Y-86258524D01*
X103055901Y-86303175D01*
X102793080Y-86428359D01*
X102559731Y-86602412D01*
X102364822Y-86818645D01*
X102290000Y-86944255D01*
X102215178Y-86818645D01*
X102020269Y-86602412D01*
X101786920Y-86428359D01*
X101524099Y-86303175D01*
X101376890Y-86258524D01*
X101147000Y-86379845D01*
X100893000Y-86379845D01*
X100663110Y-86258524D01*
X100515901Y-86303175D01*
X100253080Y-86428359D01*
X100019731Y-86602412D01*
X99824822Y-86818645D01*
X99750000Y-86944255D01*
X99675178Y-86818645D01*
X99480269Y-86602412D01*
X99246920Y-86428359D01*
X98984099Y-86303175D01*
X98836890Y-86258524D01*
X98607000Y-86379845D01*
X98353000Y-86379845D01*
X98123110Y-86258524D01*
X97975901Y-86303175D01*
X97713080Y-86428359D01*
X97479731Y-86602412D01*
X97284822Y-86818645D01*
X97210000Y-86944255D01*
X97135178Y-86818645D01*
X96940269Y-86602412D01*
X96706920Y-86428359D01*
X96444099Y-86303175D01*
X96296890Y-86258524D01*
X96067000Y-86379845D01*
X95813000Y-86379845D01*
X95583110Y-86258524D01*
X95435901Y-86303175D01*
X95173080Y-86428359D01*
X94939731Y-86602412D01*
X94744822Y-86818645D01*
X94670000Y-86944255D01*
X94595178Y-86818645D01*
X94400269Y-86602412D01*
X94166920Y-86428359D01*
X93904099Y-86303175D01*
X93756890Y-86258524D01*
X93527000Y-86379845D01*
X93273000Y-86379845D01*
X93043110Y-86258524D01*
X92895901Y-86303175D01*
X92633080Y-86428359D01*
X92399731Y-86602412D01*
X92204822Y-86818645D01*
X92055843Y-87068748D01*
X91958519Y-87343109D01*
X90688072Y-87343109D01*
X90688072Y-86850000D01*
X90675812Y-86725518D01*
X90639502Y-86605820D01*
X90580537Y-86495506D01*
X90501185Y-86398815D01*
X90404494Y-86319463D01*
X90294180Y-86260498D01*
X90174482Y-86224188D01*
X90050000Y-86211928D01*
X88350000Y-86211928D01*
X88225518Y-86224188D01*
X88105820Y-86260498D01*
X87995506Y-86319463D01*
X87898815Y-86398815D01*
X87819463Y-86495506D01*
X87760498Y-86605820D01*
X87738487Y-86678380D01*
X87606632Y-86546525D01*
X87363411Y-86384010D01*
X87093158Y-86272068D01*
X86806260Y-86215000D01*
X86513740Y-86215000D01*
X86226842Y-86272068D01*
X85956589Y-86384010D01*
X85713368Y-86546525D01*
X85544893Y-86715000D01*
X85235107Y-86715000D01*
X85066632Y-86546525D01*
X84823411Y-86384010D01*
X84553158Y-86272068D01*
X84266260Y-86215000D01*
X83973740Y-86215000D01*
X83686842Y-86272068D01*
X83416589Y-86384010D01*
X83173368Y-86546525D01*
X83004893Y-86715000D01*
X82695107Y-86715000D01*
X82526632Y-86546525D01*
X82283411Y-86384010D01*
X82013158Y-86272068D01*
X81726260Y-86215000D01*
X81433740Y-86215000D01*
X81146842Y-86272068D01*
X80876589Y-86384010D01*
X80633368Y-86546525D01*
X80464893Y-86715000D01*
X80155107Y-86715000D01*
X79986632Y-86546525D01*
X79743411Y-86384010D01*
X79473158Y-86272068D01*
X79186260Y-86215000D01*
X78893740Y-86215000D01*
X78606842Y-86272068D01*
X78336589Y-86384010D01*
X78093368Y-86546525D01*
X77924893Y-86715000D01*
X77615107Y-86715000D01*
X77446632Y-86546525D01*
X77203411Y-86384010D01*
X76933158Y-86272068D01*
X76646260Y-86215000D01*
X76353740Y-86215000D01*
X76066842Y-86272068D01*
X75796589Y-86384010D01*
X75553368Y-86546525D01*
X75346525Y-86753368D01*
X75184010Y-86996589D01*
X75072068Y-87266842D01*
X75015000Y-87553740D01*
X74355000Y-87553740D01*
X74355000Y-87358665D01*
X74299853Y-87081426D01*
X74191680Y-86820273D01*
X74034637Y-86585241D01*
X73834759Y-86385363D01*
X73599727Y-86228320D01*
X73338574Y-86120147D01*
X73061335Y-86065000D01*
X72778665Y-86065000D01*
X72501426Y-86120147D01*
X72240273Y-86228320D01*
X72005241Y-86385363D01*
X71805363Y-86585241D01*
X71648320Y-86820273D01*
X71540147Y-87081426D01*
X71485000Y-87358665D01*
X66738072Y-87358665D01*
X66738072Y-86700000D01*
X66725812Y-86575518D01*
X66689502Y-86455820D01*
X66630537Y-86345506D01*
X66551185Y-86248815D01*
X66454494Y-86169463D01*
X66344180Y-86110498D01*
X66224482Y-86074188D01*
X66100000Y-86061928D01*
X64500000Y-86061928D01*
X64375518Y-86074188D01*
X64255820Y-86110498D01*
X64145506Y-86169463D01*
X64048815Y-86248815D01*
X63969463Y-86345506D01*
X63910498Y-86455820D01*
X63910000Y-86457462D01*
X63910000Y-80898061D01*
X67215000Y-80898061D01*
X67215000Y-81101939D01*
X67254774Y-81301898D01*
X67332795Y-81490256D01*
X67446063Y-81659774D01*
X67590226Y-81803937D01*
X67759744Y-81917205D01*
X67948102Y-81995226D01*
X68038382Y-82013184D01*
X68231928Y-82206729D01*
X68231928Y-83770000D01*
X68244188Y-83894482D01*
X68280498Y-84014180D01*
X68339463Y-84124494D01*
X68418815Y-84221185D01*
X68515506Y-84300537D01*
X68625820Y-84359502D01*
X68745518Y-84395812D01*
X68870000Y-84408072D01*
X69870000Y-84408072D01*
X69994482Y-84395812D01*
X70114180Y-84359502D01*
X70224494Y-84300537D01*
X70321185Y-84221185D01*
X70400537Y-84124494D01*
X70459502Y-84014180D01*
X70495812Y-83894482D01*
X70508072Y-83770000D01*
X70508072Y-82007155D01*
X70588314Y-82023116D01*
X70771928Y-82206729D01*
X70771928Y-83770000D01*
X70784188Y-83894482D01*
X70820498Y-84014180D01*
X70879463Y-84124494D01*
X70958815Y-84221185D01*
X71055506Y-84300537D01*
X71165820Y-84359502D01*
X71285518Y-84395812D01*
X71410000Y-84408072D01*
X72410000Y-84408072D01*
X72534482Y-84395812D01*
X72654180Y-84359502D01*
X72764494Y-84300537D01*
X72861185Y-84221185D01*
X72940537Y-84124494D01*
X72999502Y-84014180D01*
X73035812Y-83894482D01*
X73048072Y-83770000D01*
X73048072Y-82015111D01*
X73148061Y-82035000D01*
X73210199Y-82035000D01*
X73311928Y-82136729D01*
X73311928Y-83770000D01*
X73324188Y-83894482D01*
X73360498Y-84014180D01*
X73419463Y-84124494D01*
X73498815Y-84221185D01*
X73595506Y-84300537D01*
X73705820Y-84359502D01*
X73825518Y-84395812D01*
X73950000Y-84408072D01*
X74950000Y-84408072D01*
X75074482Y-84395812D01*
X75194180Y-84359502D01*
X75304494Y-84300537D01*
X75401185Y-84221185D01*
X75480537Y-84124494D01*
X75539502Y-84014180D01*
X75575812Y-83894482D01*
X75588072Y-83770000D01*
X75588072Y-82023068D01*
X75648061Y-82035000D01*
X75680199Y-82035000D01*
X75851928Y-82206730D01*
X75851928Y-83770000D01*
X75864188Y-83894482D01*
X75900498Y-84014180D01*
X75959463Y-84124494D01*
X76038815Y-84221185D01*
X76135506Y-84300537D01*
X76245820Y-84359502D01*
X76365518Y-84395812D01*
X76490000Y-84408072D01*
X77490000Y-84408072D01*
X77614482Y-84395812D01*
X77734180Y-84359502D01*
X77844494Y-84300537D01*
X77941185Y-84221185D01*
X78020537Y-84124494D01*
X78079502Y-84014180D01*
X78115812Y-83894482D01*
X78128072Y-83770000D01*
X78391928Y-83770000D01*
X78404188Y-83894482D01*
X78440498Y-84014180D01*
X78499463Y-84124494D01*
X78578815Y-84221185D01*
X78675506Y-84300537D01*
X78785820Y-84359502D01*
X78905518Y-84395812D01*
X79030000Y-84408072D01*
X79244250Y-84405000D01*
X79403000Y-84246250D01*
X79403000Y-82397000D01*
X79657000Y-82397000D01*
X79657000Y-84246250D01*
X79815750Y-84405000D01*
X80030000Y-84408072D01*
X80154482Y-84395812D01*
X80274180Y-84359502D01*
X80384494Y-84300537D01*
X80481185Y-84221185D01*
X80560537Y-84124494D01*
X80619502Y-84014180D01*
X80655812Y-83894482D01*
X80668072Y-83770000D01*
X80665000Y-82555750D01*
X80506250Y-82397000D01*
X79657000Y-82397000D01*
X79403000Y-82397000D01*
X78553750Y-82397000D01*
X78395000Y-82555750D01*
X78391928Y-83770000D01*
X78128072Y-83770000D01*
X78128072Y-80770000D01*
X78391928Y-80770000D01*
X78395000Y-81984250D01*
X78553750Y-82143000D01*
X79403000Y-82143000D01*
X79403000Y-80293750D01*
X79657000Y-80293750D01*
X79657000Y-82143000D01*
X80506250Y-82143000D01*
X80619860Y-82029390D01*
X80648061Y-82035000D01*
X80760199Y-82035000D01*
X80931928Y-82206730D01*
X80931928Y-83770000D01*
X80944188Y-83894482D01*
X80980498Y-84014180D01*
X81039463Y-84124494D01*
X81118815Y-84221185D01*
X81215506Y-84300537D01*
X81325820Y-84359502D01*
X81445518Y-84395812D01*
X81570000Y-84408072D01*
X82570000Y-84408072D01*
X82694482Y-84395812D01*
X82814180Y-84359502D01*
X82924494Y-84300537D01*
X83021185Y-84221185D01*
X83100537Y-84124494D01*
X83159502Y-84014180D01*
X83195812Y-83894482D01*
X83208072Y-83770000D01*
X83208072Y-82035000D01*
X83210199Y-82035000D01*
X83471928Y-82296730D01*
X83471928Y-83770000D01*
X83484188Y-83894482D01*
X83520498Y-84014180D01*
X83579463Y-84124494D01*
X83658815Y-84221185D01*
X83755506Y-84300537D01*
X83865820Y-84359502D01*
X83985518Y-84395812D01*
X84110000Y-84408072D01*
X85110000Y-84408072D01*
X85234482Y-84395812D01*
X85354180Y-84359502D01*
X85464494Y-84300537D01*
X85561185Y-84221185D01*
X85640537Y-84124494D01*
X85699502Y-84014180D01*
X85735812Y-83894482D01*
X85748072Y-83770000D01*
X85748072Y-82005166D01*
X85825831Y-82020633D01*
X86011928Y-82206729D01*
X86011928Y-83770000D01*
X86024188Y-83894482D01*
X86060498Y-84014180D01*
X86119463Y-84124494D01*
X86198815Y-84221185D01*
X86295506Y-84300537D01*
X86405820Y-84359502D01*
X86525518Y-84395812D01*
X86650000Y-84408072D01*
X87650000Y-84408072D01*
X87774482Y-84395812D01*
X87894180Y-84359502D01*
X88004494Y-84300537D01*
X88101185Y-84221185D01*
X88180537Y-84124494D01*
X88239502Y-84014180D01*
X88275812Y-83894482D01*
X88288072Y-83770000D01*
X88288072Y-82013122D01*
X88398061Y-82035000D01*
X88460199Y-82035000D01*
X88551928Y-82126729D01*
X88551928Y-83770000D01*
X88564188Y-83894482D01*
X88600498Y-84014180D01*
X88659463Y-84124494D01*
X88738815Y-84221185D01*
X88835506Y-84300537D01*
X88945820Y-84359502D01*
X89065518Y-84395812D01*
X89190000Y-84408072D01*
X90190000Y-84408072D01*
X90314482Y-84395812D01*
X90434180Y-84359502D01*
X90544494Y-84300537D01*
X90641185Y-84221185D01*
X90720537Y-84124494D01*
X90779502Y-84014180D01*
X90815812Y-83894482D01*
X90828072Y-83770000D01*
X90828072Y-82021078D01*
X90898061Y-82035000D01*
X90920199Y-82035000D01*
X91091928Y-82206730D01*
X91091928Y-83770000D01*
X91104188Y-83894482D01*
X91140498Y-84014180D01*
X91199463Y-84124494D01*
X91278815Y-84221185D01*
X91375506Y-84300537D01*
X91485820Y-84359502D01*
X91605518Y-84395812D01*
X91730000Y-84408072D01*
X92730000Y-84408072D01*
X92854482Y-84395812D01*
X92974180Y-84359502D01*
X93084494Y-84300537D01*
X93181185Y-84221185D01*
X93260537Y-84124494D01*
X93319502Y-84014180D01*
X93355812Y-83894482D01*
X93368072Y-83770000D01*
X93368072Y-82029035D01*
X93398061Y-82035000D01*
X93460199Y-82035000D01*
X93631928Y-82206730D01*
X93631928Y-83770000D01*
X93644188Y-83894482D01*
X93680498Y-84014180D01*
X93739463Y-84124494D01*
X93818815Y-84221185D01*
X93915506Y-84300537D01*
X94025820Y-84359502D01*
X94145518Y-84395812D01*
X94270000Y-84408072D01*
X95270000Y-84408072D01*
X95394482Y-84395812D01*
X95514180Y-84359502D01*
X95624494Y-84300537D01*
X95721185Y-84221185D01*
X95800537Y-84124494D01*
X95859502Y-84014180D01*
X95895812Y-83894482D01*
X95908072Y-83770000D01*
X95908072Y-82035000D01*
X96000199Y-82035000D01*
X96171928Y-82206730D01*
X96171928Y-83770000D01*
X96184188Y-83894482D01*
X96220498Y-84014180D01*
X96279463Y-84124494D01*
X96358815Y-84221185D01*
X96455506Y-84300537D01*
X96565820Y-84359502D01*
X96685518Y-84395812D01*
X96810000Y-84408072D01*
X97810000Y-84408072D01*
X97934482Y-84395812D01*
X98054180Y-84359502D01*
X98164494Y-84300537D01*
X98261185Y-84221185D01*
X98340537Y-84124494D01*
X98399502Y-84014180D01*
X98435812Y-83894482D01*
X98448072Y-83770000D01*
X98711928Y-83770000D01*
X98724188Y-83894482D01*
X98760498Y-84014180D01*
X98819463Y-84124494D01*
X98898815Y-84221185D01*
X98995506Y-84300537D01*
X99105820Y-84359502D01*
X99225518Y-84395812D01*
X99350000Y-84408072D01*
X99564250Y-84405000D01*
X99723000Y-84246250D01*
X99723000Y-82397000D01*
X99977000Y-82397000D01*
X99977000Y-84246250D01*
X100135750Y-84405000D01*
X100350000Y-84408072D01*
X100474482Y-84395812D01*
X100594180Y-84359502D01*
X100704494Y-84300537D01*
X100801185Y-84221185D01*
X100880537Y-84124494D01*
X100939502Y-84014180D01*
X100975812Y-83894482D01*
X100988072Y-83770000D01*
X100985000Y-82555750D01*
X100826250Y-82397000D01*
X99977000Y-82397000D01*
X99723000Y-82397000D01*
X98873750Y-82397000D01*
X98715000Y-82555750D01*
X98711928Y-83770000D01*
X98448072Y-83770000D01*
X98448072Y-80770000D01*
X98711928Y-80770000D01*
X98715000Y-81984250D01*
X98873750Y-82143000D01*
X99723000Y-82143000D01*
X99723000Y-80898061D01*
X99965000Y-80898061D01*
X99965000Y-81101939D01*
X99977000Y-81162268D01*
X99977000Y-82143000D01*
X100826250Y-82143000D01*
X100934250Y-82035000D01*
X101080199Y-82035000D01*
X101251928Y-82206730D01*
X101251928Y-83770000D01*
X101264188Y-83894482D01*
X101300498Y-84014180D01*
X101359463Y-84124494D01*
X101438815Y-84221185D01*
X101535506Y-84300537D01*
X101645820Y-84359502D01*
X101765518Y-84395812D01*
X101890000Y-84408072D01*
X102890000Y-84408072D01*
X103014482Y-84395812D01*
X103134180Y-84359502D01*
X103244494Y-84300537D01*
X103341185Y-84221185D01*
X103420537Y-84124494D01*
X103479502Y-84014180D01*
X103515812Y-83894482D01*
X103528072Y-83770000D01*
X103528072Y-82011133D01*
X103648061Y-82035000D01*
X103710199Y-82035000D01*
X103791928Y-82116729D01*
X103791928Y-83770000D01*
X103804188Y-83894482D01*
X103840498Y-84014180D01*
X103899463Y-84124494D01*
X103978815Y-84221185D01*
X104075506Y-84300537D01*
X104185820Y-84359502D01*
X104305518Y-84395812D01*
X104430000Y-84408072D01*
X105430000Y-84408072D01*
X105554482Y-84395812D01*
X105674180Y-84359502D01*
X105784494Y-84300537D01*
X105881185Y-84221185D01*
X105960537Y-84124494D01*
X106019502Y-84014180D01*
X106055812Y-83894482D01*
X106068072Y-83770000D01*
X106068072Y-82019089D01*
X106148061Y-82035000D01*
X106160199Y-82035000D01*
X106331928Y-82206730D01*
X106331928Y-83770000D01*
X106344188Y-83894482D01*
X106380498Y-84014180D01*
X106439463Y-84124494D01*
X106518815Y-84221185D01*
X106615506Y-84300537D01*
X106725820Y-84359502D01*
X106845518Y-84395812D01*
X106970000Y-84408072D01*
X107970000Y-84408072D01*
X108094482Y-84395812D01*
X108214180Y-84359502D01*
X108324494Y-84300537D01*
X108421185Y-84221185D01*
X108500537Y-84124494D01*
X108559502Y-84014180D01*
X108595812Y-83894482D01*
X108608072Y-83770000D01*
X108608072Y-82027046D01*
X108648061Y-82035000D01*
X108710199Y-82035000D01*
X108871928Y-82196730D01*
X108871928Y-83770000D01*
X108884188Y-83894482D01*
X108920498Y-84014180D01*
X108979463Y-84124494D01*
X109058815Y-84221185D01*
X109155506Y-84300537D01*
X109265820Y-84359502D01*
X109385518Y-84395812D01*
X109510000Y-84408072D01*
X110510000Y-84408072D01*
X110634482Y-84395812D01*
X110754180Y-84359502D01*
X110864494Y-84300537D01*
X110961185Y-84221185D01*
X111040537Y-84124494D01*
X111099502Y-84014180D01*
X111135812Y-83894482D01*
X111148072Y-83770000D01*
X111148072Y-82035000D01*
X111240199Y-82035000D01*
X111411928Y-82206730D01*
X111411928Y-83770000D01*
X111424188Y-83894482D01*
X111460498Y-84014180D01*
X111519463Y-84124494D01*
X111598815Y-84221185D01*
X111695506Y-84300537D01*
X111805820Y-84359502D01*
X111925518Y-84395812D01*
X112050000Y-84408072D01*
X113050000Y-84408072D01*
X113174482Y-84395812D01*
X113294180Y-84359502D01*
X113404494Y-84300537D01*
X113501185Y-84221185D01*
X113580537Y-84124494D01*
X113639502Y-84014180D01*
X113675812Y-83894482D01*
X113688072Y-83770000D01*
X113688072Y-82035000D01*
X113710199Y-82035000D01*
X113951928Y-82276730D01*
X113951928Y-83770000D01*
X113964188Y-83894482D01*
X114000498Y-84014180D01*
X114059463Y-84124494D01*
X114138815Y-84221185D01*
X114235506Y-84300537D01*
X114345820Y-84359502D01*
X114465518Y-84395812D01*
X114590000Y-84408072D01*
X115590000Y-84408072D01*
X115714482Y-84395812D01*
X115834180Y-84359502D01*
X115944494Y-84300537D01*
X116041185Y-84221185D01*
X116120537Y-84124494D01*
X116179502Y-84014180D01*
X116215812Y-83894482D01*
X116228072Y-83770000D01*
X116491928Y-83770000D01*
X116504188Y-83894482D01*
X116540498Y-84014180D01*
X116599463Y-84124494D01*
X116678815Y-84221185D01*
X116775506Y-84300537D01*
X116885820Y-84359502D01*
X117005518Y-84395812D01*
X117130000Y-84408072D01*
X117344250Y-84405000D01*
X117503000Y-84246250D01*
X117503000Y-82397000D01*
X117757000Y-82397000D01*
X117757000Y-84246250D01*
X117915750Y-84405000D01*
X118130000Y-84408072D01*
X118254482Y-84395812D01*
X118374180Y-84359502D01*
X118484494Y-84300537D01*
X118581185Y-84221185D01*
X118660537Y-84124494D01*
X118719502Y-84014180D01*
X118755812Y-83894482D01*
X118768072Y-83770000D01*
X118765000Y-82555750D01*
X118606250Y-82397000D01*
X117757000Y-82397000D01*
X117503000Y-82397000D01*
X116653750Y-82397000D01*
X116495000Y-82555750D01*
X116491928Y-83770000D01*
X116228072Y-83770000D01*
X116228072Y-80770000D01*
X116491928Y-80770000D01*
X116495000Y-81984250D01*
X116653750Y-82143000D01*
X117503000Y-82143000D01*
X117503000Y-80293750D01*
X117757000Y-80293750D01*
X117757000Y-82143000D01*
X118606250Y-82143000D01*
X118765000Y-81984250D01*
X118768072Y-80770000D01*
X118755812Y-80645518D01*
X118719502Y-80525820D01*
X118705701Y-80500000D01*
X120661928Y-80500000D01*
X120661928Y-81700000D01*
X120678992Y-81873254D01*
X120729528Y-82039850D01*
X120811595Y-82193386D01*
X120922038Y-82327962D01*
X121056614Y-82438405D01*
X121210150Y-82520472D01*
X121376746Y-82571008D01*
X121550000Y-82588072D01*
X123050000Y-82588072D01*
X123223254Y-82571008D01*
X123389850Y-82520472D01*
X123543386Y-82438405D01*
X123677962Y-82327962D01*
X123788405Y-82193386D01*
X123870472Y-82039850D01*
X123921008Y-81873254D01*
X123938072Y-81700000D01*
X123938072Y-80500000D01*
X123921008Y-80326746D01*
X123870472Y-80160150D01*
X123788405Y-80006614D01*
X123677962Y-79872038D01*
X123543386Y-79761595D01*
X123441407Y-79707086D01*
X123441795Y-79706802D01*
X123638664Y-79492046D01*
X123789854Y-79243009D01*
X123889554Y-78969261D01*
X123891476Y-78956890D01*
X123770155Y-78727000D01*
X122427000Y-78727000D01*
X122427000Y-78747000D01*
X122173000Y-78747000D01*
X122173000Y-78727000D01*
X120829845Y-78727000D01*
X120708524Y-78956890D01*
X120710446Y-78969261D01*
X120810146Y-79243009D01*
X120961336Y-79492046D01*
X121158205Y-79706802D01*
X121158593Y-79707086D01*
X121056614Y-79761595D01*
X120922038Y-79872038D01*
X120811595Y-80006614D01*
X120729528Y-80160150D01*
X120678992Y-80326746D01*
X120661928Y-80500000D01*
X118705701Y-80500000D01*
X118660537Y-80415506D01*
X118581185Y-80318815D01*
X118484494Y-80239463D01*
X118374180Y-80180498D01*
X118254482Y-80144188D01*
X118130000Y-80131928D01*
X117915750Y-80135000D01*
X117757000Y-80293750D01*
X117503000Y-80293750D01*
X117344250Y-80135000D01*
X117130000Y-80131928D01*
X117005518Y-80144188D01*
X116885820Y-80180498D01*
X116775506Y-80239463D01*
X116678815Y-80318815D01*
X116599463Y-80415506D01*
X116540498Y-80525820D01*
X116504188Y-80645518D01*
X116491928Y-80770000D01*
X116228072Y-80770000D01*
X116215812Y-80645518D01*
X116179502Y-80525820D01*
X116120537Y-80415506D01*
X116041185Y-80318815D01*
X115944494Y-80239463D01*
X115834180Y-80180498D01*
X115714482Y-80144188D01*
X115590000Y-80131928D01*
X114590000Y-80131928D01*
X114465518Y-80144188D01*
X114373784Y-80172015D01*
X114240256Y-80082795D01*
X114051898Y-80004774D01*
X113851939Y-79965000D01*
X113648061Y-79965000D01*
X113448102Y-80004774D01*
X113259744Y-80082795D01*
X113168713Y-80143620D01*
X113050000Y-80131928D01*
X112050000Y-80131928D01*
X111925518Y-80144188D01*
X111861294Y-80163670D01*
X111740256Y-80082795D01*
X111551898Y-80004774D01*
X111351939Y-79965000D01*
X111148061Y-79965000D01*
X110948102Y-80004774D01*
X110759744Y-80082795D01*
X110657440Y-80151152D01*
X110634482Y-80144188D01*
X110510000Y-80131928D01*
X109510000Y-80131928D01*
X109385518Y-80144188D01*
X109348805Y-80155325D01*
X109240256Y-80082795D01*
X109051898Y-80004774D01*
X108851939Y-79965000D01*
X108648061Y-79965000D01*
X108448102Y-80004774D01*
X108259744Y-80082795D01*
X108144950Y-80159497D01*
X108094482Y-80144188D01*
X107970000Y-80131928D01*
X106970000Y-80131928D01*
X106845518Y-80144188D01*
X106836315Y-80146980D01*
X106740256Y-80082795D01*
X106551898Y-80004774D01*
X106351939Y-79965000D01*
X106148061Y-79965000D01*
X105948102Y-80004774D01*
X105759744Y-80082795D01*
X105632461Y-80167843D01*
X105554482Y-80144188D01*
X105430000Y-80131928D01*
X104430000Y-80131928D01*
X104328718Y-80141903D01*
X104240256Y-80082795D01*
X104051898Y-80004774D01*
X103851939Y-79965000D01*
X103648061Y-79965000D01*
X103448102Y-80004774D01*
X103259744Y-80082795D01*
X103119971Y-80176188D01*
X103014482Y-80144188D01*
X102890000Y-80131928D01*
X101890000Y-80131928D01*
X101765518Y-80144188D01*
X101645820Y-80180498D01*
X101640631Y-80183272D01*
X101490256Y-80082795D01*
X101301898Y-80004774D01*
X101101939Y-79965000D01*
X100898061Y-79965000D01*
X100698102Y-80004774D01*
X100509744Y-80082795D01*
X100425136Y-80139328D01*
X100350000Y-80131928D01*
X100135750Y-80135000D01*
X99977000Y-80293750D01*
X99977000Y-80837732D01*
X99965000Y-80898061D01*
X99723000Y-80898061D01*
X99723000Y-80293750D01*
X99564250Y-80135000D01*
X99350000Y-80131928D01*
X99225518Y-80144188D01*
X99105820Y-80180498D01*
X98995506Y-80239463D01*
X98898815Y-80318815D01*
X98819463Y-80415506D01*
X98760498Y-80525820D01*
X98724188Y-80645518D01*
X98711928Y-80770000D01*
X98448072Y-80770000D01*
X98435812Y-80645518D01*
X98399502Y-80525820D01*
X98340537Y-80415506D01*
X98261185Y-80318815D01*
X98164494Y-80239463D01*
X98054180Y-80180498D01*
X97934482Y-80144188D01*
X97810000Y-80131928D01*
X96810000Y-80131928D01*
X96685518Y-80144188D01*
X96614417Y-80165756D01*
X96490256Y-80082795D01*
X96301898Y-80004774D01*
X96101939Y-79965000D01*
X95898061Y-79965000D01*
X95698102Y-80004774D01*
X95509744Y-80082795D01*
X95410562Y-80149066D01*
X95394482Y-80144188D01*
X95270000Y-80131928D01*
X94270000Y-80131928D01*
X94145518Y-80144188D01*
X94101927Y-80157411D01*
X93990256Y-80082795D01*
X93801898Y-80004774D01*
X93601939Y-79965000D01*
X93398061Y-79965000D01*
X93198102Y-80004774D01*
X93009744Y-80082795D01*
X92898073Y-80157411D01*
X92854482Y-80144188D01*
X92730000Y-80131928D01*
X91730000Y-80131928D01*
X91605518Y-80144188D01*
X91589438Y-80149066D01*
X91490256Y-80082795D01*
X91301898Y-80004774D01*
X91101939Y-79965000D01*
X90898061Y-79965000D01*
X90698102Y-80004774D01*
X90509744Y-80082795D01*
X90385583Y-80165756D01*
X90314482Y-80144188D01*
X90190000Y-80131928D01*
X89190000Y-80131928D01*
X89080002Y-80142761D01*
X88990256Y-80082795D01*
X88801898Y-80004774D01*
X88601939Y-79965000D01*
X88398061Y-79965000D01*
X88198102Y-80004774D01*
X88009744Y-80082795D01*
X87873094Y-80174102D01*
X87774482Y-80144188D01*
X87650000Y-80131928D01*
X86650000Y-80131928D01*
X86574864Y-80139328D01*
X86490256Y-80082795D01*
X86301898Y-80004774D01*
X86101939Y-79965000D01*
X85898061Y-79965000D01*
X85698102Y-80004774D01*
X85509744Y-80082795D01*
X85359369Y-80183272D01*
X85354180Y-80180498D01*
X85234482Y-80144188D01*
X85110000Y-80131928D01*
X84110000Y-80131928D01*
X83985518Y-80144188D01*
X83880029Y-80176188D01*
X83740256Y-80082795D01*
X83551898Y-80004774D01*
X83351939Y-79965000D01*
X83148061Y-79965000D01*
X82948102Y-80004774D01*
X82759744Y-80082795D01*
X82671282Y-80141903D01*
X82570000Y-80131928D01*
X81570000Y-80131928D01*
X81445518Y-80144188D01*
X81367539Y-80167843D01*
X81240256Y-80082795D01*
X81051898Y-80004774D01*
X80851939Y-79965000D01*
X80648061Y-79965000D01*
X80448102Y-80004774D01*
X80259744Y-80082795D01*
X80163685Y-80146980D01*
X80154482Y-80144188D01*
X80030000Y-80131928D01*
X79815750Y-80135000D01*
X79657000Y-80293750D01*
X79403000Y-80293750D01*
X79244250Y-80135000D01*
X79030000Y-80131928D01*
X78905518Y-80144188D01*
X78785820Y-80180498D01*
X78675506Y-80239463D01*
X78578815Y-80318815D01*
X78499463Y-80415506D01*
X78440498Y-80525820D01*
X78404188Y-80645518D01*
X78391928Y-80770000D01*
X78128072Y-80770000D01*
X78115812Y-80645518D01*
X78079502Y-80525820D01*
X78020537Y-80415506D01*
X77941185Y-80318815D01*
X77844494Y-80239463D01*
X77734180Y-80180498D01*
X77614482Y-80144188D01*
X77490000Y-80131928D01*
X76490000Y-80131928D01*
X76365518Y-80144188D01*
X76342560Y-80151152D01*
X76240256Y-80082795D01*
X76051898Y-80004774D01*
X75851939Y-79965000D01*
X75648061Y-79965000D01*
X75448102Y-80004774D01*
X75259744Y-80082795D01*
X75138706Y-80163670D01*
X75074482Y-80144188D01*
X74950000Y-80131928D01*
X73950000Y-80131928D01*
X73831287Y-80143620D01*
X73740256Y-80082795D01*
X73551898Y-80004774D01*
X73351939Y-79965000D01*
X73148061Y-79965000D01*
X72948102Y-80004774D01*
X72759744Y-80082795D01*
X72626216Y-80172015D01*
X72534482Y-80144188D01*
X72410000Y-80131928D01*
X71410000Y-80131928D01*
X71326148Y-80140186D01*
X71240256Y-80082795D01*
X71051898Y-80004774D01*
X70851939Y-79965000D01*
X70648061Y-79965000D01*
X70448102Y-80004774D01*
X70259744Y-80082795D01*
X70113727Y-80180360D01*
X69994482Y-80144188D01*
X69870000Y-80131928D01*
X68870000Y-80131928D01*
X68821010Y-80136753D01*
X68740256Y-80082795D01*
X68551898Y-80004774D01*
X68351939Y-79965000D01*
X68148061Y-79965000D01*
X67948102Y-80004774D01*
X67759744Y-80082795D01*
X67590226Y-80196063D01*
X67446063Y-80340226D01*
X67332795Y-80509744D01*
X67254774Y-80698102D01*
X67215000Y-80898061D01*
X63910000Y-80898061D01*
X63910000Y-75234722D01*
X63915054Y-75183180D01*
X63919938Y-75167004D01*
X63927874Y-75152077D01*
X63938554Y-75138982D01*
X63951575Y-75128211D01*
X63966445Y-75120170D01*
X63982590Y-75115173D01*
X64031805Y-75110000D01*
X68726358Y-75110000D01*
X68625820Y-75140498D01*
G37*
%TD.AperFunction*%
%TD*%
M02*
