M48
; DRILL file {KiCad 5.1.9-73d0e3b20d~88~ubuntu18.04.1} date Sat Jul 10 12:22:14 2021
; FORMAT={-:-/ absolute / inch / decimal}
; #@! TF.CreationDate,2021-07-10T12:22:14+03:00
; #@! TF.GenerationSoftware,Kicad,Pcbnew,5.1.9-73d0e3b20d~88~ubuntu18.04.1
FMAT,2
INCH
T1C0.0157
T2C0.0315
T3C0.0394
T4C0.1260
%
G90
G05
T1
X2.6772Y-3.0906
X2.687Y-3.189
X2.7854Y-3.0906
X2.7854Y-3.189
X2.8839Y-3.0906
X2.8839Y-3.189
X2.9823Y-3.0906
X2.9823Y-3.189
X3.0807Y-3.0906
X3.0807Y-3.189
X3.1791Y-3.0906
X3.1791Y-3.189
X3.2776Y-3.0906
X3.2776Y-3.189
X3.3858Y-3.0906
X3.3858Y-3.189
X3.4843Y-3.0906
X3.4843Y-3.189
X3.5827Y-3.0906
X3.5827Y-3.189
X3.6811Y-3.0906
X3.6811Y-3.189
X3.7795Y-3.0906
X3.7795Y-3.189
X3.878Y-3.0906
X3.878Y-3.189
X3.9764Y-3.0906
X3.9764Y-3.189
X4.0748Y-3.0906
X4.0846Y-3.189
X4.1831Y-3.0906
X4.1831Y-3.189
X4.2815Y-3.0906
X4.2815Y-3.189
X4.3799Y-3.0906
X4.3799Y-3.189
X4.4783Y-3.0906
X4.4783Y-3.189
X4.5768Y-3.0906
X4.5768Y-3.189
T2
X2.5709Y-3.4449
X2.8709Y-3.4449
T3
X3.0118Y-3.4528
X3.1118Y-3.4528
X3.2118Y-3.4528
X3.3118Y-3.4528
X3.4118Y-3.4528
X3.5118Y-3.4528
X3.6772Y-3.4528
X3.7772Y-3.4528
X3.8772Y-3.4528
X3.9772Y-3.4528
X4.0772Y-3.4528
X4.1772Y-3.4528
X4.3386Y-3.4528
X4.4386Y-3.4528
X4.5386Y-3.4528
X4.5472Y-3.6181
X4.5472Y-3.7181
X4.5472Y-3.8181
X4.5472Y-3.9181
X4.5472Y-4.0181
X4.5472Y-4.1181
X4.5472Y-4.2181
X4.5472Y-4.3181
X4.5472Y-4.4181
X4.5472Y-4.5181
X4.5472Y-4.6181
X4.5472Y-4.7181
X4.5472Y-4.8181
X4.5472Y-4.9181
X4.5472Y-5.0181
X4.6386Y-3.4528
X4.7386Y-3.4528
X4.7835Y-3.6181
X4.7835Y-3.7181
X4.7835Y-3.8181
X4.7835Y-3.9181
X4.7835Y-4.0181
X4.7835Y-4.1181
X4.7835Y-4.2181
X4.7835Y-4.3181
X4.7835Y-4.4181
X4.7835Y-4.5181
X4.7835Y-4.6181
X4.7835Y-4.7181
X4.7835Y-4.8181
X4.7835Y-4.9181
X4.7835Y-5.0181
X4.815Y-3.0945
X4.815Y-3.1929
X4.8386Y-3.4528
T4
X2.7953Y-4.9606
X2.7992Y-3.6949
X4.0551Y-3.7008
X4.0551Y-4.9606
T0
M30
