%TF.GenerationSoftware,KiCad,Pcbnew,5.1.9-73d0e3b20d~88~ubuntu18.04.1*%
%TF.CreationDate,2021-07-10T12:21:25+03:00*%
%TF.ProjectId,Rpi-breakout,5270692d-6272-4656-916b-6f75742e6b69,rev?*%
%TF.SameCoordinates,Original*%
%TF.FileFunction,Copper,L2,Bot*%
%TF.FilePolarity,Positive*%
%FSLAX46Y46*%
G04 Gerber Fmt 4.6, Leading zero omitted, Abs format (unit mm)*
G04 Created by KiCad (PCBNEW 5.1.9-73d0e3b20d~88~ubuntu18.04.1) date 2021-07-10 12:21:25*
%MOMM*%
%LPD*%
G01*
G04 APERTURE LIST*
%TA.AperFunction,ComponentPad*%
%ADD10O,1.600000X1.600000*%
%TD*%
%TA.AperFunction,ComponentPad*%
%ADD11R,1.600000X1.600000*%
%TD*%
%TA.AperFunction,ComponentPad*%
%ADD12O,1.700000X1.700000*%
%TD*%
%TA.AperFunction,ComponentPad*%
%ADD13R,1.700000X1.700000*%
%TD*%
%TA.AperFunction,SMDPad,CuDef*%
%ADD14R,1.000000X3.000000*%
%TD*%
%TA.AperFunction,ComponentPad*%
%ADD15C,5.600000*%
%TD*%
%TA.AperFunction,ComponentPad*%
%ADD16O,2.000000X1.700000*%
%TD*%
%TA.AperFunction,ViaPad*%
%ADD17C,0.800000*%
%TD*%
%TA.AperFunction,Conductor*%
%ADD18C,0.250000*%
%TD*%
%TA.AperFunction,Conductor*%
%ADD19C,0.700000*%
%TD*%
%TA.AperFunction,Conductor*%
%ADD20C,0.500000*%
%TD*%
%TA.AperFunction,Conductor*%
%ADD21C,0.254000*%
%TD*%
%TA.AperFunction,Conductor*%
%ADD22C,0.100000*%
%TD*%
G04 APERTURE END LIST*
D10*
%TO.P,Fan,2*%
%TO.N,Net-(J102-Pad1)*%
X72920000Y-87500000D03*
D11*
%TO.P,Fan,1*%
%TO.N,+5V*%
X65300000Y-87500000D03*
%TD*%
D12*
%TO.P,J108,15*%
%TO.N,Net-(J107-Pad15)*%
X121500000Y-127460000D03*
%TO.P,J108,14*%
%TO.N,Net-(J107-Pad14)*%
X121500000Y-124920000D03*
%TO.P,J108,13*%
%TO.N,Net-(J107-Pad13)*%
X121500000Y-122380000D03*
%TO.P,J108,12*%
%TO.N,Net-(J107-Pad12)*%
X121500000Y-119840000D03*
%TO.P,J108,11*%
%TO.N,Net-(J107-Pad11)*%
X121500000Y-117300000D03*
%TO.P,J108,10*%
%TO.N,Net-(J107-Pad10)*%
X121500000Y-114760000D03*
%TO.P,J108,9*%
%TO.N,Net-(J107-Pad9)*%
X121500000Y-112220000D03*
%TO.P,J108,8*%
%TO.N,Net-(J107-Pad8)*%
X121500000Y-109680000D03*
%TO.P,J108,7*%
%TO.N,Net-(J107-Pad7)*%
X121500000Y-107140000D03*
%TO.P,J108,6*%
%TO.N,Net-(J107-Pad6)*%
X121500000Y-104600000D03*
%TO.P,J108,5*%
%TO.N,Net-(J107-Pad5)*%
X121500000Y-102060000D03*
%TO.P,J108,4*%
%TO.N,Net-(J107-Pad4)*%
X121500000Y-99520000D03*
%TO.P,J108,3*%
%TO.N,Net-(J107-Pad3)*%
X121500000Y-96980000D03*
%TO.P,J108,2*%
%TO.N,Net-(J107-Pad2)*%
X121500000Y-94440000D03*
D13*
%TO.P,J108,1*%
%TO.N,Net-(J107-Pad1)*%
X121500000Y-91900000D03*
%TD*%
D12*
%TO.P,J107,15*%
%TO.N,Net-(J107-Pad15)*%
X115500000Y-127460000D03*
%TO.P,J107,14*%
%TO.N,Net-(J107-Pad14)*%
X115500000Y-124920000D03*
%TO.P,J107,13*%
%TO.N,Net-(J107-Pad13)*%
X115500000Y-122380000D03*
%TO.P,J107,12*%
%TO.N,Net-(J107-Pad12)*%
X115500000Y-119840000D03*
%TO.P,J107,11*%
%TO.N,Net-(J107-Pad11)*%
X115500000Y-117300000D03*
%TO.P,J107,10*%
%TO.N,Net-(J107-Pad10)*%
X115500000Y-114760000D03*
%TO.P,J107,9*%
%TO.N,Net-(J107-Pad9)*%
X115500000Y-112220000D03*
%TO.P,J107,8*%
%TO.N,Net-(J107-Pad8)*%
X115500000Y-109680000D03*
%TO.P,J107,7*%
%TO.N,Net-(J107-Pad7)*%
X115500000Y-107140000D03*
%TO.P,J107,6*%
%TO.N,Net-(J107-Pad6)*%
X115500000Y-104600000D03*
%TO.P,J107,5*%
%TO.N,Net-(J107-Pad5)*%
X115500000Y-102060000D03*
%TO.P,J107,4*%
%TO.N,Net-(J107-Pad4)*%
X115500000Y-99520000D03*
%TO.P,J107,3*%
%TO.N,Net-(J107-Pad3)*%
X115500000Y-96980000D03*
%TO.P,J107,2*%
%TO.N,Net-(J107-Pad2)*%
X115500000Y-94440000D03*
D13*
%TO.P,J107,1*%
%TO.N,Net-(J107-Pad1)*%
X115500000Y-91900000D03*
%TD*%
D14*
%TO.P,J105,40*%
%TO.N,/C39*%
X117630000Y-77230000D03*
%TO.P,J105,39*%
%TO.N,GND*%
X117630000Y-82270000D03*
%TO.P,J105,38*%
%TO.N,/C37*%
X115090000Y-77230000D03*
%TO.P,J105,37*%
%TO.N,/C38*%
X115090000Y-82270000D03*
%TO.P,J105,36*%
%TO.N,/C35*%
X112550000Y-77230000D03*
%TO.P,J105,35*%
%TO.N,/C36*%
X112550000Y-82270000D03*
%TO.P,J105,34*%
%TO.N,GND*%
X110010000Y-77230000D03*
%TO.P,J105,33*%
%TO.N,/C34*%
X110010000Y-82270000D03*
%TO.P,J105,32*%
%TO.N,/C31*%
X107470000Y-77230000D03*
%TO.P,J105,31*%
%TO.N,/C32*%
X107470000Y-82270000D03*
%TO.P,J105,30*%
%TO.N,GND*%
X104930000Y-77230000D03*
%TO.P,J105,29*%
%TO.N,/C30*%
X104930000Y-82270000D03*
%TO.P,J105,28*%
%TO.N,/C27*%
X102390000Y-77230000D03*
%TO.P,J105,27*%
%TO.N,/C28*%
X102390000Y-82270000D03*
%TO.P,J105,26*%
%TO.N,/C25*%
X99850000Y-77230000D03*
%TO.P,J105,25*%
%TO.N,GND*%
X99850000Y-82270000D03*
%TO.P,J105,24*%
%TO.N,/C23*%
X97310000Y-77230000D03*
%TO.P,J105,23*%
%TO.N,/C24*%
X97310000Y-82270000D03*
%TO.P,J105,22*%
%TO.N,/C21*%
X94770000Y-77230000D03*
%TO.P,J105,21*%
%TO.N,/C22*%
X94770000Y-82270000D03*
%TO.P,J105,20*%
%TO.N,GND*%
X92230000Y-77230000D03*
%TO.P,J105,19*%
%TO.N,/C20*%
X92230000Y-82270000D03*
%TO.P,J105,18*%
%TO.N,/C17*%
X89690000Y-77230000D03*
%TO.P,J105,17*%
%TO.N,+3V3*%
X89690000Y-82270000D03*
%TO.P,J105,16*%
%TO.N,/C15*%
X87150000Y-77230000D03*
%TO.P,J105,15*%
%TO.N,/C16*%
X87150000Y-82270000D03*
%TO.P,J105,14*%
%TO.N,GND*%
X84610000Y-77230000D03*
%TO.P,J105,13*%
%TO.N,/C14*%
X84610000Y-82270000D03*
%TO.P,J105,12*%
%TO.N,/C11*%
X82070000Y-77230000D03*
%TO.P,J105,11*%
%TO.N,/C12*%
X82070000Y-82270000D03*
%TO.P,J105,10*%
%TO.N,/C9*%
X79530000Y-77230000D03*
%TO.P,J105,9*%
%TO.N,GND*%
X79530000Y-82270000D03*
%TO.P,J105,8*%
%TO.N,/C7*%
X76990000Y-77230000D03*
%TO.P,J105,7*%
%TO.N,/C8*%
X76990000Y-82270000D03*
%TO.P,J105,6*%
%TO.N,GND*%
X74450000Y-77230000D03*
%TO.P,J105,5*%
%TO.N,/C6*%
X74450000Y-82270000D03*
%TO.P,J105,4*%
%TO.N,+5V*%
X71910000Y-77230000D03*
%TO.P,J105,3*%
%TO.N,/C4*%
X71910000Y-82270000D03*
%TO.P,J105,2*%
%TO.N,+5V*%
X69370000Y-77230000D03*
%TO.P,J105,1*%
%TO.N,/C2*%
X69370000Y-82270000D03*
%TD*%
D15*
%TO.P,REF\u002A\u002A,1*%
%TO.N,N/C*%
X103000000Y-126000000D03*
%TD*%
%TO.P,REF\u002A\u002A,1*%
%TO.N,N/C*%
X71000000Y-126000000D03*
%TD*%
%TO.P,REF\u002A\u002A,1*%
%TO.N,N/C*%
X103000000Y-94000000D03*
%TD*%
%TO.P,REF\u002A\u002A,1*%
%TO.N,N/C*%
X71100000Y-93850000D03*
%TD*%
D12*
%TO.P,J106,6*%
%TO.N,+5V*%
X76500000Y-87700000D03*
%TO.P,J106,5*%
X79040000Y-87700000D03*
%TO.P,J106,4*%
X81580000Y-87700000D03*
%TO.P,J106,3*%
X84120000Y-87700000D03*
%TO.P,J106,2*%
X86660000Y-87700000D03*
D13*
%TO.P,J106,1*%
X89200000Y-87700000D03*
%TD*%
D12*
%TO.P,J104,6*%
%TO.N,+3V3*%
X110200000Y-87700000D03*
%TO.P,J104,5*%
X112740000Y-87700000D03*
%TO.P,J104,4*%
X115280000Y-87700000D03*
%TO.P,J104,3*%
X117820000Y-87700000D03*
%TO.P,J104,2*%
X120360000Y-87700000D03*
D13*
%TO.P,J104,1*%
X122900000Y-87700000D03*
%TD*%
D12*
%TO.P,J103,6*%
%TO.N,GND*%
X93400000Y-87700000D03*
%TO.P,J103,5*%
X95940000Y-87700000D03*
%TO.P,J103,4*%
X98480000Y-87700000D03*
%TO.P,J103,3*%
X101020000Y-87700000D03*
%TO.P,J103,2*%
X103560000Y-87700000D03*
D13*
%TO.P,J103,1*%
X106100000Y-87700000D03*
%TD*%
D16*
%TO.P,J102,2*%
%TO.N,GND*%
X122300000Y-78600000D03*
%TO.P,J102,1*%
%TO.N,Net-(J102-Pad1)*%
%TA.AperFunction,ComponentPad*%
G36*
G01*
X123050000Y-81950000D02*
X121550000Y-81950000D01*
G75*
G02*
X121300000Y-81700000I0J250000D01*
G01*
X121300000Y-80500000D01*
G75*
G02*
X121550000Y-80250000I250000J0D01*
G01*
X123050000Y-80250000D01*
G75*
G02*
X123300000Y-80500000I0J-250000D01*
G01*
X123300000Y-81700000D01*
G75*
G02*
X123050000Y-81950000I-250000J0D01*
G01*
G37*
%TD.AperFunction*%
%TD*%
D17*
%TO.N,/C39*%
X116250000Y-78500000D03*
%TO.N,/C38*%
X113750000Y-81000000D03*
%TO.N,/C37*%
X113750000Y-78500000D03*
%TO.N,/C36*%
X111250000Y-81000000D03*
%TO.N,/C35*%
X111250000Y-78500000D03*
%TO.N,/C34*%
X108750000Y-81000000D03*
%TO.N,/C32*%
X106250000Y-81000000D03*
%TO.N,/C31*%
X106250000Y-78500000D03*
%TO.N,/C30*%
X103750000Y-81000000D03*
%TO.N,/C28*%
X101000000Y-81000000D03*
%TO.N,/C27*%
X101000000Y-78500000D03*
%TO.N,/C25*%
X98500000Y-78500000D03*
%TO.N,/C24*%
X96000000Y-81000000D03*
%TO.N,/C23*%
X96000000Y-78500000D03*
%TO.N,/C22*%
X93500000Y-81000000D03*
%TO.N,/C21*%
X93500000Y-78500000D03*
%TO.N,/C20*%
X91000000Y-81000000D03*
%TO.N,/C17*%
X88500000Y-78500000D03*
%TO.N,/C16*%
X86000000Y-81000000D03*
%TO.N,/C15*%
X86000000Y-78500000D03*
%TO.N,/C14*%
X83250000Y-81000000D03*
%TO.N,/C12*%
X80750000Y-81000000D03*
%TO.N,/C11*%
X80750000Y-78500000D03*
%TO.N,/C9*%
X78250000Y-78500000D03*
%TO.N,/C8*%
X75750000Y-81000000D03*
%TO.N,/C7*%
X75750000Y-78500000D03*
%TO.N,/C6*%
X73250000Y-81000000D03*
%TO.N,/C4*%
X70750000Y-81000000D03*
%TO.N,/C2*%
X68250000Y-81000000D03*
%TO.N,GND*%
X116250000Y-81000000D03*
X108750000Y-78500000D03*
X103500000Y-78500000D03*
X98500000Y-81000000D03*
X91000000Y-78500000D03*
X83250000Y-78500000D03*
X78250000Y-81000000D03*
X73250000Y-78500000D03*
%TO.N,+5V*%
X70749998Y-78500000D03*
X68000000Y-78500000D03*
%TO.N,+3V3*%
X88500000Y-81000000D03*
%TD*%
D18*
%TO.N,/C39*%
X116360000Y-78500000D02*
X117630000Y-77230000D01*
X116250000Y-78500000D02*
X116360000Y-78500000D01*
%TO.N,/C38*%
X113820000Y-81000000D02*
X115090000Y-82270000D01*
X113750000Y-81000000D02*
X113820000Y-81000000D01*
%TO.N,/C37*%
X115090000Y-77230000D02*
X115020000Y-77230000D01*
X115020000Y-77230000D02*
X113750000Y-78500000D01*
%TO.N,/C36*%
X112550000Y-82270000D02*
X112520000Y-82270000D01*
X112520000Y-82270000D02*
X111250000Y-81000000D01*
%TO.N,/C35*%
X111280000Y-78500000D02*
X112550000Y-77230000D01*
X111250000Y-78500000D02*
X111280000Y-78500000D01*
%TO.N,/C34*%
X108750000Y-81010000D02*
X110010000Y-82270000D01*
X108750000Y-81000000D02*
X108750000Y-81010000D01*
%TO.N,/C32*%
X107470000Y-82270000D02*
X107470000Y-82220000D01*
X107470000Y-82220000D02*
X106250000Y-81000000D01*
%TO.N,/C31*%
X106250000Y-78450000D02*
X107470000Y-77230000D01*
X106250000Y-78500000D02*
X106250000Y-78450000D01*
%TO.N,/C30*%
X103750000Y-81090000D02*
X104930000Y-82270000D01*
X103750000Y-81000000D02*
X103750000Y-81090000D01*
%TO.N,/C28*%
X102390000Y-82270000D02*
X102270000Y-82270000D01*
X102270000Y-82270000D02*
X101000000Y-81000000D01*
%TO.N,/C27*%
X101120000Y-78500000D02*
X102390000Y-77230000D01*
X101000000Y-78500000D02*
X101120000Y-78500000D01*
%TO.N,/C25*%
X99850000Y-77230000D02*
X99770000Y-77230000D01*
X99770000Y-77230000D02*
X98500000Y-78500000D01*
%TO.N,/C24*%
X97310000Y-82270000D02*
X97270000Y-82270000D01*
X97270000Y-82270000D02*
X96000000Y-81000000D01*
%TO.N,/C23*%
X96040000Y-78500000D02*
X97310000Y-77230000D01*
X96000000Y-78500000D02*
X96040000Y-78500000D01*
%TO.N,/C22*%
X93500000Y-81000000D02*
X94770000Y-82270000D01*
%TO.N,/C21*%
X94770000Y-77230000D02*
X93500000Y-78500000D01*
%TO.N,/C20*%
X92230000Y-82270000D02*
X92230000Y-82230000D01*
X92230000Y-82230000D02*
X91000000Y-81000000D01*
%TO.N,/C17*%
X89690000Y-77230000D02*
X89690000Y-77310000D01*
X89690000Y-77310000D02*
X88500000Y-78500000D01*
%TO.N,/C16*%
X87150000Y-82270000D02*
X87150000Y-82150000D01*
X87150000Y-82150000D02*
X86000000Y-81000000D01*
%TO.N,/C15*%
X86000000Y-78380000D02*
X87150000Y-77230000D01*
X86000000Y-78500000D02*
X86000000Y-78380000D01*
%TO.N,/C14*%
X83340000Y-81000000D02*
X84610000Y-82270000D01*
X83250000Y-81000000D02*
X83340000Y-81000000D01*
%TO.N,/C12*%
X82070000Y-82270000D02*
X82020000Y-82270000D01*
X82020000Y-82270000D02*
X80750000Y-81000000D01*
%TO.N,/C11*%
X80800000Y-78500000D02*
X82070000Y-77230000D01*
X80750000Y-78500000D02*
X80800000Y-78500000D01*
%TO.N,/C9*%
X79520000Y-77230000D02*
X78250000Y-78500000D01*
X79530000Y-77230000D02*
X79520000Y-77230000D01*
%TO.N,/C8*%
X76990000Y-82270000D02*
X76990000Y-82240000D01*
X76990000Y-82240000D02*
X75750000Y-81000000D01*
%TO.N,/C7*%
X75750000Y-78470000D02*
X76990000Y-77230000D01*
X75750000Y-78500000D02*
X75750000Y-78470000D01*
%TO.N,/C6*%
X73250000Y-81070000D02*
X74450000Y-82270000D01*
X73250000Y-81000000D02*
X73250000Y-81070000D01*
%TO.N,/C4*%
X71910000Y-82270000D02*
X71910000Y-82160000D01*
X71910000Y-82160000D02*
X70750000Y-81000000D01*
%TO.N,/C2*%
X68250000Y-81150000D02*
X68250000Y-81000000D01*
X69370000Y-82270000D02*
X68250000Y-81150000D01*
%TO.N,GND*%
X117630000Y-82270000D02*
X117520000Y-82270000D01*
X117520000Y-82270000D02*
X116250000Y-81000000D01*
X110010000Y-77230000D02*
X110010000Y-77240000D01*
X110010000Y-77240000D02*
X108750000Y-78500000D01*
X104930000Y-77230000D02*
X104770000Y-77230000D01*
X104770000Y-77230000D02*
X103500000Y-78500000D01*
X98580000Y-81000000D02*
X99850000Y-82270000D01*
X98500000Y-81000000D02*
X98580000Y-81000000D01*
X91000000Y-78460000D02*
X92230000Y-77230000D01*
X91000000Y-78500000D02*
X91000000Y-78460000D01*
X84610000Y-77230000D02*
X84520000Y-77230000D01*
X84520000Y-77230000D02*
X83250000Y-78500000D01*
X79530000Y-82270000D02*
X78260000Y-81000000D01*
X78260000Y-81000000D02*
X78250000Y-81000000D01*
X74450000Y-77230000D02*
X74450000Y-77300000D01*
X74450000Y-77300000D02*
X73250000Y-78500000D01*
%TO.N,+5V*%
X70749998Y-78390002D02*
X70749998Y-78500000D01*
X71910000Y-77230000D02*
X70749998Y-78390002D01*
D19*
X69370000Y-77230000D02*
X68100000Y-78500000D01*
D18*
X68100000Y-78500000D02*
X68000000Y-78500000D01*
D19*
X68000000Y-78500000D02*
X67500000Y-78500000D01*
X67500000Y-78500000D02*
X66000000Y-80000000D01*
D18*
X70640000Y-78500000D02*
X69370000Y-77230000D01*
X70749998Y-78500000D02*
X70640000Y-78500000D01*
D19*
X65300000Y-88000000D02*
X65400000Y-88000000D01*
X66000000Y-80000000D02*
X66000000Y-84300000D01*
X66000000Y-84300000D02*
X66000000Y-84700000D01*
X67400000Y-86100000D02*
X66000000Y-84700000D01*
X74500000Y-86100000D02*
X67400000Y-86100000D01*
D18*
X65300000Y-87700000D02*
X65300000Y-87500000D01*
X75100000Y-86100000D02*
X75200000Y-86200000D01*
X74500000Y-86100000D02*
X75100000Y-86100000D01*
D19*
X74900000Y-86100000D02*
X76500000Y-87700000D01*
X74500000Y-86100000D02*
X74900000Y-86100000D01*
X65300000Y-85400000D02*
X66000000Y-84700000D01*
X65300000Y-87500000D02*
X65300000Y-85400000D01*
D18*
%TO.N,+3V3*%
X88500000Y-81080000D02*
X89690000Y-82270000D01*
X88500000Y-81000000D02*
X88500000Y-81080000D01*
D19*
X89690000Y-84390000D02*
X89690000Y-82270000D01*
X107600000Y-85200000D02*
X90500000Y-85200000D01*
X90500000Y-85200000D02*
X89690000Y-84390000D01*
X107700000Y-85200000D02*
X110200000Y-87700000D01*
D18*
X107600000Y-85200000D02*
X107700000Y-85200000D01*
D20*
%TO.N,Net-(J107-Pad11)*%
X115500000Y-117300000D02*
X121500000Y-117300000D01*
%TO.N,Net-(J107-Pad10)*%
X121500000Y-114760000D02*
X115500000Y-114760000D01*
%TO.N,Net-(J107-Pad9)*%
X115500000Y-112220000D02*
X121500000Y-112220000D01*
%TO.N,Net-(J107-Pad8)*%
X121500000Y-109680000D02*
X115500000Y-109680000D01*
%TO.N,Net-(J107-Pad7)*%
X115500000Y-107140000D02*
X121500000Y-107140000D01*
%TO.N,Net-(J107-Pad6)*%
X121500000Y-104600000D02*
X115500000Y-104600000D01*
%TO.N,Net-(J107-Pad5)*%
X115500000Y-102060000D02*
X121500000Y-102060000D01*
%TO.N,Net-(J107-Pad4)*%
X121500000Y-99520000D02*
X115500000Y-99520000D01*
%TO.N,Net-(J107-Pad3)*%
X115500000Y-96980000D02*
X121500000Y-96980000D01*
%TO.N,Net-(J107-Pad2)*%
X121500000Y-94440000D02*
X115500000Y-94440000D01*
%TO.N,Net-(J107-Pad1)*%
X115500000Y-91900000D02*
X121500000Y-91900000D01*
%TO.N,Net-(J107-Pad15)*%
X115500000Y-127460000D02*
X121500000Y-127460000D01*
%TO.N,Net-(J107-Pad14)*%
X121500000Y-124920000D02*
X115500000Y-124920000D01*
%TO.N,Net-(J107-Pad13)*%
X115500000Y-122380000D02*
X121500000Y-122380000D01*
%TO.N,Net-(J107-Pad12)*%
X121500000Y-119840000D02*
X115500000Y-119840000D01*
%TO.N,Net-(J102-Pad1)*%
X124800000Y-83600000D02*
X122300000Y-81100000D01*
X124800000Y-89200000D02*
X124800000Y-83600000D01*
X123700000Y-90300000D02*
X124800000Y-89200000D01*
X75220000Y-90300000D02*
X123700000Y-90300000D01*
X72920000Y-88220000D02*
X72920000Y-87700000D01*
X75220000Y-90300000D02*
X75000000Y-90300000D01*
D18*
X75220000Y-90300000D02*
X75220000Y-90200000D01*
D20*
X75220000Y-90300000D02*
X74500000Y-90300000D01*
X74500000Y-90300000D02*
X72920000Y-88720000D01*
X72920000Y-88720000D02*
X72920000Y-87500000D01*
%TD*%
D21*
%TO.N,GND*%
X73705820Y-75140498D02*
X73595506Y-75199463D01*
X73498815Y-75278815D01*
X73419463Y-75375506D01*
X73360498Y-75485820D01*
X73324188Y-75605518D01*
X73311928Y-75730000D01*
X73315000Y-76944250D01*
X73473750Y-77103000D01*
X74323000Y-77103000D01*
X74323000Y-77083000D01*
X74577000Y-77083000D01*
X74577000Y-77103000D01*
X75426250Y-77103000D01*
X75585000Y-76944250D01*
X75588072Y-75730000D01*
X75575812Y-75605518D01*
X75539502Y-75485820D01*
X75480537Y-75375506D01*
X75401185Y-75278815D01*
X75304494Y-75199463D01*
X75194180Y-75140498D01*
X75093642Y-75110000D01*
X76346358Y-75110000D01*
X76245820Y-75140498D01*
X76135506Y-75199463D01*
X76038815Y-75278815D01*
X75959463Y-75375506D01*
X75900498Y-75485820D01*
X75864188Y-75605518D01*
X75851928Y-75730000D01*
X75851928Y-77293270D01*
X75680199Y-77465000D01*
X75648061Y-77465000D01*
X75553132Y-77483882D01*
X75426250Y-77357000D01*
X74577000Y-77357000D01*
X74577000Y-79206250D01*
X74735750Y-79365000D01*
X74950000Y-79368072D01*
X75074482Y-79355812D01*
X75138706Y-79336330D01*
X75259744Y-79417205D01*
X75448102Y-79495226D01*
X75648061Y-79535000D01*
X75851939Y-79535000D01*
X76051898Y-79495226D01*
X76240256Y-79417205D01*
X76342560Y-79348848D01*
X76365518Y-79355812D01*
X76490000Y-79368072D01*
X77490000Y-79368072D01*
X77614482Y-79355812D01*
X77651195Y-79344675D01*
X77759744Y-79417205D01*
X77948102Y-79495226D01*
X78148061Y-79535000D01*
X78351939Y-79535000D01*
X78551898Y-79495226D01*
X78740256Y-79417205D01*
X78855050Y-79340503D01*
X78905518Y-79355812D01*
X79030000Y-79368072D01*
X80030000Y-79368072D01*
X80154482Y-79355812D01*
X80163685Y-79353020D01*
X80259744Y-79417205D01*
X80448102Y-79495226D01*
X80648061Y-79535000D01*
X80851939Y-79535000D01*
X81051898Y-79495226D01*
X81240256Y-79417205D01*
X81367539Y-79332157D01*
X81445518Y-79355812D01*
X81570000Y-79368072D01*
X82570000Y-79368072D01*
X82694482Y-79355812D01*
X82814180Y-79319502D01*
X82924494Y-79260537D01*
X83021185Y-79181185D01*
X83100537Y-79084494D01*
X83159502Y-78974180D01*
X83195812Y-78854482D01*
X83208072Y-78730000D01*
X83471928Y-78730000D01*
X83484188Y-78854482D01*
X83520498Y-78974180D01*
X83579463Y-79084494D01*
X83658815Y-79181185D01*
X83755506Y-79260537D01*
X83865820Y-79319502D01*
X83985518Y-79355812D01*
X84110000Y-79368072D01*
X84324250Y-79365000D01*
X84483000Y-79206250D01*
X84483000Y-77357000D01*
X83633750Y-77357000D01*
X83475000Y-77515750D01*
X83471928Y-78730000D01*
X83208072Y-78730000D01*
X83208072Y-75730000D01*
X83195812Y-75605518D01*
X83159502Y-75485820D01*
X83100537Y-75375506D01*
X83021185Y-75278815D01*
X82924494Y-75199463D01*
X82814180Y-75140498D01*
X82713642Y-75110000D01*
X83966358Y-75110000D01*
X83865820Y-75140498D01*
X83755506Y-75199463D01*
X83658815Y-75278815D01*
X83579463Y-75375506D01*
X83520498Y-75485820D01*
X83484188Y-75605518D01*
X83471928Y-75730000D01*
X83475000Y-76944250D01*
X83633750Y-77103000D01*
X84483000Y-77103000D01*
X84483000Y-77083000D01*
X84737000Y-77083000D01*
X84737000Y-77103000D01*
X85586250Y-77103000D01*
X85745000Y-76944250D01*
X85748072Y-75730000D01*
X85735812Y-75605518D01*
X85699502Y-75485820D01*
X85640537Y-75375506D01*
X85561185Y-75278815D01*
X85464494Y-75199463D01*
X85354180Y-75140498D01*
X85253642Y-75110000D01*
X86506358Y-75110000D01*
X86405820Y-75140498D01*
X86295506Y-75199463D01*
X86198815Y-75278815D01*
X86119463Y-75375506D01*
X86060498Y-75485820D01*
X86024188Y-75605518D01*
X86011928Y-75730000D01*
X86011928Y-77293271D01*
X85825831Y-77479367D01*
X85728064Y-77498814D01*
X85586250Y-77357000D01*
X84737000Y-77357000D01*
X84737000Y-79206250D01*
X84895750Y-79365000D01*
X85110000Y-79368072D01*
X85234482Y-79355812D01*
X85354180Y-79319502D01*
X85359369Y-79316728D01*
X85509744Y-79417205D01*
X85698102Y-79495226D01*
X85898061Y-79535000D01*
X86101939Y-79535000D01*
X86301898Y-79495226D01*
X86490256Y-79417205D01*
X86574864Y-79360672D01*
X86650000Y-79368072D01*
X87650000Y-79368072D01*
X87774482Y-79355812D01*
X87873094Y-79325898D01*
X88009744Y-79417205D01*
X88198102Y-79495226D01*
X88398061Y-79535000D01*
X88601939Y-79535000D01*
X88801898Y-79495226D01*
X88990256Y-79417205D01*
X89080002Y-79357239D01*
X89190000Y-79368072D01*
X90190000Y-79368072D01*
X90314482Y-79355812D01*
X90434180Y-79319502D01*
X90544494Y-79260537D01*
X90641185Y-79181185D01*
X90720537Y-79084494D01*
X90779502Y-78974180D01*
X90815812Y-78854482D01*
X90828072Y-78730000D01*
X91091928Y-78730000D01*
X91104188Y-78854482D01*
X91140498Y-78974180D01*
X91199463Y-79084494D01*
X91278815Y-79181185D01*
X91375506Y-79260537D01*
X91485820Y-79319502D01*
X91605518Y-79355812D01*
X91730000Y-79368072D01*
X91944250Y-79365000D01*
X92103000Y-79206250D01*
X92103000Y-77357000D01*
X91253750Y-77357000D01*
X91095000Y-77515750D01*
X91091928Y-78730000D01*
X90828072Y-78730000D01*
X90828072Y-75730000D01*
X90815812Y-75605518D01*
X90779502Y-75485820D01*
X90720537Y-75375506D01*
X90641185Y-75278815D01*
X90544494Y-75199463D01*
X90434180Y-75140498D01*
X90333642Y-75110000D01*
X91586358Y-75110000D01*
X91485820Y-75140498D01*
X91375506Y-75199463D01*
X91278815Y-75278815D01*
X91199463Y-75375506D01*
X91140498Y-75485820D01*
X91104188Y-75605518D01*
X91091928Y-75730000D01*
X91095000Y-76944250D01*
X91253750Y-77103000D01*
X92103000Y-77103000D01*
X92103000Y-77083000D01*
X92357000Y-77083000D01*
X92357000Y-77103000D01*
X93206250Y-77103000D01*
X93365000Y-76944250D01*
X93368072Y-75730000D01*
X93355812Y-75605518D01*
X93319502Y-75485820D01*
X93260537Y-75375506D01*
X93181185Y-75278815D01*
X93084494Y-75199463D01*
X92974180Y-75140498D01*
X92873642Y-75110000D01*
X94126358Y-75110000D01*
X94025820Y-75140498D01*
X93915506Y-75199463D01*
X93818815Y-75278815D01*
X93739463Y-75375506D01*
X93680498Y-75485820D01*
X93644188Y-75605518D01*
X93631928Y-75730000D01*
X93631928Y-77293270D01*
X93460199Y-77465000D01*
X93398061Y-77465000D01*
X93328155Y-77478905D01*
X93206250Y-77357000D01*
X92357000Y-77357000D01*
X92357000Y-79206250D01*
X92515750Y-79365000D01*
X92730000Y-79368072D01*
X92854482Y-79355812D01*
X92898073Y-79342589D01*
X93009744Y-79417205D01*
X93198102Y-79495226D01*
X93398061Y-79535000D01*
X93601939Y-79535000D01*
X93801898Y-79495226D01*
X93990256Y-79417205D01*
X94101927Y-79342589D01*
X94145518Y-79355812D01*
X94270000Y-79368072D01*
X95270000Y-79368072D01*
X95394482Y-79355812D01*
X95410562Y-79350934D01*
X95509744Y-79417205D01*
X95698102Y-79495226D01*
X95898061Y-79535000D01*
X96101939Y-79535000D01*
X96301898Y-79495226D01*
X96490256Y-79417205D01*
X96614417Y-79334244D01*
X96685518Y-79355812D01*
X96810000Y-79368072D01*
X97810000Y-79368072D01*
X97919998Y-79357239D01*
X98009744Y-79417205D01*
X98198102Y-79495226D01*
X98398061Y-79535000D01*
X98601939Y-79535000D01*
X98801898Y-79495226D01*
X98990256Y-79417205D01*
X99126906Y-79325898D01*
X99225518Y-79355812D01*
X99350000Y-79368072D01*
X100350000Y-79368072D01*
X100425136Y-79360672D01*
X100509744Y-79417205D01*
X100698102Y-79495226D01*
X100898061Y-79535000D01*
X101101939Y-79535000D01*
X101301898Y-79495226D01*
X101490256Y-79417205D01*
X101640631Y-79316728D01*
X101645820Y-79319502D01*
X101765518Y-79355812D01*
X101890000Y-79368072D01*
X102890000Y-79368072D01*
X103014482Y-79355812D01*
X103134180Y-79319502D01*
X103244494Y-79260537D01*
X103341185Y-79181185D01*
X103420537Y-79084494D01*
X103479502Y-78974180D01*
X103515812Y-78854482D01*
X103528072Y-78730000D01*
X103791928Y-78730000D01*
X103804188Y-78854482D01*
X103840498Y-78974180D01*
X103899463Y-79084494D01*
X103978815Y-79181185D01*
X104075506Y-79260537D01*
X104185820Y-79319502D01*
X104305518Y-79355812D01*
X104430000Y-79368072D01*
X104644250Y-79365000D01*
X104803000Y-79206250D01*
X104803000Y-77357000D01*
X103953750Y-77357000D01*
X103795000Y-77515750D01*
X103791928Y-78730000D01*
X103528072Y-78730000D01*
X103528072Y-75730000D01*
X103515812Y-75605518D01*
X103479502Y-75485820D01*
X103420537Y-75375506D01*
X103341185Y-75278815D01*
X103244494Y-75199463D01*
X103134180Y-75140498D01*
X103033642Y-75110000D01*
X104286358Y-75110000D01*
X104185820Y-75140498D01*
X104075506Y-75199463D01*
X103978815Y-75278815D01*
X103899463Y-75375506D01*
X103840498Y-75485820D01*
X103804188Y-75605518D01*
X103791928Y-75730000D01*
X103795000Y-76944250D01*
X103953750Y-77103000D01*
X104803000Y-77103000D01*
X104803000Y-77083000D01*
X105057000Y-77083000D01*
X105057000Y-77103000D01*
X105906250Y-77103000D01*
X106065000Y-76944250D01*
X106068072Y-75730000D01*
X106055812Y-75605518D01*
X106019502Y-75485820D01*
X105960537Y-75375506D01*
X105881185Y-75278815D01*
X105784494Y-75199463D01*
X105674180Y-75140498D01*
X105573642Y-75110000D01*
X106826358Y-75110000D01*
X106725820Y-75140498D01*
X106615506Y-75199463D01*
X106518815Y-75278815D01*
X106439463Y-75375506D01*
X106380498Y-75485820D01*
X106344188Y-75605518D01*
X106331928Y-75730000D01*
X106331928Y-77293270D01*
X106160199Y-77465000D01*
X106148061Y-77465000D01*
X106036451Y-77487201D01*
X105906250Y-77357000D01*
X105057000Y-77357000D01*
X105057000Y-79206250D01*
X105215750Y-79365000D01*
X105430000Y-79368072D01*
X105554482Y-79355812D01*
X105632461Y-79332157D01*
X105759744Y-79417205D01*
X105948102Y-79495226D01*
X106148061Y-79535000D01*
X106351939Y-79535000D01*
X106551898Y-79495226D01*
X106740256Y-79417205D01*
X106836315Y-79353020D01*
X106845518Y-79355812D01*
X106970000Y-79368072D01*
X107970000Y-79368072D01*
X108094482Y-79355812D01*
X108214180Y-79319502D01*
X108324494Y-79260537D01*
X108421185Y-79181185D01*
X108500537Y-79084494D01*
X108559502Y-78974180D01*
X108595812Y-78854482D01*
X108608072Y-78730000D01*
X108871928Y-78730000D01*
X108884188Y-78854482D01*
X108920498Y-78974180D01*
X108979463Y-79084494D01*
X109058815Y-79181185D01*
X109155506Y-79260537D01*
X109265820Y-79319502D01*
X109385518Y-79355812D01*
X109510000Y-79368072D01*
X109724250Y-79365000D01*
X109883000Y-79206250D01*
X109883000Y-77357000D01*
X109033750Y-77357000D01*
X108875000Y-77515750D01*
X108871928Y-78730000D01*
X108608072Y-78730000D01*
X108608072Y-75730000D01*
X108595812Y-75605518D01*
X108559502Y-75485820D01*
X108500537Y-75375506D01*
X108421185Y-75278815D01*
X108324494Y-75199463D01*
X108214180Y-75140498D01*
X108113642Y-75110000D01*
X109366358Y-75110000D01*
X109265820Y-75140498D01*
X109155506Y-75199463D01*
X109058815Y-75278815D01*
X108979463Y-75375506D01*
X108920498Y-75485820D01*
X108884188Y-75605518D01*
X108871928Y-75730000D01*
X108875000Y-76944250D01*
X109033750Y-77103000D01*
X109883000Y-77103000D01*
X109883000Y-77083000D01*
X110137000Y-77083000D01*
X110137000Y-77103000D01*
X110986250Y-77103000D01*
X111145000Y-76944250D01*
X111148072Y-75730000D01*
X111135812Y-75605518D01*
X111099502Y-75485820D01*
X111040537Y-75375506D01*
X110961185Y-75278815D01*
X110864494Y-75199463D01*
X110754180Y-75140498D01*
X110653642Y-75110000D01*
X111906358Y-75110000D01*
X111805820Y-75140498D01*
X111695506Y-75199463D01*
X111598815Y-75278815D01*
X111519463Y-75375506D01*
X111460498Y-75485820D01*
X111424188Y-75605518D01*
X111411928Y-75730000D01*
X111411928Y-77293270D01*
X111240199Y-77465000D01*
X111148061Y-77465000D01*
X111103178Y-77473928D01*
X110986250Y-77357000D01*
X110137000Y-77357000D01*
X110137000Y-79206250D01*
X110295750Y-79365000D01*
X110510000Y-79368072D01*
X110634482Y-79355812D01*
X110657440Y-79348848D01*
X110759744Y-79417205D01*
X110948102Y-79495226D01*
X111148061Y-79535000D01*
X111351939Y-79535000D01*
X111551898Y-79495226D01*
X111740256Y-79417205D01*
X111861294Y-79336330D01*
X111925518Y-79355812D01*
X112050000Y-79368072D01*
X113050000Y-79368072D01*
X113168713Y-79356380D01*
X113259744Y-79417205D01*
X113448102Y-79495226D01*
X113648061Y-79535000D01*
X113851939Y-79535000D01*
X114051898Y-79495226D01*
X114240256Y-79417205D01*
X114373784Y-79327985D01*
X114465518Y-79355812D01*
X114590000Y-79368072D01*
X115590000Y-79368072D01*
X115673852Y-79359814D01*
X115759744Y-79417205D01*
X115948102Y-79495226D01*
X116148061Y-79535000D01*
X116351939Y-79535000D01*
X116551898Y-79495226D01*
X116740256Y-79417205D01*
X116886273Y-79319640D01*
X117005518Y-79355812D01*
X117130000Y-79368072D01*
X118130000Y-79368072D01*
X118254482Y-79355812D01*
X118374180Y-79319502D01*
X118484494Y-79260537D01*
X118581185Y-79181185D01*
X118660537Y-79084494D01*
X118719502Y-78974180D01*
X118755812Y-78854482D01*
X118768072Y-78730000D01*
X118768072Y-78243110D01*
X120708524Y-78243110D01*
X120829845Y-78473000D01*
X122173000Y-78473000D01*
X122173000Y-77272768D01*
X122427000Y-77272768D01*
X122427000Y-78473000D01*
X123770155Y-78473000D01*
X123891476Y-78243110D01*
X123889554Y-78230739D01*
X123789854Y-77956991D01*
X123638664Y-77707954D01*
X123441795Y-77493198D01*
X123206812Y-77320975D01*
X122942745Y-77197904D01*
X122659742Y-77128715D01*
X122427000Y-77272768D01*
X122173000Y-77272768D01*
X121940258Y-77128715D01*
X121657255Y-77197904D01*
X121393188Y-77320975D01*
X121158205Y-77493198D01*
X120961336Y-77707954D01*
X120810146Y-77956991D01*
X120710446Y-78230739D01*
X120708524Y-78243110D01*
X118768072Y-78243110D01*
X118768072Y-75730000D01*
X118755812Y-75605518D01*
X118719502Y-75485820D01*
X118660537Y-75375506D01*
X118581185Y-75278815D01*
X118484494Y-75199463D01*
X118374180Y-75140498D01*
X118273642Y-75110000D01*
X124865278Y-75110000D01*
X124916820Y-75115054D01*
X124932996Y-75119938D01*
X124947923Y-75127874D01*
X124961018Y-75138554D01*
X124971789Y-75151575D01*
X124979830Y-75166445D01*
X124984827Y-75182590D01*
X124990000Y-75231805D01*
X124990000Y-82538421D01*
X123938072Y-81486494D01*
X123938072Y-80500000D01*
X123921008Y-80326746D01*
X123870472Y-80160150D01*
X123788405Y-80006614D01*
X123677962Y-79872038D01*
X123543386Y-79761595D01*
X123441407Y-79707086D01*
X123441795Y-79706802D01*
X123638664Y-79492046D01*
X123789854Y-79243009D01*
X123889554Y-78969261D01*
X123891476Y-78956890D01*
X123770155Y-78727000D01*
X122427000Y-78727000D01*
X122427000Y-78747000D01*
X122173000Y-78747000D01*
X122173000Y-78727000D01*
X120829845Y-78727000D01*
X120708524Y-78956890D01*
X120710446Y-78969261D01*
X120810146Y-79243009D01*
X120961336Y-79492046D01*
X121158205Y-79706802D01*
X121158593Y-79707086D01*
X121056614Y-79761595D01*
X120922038Y-79872038D01*
X120811595Y-80006614D01*
X120729528Y-80160150D01*
X120678992Y-80326746D01*
X120661928Y-80500000D01*
X120661928Y-81700000D01*
X120678992Y-81873254D01*
X120729528Y-82039850D01*
X120811595Y-82193386D01*
X120922038Y-82327962D01*
X121056614Y-82438405D01*
X121210150Y-82520472D01*
X121376746Y-82571008D01*
X121550000Y-82588072D01*
X122536494Y-82588072D01*
X123915001Y-83966580D01*
X123915001Y-86236479D01*
X123874482Y-86224188D01*
X123750000Y-86211928D01*
X122050000Y-86211928D01*
X121925518Y-86224188D01*
X121805820Y-86260498D01*
X121695506Y-86319463D01*
X121598815Y-86398815D01*
X121519463Y-86495506D01*
X121460498Y-86605820D01*
X121438487Y-86678380D01*
X121306632Y-86546525D01*
X121063411Y-86384010D01*
X120793158Y-86272068D01*
X120506260Y-86215000D01*
X120213740Y-86215000D01*
X119926842Y-86272068D01*
X119656589Y-86384010D01*
X119413368Y-86546525D01*
X119206525Y-86753368D01*
X119090000Y-86927760D01*
X118973475Y-86753368D01*
X118766632Y-86546525D01*
X118523411Y-86384010D01*
X118253158Y-86272068D01*
X117966260Y-86215000D01*
X117673740Y-86215000D01*
X117386842Y-86272068D01*
X117116589Y-86384010D01*
X116873368Y-86546525D01*
X116666525Y-86753368D01*
X116550000Y-86927760D01*
X116433475Y-86753368D01*
X116226632Y-86546525D01*
X115983411Y-86384010D01*
X115713158Y-86272068D01*
X115426260Y-86215000D01*
X115133740Y-86215000D01*
X114846842Y-86272068D01*
X114576589Y-86384010D01*
X114333368Y-86546525D01*
X114126525Y-86753368D01*
X114010000Y-86927760D01*
X113893475Y-86753368D01*
X113686632Y-86546525D01*
X113443411Y-86384010D01*
X113173158Y-86272068D01*
X112886260Y-86215000D01*
X112593740Y-86215000D01*
X112306842Y-86272068D01*
X112036589Y-86384010D01*
X111793368Y-86546525D01*
X111586525Y-86753368D01*
X111470000Y-86927760D01*
X111353475Y-86753368D01*
X111146632Y-86546525D01*
X110903411Y-86384010D01*
X110633158Y-86272068D01*
X110346260Y-86215000D01*
X110108001Y-86215000D01*
X108362290Y-84469290D01*
X108249883Y-84377041D01*
X108215625Y-84358730D01*
X108324494Y-84300537D01*
X108421185Y-84221185D01*
X108500537Y-84124494D01*
X108559502Y-84014180D01*
X108595812Y-83894482D01*
X108608072Y-83770000D01*
X108608072Y-82027046D01*
X108648061Y-82035000D01*
X108700199Y-82035000D01*
X108871928Y-82206730D01*
X108871928Y-83770000D01*
X108884188Y-83894482D01*
X108920498Y-84014180D01*
X108979463Y-84124494D01*
X109058815Y-84221185D01*
X109155506Y-84300537D01*
X109265820Y-84359502D01*
X109385518Y-84395812D01*
X109510000Y-84408072D01*
X110510000Y-84408072D01*
X110634482Y-84395812D01*
X110754180Y-84359502D01*
X110864494Y-84300537D01*
X110961185Y-84221185D01*
X111040537Y-84124494D01*
X111099502Y-84014180D01*
X111135812Y-83894482D01*
X111148072Y-83770000D01*
X111148072Y-82035000D01*
X111210199Y-82035000D01*
X111411928Y-82236730D01*
X111411928Y-83770000D01*
X111424188Y-83894482D01*
X111460498Y-84014180D01*
X111519463Y-84124494D01*
X111598815Y-84221185D01*
X111695506Y-84300537D01*
X111805820Y-84359502D01*
X111925518Y-84395812D01*
X112050000Y-84408072D01*
X113050000Y-84408072D01*
X113174482Y-84395812D01*
X113294180Y-84359502D01*
X113404494Y-84300537D01*
X113501185Y-84221185D01*
X113580537Y-84124494D01*
X113639502Y-84014180D01*
X113675812Y-83894482D01*
X113688072Y-83770000D01*
X113688072Y-82035000D01*
X113780199Y-82035000D01*
X113951928Y-82206730D01*
X113951928Y-83770000D01*
X113964188Y-83894482D01*
X114000498Y-84014180D01*
X114059463Y-84124494D01*
X114138815Y-84221185D01*
X114235506Y-84300537D01*
X114345820Y-84359502D01*
X114465518Y-84395812D01*
X114590000Y-84408072D01*
X115590000Y-84408072D01*
X115714482Y-84395812D01*
X115834180Y-84359502D01*
X115944494Y-84300537D01*
X116041185Y-84221185D01*
X116120537Y-84124494D01*
X116179502Y-84014180D01*
X116215812Y-83894482D01*
X116228072Y-83770000D01*
X116491928Y-83770000D01*
X116504188Y-83894482D01*
X116540498Y-84014180D01*
X116599463Y-84124494D01*
X116678815Y-84221185D01*
X116775506Y-84300537D01*
X116885820Y-84359502D01*
X117005518Y-84395812D01*
X117130000Y-84408072D01*
X117344250Y-84405000D01*
X117503000Y-84246250D01*
X117503000Y-82397000D01*
X117757000Y-82397000D01*
X117757000Y-84246250D01*
X117915750Y-84405000D01*
X118130000Y-84408072D01*
X118254482Y-84395812D01*
X118374180Y-84359502D01*
X118484494Y-84300537D01*
X118581185Y-84221185D01*
X118660537Y-84124494D01*
X118719502Y-84014180D01*
X118755812Y-83894482D01*
X118768072Y-83770000D01*
X118765000Y-82555750D01*
X118606250Y-82397000D01*
X117757000Y-82397000D01*
X117503000Y-82397000D01*
X116653750Y-82397000D01*
X116495000Y-82555750D01*
X116491928Y-83770000D01*
X116228072Y-83770000D01*
X116228072Y-80770000D01*
X116491928Y-80770000D01*
X116495000Y-81984250D01*
X116653750Y-82143000D01*
X117503000Y-82143000D01*
X117503000Y-80293750D01*
X117757000Y-80293750D01*
X117757000Y-82143000D01*
X118606250Y-82143000D01*
X118765000Y-81984250D01*
X118768072Y-80770000D01*
X118755812Y-80645518D01*
X118719502Y-80525820D01*
X118660537Y-80415506D01*
X118581185Y-80318815D01*
X118484494Y-80239463D01*
X118374180Y-80180498D01*
X118254482Y-80144188D01*
X118130000Y-80131928D01*
X117915750Y-80135000D01*
X117757000Y-80293750D01*
X117503000Y-80293750D01*
X117344250Y-80135000D01*
X117130000Y-80131928D01*
X117005518Y-80144188D01*
X116885820Y-80180498D01*
X116775506Y-80239463D01*
X116678815Y-80318815D01*
X116599463Y-80415506D01*
X116540498Y-80525820D01*
X116504188Y-80645518D01*
X116491928Y-80770000D01*
X116228072Y-80770000D01*
X116215812Y-80645518D01*
X116179502Y-80525820D01*
X116120537Y-80415506D01*
X116041185Y-80318815D01*
X115944494Y-80239463D01*
X115834180Y-80180498D01*
X115714482Y-80144188D01*
X115590000Y-80131928D01*
X114590000Y-80131928D01*
X114465518Y-80144188D01*
X114373784Y-80172015D01*
X114240256Y-80082795D01*
X114051898Y-80004774D01*
X113851939Y-79965000D01*
X113648061Y-79965000D01*
X113448102Y-80004774D01*
X113259744Y-80082795D01*
X113168713Y-80143620D01*
X113050000Y-80131928D01*
X112050000Y-80131928D01*
X111925518Y-80144188D01*
X111861294Y-80163670D01*
X111740256Y-80082795D01*
X111551898Y-80004774D01*
X111351939Y-79965000D01*
X111148061Y-79965000D01*
X110948102Y-80004774D01*
X110759744Y-80082795D01*
X110657440Y-80151152D01*
X110634482Y-80144188D01*
X110510000Y-80131928D01*
X109510000Y-80131928D01*
X109385518Y-80144188D01*
X109348805Y-80155325D01*
X109240256Y-80082795D01*
X109051898Y-80004774D01*
X108851939Y-79965000D01*
X108648061Y-79965000D01*
X108448102Y-80004774D01*
X108259744Y-80082795D01*
X108144950Y-80159497D01*
X108094482Y-80144188D01*
X107970000Y-80131928D01*
X106970000Y-80131928D01*
X106845518Y-80144188D01*
X106836315Y-80146980D01*
X106740256Y-80082795D01*
X106551898Y-80004774D01*
X106351939Y-79965000D01*
X106148061Y-79965000D01*
X105948102Y-80004774D01*
X105759744Y-80082795D01*
X105632461Y-80167843D01*
X105554482Y-80144188D01*
X105430000Y-80131928D01*
X104430000Y-80131928D01*
X104328718Y-80141903D01*
X104240256Y-80082795D01*
X104051898Y-80004774D01*
X103851939Y-79965000D01*
X103648061Y-79965000D01*
X103448102Y-80004774D01*
X103259744Y-80082795D01*
X103119971Y-80176188D01*
X103014482Y-80144188D01*
X102890000Y-80131928D01*
X101890000Y-80131928D01*
X101765518Y-80144188D01*
X101645820Y-80180498D01*
X101640631Y-80183272D01*
X101490256Y-80082795D01*
X101301898Y-80004774D01*
X101101939Y-79965000D01*
X100898061Y-79965000D01*
X100698102Y-80004774D01*
X100509744Y-80082795D01*
X100425136Y-80139328D01*
X100350000Y-80131928D01*
X100135750Y-80135000D01*
X99977000Y-80293750D01*
X99977000Y-80837732D01*
X99965000Y-80898061D01*
X99965000Y-81101939D01*
X99977000Y-81162268D01*
X99977000Y-82143000D01*
X100826250Y-82143000D01*
X100934250Y-82035000D01*
X100960199Y-82035000D01*
X101251928Y-82326730D01*
X101251928Y-83770000D01*
X101264188Y-83894482D01*
X101300498Y-84014180D01*
X101359463Y-84124494D01*
X101433739Y-84215000D01*
X100806261Y-84215000D01*
X100880537Y-84124494D01*
X100939502Y-84014180D01*
X100975812Y-83894482D01*
X100988072Y-83770000D01*
X100985000Y-82555750D01*
X100826250Y-82397000D01*
X99977000Y-82397000D01*
X99977000Y-82417000D01*
X99723000Y-82417000D01*
X99723000Y-82397000D01*
X98873750Y-82397000D01*
X98715000Y-82555750D01*
X98711928Y-83770000D01*
X98724188Y-83894482D01*
X98760498Y-84014180D01*
X98819463Y-84124494D01*
X98893739Y-84215000D01*
X98266261Y-84215000D01*
X98340537Y-84124494D01*
X98399502Y-84014180D01*
X98435812Y-83894482D01*
X98448072Y-83770000D01*
X98448072Y-80770000D01*
X98711928Y-80770000D01*
X98715000Y-81984250D01*
X98873750Y-82143000D01*
X99723000Y-82143000D01*
X99723000Y-80293750D01*
X99564250Y-80135000D01*
X99350000Y-80131928D01*
X99225518Y-80144188D01*
X99105820Y-80180498D01*
X98995506Y-80239463D01*
X98898815Y-80318815D01*
X98819463Y-80415506D01*
X98760498Y-80525820D01*
X98724188Y-80645518D01*
X98711928Y-80770000D01*
X98448072Y-80770000D01*
X98435812Y-80645518D01*
X98399502Y-80525820D01*
X98340537Y-80415506D01*
X98261185Y-80318815D01*
X98164494Y-80239463D01*
X98054180Y-80180498D01*
X97934482Y-80144188D01*
X97810000Y-80131928D01*
X96810000Y-80131928D01*
X96685518Y-80144188D01*
X96614417Y-80165756D01*
X96490256Y-80082795D01*
X96301898Y-80004774D01*
X96101939Y-79965000D01*
X95898061Y-79965000D01*
X95698102Y-80004774D01*
X95509744Y-80082795D01*
X95410562Y-80149066D01*
X95394482Y-80144188D01*
X95270000Y-80131928D01*
X94270000Y-80131928D01*
X94145518Y-80144188D01*
X94101927Y-80157411D01*
X93990256Y-80082795D01*
X93801898Y-80004774D01*
X93601939Y-79965000D01*
X93398061Y-79965000D01*
X93198102Y-80004774D01*
X93009744Y-80082795D01*
X92898073Y-80157411D01*
X92854482Y-80144188D01*
X92730000Y-80131928D01*
X91730000Y-80131928D01*
X91605518Y-80144188D01*
X91589438Y-80149066D01*
X91490256Y-80082795D01*
X91301898Y-80004774D01*
X91101939Y-79965000D01*
X90898061Y-79965000D01*
X90698102Y-80004774D01*
X90509744Y-80082795D01*
X90385583Y-80165756D01*
X90314482Y-80144188D01*
X90190000Y-80131928D01*
X89190000Y-80131928D01*
X89080002Y-80142761D01*
X88990256Y-80082795D01*
X88801898Y-80004774D01*
X88601939Y-79965000D01*
X88398061Y-79965000D01*
X88198102Y-80004774D01*
X88009744Y-80082795D01*
X87873094Y-80174102D01*
X87774482Y-80144188D01*
X87650000Y-80131928D01*
X86650000Y-80131928D01*
X86574864Y-80139328D01*
X86490256Y-80082795D01*
X86301898Y-80004774D01*
X86101939Y-79965000D01*
X85898061Y-79965000D01*
X85698102Y-80004774D01*
X85509744Y-80082795D01*
X85359369Y-80183272D01*
X85354180Y-80180498D01*
X85234482Y-80144188D01*
X85110000Y-80131928D01*
X84110000Y-80131928D01*
X83985518Y-80144188D01*
X83880029Y-80176188D01*
X83740256Y-80082795D01*
X83551898Y-80004774D01*
X83351939Y-79965000D01*
X83148061Y-79965000D01*
X82948102Y-80004774D01*
X82759744Y-80082795D01*
X82671282Y-80141903D01*
X82570000Y-80131928D01*
X81570000Y-80131928D01*
X81445518Y-80144188D01*
X81367539Y-80167843D01*
X81240256Y-80082795D01*
X81051898Y-80004774D01*
X80851939Y-79965000D01*
X80648061Y-79965000D01*
X80448102Y-80004774D01*
X80259744Y-80082795D01*
X80163685Y-80146980D01*
X80154482Y-80144188D01*
X80030000Y-80131928D01*
X79815750Y-80135000D01*
X79657000Y-80293750D01*
X79657000Y-82143000D01*
X80506250Y-82143000D01*
X80619860Y-82029390D01*
X80648061Y-82035000D01*
X80710199Y-82035000D01*
X80931928Y-82256730D01*
X80931928Y-83770000D01*
X80944188Y-83894482D01*
X80980498Y-84014180D01*
X81039463Y-84124494D01*
X81118815Y-84221185D01*
X81215506Y-84300537D01*
X81325820Y-84359502D01*
X81445518Y-84395812D01*
X81570000Y-84408072D01*
X82570000Y-84408072D01*
X82694482Y-84395812D01*
X82814180Y-84359502D01*
X82924494Y-84300537D01*
X83021185Y-84221185D01*
X83100537Y-84124494D01*
X83159502Y-84014180D01*
X83195812Y-83894482D01*
X83208072Y-83770000D01*
X83208072Y-82035000D01*
X83300199Y-82035000D01*
X83471928Y-82206730D01*
X83471928Y-83770000D01*
X83484188Y-83894482D01*
X83520498Y-84014180D01*
X83579463Y-84124494D01*
X83658815Y-84221185D01*
X83755506Y-84300537D01*
X83865820Y-84359502D01*
X83985518Y-84395812D01*
X84110000Y-84408072D01*
X85110000Y-84408072D01*
X85234482Y-84395812D01*
X85354180Y-84359502D01*
X85464494Y-84300537D01*
X85561185Y-84221185D01*
X85640537Y-84124494D01*
X85699502Y-84014180D01*
X85735812Y-83894482D01*
X85748072Y-83770000D01*
X85748072Y-82005166D01*
X85898061Y-82035000D01*
X85960199Y-82035000D01*
X86011928Y-82086729D01*
X86011928Y-83770000D01*
X86024188Y-83894482D01*
X86060498Y-84014180D01*
X86119463Y-84124494D01*
X86198815Y-84221185D01*
X86295506Y-84300537D01*
X86405820Y-84359502D01*
X86525518Y-84395812D01*
X86650000Y-84408072D01*
X87650000Y-84408072D01*
X87774482Y-84395812D01*
X87894180Y-84359502D01*
X88004494Y-84300537D01*
X88101185Y-84221185D01*
X88180537Y-84124494D01*
X88239502Y-84014180D01*
X88275812Y-83894482D01*
X88288072Y-83770000D01*
X88288072Y-82013122D01*
X88375763Y-82030565D01*
X88551928Y-82206729D01*
X88551928Y-83770000D01*
X88564188Y-83894482D01*
X88600498Y-84014180D01*
X88659463Y-84124494D01*
X88705000Y-84179981D01*
X88705000Y-84341620D01*
X88700235Y-84390000D01*
X88705000Y-84438379D01*
X88719253Y-84583093D01*
X88775576Y-84768766D01*
X88867040Y-84939884D01*
X88990130Y-85089870D01*
X89027715Y-85120715D01*
X89769288Y-85862289D01*
X89800130Y-85899870D01*
X89950116Y-86022960D01*
X90094003Y-86099869D01*
X90121233Y-86114424D01*
X90306906Y-86170747D01*
X90500000Y-86189765D01*
X90548380Y-86185000D01*
X107292000Y-86185000D01*
X108715000Y-87608001D01*
X108715000Y-87846260D01*
X108772068Y-88133158D01*
X108884010Y-88403411D01*
X109046525Y-88646632D01*
X109253368Y-88853475D01*
X109496589Y-89015990D01*
X109766842Y-89127932D01*
X110053740Y-89185000D01*
X110346260Y-89185000D01*
X110633158Y-89127932D01*
X110903411Y-89015990D01*
X111146632Y-88853475D01*
X111353475Y-88646632D01*
X111470000Y-88472240D01*
X111586525Y-88646632D01*
X111793368Y-88853475D01*
X112036589Y-89015990D01*
X112306842Y-89127932D01*
X112593740Y-89185000D01*
X112886260Y-89185000D01*
X113173158Y-89127932D01*
X113443411Y-89015990D01*
X113686632Y-88853475D01*
X113893475Y-88646632D01*
X114010000Y-88472240D01*
X114126525Y-88646632D01*
X114333368Y-88853475D01*
X114576589Y-89015990D01*
X114846842Y-89127932D01*
X115133740Y-89185000D01*
X115426260Y-89185000D01*
X115713158Y-89127932D01*
X115983411Y-89015990D01*
X116226632Y-88853475D01*
X116433475Y-88646632D01*
X116550000Y-88472240D01*
X116666525Y-88646632D01*
X116873368Y-88853475D01*
X117116589Y-89015990D01*
X117386842Y-89127932D01*
X117673740Y-89185000D01*
X117966260Y-89185000D01*
X118253158Y-89127932D01*
X118523411Y-89015990D01*
X118766632Y-88853475D01*
X118973475Y-88646632D01*
X119090000Y-88472240D01*
X119206525Y-88646632D01*
X119413368Y-88853475D01*
X119656589Y-89015990D01*
X119926842Y-89127932D01*
X120213740Y-89185000D01*
X120506260Y-89185000D01*
X120793158Y-89127932D01*
X121063411Y-89015990D01*
X121306632Y-88853475D01*
X121438487Y-88721620D01*
X121460498Y-88794180D01*
X121519463Y-88904494D01*
X121598815Y-89001185D01*
X121695506Y-89080537D01*
X121805820Y-89139502D01*
X121925518Y-89175812D01*
X122050000Y-89188072D01*
X123560350Y-89188072D01*
X123333422Y-89415000D01*
X74866579Y-89415000D01*
X73950487Y-88498909D01*
X74034637Y-88414759D01*
X74191680Y-88179727D01*
X74299853Y-87918574D01*
X74355000Y-87641335D01*
X74355000Y-87358665D01*
X74300564Y-87085000D01*
X74492000Y-87085000D01*
X75015000Y-87608001D01*
X75015000Y-87846260D01*
X75072068Y-88133158D01*
X75184010Y-88403411D01*
X75346525Y-88646632D01*
X75553368Y-88853475D01*
X75796589Y-89015990D01*
X76066842Y-89127932D01*
X76353740Y-89185000D01*
X76646260Y-89185000D01*
X76933158Y-89127932D01*
X77203411Y-89015990D01*
X77446632Y-88853475D01*
X77653475Y-88646632D01*
X77770000Y-88472240D01*
X77886525Y-88646632D01*
X78093368Y-88853475D01*
X78336589Y-89015990D01*
X78606842Y-89127932D01*
X78893740Y-89185000D01*
X79186260Y-89185000D01*
X79473158Y-89127932D01*
X79743411Y-89015990D01*
X79986632Y-88853475D01*
X80193475Y-88646632D01*
X80310000Y-88472240D01*
X80426525Y-88646632D01*
X80633368Y-88853475D01*
X80876589Y-89015990D01*
X81146842Y-89127932D01*
X81433740Y-89185000D01*
X81726260Y-89185000D01*
X82013158Y-89127932D01*
X82283411Y-89015990D01*
X82526632Y-88853475D01*
X82733475Y-88646632D01*
X82850000Y-88472240D01*
X82966525Y-88646632D01*
X83173368Y-88853475D01*
X83416589Y-89015990D01*
X83686842Y-89127932D01*
X83973740Y-89185000D01*
X84266260Y-89185000D01*
X84553158Y-89127932D01*
X84823411Y-89015990D01*
X85066632Y-88853475D01*
X85273475Y-88646632D01*
X85390000Y-88472240D01*
X85506525Y-88646632D01*
X85713368Y-88853475D01*
X85956589Y-89015990D01*
X86226842Y-89127932D01*
X86513740Y-89185000D01*
X86806260Y-89185000D01*
X87093158Y-89127932D01*
X87363411Y-89015990D01*
X87606632Y-88853475D01*
X87738487Y-88721620D01*
X87760498Y-88794180D01*
X87819463Y-88904494D01*
X87898815Y-89001185D01*
X87995506Y-89080537D01*
X88105820Y-89139502D01*
X88225518Y-89175812D01*
X88350000Y-89188072D01*
X90050000Y-89188072D01*
X90174482Y-89175812D01*
X90294180Y-89139502D01*
X90404494Y-89080537D01*
X90501185Y-89001185D01*
X90580537Y-88904494D01*
X90639502Y-88794180D01*
X90675812Y-88674482D01*
X90688072Y-88550000D01*
X90688072Y-88056891D01*
X91958519Y-88056891D01*
X92055843Y-88331252D01*
X92204822Y-88581355D01*
X92399731Y-88797588D01*
X92633080Y-88971641D01*
X92895901Y-89096825D01*
X93043110Y-89141476D01*
X93273000Y-89020155D01*
X93273000Y-87827000D01*
X93527000Y-87827000D01*
X93527000Y-89020155D01*
X93756890Y-89141476D01*
X93904099Y-89096825D01*
X94166920Y-88971641D01*
X94400269Y-88797588D01*
X94595178Y-88581355D01*
X94670000Y-88455745D01*
X94744822Y-88581355D01*
X94939731Y-88797588D01*
X95173080Y-88971641D01*
X95435901Y-89096825D01*
X95583110Y-89141476D01*
X95813000Y-89020155D01*
X95813000Y-87827000D01*
X96067000Y-87827000D01*
X96067000Y-89020155D01*
X96296890Y-89141476D01*
X96444099Y-89096825D01*
X96706920Y-88971641D01*
X96940269Y-88797588D01*
X97135178Y-88581355D01*
X97210000Y-88455745D01*
X97284822Y-88581355D01*
X97479731Y-88797588D01*
X97713080Y-88971641D01*
X97975901Y-89096825D01*
X98123110Y-89141476D01*
X98353000Y-89020155D01*
X98353000Y-87827000D01*
X98607000Y-87827000D01*
X98607000Y-89020155D01*
X98836890Y-89141476D01*
X98984099Y-89096825D01*
X99246920Y-88971641D01*
X99480269Y-88797588D01*
X99675178Y-88581355D01*
X99750000Y-88455745D01*
X99824822Y-88581355D01*
X100019731Y-88797588D01*
X100253080Y-88971641D01*
X100515901Y-89096825D01*
X100663110Y-89141476D01*
X100893000Y-89020155D01*
X100893000Y-87827000D01*
X101147000Y-87827000D01*
X101147000Y-89020155D01*
X101376890Y-89141476D01*
X101524099Y-89096825D01*
X101786920Y-88971641D01*
X102020269Y-88797588D01*
X102215178Y-88581355D01*
X102290000Y-88455745D01*
X102364822Y-88581355D01*
X102559731Y-88797588D01*
X102793080Y-88971641D01*
X103055901Y-89096825D01*
X103203110Y-89141476D01*
X103433000Y-89020155D01*
X103433000Y-87827000D01*
X103687000Y-87827000D01*
X103687000Y-89020155D01*
X103916890Y-89141476D01*
X104064099Y-89096825D01*
X104326920Y-88971641D01*
X104560269Y-88797588D01*
X104636034Y-88713534D01*
X104660498Y-88794180D01*
X104719463Y-88904494D01*
X104798815Y-89001185D01*
X104895506Y-89080537D01*
X105005820Y-89139502D01*
X105125518Y-89175812D01*
X105250000Y-89188072D01*
X105814250Y-89185000D01*
X105973000Y-89026250D01*
X105973000Y-87827000D01*
X106227000Y-87827000D01*
X106227000Y-89026250D01*
X106385750Y-89185000D01*
X106950000Y-89188072D01*
X107074482Y-89175812D01*
X107194180Y-89139502D01*
X107304494Y-89080537D01*
X107401185Y-89001185D01*
X107480537Y-88904494D01*
X107539502Y-88794180D01*
X107575812Y-88674482D01*
X107588072Y-88550000D01*
X107585000Y-87985750D01*
X107426250Y-87827000D01*
X106227000Y-87827000D01*
X105973000Y-87827000D01*
X103687000Y-87827000D01*
X103433000Y-87827000D01*
X101147000Y-87827000D01*
X100893000Y-87827000D01*
X98607000Y-87827000D01*
X98353000Y-87827000D01*
X96067000Y-87827000D01*
X95813000Y-87827000D01*
X93527000Y-87827000D01*
X93273000Y-87827000D01*
X92079186Y-87827000D01*
X91958519Y-88056891D01*
X90688072Y-88056891D01*
X90688072Y-87343109D01*
X91958519Y-87343109D01*
X92079186Y-87573000D01*
X93273000Y-87573000D01*
X93273000Y-86379845D01*
X93527000Y-86379845D01*
X93527000Y-87573000D01*
X95813000Y-87573000D01*
X95813000Y-86379845D01*
X96067000Y-86379845D01*
X96067000Y-87573000D01*
X98353000Y-87573000D01*
X98353000Y-86379845D01*
X98607000Y-86379845D01*
X98607000Y-87573000D01*
X100893000Y-87573000D01*
X100893000Y-86379845D01*
X101147000Y-86379845D01*
X101147000Y-87573000D01*
X103433000Y-87573000D01*
X103433000Y-86379845D01*
X103687000Y-86379845D01*
X103687000Y-87573000D01*
X105973000Y-87573000D01*
X105973000Y-86373750D01*
X106227000Y-86373750D01*
X106227000Y-87573000D01*
X107426250Y-87573000D01*
X107585000Y-87414250D01*
X107588072Y-86850000D01*
X107575812Y-86725518D01*
X107539502Y-86605820D01*
X107480537Y-86495506D01*
X107401185Y-86398815D01*
X107304494Y-86319463D01*
X107194180Y-86260498D01*
X107074482Y-86224188D01*
X106950000Y-86211928D01*
X106385750Y-86215000D01*
X106227000Y-86373750D01*
X105973000Y-86373750D01*
X105814250Y-86215000D01*
X105250000Y-86211928D01*
X105125518Y-86224188D01*
X105005820Y-86260498D01*
X104895506Y-86319463D01*
X104798815Y-86398815D01*
X104719463Y-86495506D01*
X104660498Y-86605820D01*
X104636034Y-86686466D01*
X104560269Y-86602412D01*
X104326920Y-86428359D01*
X104064099Y-86303175D01*
X103916890Y-86258524D01*
X103687000Y-86379845D01*
X103433000Y-86379845D01*
X103203110Y-86258524D01*
X103055901Y-86303175D01*
X102793080Y-86428359D01*
X102559731Y-86602412D01*
X102364822Y-86818645D01*
X102290000Y-86944255D01*
X102215178Y-86818645D01*
X102020269Y-86602412D01*
X101786920Y-86428359D01*
X101524099Y-86303175D01*
X101376890Y-86258524D01*
X101147000Y-86379845D01*
X100893000Y-86379845D01*
X100663110Y-86258524D01*
X100515901Y-86303175D01*
X100253080Y-86428359D01*
X100019731Y-86602412D01*
X99824822Y-86818645D01*
X99750000Y-86944255D01*
X99675178Y-86818645D01*
X99480269Y-86602412D01*
X99246920Y-86428359D01*
X98984099Y-86303175D01*
X98836890Y-86258524D01*
X98607000Y-86379845D01*
X98353000Y-86379845D01*
X98123110Y-86258524D01*
X97975901Y-86303175D01*
X97713080Y-86428359D01*
X97479731Y-86602412D01*
X97284822Y-86818645D01*
X97210000Y-86944255D01*
X97135178Y-86818645D01*
X96940269Y-86602412D01*
X96706920Y-86428359D01*
X96444099Y-86303175D01*
X96296890Y-86258524D01*
X96067000Y-86379845D01*
X95813000Y-86379845D01*
X95583110Y-86258524D01*
X95435901Y-86303175D01*
X95173080Y-86428359D01*
X94939731Y-86602412D01*
X94744822Y-86818645D01*
X94670000Y-86944255D01*
X94595178Y-86818645D01*
X94400269Y-86602412D01*
X94166920Y-86428359D01*
X93904099Y-86303175D01*
X93756890Y-86258524D01*
X93527000Y-86379845D01*
X93273000Y-86379845D01*
X93043110Y-86258524D01*
X92895901Y-86303175D01*
X92633080Y-86428359D01*
X92399731Y-86602412D01*
X92204822Y-86818645D01*
X92055843Y-87068748D01*
X91958519Y-87343109D01*
X90688072Y-87343109D01*
X90688072Y-86850000D01*
X90675812Y-86725518D01*
X90639502Y-86605820D01*
X90580537Y-86495506D01*
X90501185Y-86398815D01*
X90404494Y-86319463D01*
X90294180Y-86260498D01*
X90174482Y-86224188D01*
X90050000Y-86211928D01*
X88350000Y-86211928D01*
X88225518Y-86224188D01*
X88105820Y-86260498D01*
X87995506Y-86319463D01*
X87898815Y-86398815D01*
X87819463Y-86495506D01*
X87760498Y-86605820D01*
X87738487Y-86678380D01*
X87606632Y-86546525D01*
X87363411Y-86384010D01*
X87093158Y-86272068D01*
X86806260Y-86215000D01*
X86513740Y-86215000D01*
X86226842Y-86272068D01*
X85956589Y-86384010D01*
X85713368Y-86546525D01*
X85506525Y-86753368D01*
X85390000Y-86927760D01*
X85273475Y-86753368D01*
X85066632Y-86546525D01*
X84823411Y-86384010D01*
X84553158Y-86272068D01*
X84266260Y-86215000D01*
X83973740Y-86215000D01*
X83686842Y-86272068D01*
X83416589Y-86384010D01*
X83173368Y-86546525D01*
X82966525Y-86753368D01*
X82850000Y-86927760D01*
X82733475Y-86753368D01*
X82526632Y-86546525D01*
X82283411Y-86384010D01*
X82013158Y-86272068D01*
X81726260Y-86215000D01*
X81433740Y-86215000D01*
X81146842Y-86272068D01*
X80876589Y-86384010D01*
X80633368Y-86546525D01*
X80426525Y-86753368D01*
X80310000Y-86927760D01*
X80193475Y-86753368D01*
X79986632Y-86546525D01*
X79743411Y-86384010D01*
X79473158Y-86272068D01*
X79186260Y-86215000D01*
X78893740Y-86215000D01*
X78606842Y-86272068D01*
X78336589Y-86384010D01*
X78093368Y-86546525D01*
X77886525Y-86753368D01*
X77770000Y-86927760D01*
X77653475Y-86753368D01*
X77446632Y-86546525D01*
X77203411Y-86384010D01*
X76933158Y-86272068D01*
X76646260Y-86215000D01*
X76408001Y-86215000D01*
X75630716Y-85437715D01*
X75599870Y-85400130D01*
X75449884Y-85277040D01*
X75278767Y-85185576D01*
X75093094Y-85129253D01*
X74948380Y-85115000D01*
X74900000Y-85110235D01*
X74851620Y-85115000D01*
X67808001Y-85115000D01*
X66985000Y-84292000D01*
X66985000Y-80898061D01*
X67215000Y-80898061D01*
X67215000Y-81101939D01*
X67254774Y-81301898D01*
X67332795Y-81490256D01*
X67446063Y-81659774D01*
X67590226Y-81803937D01*
X67759744Y-81917205D01*
X67948102Y-81995226D01*
X68038382Y-82013184D01*
X68231928Y-82206729D01*
X68231928Y-83770000D01*
X68244188Y-83894482D01*
X68280498Y-84014180D01*
X68339463Y-84124494D01*
X68418815Y-84221185D01*
X68515506Y-84300537D01*
X68625820Y-84359502D01*
X68745518Y-84395812D01*
X68870000Y-84408072D01*
X69870000Y-84408072D01*
X69994482Y-84395812D01*
X70114180Y-84359502D01*
X70224494Y-84300537D01*
X70321185Y-84221185D01*
X70400537Y-84124494D01*
X70459502Y-84014180D01*
X70495812Y-83894482D01*
X70508072Y-83770000D01*
X70508072Y-82007155D01*
X70648061Y-82035000D01*
X70710199Y-82035000D01*
X70771928Y-82096729D01*
X70771928Y-83770000D01*
X70784188Y-83894482D01*
X70820498Y-84014180D01*
X70879463Y-84124494D01*
X70958815Y-84221185D01*
X71055506Y-84300537D01*
X71165820Y-84359502D01*
X71285518Y-84395812D01*
X71410000Y-84408072D01*
X72410000Y-84408072D01*
X72534482Y-84395812D01*
X72654180Y-84359502D01*
X72764494Y-84300537D01*
X72861185Y-84221185D01*
X72940537Y-84124494D01*
X72999502Y-84014180D01*
X73035812Y-83894482D01*
X73048072Y-83770000D01*
X73048072Y-82015111D01*
X73138246Y-82033048D01*
X73311928Y-82206729D01*
X73311928Y-83770000D01*
X73324188Y-83894482D01*
X73360498Y-84014180D01*
X73419463Y-84124494D01*
X73498815Y-84221185D01*
X73595506Y-84300537D01*
X73705820Y-84359502D01*
X73825518Y-84395812D01*
X73950000Y-84408072D01*
X74950000Y-84408072D01*
X75074482Y-84395812D01*
X75194180Y-84359502D01*
X75304494Y-84300537D01*
X75401185Y-84221185D01*
X75480537Y-84124494D01*
X75539502Y-84014180D01*
X75575812Y-83894482D01*
X75588072Y-83770000D01*
X75588072Y-82023068D01*
X75648061Y-82035000D01*
X75710199Y-82035000D01*
X75851928Y-82176730D01*
X75851928Y-83770000D01*
X75864188Y-83894482D01*
X75900498Y-84014180D01*
X75959463Y-84124494D01*
X76038815Y-84221185D01*
X76135506Y-84300537D01*
X76245820Y-84359502D01*
X76365518Y-84395812D01*
X76490000Y-84408072D01*
X77490000Y-84408072D01*
X77614482Y-84395812D01*
X77734180Y-84359502D01*
X77844494Y-84300537D01*
X77941185Y-84221185D01*
X78020537Y-84124494D01*
X78079502Y-84014180D01*
X78115812Y-83894482D01*
X78128072Y-83770000D01*
X78391928Y-83770000D01*
X78404188Y-83894482D01*
X78440498Y-84014180D01*
X78499463Y-84124494D01*
X78578815Y-84221185D01*
X78675506Y-84300537D01*
X78785820Y-84359502D01*
X78905518Y-84395812D01*
X79030000Y-84408072D01*
X79244250Y-84405000D01*
X79403000Y-84246250D01*
X79403000Y-82397000D01*
X79657000Y-82397000D01*
X79657000Y-84246250D01*
X79815750Y-84405000D01*
X80030000Y-84408072D01*
X80154482Y-84395812D01*
X80274180Y-84359502D01*
X80384494Y-84300537D01*
X80481185Y-84221185D01*
X80560537Y-84124494D01*
X80619502Y-84014180D01*
X80655812Y-83894482D01*
X80668072Y-83770000D01*
X80665000Y-82555750D01*
X80506250Y-82397000D01*
X79657000Y-82397000D01*
X79403000Y-82397000D01*
X78553750Y-82397000D01*
X78395000Y-82555750D01*
X78391928Y-83770000D01*
X78128072Y-83770000D01*
X78128072Y-80770000D01*
X78391928Y-80770000D01*
X78395000Y-81984250D01*
X78553750Y-82143000D01*
X79403000Y-82143000D01*
X79403000Y-80293750D01*
X79244250Y-80135000D01*
X79030000Y-80131928D01*
X78905518Y-80144188D01*
X78785820Y-80180498D01*
X78675506Y-80239463D01*
X78578815Y-80318815D01*
X78499463Y-80415506D01*
X78440498Y-80525820D01*
X78404188Y-80645518D01*
X78391928Y-80770000D01*
X78128072Y-80770000D01*
X78115812Y-80645518D01*
X78079502Y-80525820D01*
X78020537Y-80415506D01*
X77941185Y-80318815D01*
X77844494Y-80239463D01*
X77734180Y-80180498D01*
X77614482Y-80144188D01*
X77490000Y-80131928D01*
X76490000Y-80131928D01*
X76365518Y-80144188D01*
X76342560Y-80151152D01*
X76240256Y-80082795D01*
X76051898Y-80004774D01*
X75851939Y-79965000D01*
X75648061Y-79965000D01*
X75448102Y-80004774D01*
X75259744Y-80082795D01*
X75138706Y-80163670D01*
X75074482Y-80144188D01*
X74950000Y-80131928D01*
X73950000Y-80131928D01*
X73831287Y-80143620D01*
X73740256Y-80082795D01*
X73551898Y-80004774D01*
X73351939Y-79965000D01*
X73148061Y-79965000D01*
X72948102Y-80004774D01*
X72759744Y-80082795D01*
X72626216Y-80172015D01*
X72534482Y-80144188D01*
X72410000Y-80131928D01*
X71410000Y-80131928D01*
X71326148Y-80140186D01*
X71240256Y-80082795D01*
X71051898Y-80004774D01*
X70851939Y-79965000D01*
X70648061Y-79965000D01*
X70448102Y-80004774D01*
X70259744Y-80082795D01*
X70113727Y-80180360D01*
X69994482Y-80144188D01*
X69870000Y-80131928D01*
X68870000Y-80131928D01*
X68821010Y-80136753D01*
X68740256Y-80082795D01*
X68551898Y-80004774D01*
X68351939Y-79965000D01*
X68148061Y-79965000D01*
X67948102Y-80004774D01*
X67759744Y-80082795D01*
X67590226Y-80196063D01*
X67446063Y-80340226D01*
X67332795Y-80509744D01*
X67254774Y-80698102D01*
X67215000Y-80898061D01*
X66985000Y-80898061D01*
X66985000Y-80408000D01*
X67864647Y-79528353D01*
X67898061Y-79535000D01*
X68101939Y-79535000D01*
X68301898Y-79495226D01*
X68490256Y-79417205D01*
X68557012Y-79372600D01*
X68645297Y-79325410D01*
X68745518Y-79355812D01*
X68870000Y-79368072D01*
X69870000Y-79368072D01*
X69994482Y-79355812D01*
X70113725Y-79319640D01*
X70259742Y-79417205D01*
X70448100Y-79495226D01*
X70648059Y-79535000D01*
X70851937Y-79535000D01*
X71051896Y-79495226D01*
X71240254Y-79417205D01*
X71326147Y-79359813D01*
X71410000Y-79368072D01*
X72410000Y-79368072D01*
X72534482Y-79355812D01*
X72654180Y-79319502D01*
X72764494Y-79260537D01*
X72861185Y-79181185D01*
X72940537Y-79084494D01*
X72999502Y-78974180D01*
X73035812Y-78854482D01*
X73048072Y-78730000D01*
X73311928Y-78730000D01*
X73324188Y-78854482D01*
X73360498Y-78974180D01*
X73419463Y-79084494D01*
X73498815Y-79181185D01*
X73595506Y-79260537D01*
X73705820Y-79319502D01*
X73825518Y-79355812D01*
X73950000Y-79368072D01*
X74164250Y-79365000D01*
X74323000Y-79206250D01*
X74323000Y-77357000D01*
X73473750Y-77357000D01*
X73315000Y-77515750D01*
X73311928Y-78730000D01*
X73048072Y-78730000D01*
X73048072Y-75730000D01*
X73035812Y-75605518D01*
X72999502Y-75485820D01*
X72940537Y-75375506D01*
X72861185Y-75278815D01*
X72764494Y-75199463D01*
X72654180Y-75140498D01*
X72553642Y-75110000D01*
X73806358Y-75110000D01*
X73705820Y-75140498D01*
%TA.AperFunction,Conductor*%
D22*
G36*
X73705820Y-75140498D02*
G01*
X73595506Y-75199463D01*
X73498815Y-75278815D01*
X73419463Y-75375506D01*
X73360498Y-75485820D01*
X73324188Y-75605518D01*
X73311928Y-75730000D01*
X73315000Y-76944250D01*
X73473750Y-77103000D01*
X74323000Y-77103000D01*
X74323000Y-77083000D01*
X74577000Y-77083000D01*
X74577000Y-77103000D01*
X75426250Y-77103000D01*
X75585000Y-76944250D01*
X75588072Y-75730000D01*
X75575812Y-75605518D01*
X75539502Y-75485820D01*
X75480537Y-75375506D01*
X75401185Y-75278815D01*
X75304494Y-75199463D01*
X75194180Y-75140498D01*
X75093642Y-75110000D01*
X76346358Y-75110000D01*
X76245820Y-75140498D01*
X76135506Y-75199463D01*
X76038815Y-75278815D01*
X75959463Y-75375506D01*
X75900498Y-75485820D01*
X75864188Y-75605518D01*
X75851928Y-75730000D01*
X75851928Y-77293270D01*
X75680199Y-77465000D01*
X75648061Y-77465000D01*
X75553132Y-77483882D01*
X75426250Y-77357000D01*
X74577000Y-77357000D01*
X74577000Y-79206250D01*
X74735750Y-79365000D01*
X74950000Y-79368072D01*
X75074482Y-79355812D01*
X75138706Y-79336330D01*
X75259744Y-79417205D01*
X75448102Y-79495226D01*
X75648061Y-79535000D01*
X75851939Y-79535000D01*
X76051898Y-79495226D01*
X76240256Y-79417205D01*
X76342560Y-79348848D01*
X76365518Y-79355812D01*
X76490000Y-79368072D01*
X77490000Y-79368072D01*
X77614482Y-79355812D01*
X77651195Y-79344675D01*
X77759744Y-79417205D01*
X77948102Y-79495226D01*
X78148061Y-79535000D01*
X78351939Y-79535000D01*
X78551898Y-79495226D01*
X78740256Y-79417205D01*
X78855050Y-79340503D01*
X78905518Y-79355812D01*
X79030000Y-79368072D01*
X80030000Y-79368072D01*
X80154482Y-79355812D01*
X80163685Y-79353020D01*
X80259744Y-79417205D01*
X80448102Y-79495226D01*
X80648061Y-79535000D01*
X80851939Y-79535000D01*
X81051898Y-79495226D01*
X81240256Y-79417205D01*
X81367539Y-79332157D01*
X81445518Y-79355812D01*
X81570000Y-79368072D01*
X82570000Y-79368072D01*
X82694482Y-79355812D01*
X82814180Y-79319502D01*
X82924494Y-79260537D01*
X83021185Y-79181185D01*
X83100537Y-79084494D01*
X83159502Y-78974180D01*
X83195812Y-78854482D01*
X83208072Y-78730000D01*
X83471928Y-78730000D01*
X83484188Y-78854482D01*
X83520498Y-78974180D01*
X83579463Y-79084494D01*
X83658815Y-79181185D01*
X83755506Y-79260537D01*
X83865820Y-79319502D01*
X83985518Y-79355812D01*
X84110000Y-79368072D01*
X84324250Y-79365000D01*
X84483000Y-79206250D01*
X84483000Y-77357000D01*
X83633750Y-77357000D01*
X83475000Y-77515750D01*
X83471928Y-78730000D01*
X83208072Y-78730000D01*
X83208072Y-75730000D01*
X83195812Y-75605518D01*
X83159502Y-75485820D01*
X83100537Y-75375506D01*
X83021185Y-75278815D01*
X82924494Y-75199463D01*
X82814180Y-75140498D01*
X82713642Y-75110000D01*
X83966358Y-75110000D01*
X83865820Y-75140498D01*
X83755506Y-75199463D01*
X83658815Y-75278815D01*
X83579463Y-75375506D01*
X83520498Y-75485820D01*
X83484188Y-75605518D01*
X83471928Y-75730000D01*
X83475000Y-76944250D01*
X83633750Y-77103000D01*
X84483000Y-77103000D01*
X84483000Y-77083000D01*
X84737000Y-77083000D01*
X84737000Y-77103000D01*
X85586250Y-77103000D01*
X85745000Y-76944250D01*
X85748072Y-75730000D01*
X85735812Y-75605518D01*
X85699502Y-75485820D01*
X85640537Y-75375506D01*
X85561185Y-75278815D01*
X85464494Y-75199463D01*
X85354180Y-75140498D01*
X85253642Y-75110000D01*
X86506358Y-75110000D01*
X86405820Y-75140498D01*
X86295506Y-75199463D01*
X86198815Y-75278815D01*
X86119463Y-75375506D01*
X86060498Y-75485820D01*
X86024188Y-75605518D01*
X86011928Y-75730000D01*
X86011928Y-77293271D01*
X85825831Y-77479367D01*
X85728064Y-77498814D01*
X85586250Y-77357000D01*
X84737000Y-77357000D01*
X84737000Y-79206250D01*
X84895750Y-79365000D01*
X85110000Y-79368072D01*
X85234482Y-79355812D01*
X85354180Y-79319502D01*
X85359369Y-79316728D01*
X85509744Y-79417205D01*
X85698102Y-79495226D01*
X85898061Y-79535000D01*
X86101939Y-79535000D01*
X86301898Y-79495226D01*
X86490256Y-79417205D01*
X86574864Y-79360672D01*
X86650000Y-79368072D01*
X87650000Y-79368072D01*
X87774482Y-79355812D01*
X87873094Y-79325898D01*
X88009744Y-79417205D01*
X88198102Y-79495226D01*
X88398061Y-79535000D01*
X88601939Y-79535000D01*
X88801898Y-79495226D01*
X88990256Y-79417205D01*
X89080002Y-79357239D01*
X89190000Y-79368072D01*
X90190000Y-79368072D01*
X90314482Y-79355812D01*
X90434180Y-79319502D01*
X90544494Y-79260537D01*
X90641185Y-79181185D01*
X90720537Y-79084494D01*
X90779502Y-78974180D01*
X90815812Y-78854482D01*
X90828072Y-78730000D01*
X91091928Y-78730000D01*
X91104188Y-78854482D01*
X91140498Y-78974180D01*
X91199463Y-79084494D01*
X91278815Y-79181185D01*
X91375506Y-79260537D01*
X91485820Y-79319502D01*
X91605518Y-79355812D01*
X91730000Y-79368072D01*
X91944250Y-79365000D01*
X92103000Y-79206250D01*
X92103000Y-77357000D01*
X91253750Y-77357000D01*
X91095000Y-77515750D01*
X91091928Y-78730000D01*
X90828072Y-78730000D01*
X90828072Y-75730000D01*
X90815812Y-75605518D01*
X90779502Y-75485820D01*
X90720537Y-75375506D01*
X90641185Y-75278815D01*
X90544494Y-75199463D01*
X90434180Y-75140498D01*
X90333642Y-75110000D01*
X91586358Y-75110000D01*
X91485820Y-75140498D01*
X91375506Y-75199463D01*
X91278815Y-75278815D01*
X91199463Y-75375506D01*
X91140498Y-75485820D01*
X91104188Y-75605518D01*
X91091928Y-75730000D01*
X91095000Y-76944250D01*
X91253750Y-77103000D01*
X92103000Y-77103000D01*
X92103000Y-77083000D01*
X92357000Y-77083000D01*
X92357000Y-77103000D01*
X93206250Y-77103000D01*
X93365000Y-76944250D01*
X93368072Y-75730000D01*
X93355812Y-75605518D01*
X93319502Y-75485820D01*
X93260537Y-75375506D01*
X93181185Y-75278815D01*
X93084494Y-75199463D01*
X92974180Y-75140498D01*
X92873642Y-75110000D01*
X94126358Y-75110000D01*
X94025820Y-75140498D01*
X93915506Y-75199463D01*
X93818815Y-75278815D01*
X93739463Y-75375506D01*
X93680498Y-75485820D01*
X93644188Y-75605518D01*
X93631928Y-75730000D01*
X93631928Y-77293270D01*
X93460199Y-77465000D01*
X93398061Y-77465000D01*
X93328155Y-77478905D01*
X93206250Y-77357000D01*
X92357000Y-77357000D01*
X92357000Y-79206250D01*
X92515750Y-79365000D01*
X92730000Y-79368072D01*
X92854482Y-79355812D01*
X92898073Y-79342589D01*
X93009744Y-79417205D01*
X93198102Y-79495226D01*
X93398061Y-79535000D01*
X93601939Y-79535000D01*
X93801898Y-79495226D01*
X93990256Y-79417205D01*
X94101927Y-79342589D01*
X94145518Y-79355812D01*
X94270000Y-79368072D01*
X95270000Y-79368072D01*
X95394482Y-79355812D01*
X95410562Y-79350934D01*
X95509744Y-79417205D01*
X95698102Y-79495226D01*
X95898061Y-79535000D01*
X96101939Y-79535000D01*
X96301898Y-79495226D01*
X96490256Y-79417205D01*
X96614417Y-79334244D01*
X96685518Y-79355812D01*
X96810000Y-79368072D01*
X97810000Y-79368072D01*
X97919998Y-79357239D01*
X98009744Y-79417205D01*
X98198102Y-79495226D01*
X98398061Y-79535000D01*
X98601939Y-79535000D01*
X98801898Y-79495226D01*
X98990256Y-79417205D01*
X99126906Y-79325898D01*
X99225518Y-79355812D01*
X99350000Y-79368072D01*
X100350000Y-79368072D01*
X100425136Y-79360672D01*
X100509744Y-79417205D01*
X100698102Y-79495226D01*
X100898061Y-79535000D01*
X101101939Y-79535000D01*
X101301898Y-79495226D01*
X101490256Y-79417205D01*
X101640631Y-79316728D01*
X101645820Y-79319502D01*
X101765518Y-79355812D01*
X101890000Y-79368072D01*
X102890000Y-79368072D01*
X103014482Y-79355812D01*
X103134180Y-79319502D01*
X103244494Y-79260537D01*
X103341185Y-79181185D01*
X103420537Y-79084494D01*
X103479502Y-78974180D01*
X103515812Y-78854482D01*
X103528072Y-78730000D01*
X103791928Y-78730000D01*
X103804188Y-78854482D01*
X103840498Y-78974180D01*
X103899463Y-79084494D01*
X103978815Y-79181185D01*
X104075506Y-79260537D01*
X104185820Y-79319502D01*
X104305518Y-79355812D01*
X104430000Y-79368072D01*
X104644250Y-79365000D01*
X104803000Y-79206250D01*
X104803000Y-77357000D01*
X103953750Y-77357000D01*
X103795000Y-77515750D01*
X103791928Y-78730000D01*
X103528072Y-78730000D01*
X103528072Y-75730000D01*
X103515812Y-75605518D01*
X103479502Y-75485820D01*
X103420537Y-75375506D01*
X103341185Y-75278815D01*
X103244494Y-75199463D01*
X103134180Y-75140498D01*
X103033642Y-75110000D01*
X104286358Y-75110000D01*
X104185820Y-75140498D01*
X104075506Y-75199463D01*
X103978815Y-75278815D01*
X103899463Y-75375506D01*
X103840498Y-75485820D01*
X103804188Y-75605518D01*
X103791928Y-75730000D01*
X103795000Y-76944250D01*
X103953750Y-77103000D01*
X104803000Y-77103000D01*
X104803000Y-77083000D01*
X105057000Y-77083000D01*
X105057000Y-77103000D01*
X105906250Y-77103000D01*
X106065000Y-76944250D01*
X106068072Y-75730000D01*
X106055812Y-75605518D01*
X106019502Y-75485820D01*
X105960537Y-75375506D01*
X105881185Y-75278815D01*
X105784494Y-75199463D01*
X105674180Y-75140498D01*
X105573642Y-75110000D01*
X106826358Y-75110000D01*
X106725820Y-75140498D01*
X106615506Y-75199463D01*
X106518815Y-75278815D01*
X106439463Y-75375506D01*
X106380498Y-75485820D01*
X106344188Y-75605518D01*
X106331928Y-75730000D01*
X106331928Y-77293270D01*
X106160199Y-77465000D01*
X106148061Y-77465000D01*
X106036451Y-77487201D01*
X105906250Y-77357000D01*
X105057000Y-77357000D01*
X105057000Y-79206250D01*
X105215750Y-79365000D01*
X105430000Y-79368072D01*
X105554482Y-79355812D01*
X105632461Y-79332157D01*
X105759744Y-79417205D01*
X105948102Y-79495226D01*
X106148061Y-79535000D01*
X106351939Y-79535000D01*
X106551898Y-79495226D01*
X106740256Y-79417205D01*
X106836315Y-79353020D01*
X106845518Y-79355812D01*
X106970000Y-79368072D01*
X107970000Y-79368072D01*
X108094482Y-79355812D01*
X108214180Y-79319502D01*
X108324494Y-79260537D01*
X108421185Y-79181185D01*
X108500537Y-79084494D01*
X108559502Y-78974180D01*
X108595812Y-78854482D01*
X108608072Y-78730000D01*
X108871928Y-78730000D01*
X108884188Y-78854482D01*
X108920498Y-78974180D01*
X108979463Y-79084494D01*
X109058815Y-79181185D01*
X109155506Y-79260537D01*
X109265820Y-79319502D01*
X109385518Y-79355812D01*
X109510000Y-79368072D01*
X109724250Y-79365000D01*
X109883000Y-79206250D01*
X109883000Y-77357000D01*
X109033750Y-77357000D01*
X108875000Y-77515750D01*
X108871928Y-78730000D01*
X108608072Y-78730000D01*
X108608072Y-75730000D01*
X108595812Y-75605518D01*
X108559502Y-75485820D01*
X108500537Y-75375506D01*
X108421185Y-75278815D01*
X108324494Y-75199463D01*
X108214180Y-75140498D01*
X108113642Y-75110000D01*
X109366358Y-75110000D01*
X109265820Y-75140498D01*
X109155506Y-75199463D01*
X109058815Y-75278815D01*
X108979463Y-75375506D01*
X108920498Y-75485820D01*
X108884188Y-75605518D01*
X108871928Y-75730000D01*
X108875000Y-76944250D01*
X109033750Y-77103000D01*
X109883000Y-77103000D01*
X109883000Y-77083000D01*
X110137000Y-77083000D01*
X110137000Y-77103000D01*
X110986250Y-77103000D01*
X111145000Y-76944250D01*
X111148072Y-75730000D01*
X111135812Y-75605518D01*
X111099502Y-75485820D01*
X111040537Y-75375506D01*
X110961185Y-75278815D01*
X110864494Y-75199463D01*
X110754180Y-75140498D01*
X110653642Y-75110000D01*
X111906358Y-75110000D01*
X111805820Y-75140498D01*
X111695506Y-75199463D01*
X111598815Y-75278815D01*
X111519463Y-75375506D01*
X111460498Y-75485820D01*
X111424188Y-75605518D01*
X111411928Y-75730000D01*
X111411928Y-77293270D01*
X111240199Y-77465000D01*
X111148061Y-77465000D01*
X111103178Y-77473928D01*
X110986250Y-77357000D01*
X110137000Y-77357000D01*
X110137000Y-79206250D01*
X110295750Y-79365000D01*
X110510000Y-79368072D01*
X110634482Y-79355812D01*
X110657440Y-79348848D01*
X110759744Y-79417205D01*
X110948102Y-79495226D01*
X111148061Y-79535000D01*
X111351939Y-79535000D01*
X111551898Y-79495226D01*
X111740256Y-79417205D01*
X111861294Y-79336330D01*
X111925518Y-79355812D01*
X112050000Y-79368072D01*
X113050000Y-79368072D01*
X113168713Y-79356380D01*
X113259744Y-79417205D01*
X113448102Y-79495226D01*
X113648061Y-79535000D01*
X113851939Y-79535000D01*
X114051898Y-79495226D01*
X114240256Y-79417205D01*
X114373784Y-79327985D01*
X114465518Y-79355812D01*
X114590000Y-79368072D01*
X115590000Y-79368072D01*
X115673852Y-79359814D01*
X115759744Y-79417205D01*
X115948102Y-79495226D01*
X116148061Y-79535000D01*
X116351939Y-79535000D01*
X116551898Y-79495226D01*
X116740256Y-79417205D01*
X116886273Y-79319640D01*
X117005518Y-79355812D01*
X117130000Y-79368072D01*
X118130000Y-79368072D01*
X118254482Y-79355812D01*
X118374180Y-79319502D01*
X118484494Y-79260537D01*
X118581185Y-79181185D01*
X118660537Y-79084494D01*
X118719502Y-78974180D01*
X118755812Y-78854482D01*
X118768072Y-78730000D01*
X118768072Y-78243110D01*
X120708524Y-78243110D01*
X120829845Y-78473000D01*
X122173000Y-78473000D01*
X122173000Y-77272768D01*
X122427000Y-77272768D01*
X122427000Y-78473000D01*
X123770155Y-78473000D01*
X123891476Y-78243110D01*
X123889554Y-78230739D01*
X123789854Y-77956991D01*
X123638664Y-77707954D01*
X123441795Y-77493198D01*
X123206812Y-77320975D01*
X122942745Y-77197904D01*
X122659742Y-77128715D01*
X122427000Y-77272768D01*
X122173000Y-77272768D01*
X121940258Y-77128715D01*
X121657255Y-77197904D01*
X121393188Y-77320975D01*
X121158205Y-77493198D01*
X120961336Y-77707954D01*
X120810146Y-77956991D01*
X120710446Y-78230739D01*
X120708524Y-78243110D01*
X118768072Y-78243110D01*
X118768072Y-75730000D01*
X118755812Y-75605518D01*
X118719502Y-75485820D01*
X118660537Y-75375506D01*
X118581185Y-75278815D01*
X118484494Y-75199463D01*
X118374180Y-75140498D01*
X118273642Y-75110000D01*
X124865278Y-75110000D01*
X124916820Y-75115054D01*
X124932996Y-75119938D01*
X124947923Y-75127874D01*
X124961018Y-75138554D01*
X124971789Y-75151575D01*
X124979830Y-75166445D01*
X124984827Y-75182590D01*
X124990000Y-75231805D01*
X124990000Y-82538421D01*
X123938072Y-81486494D01*
X123938072Y-80500000D01*
X123921008Y-80326746D01*
X123870472Y-80160150D01*
X123788405Y-80006614D01*
X123677962Y-79872038D01*
X123543386Y-79761595D01*
X123441407Y-79707086D01*
X123441795Y-79706802D01*
X123638664Y-79492046D01*
X123789854Y-79243009D01*
X123889554Y-78969261D01*
X123891476Y-78956890D01*
X123770155Y-78727000D01*
X122427000Y-78727000D01*
X122427000Y-78747000D01*
X122173000Y-78747000D01*
X122173000Y-78727000D01*
X120829845Y-78727000D01*
X120708524Y-78956890D01*
X120710446Y-78969261D01*
X120810146Y-79243009D01*
X120961336Y-79492046D01*
X121158205Y-79706802D01*
X121158593Y-79707086D01*
X121056614Y-79761595D01*
X120922038Y-79872038D01*
X120811595Y-80006614D01*
X120729528Y-80160150D01*
X120678992Y-80326746D01*
X120661928Y-80500000D01*
X120661928Y-81700000D01*
X120678992Y-81873254D01*
X120729528Y-82039850D01*
X120811595Y-82193386D01*
X120922038Y-82327962D01*
X121056614Y-82438405D01*
X121210150Y-82520472D01*
X121376746Y-82571008D01*
X121550000Y-82588072D01*
X122536494Y-82588072D01*
X123915001Y-83966580D01*
X123915001Y-86236479D01*
X123874482Y-86224188D01*
X123750000Y-86211928D01*
X122050000Y-86211928D01*
X121925518Y-86224188D01*
X121805820Y-86260498D01*
X121695506Y-86319463D01*
X121598815Y-86398815D01*
X121519463Y-86495506D01*
X121460498Y-86605820D01*
X121438487Y-86678380D01*
X121306632Y-86546525D01*
X121063411Y-86384010D01*
X120793158Y-86272068D01*
X120506260Y-86215000D01*
X120213740Y-86215000D01*
X119926842Y-86272068D01*
X119656589Y-86384010D01*
X119413368Y-86546525D01*
X119206525Y-86753368D01*
X119090000Y-86927760D01*
X118973475Y-86753368D01*
X118766632Y-86546525D01*
X118523411Y-86384010D01*
X118253158Y-86272068D01*
X117966260Y-86215000D01*
X117673740Y-86215000D01*
X117386842Y-86272068D01*
X117116589Y-86384010D01*
X116873368Y-86546525D01*
X116666525Y-86753368D01*
X116550000Y-86927760D01*
X116433475Y-86753368D01*
X116226632Y-86546525D01*
X115983411Y-86384010D01*
X115713158Y-86272068D01*
X115426260Y-86215000D01*
X115133740Y-86215000D01*
X114846842Y-86272068D01*
X114576589Y-86384010D01*
X114333368Y-86546525D01*
X114126525Y-86753368D01*
X114010000Y-86927760D01*
X113893475Y-86753368D01*
X113686632Y-86546525D01*
X113443411Y-86384010D01*
X113173158Y-86272068D01*
X112886260Y-86215000D01*
X112593740Y-86215000D01*
X112306842Y-86272068D01*
X112036589Y-86384010D01*
X111793368Y-86546525D01*
X111586525Y-86753368D01*
X111470000Y-86927760D01*
X111353475Y-86753368D01*
X111146632Y-86546525D01*
X110903411Y-86384010D01*
X110633158Y-86272068D01*
X110346260Y-86215000D01*
X110108001Y-86215000D01*
X108362290Y-84469290D01*
X108249883Y-84377041D01*
X108215625Y-84358730D01*
X108324494Y-84300537D01*
X108421185Y-84221185D01*
X108500537Y-84124494D01*
X108559502Y-84014180D01*
X108595812Y-83894482D01*
X108608072Y-83770000D01*
X108608072Y-82027046D01*
X108648061Y-82035000D01*
X108700199Y-82035000D01*
X108871928Y-82206730D01*
X108871928Y-83770000D01*
X108884188Y-83894482D01*
X108920498Y-84014180D01*
X108979463Y-84124494D01*
X109058815Y-84221185D01*
X109155506Y-84300537D01*
X109265820Y-84359502D01*
X109385518Y-84395812D01*
X109510000Y-84408072D01*
X110510000Y-84408072D01*
X110634482Y-84395812D01*
X110754180Y-84359502D01*
X110864494Y-84300537D01*
X110961185Y-84221185D01*
X111040537Y-84124494D01*
X111099502Y-84014180D01*
X111135812Y-83894482D01*
X111148072Y-83770000D01*
X111148072Y-82035000D01*
X111210199Y-82035000D01*
X111411928Y-82236730D01*
X111411928Y-83770000D01*
X111424188Y-83894482D01*
X111460498Y-84014180D01*
X111519463Y-84124494D01*
X111598815Y-84221185D01*
X111695506Y-84300537D01*
X111805820Y-84359502D01*
X111925518Y-84395812D01*
X112050000Y-84408072D01*
X113050000Y-84408072D01*
X113174482Y-84395812D01*
X113294180Y-84359502D01*
X113404494Y-84300537D01*
X113501185Y-84221185D01*
X113580537Y-84124494D01*
X113639502Y-84014180D01*
X113675812Y-83894482D01*
X113688072Y-83770000D01*
X113688072Y-82035000D01*
X113780199Y-82035000D01*
X113951928Y-82206730D01*
X113951928Y-83770000D01*
X113964188Y-83894482D01*
X114000498Y-84014180D01*
X114059463Y-84124494D01*
X114138815Y-84221185D01*
X114235506Y-84300537D01*
X114345820Y-84359502D01*
X114465518Y-84395812D01*
X114590000Y-84408072D01*
X115590000Y-84408072D01*
X115714482Y-84395812D01*
X115834180Y-84359502D01*
X115944494Y-84300537D01*
X116041185Y-84221185D01*
X116120537Y-84124494D01*
X116179502Y-84014180D01*
X116215812Y-83894482D01*
X116228072Y-83770000D01*
X116491928Y-83770000D01*
X116504188Y-83894482D01*
X116540498Y-84014180D01*
X116599463Y-84124494D01*
X116678815Y-84221185D01*
X116775506Y-84300537D01*
X116885820Y-84359502D01*
X117005518Y-84395812D01*
X117130000Y-84408072D01*
X117344250Y-84405000D01*
X117503000Y-84246250D01*
X117503000Y-82397000D01*
X117757000Y-82397000D01*
X117757000Y-84246250D01*
X117915750Y-84405000D01*
X118130000Y-84408072D01*
X118254482Y-84395812D01*
X118374180Y-84359502D01*
X118484494Y-84300537D01*
X118581185Y-84221185D01*
X118660537Y-84124494D01*
X118719502Y-84014180D01*
X118755812Y-83894482D01*
X118768072Y-83770000D01*
X118765000Y-82555750D01*
X118606250Y-82397000D01*
X117757000Y-82397000D01*
X117503000Y-82397000D01*
X116653750Y-82397000D01*
X116495000Y-82555750D01*
X116491928Y-83770000D01*
X116228072Y-83770000D01*
X116228072Y-80770000D01*
X116491928Y-80770000D01*
X116495000Y-81984250D01*
X116653750Y-82143000D01*
X117503000Y-82143000D01*
X117503000Y-80293750D01*
X117757000Y-80293750D01*
X117757000Y-82143000D01*
X118606250Y-82143000D01*
X118765000Y-81984250D01*
X118768072Y-80770000D01*
X118755812Y-80645518D01*
X118719502Y-80525820D01*
X118660537Y-80415506D01*
X118581185Y-80318815D01*
X118484494Y-80239463D01*
X118374180Y-80180498D01*
X118254482Y-80144188D01*
X118130000Y-80131928D01*
X117915750Y-80135000D01*
X117757000Y-80293750D01*
X117503000Y-80293750D01*
X117344250Y-80135000D01*
X117130000Y-80131928D01*
X117005518Y-80144188D01*
X116885820Y-80180498D01*
X116775506Y-80239463D01*
X116678815Y-80318815D01*
X116599463Y-80415506D01*
X116540498Y-80525820D01*
X116504188Y-80645518D01*
X116491928Y-80770000D01*
X116228072Y-80770000D01*
X116215812Y-80645518D01*
X116179502Y-80525820D01*
X116120537Y-80415506D01*
X116041185Y-80318815D01*
X115944494Y-80239463D01*
X115834180Y-80180498D01*
X115714482Y-80144188D01*
X115590000Y-80131928D01*
X114590000Y-80131928D01*
X114465518Y-80144188D01*
X114373784Y-80172015D01*
X114240256Y-80082795D01*
X114051898Y-80004774D01*
X113851939Y-79965000D01*
X113648061Y-79965000D01*
X113448102Y-80004774D01*
X113259744Y-80082795D01*
X113168713Y-80143620D01*
X113050000Y-80131928D01*
X112050000Y-80131928D01*
X111925518Y-80144188D01*
X111861294Y-80163670D01*
X111740256Y-80082795D01*
X111551898Y-80004774D01*
X111351939Y-79965000D01*
X111148061Y-79965000D01*
X110948102Y-80004774D01*
X110759744Y-80082795D01*
X110657440Y-80151152D01*
X110634482Y-80144188D01*
X110510000Y-80131928D01*
X109510000Y-80131928D01*
X109385518Y-80144188D01*
X109348805Y-80155325D01*
X109240256Y-80082795D01*
X109051898Y-80004774D01*
X108851939Y-79965000D01*
X108648061Y-79965000D01*
X108448102Y-80004774D01*
X108259744Y-80082795D01*
X108144950Y-80159497D01*
X108094482Y-80144188D01*
X107970000Y-80131928D01*
X106970000Y-80131928D01*
X106845518Y-80144188D01*
X106836315Y-80146980D01*
X106740256Y-80082795D01*
X106551898Y-80004774D01*
X106351939Y-79965000D01*
X106148061Y-79965000D01*
X105948102Y-80004774D01*
X105759744Y-80082795D01*
X105632461Y-80167843D01*
X105554482Y-80144188D01*
X105430000Y-80131928D01*
X104430000Y-80131928D01*
X104328718Y-80141903D01*
X104240256Y-80082795D01*
X104051898Y-80004774D01*
X103851939Y-79965000D01*
X103648061Y-79965000D01*
X103448102Y-80004774D01*
X103259744Y-80082795D01*
X103119971Y-80176188D01*
X103014482Y-80144188D01*
X102890000Y-80131928D01*
X101890000Y-80131928D01*
X101765518Y-80144188D01*
X101645820Y-80180498D01*
X101640631Y-80183272D01*
X101490256Y-80082795D01*
X101301898Y-80004774D01*
X101101939Y-79965000D01*
X100898061Y-79965000D01*
X100698102Y-80004774D01*
X100509744Y-80082795D01*
X100425136Y-80139328D01*
X100350000Y-80131928D01*
X100135750Y-80135000D01*
X99977000Y-80293750D01*
X99977000Y-80837732D01*
X99965000Y-80898061D01*
X99965000Y-81101939D01*
X99977000Y-81162268D01*
X99977000Y-82143000D01*
X100826250Y-82143000D01*
X100934250Y-82035000D01*
X100960199Y-82035000D01*
X101251928Y-82326730D01*
X101251928Y-83770000D01*
X101264188Y-83894482D01*
X101300498Y-84014180D01*
X101359463Y-84124494D01*
X101433739Y-84215000D01*
X100806261Y-84215000D01*
X100880537Y-84124494D01*
X100939502Y-84014180D01*
X100975812Y-83894482D01*
X100988072Y-83770000D01*
X100985000Y-82555750D01*
X100826250Y-82397000D01*
X99977000Y-82397000D01*
X99977000Y-82417000D01*
X99723000Y-82417000D01*
X99723000Y-82397000D01*
X98873750Y-82397000D01*
X98715000Y-82555750D01*
X98711928Y-83770000D01*
X98724188Y-83894482D01*
X98760498Y-84014180D01*
X98819463Y-84124494D01*
X98893739Y-84215000D01*
X98266261Y-84215000D01*
X98340537Y-84124494D01*
X98399502Y-84014180D01*
X98435812Y-83894482D01*
X98448072Y-83770000D01*
X98448072Y-80770000D01*
X98711928Y-80770000D01*
X98715000Y-81984250D01*
X98873750Y-82143000D01*
X99723000Y-82143000D01*
X99723000Y-80293750D01*
X99564250Y-80135000D01*
X99350000Y-80131928D01*
X99225518Y-80144188D01*
X99105820Y-80180498D01*
X98995506Y-80239463D01*
X98898815Y-80318815D01*
X98819463Y-80415506D01*
X98760498Y-80525820D01*
X98724188Y-80645518D01*
X98711928Y-80770000D01*
X98448072Y-80770000D01*
X98435812Y-80645518D01*
X98399502Y-80525820D01*
X98340537Y-80415506D01*
X98261185Y-80318815D01*
X98164494Y-80239463D01*
X98054180Y-80180498D01*
X97934482Y-80144188D01*
X97810000Y-80131928D01*
X96810000Y-80131928D01*
X96685518Y-80144188D01*
X96614417Y-80165756D01*
X96490256Y-80082795D01*
X96301898Y-80004774D01*
X96101939Y-79965000D01*
X95898061Y-79965000D01*
X95698102Y-80004774D01*
X95509744Y-80082795D01*
X95410562Y-80149066D01*
X95394482Y-80144188D01*
X95270000Y-80131928D01*
X94270000Y-80131928D01*
X94145518Y-80144188D01*
X94101927Y-80157411D01*
X93990256Y-80082795D01*
X93801898Y-80004774D01*
X93601939Y-79965000D01*
X93398061Y-79965000D01*
X93198102Y-80004774D01*
X93009744Y-80082795D01*
X92898073Y-80157411D01*
X92854482Y-80144188D01*
X92730000Y-80131928D01*
X91730000Y-80131928D01*
X91605518Y-80144188D01*
X91589438Y-80149066D01*
X91490256Y-80082795D01*
X91301898Y-80004774D01*
X91101939Y-79965000D01*
X90898061Y-79965000D01*
X90698102Y-80004774D01*
X90509744Y-80082795D01*
X90385583Y-80165756D01*
X90314482Y-80144188D01*
X90190000Y-80131928D01*
X89190000Y-80131928D01*
X89080002Y-80142761D01*
X88990256Y-80082795D01*
X88801898Y-80004774D01*
X88601939Y-79965000D01*
X88398061Y-79965000D01*
X88198102Y-80004774D01*
X88009744Y-80082795D01*
X87873094Y-80174102D01*
X87774482Y-80144188D01*
X87650000Y-80131928D01*
X86650000Y-80131928D01*
X86574864Y-80139328D01*
X86490256Y-80082795D01*
X86301898Y-80004774D01*
X86101939Y-79965000D01*
X85898061Y-79965000D01*
X85698102Y-80004774D01*
X85509744Y-80082795D01*
X85359369Y-80183272D01*
X85354180Y-80180498D01*
X85234482Y-80144188D01*
X85110000Y-80131928D01*
X84110000Y-80131928D01*
X83985518Y-80144188D01*
X83880029Y-80176188D01*
X83740256Y-80082795D01*
X83551898Y-80004774D01*
X83351939Y-79965000D01*
X83148061Y-79965000D01*
X82948102Y-80004774D01*
X82759744Y-80082795D01*
X82671282Y-80141903D01*
X82570000Y-80131928D01*
X81570000Y-80131928D01*
X81445518Y-80144188D01*
X81367539Y-80167843D01*
X81240256Y-80082795D01*
X81051898Y-80004774D01*
X80851939Y-79965000D01*
X80648061Y-79965000D01*
X80448102Y-80004774D01*
X80259744Y-80082795D01*
X80163685Y-80146980D01*
X80154482Y-80144188D01*
X80030000Y-80131928D01*
X79815750Y-80135000D01*
X79657000Y-80293750D01*
X79657000Y-82143000D01*
X80506250Y-82143000D01*
X80619860Y-82029390D01*
X80648061Y-82035000D01*
X80710199Y-82035000D01*
X80931928Y-82256730D01*
X80931928Y-83770000D01*
X80944188Y-83894482D01*
X80980498Y-84014180D01*
X81039463Y-84124494D01*
X81118815Y-84221185D01*
X81215506Y-84300537D01*
X81325820Y-84359502D01*
X81445518Y-84395812D01*
X81570000Y-84408072D01*
X82570000Y-84408072D01*
X82694482Y-84395812D01*
X82814180Y-84359502D01*
X82924494Y-84300537D01*
X83021185Y-84221185D01*
X83100537Y-84124494D01*
X83159502Y-84014180D01*
X83195812Y-83894482D01*
X83208072Y-83770000D01*
X83208072Y-82035000D01*
X83300199Y-82035000D01*
X83471928Y-82206730D01*
X83471928Y-83770000D01*
X83484188Y-83894482D01*
X83520498Y-84014180D01*
X83579463Y-84124494D01*
X83658815Y-84221185D01*
X83755506Y-84300537D01*
X83865820Y-84359502D01*
X83985518Y-84395812D01*
X84110000Y-84408072D01*
X85110000Y-84408072D01*
X85234482Y-84395812D01*
X85354180Y-84359502D01*
X85464494Y-84300537D01*
X85561185Y-84221185D01*
X85640537Y-84124494D01*
X85699502Y-84014180D01*
X85735812Y-83894482D01*
X85748072Y-83770000D01*
X85748072Y-82005166D01*
X85898061Y-82035000D01*
X85960199Y-82035000D01*
X86011928Y-82086729D01*
X86011928Y-83770000D01*
X86024188Y-83894482D01*
X86060498Y-84014180D01*
X86119463Y-84124494D01*
X86198815Y-84221185D01*
X86295506Y-84300537D01*
X86405820Y-84359502D01*
X86525518Y-84395812D01*
X86650000Y-84408072D01*
X87650000Y-84408072D01*
X87774482Y-84395812D01*
X87894180Y-84359502D01*
X88004494Y-84300537D01*
X88101185Y-84221185D01*
X88180537Y-84124494D01*
X88239502Y-84014180D01*
X88275812Y-83894482D01*
X88288072Y-83770000D01*
X88288072Y-82013122D01*
X88375763Y-82030565D01*
X88551928Y-82206729D01*
X88551928Y-83770000D01*
X88564188Y-83894482D01*
X88600498Y-84014180D01*
X88659463Y-84124494D01*
X88705000Y-84179981D01*
X88705000Y-84341620D01*
X88700235Y-84390000D01*
X88705000Y-84438379D01*
X88719253Y-84583093D01*
X88775576Y-84768766D01*
X88867040Y-84939884D01*
X88990130Y-85089870D01*
X89027715Y-85120715D01*
X89769288Y-85862289D01*
X89800130Y-85899870D01*
X89950116Y-86022960D01*
X90094003Y-86099869D01*
X90121233Y-86114424D01*
X90306906Y-86170747D01*
X90500000Y-86189765D01*
X90548380Y-86185000D01*
X107292000Y-86185000D01*
X108715000Y-87608001D01*
X108715000Y-87846260D01*
X108772068Y-88133158D01*
X108884010Y-88403411D01*
X109046525Y-88646632D01*
X109253368Y-88853475D01*
X109496589Y-89015990D01*
X109766842Y-89127932D01*
X110053740Y-89185000D01*
X110346260Y-89185000D01*
X110633158Y-89127932D01*
X110903411Y-89015990D01*
X111146632Y-88853475D01*
X111353475Y-88646632D01*
X111470000Y-88472240D01*
X111586525Y-88646632D01*
X111793368Y-88853475D01*
X112036589Y-89015990D01*
X112306842Y-89127932D01*
X112593740Y-89185000D01*
X112886260Y-89185000D01*
X113173158Y-89127932D01*
X113443411Y-89015990D01*
X113686632Y-88853475D01*
X113893475Y-88646632D01*
X114010000Y-88472240D01*
X114126525Y-88646632D01*
X114333368Y-88853475D01*
X114576589Y-89015990D01*
X114846842Y-89127932D01*
X115133740Y-89185000D01*
X115426260Y-89185000D01*
X115713158Y-89127932D01*
X115983411Y-89015990D01*
X116226632Y-88853475D01*
X116433475Y-88646632D01*
X116550000Y-88472240D01*
X116666525Y-88646632D01*
X116873368Y-88853475D01*
X117116589Y-89015990D01*
X117386842Y-89127932D01*
X117673740Y-89185000D01*
X117966260Y-89185000D01*
X118253158Y-89127932D01*
X118523411Y-89015990D01*
X118766632Y-88853475D01*
X118973475Y-88646632D01*
X119090000Y-88472240D01*
X119206525Y-88646632D01*
X119413368Y-88853475D01*
X119656589Y-89015990D01*
X119926842Y-89127932D01*
X120213740Y-89185000D01*
X120506260Y-89185000D01*
X120793158Y-89127932D01*
X121063411Y-89015990D01*
X121306632Y-88853475D01*
X121438487Y-88721620D01*
X121460498Y-88794180D01*
X121519463Y-88904494D01*
X121598815Y-89001185D01*
X121695506Y-89080537D01*
X121805820Y-89139502D01*
X121925518Y-89175812D01*
X122050000Y-89188072D01*
X123560350Y-89188072D01*
X123333422Y-89415000D01*
X74866579Y-89415000D01*
X73950487Y-88498909D01*
X74034637Y-88414759D01*
X74191680Y-88179727D01*
X74299853Y-87918574D01*
X74355000Y-87641335D01*
X74355000Y-87358665D01*
X74300564Y-87085000D01*
X74492000Y-87085000D01*
X75015000Y-87608001D01*
X75015000Y-87846260D01*
X75072068Y-88133158D01*
X75184010Y-88403411D01*
X75346525Y-88646632D01*
X75553368Y-88853475D01*
X75796589Y-89015990D01*
X76066842Y-89127932D01*
X76353740Y-89185000D01*
X76646260Y-89185000D01*
X76933158Y-89127932D01*
X77203411Y-89015990D01*
X77446632Y-88853475D01*
X77653475Y-88646632D01*
X77770000Y-88472240D01*
X77886525Y-88646632D01*
X78093368Y-88853475D01*
X78336589Y-89015990D01*
X78606842Y-89127932D01*
X78893740Y-89185000D01*
X79186260Y-89185000D01*
X79473158Y-89127932D01*
X79743411Y-89015990D01*
X79986632Y-88853475D01*
X80193475Y-88646632D01*
X80310000Y-88472240D01*
X80426525Y-88646632D01*
X80633368Y-88853475D01*
X80876589Y-89015990D01*
X81146842Y-89127932D01*
X81433740Y-89185000D01*
X81726260Y-89185000D01*
X82013158Y-89127932D01*
X82283411Y-89015990D01*
X82526632Y-88853475D01*
X82733475Y-88646632D01*
X82850000Y-88472240D01*
X82966525Y-88646632D01*
X83173368Y-88853475D01*
X83416589Y-89015990D01*
X83686842Y-89127932D01*
X83973740Y-89185000D01*
X84266260Y-89185000D01*
X84553158Y-89127932D01*
X84823411Y-89015990D01*
X85066632Y-88853475D01*
X85273475Y-88646632D01*
X85390000Y-88472240D01*
X85506525Y-88646632D01*
X85713368Y-88853475D01*
X85956589Y-89015990D01*
X86226842Y-89127932D01*
X86513740Y-89185000D01*
X86806260Y-89185000D01*
X87093158Y-89127932D01*
X87363411Y-89015990D01*
X87606632Y-88853475D01*
X87738487Y-88721620D01*
X87760498Y-88794180D01*
X87819463Y-88904494D01*
X87898815Y-89001185D01*
X87995506Y-89080537D01*
X88105820Y-89139502D01*
X88225518Y-89175812D01*
X88350000Y-89188072D01*
X90050000Y-89188072D01*
X90174482Y-89175812D01*
X90294180Y-89139502D01*
X90404494Y-89080537D01*
X90501185Y-89001185D01*
X90580537Y-88904494D01*
X90639502Y-88794180D01*
X90675812Y-88674482D01*
X90688072Y-88550000D01*
X90688072Y-88056891D01*
X91958519Y-88056891D01*
X92055843Y-88331252D01*
X92204822Y-88581355D01*
X92399731Y-88797588D01*
X92633080Y-88971641D01*
X92895901Y-89096825D01*
X93043110Y-89141476D01*
X93273000Y-89020155D01*
X93273000Y-87827000D01*
X93527000Y-87827000D01*
X93527000Y-89020155D01*
X93756890Y-89141476D01*
X93904099Y-89096825D01*
X94166920Y-88971641D01*
X94400269Y-88797588D01*
X94595178Y-88581355D01*
X94670000Y-88455745D01*
X94744822Y-88581355D01*
X94939731Y-88797588D01*
X95173080Y-88971641D01*
X95435901Y-89096825D01*
X95583110Y-89141476D01*
X95813000Y-89020155D01*
X95813000Y-87827000D01*
X96067000Y-87827000D01*
X96067000Y-89020155D01*
X96296890Y-89141476D01*
X96444099Y-89096825D01*
X96706920Y-88971641D01*
X96940269Y-88797588D01*
X97135178Y-88581355D01*
X97210000Y-88455745D01*
X97284822Y-88581355D01*
X97479731Y-88797588D01*
X97713080Y-88971641D01*
X97975901Y-89096825D01*
X98123110Y-89141476D01*
X98353000Y-89020155D01*
X98353000Y-87827000D01*
X98607000Y-87827000D01*
X98607000Y-89020155D01*
X98836890Y-89141476D01*
X98984099Y-89096825D01*
X99246920Y-88971641D01*
X99480269Y-88797588D01*
X99675178Y-88581355D01*
X99750000Y-88455745D01*
X99824822Y-88581355D01*
X100019731Y-88797588D01*
X100253080Y-88971641D01*
X100515901Y-89096825D01*
X100663110Y-89141476D01*
X100893000Y-89020155D01*
X100893000Y-87827000D01*
X101147000Y-87827000D01*
X101147000Y-89020155D01*
X101376890Y-89141476D01*
X101524099Y-89096825D01*
X101786920Y-88971641D01*
X102020269Y-88797588D01*
X102215178Y-88581355D01*
X102290000Y-88455745D01*
X102364822Y-88581355D01*
X102559731Y-88797588D01*
X102793080Y-88971641D01*
X103055901Y-89096825D01*
X103203110Y-89141476D01*
X103433000Y-89020155D01*
X103433000Y-87827000D01*
X103687000Y-87827000D01*
X103687000Y-89020155D01*
X103916890Y-89141476D01*
X104064099Y-89096825D01*
X104326920Y-88971641D01*
X104560269Y-88797588D01*
X104636034Y-88713534D01*
X104660498Y-88794180D01*
X104719463Y-88904494D01*
X104798815Y-89001185D01*
X104895506Y-89080537D01*
X105005820Y-89139502D01*
X105125518Y-89175812D01*
X105250000Y-89188072D01*
X105814250Y-89185000D01*
X105973000Y-89026250D01*
X105973000Y-87827000D01*
X106227000Y-87827000D01*
X106227000Y-89026250D01*
X106385750Y-89185000D01*
X106950000Y-89188072D01*
X107074482Y-89175812D01*
X107194180Y-89139502D01*
X107304494Y-89080537D01*
X107401185Y-89001185D01*
X107480537Y-88904494D01*
X107539502Y-88794180D01*
X107575812Y-88674482D01*
X107588072Y-88550000D01*
X107585000Y-87985750D01*
X107426250Y-87827000D01*
X106227000Y-87827000D01*
X105973000Y-87827000D01*
X103687000Y-87827000D01*
X103433000Y-87827000D01*
X101147000Y-87827000D01*
X100893000Y-87827000D01*
X98607000Y-87827000D01*
X98353000Y-87827000D01*
X96067000Y-87827000D01*
X95813000Y-87827000D01*
X93527000Y-87827000D01*
X93273000Y-87827000D01*
X92079186Y-87827000D01*
X91958519Y-88056891D01*
X90688072Y-88056891D01*
X90688072Y-87343109D01*
X91958519Y-87343109D01*
X92079186Y-87573000D01*
X93273000Y-87573000D01*
X93273000Y-86379845D01*
X93527000Y-86379845D01*
X93527000Y-87573000D01*
X95813000Y-87573000D01*
X95813000Y-86379845D01*
X96067000Y-86379845D01*
X96067000Y-87573000D01*
X98353000Y-87573000D01*
X98353000Y-86379845D01*
X98607000Y-86379845D01*
X98607000Y-87573000D01*
X100893000Y-87573000D01*
X100893000Y-86379845D01*
X101147000Y-86379845D01*
X101147000Y-87573000D01*
X103433000Y-87573000D01*
X103433000Y-86379845D01*
X103687000Y-86379845D01*
X103687000Y-87573000D01*
X105973000Y-87573000D01*
X105973000Y-86373750D01*
X106227000Y-86373750D01*
X106227000Y-87573000D01*
X107426250Y-87573000D01*
X107585000Y-87414250D01*
X107588072Y-86850000D01*
X107575812Y-86725518D01*
X107539502Y-86605820D01*
X107480537Y-86495506D01*
X107401185Y-86398815D01*
X107304494Y-86319463D01*
X107194180Y-86260498D01*
X107074482Y-86224188D01*
X106950000Y-86211928D01*
X106385750Y-86215000D01*
X106227000Y-86373750D01*
X105973000Y-86373750D01*
X105814250Y-86215000D01*
X105250000Y-86211928D01*
X105125518Y-86224188D01*
X105005820Y-86260498D01*
X104895506Y-86319463D01*
X104798815Y-86398815D01*
X104719463Y-86495506D01*
X104660498Y-86605820D01*
X104636034Y-86686466D01*
X104560269Y-86602412D01*
X104326920Y-86428359D01*
X104064099Y-86303175D01*
X103916890Y-86258524D01*
X103687000Y-86379845D01*
X103433000Y-86379845D01*
X103203110Y-86258524D01*
X103055901Y-86303175D01*
X102793080Y-86428359D01*
X102559731Y-86602412D01*
X102364822Y-86818645D01*
X102290000Y-86944255D01*
X102215178Y-86818645D01*
X102020269Y-86602412D01*
X101786920Y-86428359D01*
X101524099Y-86303175D01*
X101376890Y-86258524D01*
X101147000Y-86379845D01*
X100893000Y-86379845D01*
X100663110Y-86258524D01*
X100515901Y-86303175D01*
X100253080Y-86428359D01*
X100019731Y-86602412D01*
X99824822Y-86818645D01*
X99750000Y-86944255D01*
X99675178Y-86818645D01*
X99480269Y-86602412D01*
X99246920Y-86428359D01*
X98984099Y-86303175D01*
X98836890Y-86258524D01*
X98607000Y-86379845D01*
X98353000Y-86379845D01*
X98123110Y-86258524D01*
X97975901Y-86303175D01*
X97713080Y-86428359D01*
X97479731Y-86602412D01*
X97284822Y-86818645D01*
X97210000Y-86944255D01*
X97135178Y-86818645D01*
X96940269Y-86602412D01*
X96706920Y-86428359D01*
X96444099Y-86303175D01*
X96296890Y-86258524D01*
X96067000Y-86379845D01*
X95813000Y-86379845D01*
X95583110Y-86258524D01*
X95435901Y-86303175D01*
X95173080Y-86428359D01*
X94939731Y-86602412D01*
X94744822Y-86818645D01*
X94670000Y-86944255D01*
X94595178Y-86818645D01*
X94400269Y-86602412D01*
X94166920Y-86428359D01*
X93904099Y-86303175D01*
X93756890Y-86258524D01*
X93527000Y-86379845D01*
X93273000Y-86379845D01*
X93043110Y-86258524D01*
X92895901Y-86303175D01*
X92633080Y-86428359D01*
X92399731Y-86602412D01*
X92204822Y-86818645D01*
X92055843Y-87068748D01*
X91958519Y-87343109D01*
X90688072Y-87343109D01*
X90688072Y-86850000D01*
X90675812Y-86725518D01*
X90639502Y-86605820D01*
X90580537Y-86495506D01*
X90501185Y-86398815D01*
X90404494Y-86319463D01*
X90294180Y-86260498D01*
X90174482Y-86224188D01*
X90050000Y-86211928D01*
X88350000Y-86211928D01*
X88225518Y-86224188D01*
X88105820Y-86260498D01*
X87995506Y-86319463D01*
X87898815Y-86398815D01*
X87819463Y-86495506D01*
X87760498Y-86605820D01*
X87738487Y-86678380D01*
X87606632Y-86546525D01*
X87363411Y-86384010D01*
X87093158Y-86272068D01*
X86806260Y-86215000D01*
X86513740Y-86215000D01*
X86226842Y-86272068D01*
X85956589Y-86384010D01*
X85713368Y-86546525D01*
X85506525Y-86753368D01*
X85390000Y-86927760D01*
X85273475Y-86753368D01*
X85066632Y-86546525D01*
X84823411Y-86384010D01*
X84553158Y-86272068D01*
X84266260Y-86215000D01*
X83973740Y-86215000D01*
X83686842Y-86272068D01*
X83416589Y-86384010D01*
X83173368Y-86546525D01*
X82966525Y-86753368D01*
X82850000Y-86927760D01*
X82733475Y-86753368D01*
X82526632Y-86546525D01*
X82283411Y-86384010D01*
X82013158Y-86272068D01*
X81726260Y-86215000D01*
X81433740Y-86215000D01*
X81146842Y-86272068D01*
X80876589Y-86384010D01*
X80633368Y-86546525D01*
X80426525Y-86753368D01*
X80310000Y-86927760D01*
X80193475Y-86753368D01*
X79986632Y-86546525D01*
X79743411Y-86384010D01*
X79473158Y-86272068D01*
X79186260Y-86215000D01*
X78893740Y-86215000D01*
X78606842Y-86272068D01*
X78336589Y-86384010D01*
X78093368Y-86546525D01*
X77886525Y-86753368D01*
X77770000Y-86927760D01*
X77653475Y-86753368D01*
X77446632Y-86546525D01*
X77203411Y-86384010D01*
X76933158Y-86272068D01*
X76646260Y-86215000D01*
X76408001Y-86215000D01*
X75630716Y-85437715D01*
X75599870Y-85400130D01*
X75449884Y-85277040D01*
X75278767Y-85185576D01*
X75093094Y-85129253D01*
X74948380Y-85115000D01*
X74900000Y-85110235D01*
X74851620Y-85115000D01*
X67808001Y-85115000D01*
X66985000Y-84292000D01*
X66985000Y-80898061D01*
X67215000Y-80898061D01*
X67215000Y-81101939D01*
X67254774Y-81301898D01*
X67332795Y-81490256D01*
X67446063Y-81659774D01*
X67590226Y-81803937D01*
X67759744Y-81917205D01*
X67948102Y-81995226D01*
X68038382Y-82013184D01*
X68231928Y-82206729D01*
X68231928Y-83770000D01*
X68244188Y-83894482D01*
X68280498Y-84014180D01*
X68339463Y-84124494D01*
X68418815Y-84221185D01*
X68515506Y-84300537D01*
X68625820Y-84359502D01*
X68745518Y-84395812D01*
X68870000Y-84408072D01*
X69870000Y-84408072D01*
X69994482Y-84395812D01*
X70114180Y-84359502D01*
X70224494Y-84300537D01*
X70321185Y-84221185D01*
X70400537Y-84124494D01*
X70459502Y-84014180D01*
X70495812Y-83894482D01*
X70508072Y-83770000D01*
X70508072Y-82007155D01*
X70648061Y-82035000D01*
X70710199Y-82035000D01*
X70771928Y-82096729D01*
X70771928Y-83770000D01*
X70784188Y-83894482D01*
X70820498Y-84014180D01*
X70879463Y-84124494D01*
X70958815Y-84221185D01*
X71055506Y-84300537D01*
X71165820Y-84359502D01*
X71285518Y-84395812D01*
X71410000Y-84408072D01*
X72410000Y-84408072D01*
X72534482Y-84395812D01*
X72654180Y-84359502D01*
X72764494Y-84300537D01*
X72861185Y-84221185D01*
X72940537Y-84124494D01*
X72999502Y-84014180D01*
X73035812Y-83894482D01*
X73048072Y-83770000D01*
X73048072Y-82015111D01*
X73138246Y-82033048D01*
X73311928Y-82206729D01*
X73311928Y-83770000D01*
X73324188Y-83894482D01*
X73360498Y-84014180D01*
X73419463Y-84124494D01*
X73498815Y-84221185D01*
X73595506Y-84300537D01*
X73705820Y-84359502D01*
X73825518Y-84395812D01*
X73950000Y-84408072D01*
X74950000Y-84408072D01*
X75074482Y-84395812D01*
X75194180Y-84359502D01*
X75304494Y-84300537D01*
X75401185Y-84221185D01*
X75480537Y-84124494D01*
X75539502Y-84014180D01*
X75575812Y-83894482D01*
X75588072Y-83770000D01*
X75588072Y-82023068D01*
X75648061Y-82035000D01*
X75710199Y-82035000D01*
X75851928Y-82176730D01*
X75851928Y-83770000D01*
X75864188Y-83894482D01*
X75900498Y-84014180D01*
X75959463Y-84124494D01*
X76038815Y-84221185D01*
X76135506Y-84300537D01*
X76245820Y-84359502D01*
X76365518Y-84395812D01*
X76490000Y-84408072D01*
X77490000Y-84408072D01*
X77614482Y-84395812D01*
X77734180Y-84359502D01*
X77844494Y-84300537D01*
X77941185Y-84221185D01*
X78020537Y-84124494D01*
X78079502Y-84014180D01*
X78115812Y-83894482D01*
X78128072Y-83770000D01*
X78391928Y-83770000D01*
X78404188Y-83894482D01*
X78440498Y-84014180D01*
X78499463Y-84124494D01*
X78578815Y-84221185D01*
X78675506Y-84300537D01*
X78785820Y-84359502D01*
X78905518Y-84395812D01*
X79030000Y-84408072D01*
X79244250Y-84405000D01*
X79403000Y-84246250D01*
X79403000Y-82397000D01*
X79657000Y-82397000D01*
X79657000Y-84246250D01*
X79815750Y-84405000D01*
X80030000Y-84408072D01*
X80154482Y-84395812D01*
X80274180Y-84359502D01*
X80384494Y-84300537D01*
X80481185Y-84221185D01*
X80560537Y-84124494D01*
X80619502Y-84014180D01*
X80655812Y-83894482D01*
X80668072Y-83770000D01*
X80665000Y-82555750D01*
X80506250Y-82397000D01*
X79657000Y-82397000D01*
X79403000Y-82397000D01*
X78553750Y-82397000D01*
X78395000Y-82555750D01*
X78391928Y-83770000D01*
X78128072Y-83770000D01*
X78128072Y-80770000D01*
X78391928Y-80770000D01*
X78395000Y-81984250D01*
X78553750Y-82143000D01*
X79403000Y-82143000D01*
X79403000Y-80293750D01*
X79244250Y-80135000D01*
X79030000Y-80131928D01*
X78905518Y-80144188D01*
X78785820Y-80180498D01*
X78675506Y-80239463D01*
X78578815Y-80318815D01*
X78499463Y-80415506D01*
X78440498Y-80525820D01*
X78404188Y-80645518D01*
X78391928Y-80770000D01*
X78128072Y-80770000D01*
X78115812Y-80645518D01*
X78079502Y-80525820D01*
X78020537Y-80415506D01*
X77941185Y-80318815D01*
X77844494Y-80239463D01*
X77734180Y-80180498D01*
X77614482Y-80144188D01*
X77490000Y-80131928D01*
X76490000Y-80131928D01*
X76365518Y-80144188D01*
X76342560Y-80151152D01*
X76240256Y-80082795D01*
X76051898Y-80004774D01*
X75851939Y-79965000D01*
X75648061Y-79965000D01*
X75448102Y-80004774D01*
X75259744Y-80082795D01*
X75138706Y-80163670D01*
X75074482Y-80144188D01*
X74950000Y-80131928D01*
X73950000Y-80131928D01*
X73831287Y-80143620D01*
X73740256Y-80082795D01*
X73551898Y-80004774D01*
X73351939Y-79965000D01*
X73148061Y-79965000D01*
X72948102Y-80004774D01*
X72759744Y-80082795D01*
X72626216Y-80172015D01*
X72534482Y-80144188D01*
X72410000Y-80131928D01*
X71410000Y-80131928D01*
X71326148Y-80140186D01*
X71240256Y-80082795D01*
X71051898Y-80004774D01*
X70851939Y-79965000D01*
X70648061Y-79965000D01*
X70448102Y-80004774D01*
X70259744Y-80082795D01*
X70113727Y-80180360D01*
X69994482Y-80144188D01*
X69870000Y-80131928D01*
X68870000Y-80131928D01*
X68821010Y-80136753D01*
X68740256Y-80082795D01*
X68551898Y-80004774D01*
X68351939Y-79965000D01*
X68148061Y-79965000D01*
X67948102Y-80004774D01*
X67759744Y-80082795D01*
X67590226Y-80196063D01*
X67446063Y-80340226D01*
X67332795Y-80509744D01*
X67254774Y-80698102D01*
X67215000Y-80898061D01*
X66985000Y-80898061D01*
X66985000Y-80408000D01*
X67864647Y-79528353D01*
X67898061Y-79535000D01*
X68101939Y-79535000D01*
X68301898Y-79495226D01*
X68490256Y-79417205D01*
X68557012Y-79372600D01*
X68645297Y-79325410D01*
X68745518Y-79355812D01*
X68870000Y-79368072D01*
X69870000Y-79368072D01*
X69994482Y-79355812D01*
X70113725Y-79319640D01*
X70259742Y-79417205D01*
X70448100Y-79495226D01*
X70648059Y-79535000D01*
X70851937Y-79535000D01*
X71051896Y-79495226D01*
X71240254Y-79417205D01*
X71326147Y-79359813D01*
X71410000Y-79368072D01*
X72410000Y-79368072D01*
X72534482Y-79355812D01*
X72654180Y-79319502D01*
X72764494Y-79260537D01*
X72861185Y-79181185D01*
X72940537Y-79084494D01*
X72999502Y-78974180D01*
X73035812Y-78854482D01*
X73048072Y-78730000D01*
X73311928Y-78730000D01*
X73324188Y-78854482D01*
X73360498Y-78974180D01*
X73419463Y-79084494D01*
X73498815Y-79181185D01*
X73595506Y-79260537D01*
X73705820Y-79319502D01*
X73825518Y-79355812D01*
X73950000Y-79368072D01*
X74164250Y-79365000D01*
X74323000Y-79206250D01*
X74323000Y-77357000D01*
X73473750Y-77357000D01*
X73315000Y-77515750D01*
X73311928Y-78730000D01*
X73048072Y-78730000D01*
X73048072Y-75730000D01*
X73035812Y-75605518D01*
X72999502Y-75485820D01*
X72940537Y-75375506D01*
X72861185Y-75278815D01*
X72764494Y-75199463D01*
X72654180Y-75140498D01*
X72553642Y-75110000D01*
X73806358Y-75110000D01*
X73705820Y-75140498D01*
G37*
%TD.AperFunction*%
%TD*%
M02*
